<svg width="735" height="479" viewBox="0 0 735 479" fill="none" xmlns="http://www.w3.org/2000/svg">
<path d="M4.45123 415.237C9.63539 412.577 16.8998 411.479 22.4689 411.226C24.2139 411.142 24.082 413.422 25.3206 413.45C27.7421 413.499 29.3743 411.829 31.7663 412.01C32.5651 412.078 32.8531 415.546 33.6702 415.542C38.1548 415.491 41.509 413.273 45.5222 412.342C47.3752 411.912 49.1887 411.444 50.9581 410.94C63.9874 407.241 76.1045 400.764 86.8584 392.399C90.1752 389.821 93.2702 387.133 96.1466 384.296C99.3325 381.169 103.717 378.059 106.831 373.758C108.018 372.133 108.958 370.43 109.476 368.665C109.689 367.925 106.87 366.949 106.721 366.711C104.388 363.124 109.36 366.466 110.706 365.511C116.021 361.732 118.372 355.51 118.502 349.456C118.553 346.862 112.299 348.165 116.025 346.34C116.278 346.205 119.221 347.46 119.687 346.823C120.744 345.378 120.738 342.117 121.191 340.826C121.517 339.925 121.727 339.291 121.884 338.725C122.193 337.517 122.338 336.607 122.691 334.796C123.48 330.917 125.94 326.931 126.117 322.947C126.146 322.092 122.77 322.464 122.536 321.035C122.304 319.597 123.367 316.237 124.373 315.271C125.379 314.303 127.719 315.368 128.33 315.299C133.47 314.76 127.812 309.33 127.765 308.8C127.367 302.726 129.372 297.867 131.233 293.187C132.356 290.32 133.456 287.443 133.992 284.397C135.086 278.162 134.759 271.442 135.444 265.763C135.827 262.677 136.379 260.052 136.951 256.734C137.742 251.668 138.91 247.673 139.402 243.606C139.502 242.828 135.63 243.113 135.745 242.169C136.239 238.128 136.798 234.432 137.484 230.743C138.699 224.048 140.521 218.47 142.969 212.938C143.384 212.015 146.446 213.802 147.057 212.909C148.755 210.371 151.364 207.224 152.237 204.033C153.254 200.301 151.982 196.457 144.527 193.61C145.568 189.57 146.793 184.348 150.241 180.897C152.461 178.684 155.665 181.627 154.607 178.372C154.375 177.638 151.111 178.04 151.004 176.96C150.844 175.338 150.982 173.703 151.193 172.071C151.573 169.13 152.179 166.257 151.679 163.378C151.514 162.466 148.69 162.145 148.238 161.805C144.592 158.964 151.958 157.009 152.589 156.397C157.323 151.689 156.706 147.472 157.725 142.575C157.961 141.445 153.971 142.082 154.061 140.974C154.314 138.13 154.746 135.331 155.354 132.722C155.971 130.059 156.786 127.466 157.871 124.898C158.359 123.762 161.491 125.127 161.889 124.592C163.599 122.165 157.53 121.177 158.982 118.885C159.278 118.394 162.034 118.817 162.343 118.739C167.195 117.477 160.467 115.888 160.329 115.525C158.432 110.725 165.461 107.659 164.468 102.514C164.344 101.887 160.826 103.295 160.694 101.517C160.543 99.4231 160.461 97.1848 160.615 94.5482C161.027 85.6174 164.511 75.032 171.141 67.6383C172.784 65.7949 174.508 64.1704 176.267 62.7243C177.837 61.444 179.012 64.2025 179.348 64.3011C184.488 66.0072 180.045 60.7541 180.288 60.0803C182.213 55.0613 189.335 56.056 186.122 47.9456C190.676 44.6968 194.93 41.3784 199.203 38.1004C205.616 33.1406 212.571 28.0717 220.074 24.5988C225.832 21.9308 231.726 20.1325 237.954 19.3969C238.196 19.3602 239.439 22.5003 239.918 22.4131C245.678 21.3768 242.323 17.2739 241.869 10.1255C241.696 8.37038 247.876 13.5253 248.422 13.8231C250.277 15.0701 252.386 19.6696 252.849 19.8396C253.71 20.101 253.911 19.6268 253.691 18.7444C253.027 15.6387 247.486 7.13755 251.375 4.94809C251.53 4.89619 252.359 7.89595 252.885 7.956C254.471 8.17871 255.176 6.52924 256.75 7.02997C260.414 8.24909 263.032 15.8195 265.202 10.5673C265.494 9.9045 262.965 0.806561 266.743 0.618214C268.276 0.518138 274.232 -0.336301 275.868 0.147113C277.531 0.602995 276.696 3.70599 276.824 3.82519C280.468 6.66278 280.252 8.39244 281.296 11.7914C281.563 12.702 281.91 13.7343 282.431 14.9447C284.857 20.6688 283.373 6.72028 284.152 5.10268C284.923 3.48769 288.207 6.60895 288.996 7.72075C289.806 8.82871 288.949 10.7847 289.649 11.401C294.192 15.4417 291.286 4.36756 292.674 2.08599C295.988 -3.30694 298.987 7.01511 302.118 7.96669C302.969 8.22415 302.228 5.87077 302.981 5.63402C305.964 4.73048 307.803 7.94702 311.171 4.93702C311.717 4.44604 314.442 -1.82855 316.251 2.75228C316.506 3.41279 315.802 6.00657 317.078 6.58198C318.981 7.44486 322.399 8.01118 324.443 7.15426C325.954 6.51995 324.243 2.24236 326.139 3.57817C326.982 4.17526 325.401 6.66363 326.982 7.57739C328.549 8.48919 332.573 8.41983 334.109 8.35705C335.635 8.29056 334.848 5.04056 334.974 4.82411C335.745 3.58406 338.727 2.07393 338.988 2.08401C341.986 2.05178 344.929 2.3366 347.834 2.78876C357.844 4.34676 367.172 7.8726 377.416 8.00036C378.469 8.02324 378.305 4.543 378.471 4.51169C382.274 3.67465 378.036 12.1809 379.885 15.5792C380.735 8.69515 381.951 10.1658 384.543 9.90796C385.792 9.78095 385.693 7.0236 385.853 6.7756C387.865 3.98597 388.434 6.56312 388.585 8.39999C388.632 8.95095 388.648 9.43681 388.665 9.69493C388.929 13.8115 391.186 9.52533 391.356 12.2825C391.518 15.0184 388.906 18.4106 391.159 18.8844C392.359 16.6179 392.155 9.91026 394.123 9.29381C401.681 6.95238 412.485 15.1476 417.374 17.0028C422.301 18.8536 423.996 18.7985 426.681 20.3378C430.714 22.6015 430.753 19.4038 432.57 17.3548C432.947 16.9334 433.398 16.5549 433.971 16.2677C437.329 14.5456 434.232 26.0411 434.342 28.63C434.494 31.2173 435.373 28.692 435.81 30.1537C436.262 31.6158 434.699 33.1714 436.116 33.8681C437.577 34.5828 441.996 30.4215 442.647 27.7885C444.085 22.2341 442.808 16.2406 446.204 18.5181C446.405 18.652 445.568 21.725 446.349 22.08C452.583 24.7991 459.441 24.8915 466.058 26.9805C466.97 27.2737 466.168 30.7383 466.696 30.9482C467.173 31.1395 467.597 31.2704 467.967 31.3457C471.806 32.18 470.451 26.7762 473.734 21.0031C472.558 29.5959 473.939 34.8809 477.758 35.3591C480.092 35.6782 480.183 31.8986 482.194 29.5135C482.827 28.7974 484.136 31.6486 484.767 29.9668C486.907 24.4873 486.385 17.7243 490.527 21.2454C490.699 21.4095 489.381 24.3649 490.019 24.7042C493.984 26.9085 496.361 21.3335 500.643 21.7219C500.947 21.7411 501.241 21.8 501.443 21.8693C501.64 21.9404 501.814 22.0197 501.472 22.0579C504.884 23.1873 509.248 26.1978 512.404 27.0765C511.108 36.692 515.2 34.966 517.585 28.5243C520.177 29.1265 523.061 29.1107 525.487 30.3551C526.322 30.7805 525.388 33.4924 525.459 33.8076C526.536 38.747 528.516 32.4425 529.115 32.2637C534.303 30.9482 538.108 34.2323 542.827 33.6676C544.026 33.528 545.288 33.1489 546.666 32.3987C546.901 32.2634 548.414 25.68 549.191 30.8175C549.227 31.1694 546.717 33.8313 549.488 34.5741C552.298 35.3227 556.726 39.9237 561.293 37.8509C562.378 37.3416 566.212 32.6749 567.003 37.3391C567.101 37.9692 566.303 39.7529 566.373 40.8898C566.575 44.5094 569.144 38.1619 568.829 44.114C568.766 45.1952 568.759 46.244 568.816 47.2205C569.079 51.6139 570.916 54.5867 574.916 52.3323C575.069 52.2554 577.437 47.3178 578.581 47.7256C580.414 48.3853 582.79 50.1924 584.77 50.6768C585.721 50.908 585.968 47.5061 586.147 47.49C592.915 47.3349 596.74 51.3011 603.2 54.454C604.013 54.8638 606.629 53.3606 608.675 53.9405C609.438 54.1493 610.045 54.6792 610.481 55.9121C612.364 60.1651 605.953 76.5019 616.524 73.0265C618.578 72.2071 620.259 66.3987 621.38 62.0697C622.609 57.719 623.418 54.9234 627.329 59.355C629.953 57.5862 632.582 56.5461 635.302 55.7726C641.613 53.8442 647.288 50.1843 649.39 44.0193C649.543 43.5937 645.99 38.8094 646.649 38.1684C647.646 37.2141 650.21 38.407 650.994 37.77C652.895 36.274 653.947 34.2072 655.112 32.1974C656.091 30.5262 657.862 29.0426 659.886 28.6932C661.66 28.4317 661.523 31.3098 663.18 31.3337C664.77 31.427 666.371 27.8125 668.655 29.9421C670.366 31.579 670.606 39.3534 672.643 40.7061C674.328 33.4214 675.942 33.9313 679.322 32.7085C679.978 32.471 679.972 29.7944 680.314 29.5517C681.716 28.5071 682.219 30.8466 683.587 29.6733C683.921 29.3929 684.529 26.9129 684.837 26.5437C687.446 23.3044 688.935 29.5588 689.218 30.6502C690.145 34.4501 691.596 32.1944 692.698 33.1897C692.802 33.2788 692.902 33.3939 692.999 33.5413C694.137 35.3598 691.533 36.6386 692.941 37.9298C695.737 40.5981 699.989 41.7812 703.314 43.2473C704.637 43.8156 705.008 40.2893 705.227 40.2972C708.356 40.6347 709.757 45.1673 713.933 39.5575C709.053 56.5464 716.276 38.7081 718.869 43.5777C719.07 43.9664 716.354 51.8256 714.655 52.4465C712.951 53.0637 712.099 49.8946 709.693 50.9429C709.12 51.1852 703.85 57.4072 703.372 57.7184C699.597 60.1294 704.033 48.5448 704.157 47.8579C705.513 40.4574 699.622 47.1279 698.758 47.4213C694.681 48.6877 692.57 46.1264 689.995 47.4379C689.767 47.5585 689.543 47.8227 689.33 48.1864C687.443 50.2822 685.8 56.0354 684.474 55.5099C679.448 53.4968 680.296 42.012 673.452 50.4973C672.039 52.3243 670.893 61.1578 669.264 53.6421C669.193 53.1719 668.076 46.409 666.306 50.2224C666.094 50.7038 665.678 53.2586 665.49 53.4489C664.872 54.064 664.573 53.862 664.333 53.6197C664.117 53.3787 663.917 53.1036 663.985 53.5997C664.062 54.0872 664.555 54.7385 665.835 54.8916C667.06 55.0624 669.249 54.5456 670.936 53.0032C672.234 51.8667 672.376 49.1047 671.634 47.3237C670.577 46.8843 669.611 46.4781 669.132 46.3324C665.543 45.2365 668.554 50.282 664.731 48.4108C660.869 46.5525 657.53 40.7928 653.581 41.2852C658.611 45.7504 663.681 50.4412 668.69 54.989C663.926 59.8312 657.882 64.9941 646.707 71.7031C645.243 72.5119 648.482 74.9248 646.795 75.9178C645.833 76.465 644.808 76.937 643.742 77.3348C640.802 78.3441 637.185 77.8589 633.029 80.0944C629.396 82.063 624.62 87.2352 617.857 88.4588C613.889 81.4281 605.577 82.6564 599.75 80.1046C599.664 80.0542 599.577 79.9972 599.491 79.9323C598.848 79.4653 599.498 77.5176 599.095 76.6904C597.389 73.5899 596.584 80.4522 595.639 81.2901C591.471 84.8644 595.128 69.9169 590.95 69.2252C590.735 69.1844 586.017 76.4436 585.519 76.8436C582.317 79.4611 585.842 73.9783 584.498 73.0069C582.044 71.2303 580.629 68.8419 576.731 70.2841C575.603 70.7186 571.911 75.0139 571.083 70.6691C570.975 70.1006 571.849 67.5294 571.694 67.3206C568.838 63.7534 566.369 71.899 563.407 74.0256C562.294 74.8228 561.371 74.3787 560.648 73.4144C559.886 71.9498 559.547 69.0517 559.513 67.9409C559.349 63.3311 561.089 66.4439 561.277 66.0565C563.631 61.4154 561.461 61.6786 560.071 60.8478C562.095 52.7343 559.715 52.6171 558.612 60.0218C558.491 60.8291 559.87 60.3944 560.071 60.8478C556.538 68.375 554.281 68.8586 553.437 60.7955C553.025 57.0213 555.129 53.1809 550.94 53.8453C549.042 54.1572 548.564 59.9319 546.766 61.1738C543.95 63.1392 541.455 60.8751 538.875 59.3989C537.699 58.734 536.496 58.2216 535.291 58.3135C533.869 58.4212 534.763 61.729 533.789 61.9125C531.185 62.4088 529.281 59.768 526.566 60.6303C526.321 60.7127 526.452 64.0549 525.657 63.9926C519.599 63.5833 514.561 60.8252 508.17 59.9643C505.24 59.5713 499.863 60.5496 496.559 59.9698C495.822 59.8667 495.156 59.7397 494.717 59.6401C490.939 58.7242 490.048 57.9275 488.643 57.0329C487.374 56.1489 486.316 55.2246 485.247 54.3797C483.155 52.6977 481.061 51.3569 479.143 51.6379C476.647 52.0062 476.728 55.3684 475.52 57.4757C473.343 61.5735 470.869 53.6249 470.319 52.4101C470.302 52.3633 472.354 51.6844 471.355 49.9408C470.862 46.3871 470.33 52.3956 470.319 52.4101C470.186 52.0174 469.133 51.6012 467.985 51.3969C466.52 51.189 464.911 51.1655 464.38 51.4848C463.805 51.8319 464.142 54.9542 463.841 55.0762C456.703 57.9048 448.582 58.7327 440.043 56.6302C439.896 56.5559 440.384 53.0886 440.041 52.9576C435.292 51.0221 431.664 54.893 426.838 56.6928C426.48 56.8259 426.128 56.9397 425.783 57.0335C421.228 58.1432 418.458 56.309 417.647 50.4146C414.551 50.4563 411.355 46.8742 409.649 44.7533C407.931 42.6292 405.886 49.1212 405.663 49.2008C398.788 51.8115 396.662 47.1961 391.153 45.1853C388.72 44.2827 383.805 43.9655 380.7 44.0197C380.481 44.0268 380.271 44.0355 380.072 44.0458C377.886 44.1863 377.02 42.3924 374.99 43.0665C374.717 43.157 374.446 46.1841 374.35 46.2857C371.749 49.517 373.928 42.3808 373.712 41.0036C372.901 36.0061 372.172 33.2953 368.998 35.1778C368.232 35.6033 365.142 45.9802 363.953 46.4906C362.365 47.1302 363.301 43.3795 361.582 44.1557C361.435 44.2194 361.272 46.5695 360.272 46.3831C356.067 45.6255 351.301 44.1933 346.542 44.0253C346.085 44.009 345.625 44.0036 345.16 44.0105C344.427 44.0127 345.252 47.7766 344.203 47.8423C339.261 48.148 333.791 47.9199 328.918 46.1281C327.716 45.6754 328.493 43.0639 328.237 42.2844C326.659 37.5676 324.326 44.3914 323.955 44.5208C315.006 47.7828 308.042 41.6509 299.112 44.827C298.614 45.0109 295.161 52.4453 293.306 46.2343C293.192 45.8202 291.286 39.4619 290.063 43.9213C289.993 44.2003 291.122 47.4579 289.407 47.2045C287.962 46.9941 285.934 48.6217 284.004 47.1125C283.58 46.8267 283.16 46.4244 282.746 45.8704C281.944 44.7866 279.575 38.5453 278.045 43.8452C277.837 44.2194 276.488 56.0101 274.712 48.2304C274.446 46.9482 273.046 38.6011 272.219 43.153C272.14 44.0243 272.878 45.7938 272.59 47.0541C272.214 48.9632 271.914 46.9101 275.111 49.4702C275.539 50.03 279.891 54.0276 276.843 50.8422C276.837 50.8362 276.832 50.8298 276.825 50.8232C276.083 50.4654 275.093 47.7929 273.782 48.3409C267.576 50.8377 263.931 55.0094 258.838 55.6027C257.06 55.7956 255.606 51.4003 253.565 51.1199C251.519 50.842 248.146 51.3139 247.718 53.9052C247.296 56.4956 252.246 62.075 250.458 63.6976C248.563 65.4264 246.608 66.7373 244.656 67.7953C239.465 70.5997 233.83 71.6142 228.323 75.1642C228.065 75.3275 227.806 75.4986 227.553 75.6726C226.487 76.407 228.937 77.7648 227.518 78.9821C222.008 83.5866 216.318 92.836 210.403 92.0889C209.568 92.0353 208.856 91.8679 208.22 91.6382C206.869 91.0021 205.782 90.234 204.892 89.4846C204.023 88.6797 203.337 87.9255 202.426 87.8885C202.185 87.8488 201.934 87.8566 201.67 87.9248C200.371 88.4176 207.649 92.8111 207.907 92.8919C208.947 93.8807 208.591 94.1257 207.987 94.637C207.395 95.1223 206.594 95.8185 207.031 96.9634C207.215 97.4321 210.661 97.4067 210.786 97.7678C210.884 98.0259 210.891 98.2864 210.842 98.5603C210.7 98.9841 209.743 100.678 209.961 102.509C210.091 103.577 212.704 103.387 212.503 104.43C212.053 106.991 210.963 109.613 208.474 112.496C208.247 112.754 205.023 110.939 204.87 113.129C204.629 116.713 202.051 121.127 204.222 125.557C204.873 126.873 210.829 127.444 206.468 129.854C205.55 130.37 198.508 128.894 204.331 132.713C205.149 133.234 210.674 137.891 208.984 140.591C208.663 141.101 208.081 141.534 207.16 141.826C205.651 142.32 199.586 143.092 200.252 144.66C200.363 144.88 203.659 144.639 203.762 145.884C204.063 150.272 202.914 154.369 203.105 158.53C203.162 159.642 206.732 158.72 206.713 160.356C206.662 164.859 204.76 169.878 202.973 173.558C202.309 174.914 199.807 173.394 199.493 173.44C194.385 174.189 200.648 176.411 200.922 177.02C201.585 178.575 201.397 179.787 200.969 180.882C200.355 182.46 199.235 183.872 199.439 185.691C199.528 186.541 202.712 186.437 202.963 186.641C205.409 188.712 200.036 186.629 199.263 187.61C197.082 190.363 196.889 193.873 196.885 197.291C196.887 198.552 200.66 197.583 200.62 198.713C200.53 202.316 200.124 206.315 199.226 210.44C198.439 214.098 197.328 217.462 195.884 220.542C195.289 221.792 192.667 220.51 191.992 220.678C187.275 221.814 192.833 225.481 193.303 226.183C195.45 229.369 192.833 229.994 192.909 232.345C192.993 234.454 192.949 236.574 192.902 238.287C192.347 247.229 189.701 257.696 189.019 259.775C188.716 261.617 188.363 264.399 187.997 266.782C185.801 281.154 181.888 291.554 179.279 303.064C178.688 305.629 178.149 308.166 177.69 310.747C177.521 311.671 181.359 311.571 181.259 312.382C179.815 322.737 176.004 331.894 175.273 340.662C175.212 341.36 178.865 341.1 178.89 342.224C178.953 344.064 178.542 346.059 177.737 347.287C177.49 347.903 177.209 348.494 176.893 349.062C176.121 350.457 173.45 347.999 172.734 349.403C171.055 352.679 170.12 356.51 169.806 360.578C169.672 362.324 173.769 360.528 173.306 362.779C170.623 376.865 164.481 392.819 154.162 402.843C153.129 403.863 152.037 404.865 150.888 405.837C150.024 406.57 143.43 403.27 143.353 405.855C144.931 407.15 146.901 408.509 148.643 409.811C142.518 419.719 134.228 428.289 125.834 435.163C117.656 441.888 108.924 447.659 100.062 453.146C99.3001 453.617 102.716 456.041 101.228 456.981C93.8205 461.64 86.5957 466.503 77.6788 468.162C76.2895 468.416 74.8691 468.586 73.4146 468.658C72.3591 468.709 70.0579 462.27 67.8947 464.324C67.5112 464.703 63.9832 467.153 63.5252 468.923C63.4693 469.186 65.3744 471.861 64.1369 472.453C56.9303 475.836 49.0877 477.792 41.4613 478.234C40.2296 478.299 40.3807 474.677 39.4981 474.694C33.2697 474.826 27.9456 479.164 21.7723 477.81C17.6469 476.887 17.2593 470.871 13.7349 465.897C13.2371 465.196 11.0395 465.721 9.96206 462.534C7.24609 454.522 5.62847 445.342 2.60988 436.839C1.96294 435.007 -0.32267 437.875 0.0384555 432.87C0.0684667 432.533 1.70923 430.415 1.76234 428.738C1.8022 427.577 0.176546 424.495 0.497599 422.928C0.818314 421.363 2.44067 423.868 3.15933 421.923C3.86722 419.959 2.22494 416.393 4.45123 415.237ZM402.116 35.2901C401.041 31.627 397.727 43.1261 400.495 40.897C400.633 40.7757 402.173 35.4709 402.116 35.2901ZM649.98 58.0872C644.189 56.1589 646.503 63.8991 651.25 65.5063C656.257 66.8087 651.857 58.5447 649.98 58.0872ZM662.761 38.8043C660.143 35.242 668.839 50.2703 664.632 47.9902C664.412 47.8372 662.836 39.0357 662.761 38.8043ZM21.8858 461.708C21.8127 461.564 20.2066 461.893 20.2156 462.055C20.4901 465.944 23.7104 465.281 21.8858 461.708ZM686.54 38.9897C686.143 36.5405 682.843 38.4764 683.335 41.5275C683.735 43.9846 687.063 42.0448 686.54 38.9897ZM302.325 13.8034C302.29 13.6256 301.131 13.4905 301.175 14.4977C301.333 17.7403 302.907 16.7904 302.325 13.8034ZM729.595 53.8273C722.889 51.2726 723.587 36.6964 729.852 40.308C731.01 40.9572 725.885 43.7741 727.097 45.4636C728.577 47.492 731.071 44.8226 732.804 44.1315L732.355 44.0375C732.776 43.5262 733.221 43.5757 734.332 45.1948C734.675 45.8367 732.944 51.1029 730.831 53.0516C730.781 53.0393 730.63 53.0155 730.581 52.9994C730.053 53.5494 729.665 53.8773 729.577 53.8429C729.583 53.8377 729.589 53.8325 729.595 53.8273ZM404.684 21.1052C404.691 20.9429 403.166 20.3874 403.094 20.5313C401.297 23.9866 404.333 25.0978 404.684 21.1052ZM235.777 24.2908C235.543 24.0347 232.108 25.516 232.143 25.8505C233.367 32.2415 240.32 29.2597 235.777 24.2908ZM512.435 27.3412C514.649 23.7679 516.789 23.583 517.578 28.5184C515.879 28.0478 514.143 27.7924 512.435 27.3412Z" fill="#FF9100"/>
</svg>
