<svg width="82" height="129" viewBox="0 0 82 129" fill="none" xmlns="http://www.w3.org/2000/svg">
<path d="M5.93708 105.419C7.37161 105.204 8.83786 105.6 9.92796 106.074C10.2648 106.222 10.0439 106.735 10.277 106.861C10.7357 107.107 11.179 106.886 11.6174 107.173C11.7573 107.271 11.496 108.09 11.6445 108.173C12.4753 108.622 13.3121 108.489 14.1445 108.752C18.3033 110.056 22.3663 110.824 26.5608 111.672C27.9446 111.951 29.5522 112.896 31.0307 112.725C31.2022 112.704 31.1839 111.961 31.2224 111.904C31.8251 111.035 31.4948 112.495 31.8016 112.728C33.0173 113.648 34.4482 113.875 35.7362 113.731C36.2866 113.668 35.9124 112.154 36.3539 113.03C36.3847 113.089 36.1649 113.852 36.3004 113.951C36.6073 114.174 37.2507 114.104 37.5027 114.194C37.9903 114.372 38.065 114.372 38.5305 114.433C38.9294 114.489 39.363 114.696 39.8092 114.817C40.0594 114.887 40.3088 114.925 40.5514 114.882C40.6903 114.855 40.5895 114.039 40.8141 113.923C41.0306 113.808 41.6005 113.923 41.7733 114.125C41.9483 114.327 41.8236 114.95 41.847 115.097C42.0382 116.335 42.8267 114.687 42.8992 114.647C44.4417 114.005 45.6932 114.959 47.0761 114.852C48.1167 114.768 49.1335 114.299 50.0319 114.141C51.1008 113.957 52.1097 114.09 53.0894 113.599C53.193 113.547 52.7021 112.731 52.8223 112.668C54.079 112.028 55.4753 111.267 57.8258 110.864C58.0577 110.83 58.1382 111.702 58.3847 111.716C59.1145 111.749 60.0987 111.96 60.8795 111.827C61.3444 111.784 61.649 111.129 60.9667 109.391C61.3825 109.344 61.9532 109.15 62.8087 109.407C63.3652 109.567 63.6575 110.487 63.7687 109.904C63.7927 109.773 63.1917 109.244 63.2603 109.098C63.5417 108.49 64.2317 108.196 64.4083 107.438C64.4422 107.283 63.9119 106.812 63.847 106.696C63.3202 105.761 64.9156 106.556 65.0941 106.546C65.1289 106.545 65.1629 106.543 65.1962 106.541C66.1683 106.713 66.1715 106.1 66.4314 105.614C66.4955 105.493 65.5707 105.223 65.5949 105.105C65.7216 104.512 66.0075 103.849 66.5853 103.099C66.716 102.931 67.4779 103.257 67.5814 103.182C68.0296 102.826 66.5349 102.481 66.9215 102.133C67.0009 102.057 67.6803 102.204 67.758 102.199C68.9792 102.107 67.3289 101.652 67.2994 101.586C66.893 100.701 68.704 100.308 68.5297 99.4019C68.5068 99.2945 67.6128 99.4568 67.6017 99.1609C67.5195 97.1839 67.9171 94.9468 68.9053 92.9402C69.0577 92.6286 69.6779 92.9536 69.7613 92.9437C70.1554 92.8974 70.2792 92.8256 70.259 92.7427C70.2102 92.5671 69.3907 92.3441 69.3545 92.2766C68.9886 91.5312 70.4631 90.9405 68.4629 90.3526C69.3153 87.3988 67.7264 84.5168 68.8605 80.94C68.8729 80.8945 69.7095 80.8061 69.7307 80.7159C69.7451 80.6566 69.7549 80.6018 69.7605 80.5511C69.8559 79.6568 68.6616 80.0402 67.0587 79.6666C66.6325 79.5647 68.428 78.6915 68.5593 78.6236C69.0405 78.3644 70.2986 78.3184 70.3876 78.2448C71.0841 77.6493 67.0368 78.4396 66.9261 77.7987C66.9295 77.7777 67.6918 77.7346 67.7571 77.6687C67.9627 77.4637 67.638 77.3501 67.8692 77.1459C68.4046 76.6748 70.362 76.2355 69.1241 75.8594C68.9639 75.8115 66.6684 76.2761 66.6919 75.6875C66.7022 75.4526 66.5194 74.4465 66.6333 74.1429C66.7458 73.8397 67.5187 73.936 67.5483 73.9113C68.4382 73.0284 68.8854 73.2619 70.303 72.71C71.7172 72.1666 68.2498 72.6877 67.8428 72.5789C67.4367 72.4702 68.1904 71.8214 68.4604 71.6574C68.73 71.4918 69.2242 71.6077 69.3722 71.4712C70.3401 70.5741 67.6052 71.3052 67.0243 71.0964C65.6497 70.593 68.1929 69.8547 68.401 69.2749C68.4571 69.1157 67.8772 69.289 67.8109 69.1556C67.5573 68.6252 68.3427 68.2434 67.562 67.6701C67.4347 67.579 65.8445 67.1537 66.9742 66.7647C67.1371 66.7105 67.7903 66.8093 67.9241 66.5701C68.1247 66.2118 68.2421 65.5857 68.0154 65.2192C67.8476 64.9477 66.7892 65.2944 67.1115 64.935C67.2557 64.7762 67.8868 65.0474 68.106 64.7525C68.3244 64.4596 68.2873 63.7282 68.2657 63.4484C68.2595 63.3741 68.1976 63.3305 68.1089 63.3061C67.8651 63.2387 67.4191 63.3175 67.3791 63.301C67.0659 63.1629 66.6773 62.6227 66.6789 62.5729C66.5954 60.1485 68.0622 58.0096 67.6866 55.723C67.6581 55.5444 66.8009 55.635 66.7878 55.6075C66.4493 54.9893 68.7034 55.5393 69.4757 55.134C67.7419 55.1459 68.0635 54.9019 67.8837 54.4705C67.7954 54.2624 67.1222 54.3598 67.0539 54.3394C66.0419 54.0183 67.3609 53.8343 67.631 53.7833C68.6245 53.5977 67.4567 53.3623 68.1196 53.2337C68.7775 53.1002 69.7498 53.4289 69.7395 53.0101C69.1197 52.8934 67.498 53.1877 67.2362 52.8819C66.2591 51.7424 67.43 49.6728 67.4211 48.7626C67.4279 48.3126 67.3799 48.0255 67.3511 47.7842C67.3078 47.469 67.3031 47.2238 67.3749 46.931C67.5103 46.4027 67.2917 46.3215 66.9634 46.2955C66.6375 46.2847 66.1906 46.2883 65.9104 46.3109C65.4245 46.5733 68.1137 45.3387 68.6746 45.037C69.1988 44.6609 68.5681 44.868 68.7907 44.5758C68.9658 44.2837 69.4348 44.2966 69.4382 44.0039C69.4427 43.9739 69.441 43.9409 69.4315 43.9041C69.3355 43.5369 67.9294 43.6937 67.4294 44.1512C66.3418 45.0666 65.5159 46.3017 65.5422 45.6442C65.5399 45.6028 66.1002 45.0547 66.0622 44.9237C65.7111 43.8772 64.6767 43.3462 63.747 42.5334C63.6157 42.4187 63.9903 41.6256 63.9117 41.5484C63.0598 40.7509 63.0391 42.2602 62.229 43.7413C62.7802 41.6546 62.7481 40.2877 61.9465 40.1457C61.4763 40.0649 61.4182 41.0104 61.0417 41.6291C60.9291 41.8157 60.694 41.1344 60.5813 41.5676C60.222 42.9845 60.3337 44.6266 59.6657 43.9045C59.6357 43.8704 59.8255 43.0932 59.7152 43.0333C58.988 42.6392 58.799 44.1557 57.8087 44.2156C57.5515 44.2234 57.2588 44.1299 56.8031 43.9129C55.561 43.3998 54.6524 42.0425 54.2813 41.3218C56.1674 39.8082 55.4088 39.6887 53.7133 39.9659C53.5057 39.334 53.2377 38.7263 53.3474 38.1416C53.3852 37.9408 54.0986 37.9188 54.1678 37.8796C55.2682 37.3248 53.638 37.4163 53.5542 37.2944C52.7566 36.1153 53.9571 35.0923 52.7491 33.9871C52.706 33.9497 51.0203 33.8726 52.2539 33.5753C52.339 33.5586 53.1006 33.9367 53.167 33.4098C53.2334 32.8824 54.1733 31.9612 53.4393 31.2078C53.2616 31.0309 51.9266 30.4883 53.0186 30.2193C53.1668 30.1837 53.6449 30.2703 53.918 30.2241C54.7884 30.0771 53.1003 29.8213 54.5627 29.6894C56.0252 29.5557 57.1466 29.1495 56.2188 28.3633C56.192 28.3389 54.864 28.0458 54.9069 27.8268C54.9762 27.4786 55.3065 27.0087 55.3356 26.6429C55.3491 26.4673 54.5038 26.4928 54.4918 26.4607C54.1477 25.23 54.983 24.4723 55.4371 23.2457C55.4494 23.2131 55.4374 23.1688 55.4108 23.1159C55.4108 23.1097 55.4149 23.0919 55.4156 23.0858C55.291 22.7648 54.7283 22.0228 55.5799 21.8473C56.6693 21.6389 60.4783 23.242 59.8326 22.0182C59.5702 21.5522 54.8381 19.249 57.6695 19.4128C57.6137 17.6869 59.4737 16.9169 59.2984 15.0901C59.2911 15.0081 58.0835 14.1614 58.1782 14.0153C58.3206 13.8011 58.9922 13.9814 59.1128 13.8422C59.6353 13.2641 59.4394 12.3841 59.8669 11.7835C60.0277 11.5559 60.6003 11.9766 60.7916 11.7087C60.9821 11.4422 60.2782 10.7989 60.8873 10.6289C61.3508 10.5014 63.1612 11.1512 63.569 10.887C61.959 9.9374 62.1432 9.6938 61.9942 8.97482C61.9649 8.83601 61.3475 8.6021 61.3049 8.51921C61.1196 8.17346 61.6791 8.28751 61.4647 7.93486C61.4135 7.84958 60.867 7.51978 60.7945 7.43122C60.1578 6.66389 61.6697 6.94156 61.9298 6.99597C62.9239 7.19061 62.3032 6.61582 62.7637 6.58298C63.2238 6.55133 63.4079 7.13988 63.7662 6.9938C64.5056 6.69438 64.8632 5.94165 65.246 5.40845C65.3952 5.19404 64.5844 4.87727 64.5892 4.83579C64.6046 4.75972 64.6366 4.69446 64.6777 4.63585C64.9705 4.24782 65.5878 4.22684 64.6408 3.06803C68.2113 5.65922 64.5162 2.51144 65.836 2.51041C65.9442 2.51389 67.2709 4.10828 67.3503 4.43967C67.4414 4.76014 66.8116 4.46755 67.0103 4.96573C67.0438 5.09509 68.3963 6.52076 68.4738 6.61668C69.0233 7.42165 66.4334 5.71688 66.2858 5.62933C66.0643 5.51733 65.8968 5.45033 65.7728 5.41886L65.8034 5.37415C64.9957 5.19378 66.0992 6.41471 66.1412 6.5814C66.3529 7.47734 65.6975 7.69824 65.8175 8.40135C65.8936 8.85854 67.6056 9.95319 67.4131 10.1475C66.7805 10.7878 64.1781 9.61751 65.8681 11.5911C66.2296 12.0118 68.2375 12.9738 66.4097 12.6465C66.2955 12.6237 64.6709 12.2453 65.4146 12.9836C65.5085 13.0763 66.0726 13.3935 66.0978 13.4593C66.2568 13.8936 65.709 13.8171 65.7668 14.2234C65.8251 14.629 65.9631 15.1458 65.5961 15.3676C65.3759 15.5012 64.176 15.1924 63.8634 15.1534C62.966 15.0341 64.0558 15.9639 63.053 15.6645C62.0421 15.37 60.8159 14.3118 59.9829 14.478C61.4761 15.2508 62.9987 16.0642 64.4973 16.8476C63.9659 17.7761 63.0275 18.4917 62.6779 19.4886C62.6367 19.6119 63.5188 19.8483 63.4973 19.9873C63.4055 20.5678 62.6217 20.7848 62.6552 21.42C62.6848 21.9126 63.4307 22.6731 63.5331 23.1393C61.622 22.7902 62.0527 23.6182 61.7837 23.9781C61.6889 24.1071 61.192 23.9769 61.0034 24.0457C60.7546 24.1394 60.812 24.2236 60.999 24.2975L61.0937 23.7051C61.4415 23.8273 62.2108 23.8321 62.3716 23.9499C63.4375 24.7363 59.6046 24.3886 59.6169 25.1711C59.6162 25.2125 61.6026 25.9287 61.7224 26.0101C62.5045 26.532 61.0048 26.0066 60.8253 26.2619C60.4976 26.7267 59.9741 27.0198 60.5133 27.654C60.6731 27.8406 61.9056 28.3621 60.8905 28.5859C60.7576 28.6155 60.085 28.5271 60.0422 28.5573C59.3247 29.1094 61.4448 29.3255 62.1331 29.728C62.8211 30.1321 61.3141 30.5244 60.8833 30.6024C59.7685 30.7985 60.4328 30.3508 60.3271 30.3262C59.0654 30.0426 59.253 30.4527 59.1235 30.7404C57.037 30.6278 57.132 31.0658 58.998 31.0401C59.2017 31.0367 59.0238 30.7928 59.1235 30.7404C61.1479 31.1549 61.3804 31.5859 59.4415 31.9717C58.5338 32.1537 57.4965 31.881 57.8483 32.6142C58.0091 32.9399 59.4507 32.8694 59.8345 33.1501C60.7109 33.7733 59.3698 34.5223 59.6101 35.0927C59.6972 35.2941 60.4731 35.0559 60.5598 35.1852C60.7921 35.5067 60.2303 35.8499 60.5692 36.0983C60.6006 36.1178 61.4094 35.9515 61.4304 36.0249C61.5177 36.3017 61.4586 36.5046 61.3603 36.5952C61.2514 36.681 61.1472 36.653 60.8524 36.268C60.7331 36.1198 60.5684 35.8126 60.2352 35.478C59.9089 35.1429 59.4417 34.8459 59.0761 34.7291C58.9791 34.6916 58.9683 34.6903 58.9771 34.7084C59.2117 34.9131 60.6952 36.2434 61.6671 36.0811C62.3461 35.9839 62.3267 35.1517 62.7094 34.6409C63.4792 33.6513 64.2445 35.7952 64.3003 36.1235C64.2983 36.1315 63.639 36.1902 63.8802 36.6737C63.8803 37.5752 64.2899 36.1252 64.3003 36.1235C64.3502 36.3251 65.5749 36.8362 65.89 36.784C66.0589 36.7475 66.2179 35.9784 66.3048 35.9748C68.35 35.8994 70.8151 36.8282 72.5391 39.0225C72.5618 39.0668 71.9022 39.6433 71.9588 39.7357C72.3478 40.3992 72.861 40.7379 73.4695 41.0476C74.5092 41.9644 75.298 42.9024 75.8343 43.7007C76.8712 45.3342 76.607 45.711 75.1757 46.1395C75.2354 46.2018 75.2346 46.2543 75.1913 46.2865C75.1615 46.8476 74.815 47.4844 74.5675 47.8758C74.2299 48.4036 75.9232 48.2774 75.9625 48.3203C77.1767 49.5883 76.2423 50.4478 76.1204 51.7255C76.0602 52.34 76.3026 53.5072 76.4753 54.1283C76.616 54.6218 76.2102 54.9004 76.4524 55.3473C76.4847 55.4072 77.2432 55.3696 77.2719 55.3885C78.1627 55.9048 76.3196 55.6131 75.9861 55.7031C74.7732 56.027 74.1262 56.2225 74.6697 56.8466C74.7942 56.9884 77.4426 57.4917 77.5893 57.7457C77.7749 58.0778 76.8248 57.9208 77.0438 58.2658C77.0616 58.2953 77.6508 58.3107 77.6173 58.5172C77.4701 59.4694 77.0947 60.4753 77.1362 61.422C77.1396 61.5511 78.0772 61.4034 78.0976 61.5891C78.1591 62.147 78.1648 62.7285 78.0483 63.29C77.9836 63.5904 77.8816 63.8881 77.7302 64.1769C77.623 64.3762 76.9665 64.2645 76.773 64.3112C75.6021 64.6049 77.3207 64.9468 77.3552 65.0047C78.2224 66.447 76.7501 67.6867 77.6205 69.1747C77.6709 69.2592 79.5536 69.7156 78.0213 70.1604C77.9191 70.1886 76.351 70.6474 77.4715 70.7829C77.5416 70.7906 78.3443 70.5237 78.2947 70.841C78.2459 71.1619 78.8524 71.5872 78.0052 72.1285C77.7379 72.2968 76.1906 72.8345 77.5131 73.0715C77.6055 73.0919 80.5526 73.3002 78.6129 73.8075C78.2937 73.8908 76.2004 74.1637 77.3443 74.4921C77.5659 74.5535 78.0052 74.3141 78.3331 74.5132C78.8378 74.8142 78.3598 75.4008 79.364 75.701C79.5416 75.7542 81.0096 75.8445 79.9865 76.2995C79.8264 76.3714 79.1184 76.413 79.0664 76.5711C78.8211 77.308 79.3902 77.9273 79.0943 78.6933C79.0885 78.7111 79.0823 78.729 79.0758 78.7469C78.963 79.0588 77.8179 79.1373 77.5755 79.4858C77.3334 79.8345 77.1582 80.478 77.7273 80.6959C78.2972 80.9165 80.0183 80.239 80.2492 80.6977C81.2536 82.7139 80.5398 85.2133 80.4835 87.6619C80.4741 88.0291 81.1135 87.6976 81.142 88.2486C81.2369 89.8086 81.4961 92.4329 80.723 94.266C80.5391 94.5699 80.2933 94.8407 79.9572 95.0553C78.7498 95.8484 78.0533 94.5713 77.5215 95.2469C77.2673 95.5818 79.3263 96.1905 79.3844 96.2781C79.9735 97.1781 78.9934 97.7012 79.2131 98.5497C79.2588 98.726 80.1246 98.6255 80.154 98.7747C80.2626 99.2818 79.8394 99.7987 79.8662 100.316C79.88 100.55 80.5343 100.563 80.4654 100.776C80.3075 101.286 79.989 101.745 79.3223 102.222C79.2615 102.264 78.4894 101.847 78.4152 102.253C78.2957 102.914 77.5925 103.67 78.0614 104.619C78.2016 104.904 79.6713 105.186 78.5447 105.571C78.3063 105.656 76.5931 105.119 77.9577 106.119C78.1981 106.251 79.9047 108.05 78.3924 108.325C77.9982 108.395 76.4753 108.325 76.5601 108.75C76.5752 108.813 77.4028 108.894 77.3578 109.231C77.179 110.419 76.5135 111.591 75.9554 112.876C75.8022 113.225 76.8116 113.218 76.5447 113.741C76.1963 114.41 75.6716 115.083 75.0601 115.674C74.6425 116.046 74.1502 116.379 73.6852 116.65C73.3637 116.834 73.0527 116.173 72.981 116.139C71.8359 115.564 72.8089 116.905 72.7681 117.077C72.5116 118.115 71.4555 118.026 70.8815 118.757C70.7167 118.959 71.3483 119.456 71.3522 119.542C71.3444 120.42 70.7929 119.063 70.4285 119.151C69.4041 119.39 68.5278 120.073 67.5796 120.716C67.2284 120.953 68.088 121.518 67.7526 121.727C66.719 122.373 65.4449 122.945 63.978 123.268C63.9375 123.209 63.7917 123.099 63.462 122.98C63.3312 122.933 63.1012 122.27 63.0154 122.134C62.3927 121.188 62.751 122.71 62.753 122.873C62.7346 123.625 62.3018 123.156 61.9888 123.453C60.4904 124.968 56.4558 126.407 53.6577 126.76C49.9556 127.315 47.3137 126.787 44.2902 126.957C44.0935 126.965 44.2798 127.897 44.1141 127.916C42.1292 128.093 40.2695 127.676 38.4038 127.622C38.2387 127.619 38.0735 127.62 37.9079 127.626C37.7583 127.63 37.8744 128.53 37.6311 128.566C37.1295 128.646 36.5353 128.532 36.0728 128.198C35.8478 128.037 36.2524 127.32 36.0243 127.173C35.492 126.829 34.9111 126.702 34.3204 126.779C34.0677 126.813 34.3395 127.75 34.019 127.725C31.857 127.576 29.7171 127.495 27.6686 126.093C27.5277 125.997 27.608 124.162 27.2448 124.475C27.1646 124.978 27.1 125.573 27.0295 126.112C23.8565 126.055 20.8301 125.08 17.7161 124.647C17.5836 124.628 17.7094 125.618 17.4529 125.588C15.9811 125.416 14.5318 125.533 13.1297 124.421C12.995 124.313 13.2396 122.62 12.7701 122.833C12.6809 122.871 12.0223 123.035 11.8025 123.386C11.7738 123.439 11.8171 124.245 11.6007 124.247C10.3649 124.248 9.10802 123.948 7.96516 123.368C7.78014 123.273 8.05105 122.443 7.9198 122.368C6.98528 121.842 5.91518 122.416 5.22676 121.633C4.81125 121.11 4.98461 119.643 4.70763 118.205C4.68642 118.104 4.61985 118.048 4.56892 117.914C4.5123 117.78 4.50554 117.561 4.43148 117.147C3.95618 115.083 3.93703 112.744 3.46611 110.536C3.41145 110.317 3.04625 110.292 1.97205 110.618C1.30018 110.809 0.293118 111.522 0.0627038 111.617C-0.242465 111.755 0.604321 110.535 1.77813 109.807C2.01351 109.659 2.82316 109.313 3.22124 109.109C3.59752 108.893 3.9242 108.676 3.99268 108.472C4.12526 108.188 3.79219 107.351 4.09339 106.981C4.4242 106.613 4.68395 107.324 5.06523 106.91C5.40726 106.494 5.28245 105.517 5.93708 105.419ZM72.9742 50.1093C72.1822 50.553 75.1725 50.4646 74.4319 50.0474C74.3925 50.0272 73.0129 50.0859 72.9742 50.1093ZM60.9897 17.55C59.6011 17.4151 61.2498 18.4859 62.306 18.6178C63.3574 18.7597 61.4087 17.5959 60.9897 17.55ZM62.2461 12.9041C61.0725 12.8878 64.7749 14.9586 64.2843 14.0621C64.257 14.0108 62.3142 12.9054 62.2461 12.9041ZM6.08388 117.818C6.08547 117.778 5.8077 117.727 5.79951 117.766C5.61919 118.709 6.15236 118.809 6.08388 117.818ZM63.7267 8.24123C63.1474 8.08862 63.4593 8.85349 64.1797 9.04058C64.758 9.1926 64.4456 8.43317 63.7267 8.24123ZM69.8549 69.1412C69.8109 69.1505 69.7881 69.3619 70.0389 69.3365C70.8462 69.2546 70.5945 68.9873 69.8549 69.1412ZM68.6578 2.6919C67.6935 2.93244 65.0315 0.456364 66.6891 0.00191343C66.9659 -0.0578834 66.6627 1.26982 67.1197 1.39008C67.8788 1.6463 67.3899 -0.536258 68.4171 0.329986C68.5765 0.497617 68.7012 2.68676 68.658 2.69717C68.6579 2.69541 68.6579 2.69366 68.6578 2.6919ZM69.4006 50.5382C69.3618 50.5474 69.3389 50.8388 69.3781 50.8442C70.3347 50.9624 70.3808 50.3573 69.4006 50.5382ZM69.8098 81.535C69.7307 81.5669 69.7758 82.2321 69.8555 82.2391C71.4475 82.3029 71.3568 80.9338 69.8098 81.535ZM54.3209 41.2671C53.2361 41.4348 52.7451 40.7624 53.713 39.9682C53.8322 40.3916 54.0565 40.8223 54.3209 41.2671Z" fill="#62ABFC"/>
</svg>
