<svg width="29" height="28" viewBox="0 0 29 28" fill="none" xmlns="http://www.w3.org/2000/svg">
<path d="M8.62558 0.0344563C8.89135 -0.11213 8.92728 0.231328 8.8686 0.63975C8.85084 0.766675 8.56249 1.21215 8.5382 1.32038C8.49104 1.53147 8.67485 1.33772 8.60716 1.58248C8.58342 1.66583 8.13724 2.37762 8.12203 2.44842C8.04174 2.83118 8.25042 2.70532 8.26856 2.92253C8.35716 3.99369 8.7216 4.57118 9.06766 5.21595C9.18213 5.42793 9.01414 6.21213 9.36557 6.03132C9.40697 6.00957 9.76555 5.36551 9.80023 5.31542C10.3327 4.54947 9.56178 5.82224 9.50391 6.01734C9.2763 6.78817 9.42631 6.95427 9.72906 6.80158C9.85894 6.73476 10.5285 5.43063 10.1828 6.1802C10.1596 6.23091 9.74803 6.8969 9.72458 6.97986C9.67216 7.16663 9.82268 7.09248 9.82413 7.16512C9.82492 7.30852 9.83931 7.3078 9.89442 7.35027C9.96631 7.4142 9.86718 7.80678 10.0439 7.70459C10.0828 7.68077 10.4624 6.97335 10.5609 6.87278C10.6594 6.77241 10.7039 6.87713 10.6352 7.05599C10.5664 7.23494 10.2374 7.77303 10.1692 7.90062C9.59321 8.97697 10.5357 7.57065 10.5685 7.54139C11.141 7.05111 10.8394 7.98947 11.0415 8.10417C11.1959 8.18949 11.5189 8.01004 11.6419 8.13224C11.7869 8.28051 11.7143 8.74143 11.9197 8.77475C11.9409 8.77907 12.3955 7.95215 12.4223 7.95577C12.7074 7.99499 12.8838 8.21691 12.7917 8.90045C12.7821 8.96971 12.3352 9.66787 12.3006 9.77984C12.098 10.4496 11.4962 11.9915 13.3965 8.92536C13.4206 9.10245 13.4627 9.29544 13.1815 9.97292C13.0006 10.409 12.4927 11.1573 12.7541 10.864C12.8125 10.7988 13.1909 10.1048 13.2484 10.0586C13.49 9.86465 13.4654 10.1476 13.766 9.85036C13.8281 9.78829 14.1796 9.17365 14.2493 9.06671C14.8155 8.20164 14.032 9.72061 13.9862 9.83747C13.6472 10.7105 13.9233 10.4502 14.0303 10.5387C14.0549 10.5596 14.5016 9.71919 14.5425 9.70978C14.7483 9.67199 14.849 9.8254 14.7706 10.2682C14.752 10.3687 14.3163 11.0524 14.2866 11.1362C14.1603 11.4972 14.9452 10.1837 14.8389 10.5045C14.8175 10.5704 14.4609 11.1652 14.4248 11.2324C13.8587 12.2863 14.7438 10.8414 14.772 10.8145C15.1476 10.442 14.332 12.0137 14.5723 11.8639C14.6019 11.8445 15.0133 11.0685 15.0696 11.0602C15.4473 11.0001 15.5962 11.366 15.4956 12.1199C15.4805 12.236 15.1203 12.789 15.0818 12.8607C14.4824 13.9809 15.3657 12.5267 15.4108 12.4788C15.7444 12.1395 15.1201 13.427 16.2098 11.7168C16.2841 12.5742 17.2841 11.8403 16.7945 13.6562C16.7893 13.6775 16.3574 14.3956 16.3489 14.435C16.2417 14.9171 16.8729 13.7778 17.7612 12.4522C17.9844 12.1194 17.0814 13.8187 17.0162 13.9438C16.7757 14.4048 16.1256 15.4687 16.082 15.5597C15.7429 16.2762 17.8103 12.71 17.8903 12.7551C17.8894 12.7625 17.4966 13.4118 17.4653 13.4808C17.3666 13.6975 17.539 13.449 17.4277 13.6864C17.1695 14.2355 16.1767 15.9753 16.8348 15.0096C16.92 14.8841 18.0846 12.8564 18.0997 12.9931C18.1048 13.0493 18.2499 13.0876 18.2086 13.2389C18.1673 13.3901 17.7636 14.0269 17.7497 14.0566C17.3419 14.9722 17.0981 15.3081 16.402 16.6098C15.7088 17.9068 17.4618 14.8715 17.6782 14.5448C17.894 14.2191 17.5489 14.9695 17.4219 15.2263C17.2948 15.4831 17.0324 15.8844 16.9659 16.0329C16.5334 17.0044 17.8865 14.5557 18.1998 14.0944C18.9413 13.002 17.6921 15.2826 17.6349 15.5441C17.6195 15.6148 17.9021 15.0942 17.9471 15.0564C18.1216 14.9134 17.7537 15.6378 18.2057 15.0405C18.2794 14.9432 19.1294 13.6297 18.5919 14.644C18.5143 14.7901 18.1716 15.3402 18.1275 15.4824C18.061 15.6957 18.0676 15.8635 18.2231 15.7036C18.3382 15.5852 18.8367 14.6403 18.7128 14.9519C18.6574 15.091 18.3072 15.6096 18.2293 15.8259C18.1513 16.042 18.2569 16.0718 18.3027 16.0736C18.3486 16.0749 18.7375 15.3644 18.7678 15.3189C18.9423 15.0589 19.2059 14.7607 19.2113 14.765C19.5591 14.8535 19.1463 16.1927 19.6641 15.9718C19.7041 15.9554 20.1192 15.2091 20.1297 15.199C20.3879 14.9355 19.1826 16.8604 18.8543 17.5485C19.7194 16.0473 19.5935 16.3371 19.7441 16.205C19.8174 16.1401 20.1411 15.5522 20.1781 15.4943C20.7307 14.637 20.0949 15.7898 19.9663 16.0265C19.4932 16.8972 20.1112 15.9028 19.7953 16.485C19.4819 17.0628 18.9504 17.8805 19.0094 17.9004C19.3366 17.3733 20.1142 15.9505 20.2865 15.747C20.9381 14.9767 20.5789 16.2394 20.6337 16.4243C20.6882 16.6089 20.785 16.5329 20.7426 16.7676C20.6658 17.192 21.225 16.1261 21.5815 15.6968C21.9382 15.2677 20.4088 17.8009 20.0997 18.357C19.7905 18.9127 20.1325 18.3545 19.9704 18.6645C19.8082 18.9744 19.5602 19.3304 19.5268 19.4628C19.4934 19.5951 20.1526 18.6702 20.4993 18.1025C21.2337 16.8998 21.9386 15.5989 21.7632 16.0982C21.7527 16.1277 21.3445 16.7903 21.3239 16.8693C21.1734 17.4749 21.3118 17.5986 21.1959 18.1442C21.1793 18.2203 20.7247 18.9571 20.7101 19.0098C20.557 19.5614 21.2473 18.2746 22.1332 16.9146C21.0306 18.769 20.4037 19.9314 20.4929 19.9981C20.546 20.0389 21.0109 19.2192 21.3827 18.6673C21.4947 18.5009 21.2093 19.0834 21.44 18.705C22.1941 17.4679 22.9728 16.045 22.746 16.6602C22.7349 16.6892 22.3216 17.366 22.3124 17.4162C22.2505 17.744 23.0255 16.4421 23.2222 16.3444C23.3766 16.2678 23.0565 17.1507 23.0739 17.3348C21.8498 19.4287 22.2176 19.0003 23.0959 17.5766C23.1219 17.6709 23.2348 17.6274 23.1767 17.8611C23.1571 17.9409 22.7901 18.5398 22.7544 18.6068C22.1935 19.6576 23.0395 18.2676 23.0847 18.2201C23.5385 17.767 23.0324 18.8993 23.7745 17.9371C23.8012 17.9024 24.6579 16.4516 24.0741 17.5352C24.0337 17.6098 23.6029 18.246 23.6365 18.3342C23.67 18.4226 23.3346 19.2725 23.8161 18.6496C23.9321 18.4996 24.6752 17.3497 24.1801 18.298C24.1127 18.4267 23.8629 18.8404 23.7358 19.0775C23.331 19.8333 24.2037 18.3709 23.5064 19.639C22.8091 20.9071 22.329 21.8813 22.9208 21.071C22.9383 21.0476 23.6394 19.894 23.6566 19.9287C23.6834 19.9852 23.6051 20.265 23.6561 20.2846C23.6808 20.2935 24.0888 19.5613 24.1004 19.5503C24.4871 19.2321 24.2173 19.9398 24.2146 20.3136C24.2132 20.3835 24.8738 19.4457 24.4755 20.2595C24.0397 21.1504 21.9021 24.667 22.54 23.9042C22.7956 23.5994 25.4994 19.1331 24.2409 21.5302C24.7809 21.0693 24.2705 22.3741 24.9556 21.6658C24.986 21.6345 25.749 20.3929 25.7604 20.4225C25.776 20.469 25.4504 21.0673 25.4505 21.1193C25.4425 21.3521 25.8232 20.8997 25.8694 21.0316C25.8877 21.0803 25.5207 21.6814 25.5425 21.7397C25.5645 21.7973 26.0594 21.0127 25.8901 21.4323C25.7607 21.7519 24.8483 23.4137 24.7935 23.6374C25.7375 22.024 25.7569 22.0799 26.0745 21.6939C26.136 21.6189 26.4496 21.0486 26.4956 20.9842C26.69 20.7094 26.442 21.189 26.6501 20.8878C26.7002 20.8155 27.0221 20.2643 27.0812 20.174C27.5958 19.3859 26.9398 20.6656 26.8254 20.8883C26.3914 21.7344 26.8305 21.0293 26.6761 21.3722C26.5218 21.7149 26.2354 22.089 26.1608 22.3081C26.0067 22.7615 26.1645 22.7342 26.2334 22.8083C26.2628 22.8345 26.6694 22.0852 26.6836 22.0718C26.8615 21.9254 26.4746 22.749 27.3681 21.3052C25.2046 25.1241 27.6242 20.9618 27.2802 21.7782C27.2522 21.8441 26.2163 23.6426 26.0329 23.8884C25.8497 24.1339 26.1314 23.5472 25.8507 23.9333C25.7847 24.0238 24.7486 25.671 24.6816 25.7682C24.1577 26.5285 25.7119 23.8446 25.7946 23.6956C26.6848 22.0867 25.5605 23.8565 25.4695 23.971C25.0526 24.4957 25.2022 24.078 24.8945 24.4467C24.695 24.6847 23.667 26.4369 23.6628 26.3625C23.6483 26.1161 25.0351 23.6441 23.6858 25.7017C23.3978 26.1405 22.3027 28.0723 23.097 26.5143C23.1471 26.4161 23.8885 24.9994 23.3428 25.8507C23.274 25.9581 22.9481 26.5171 22.9146 26.5605C22.6967 26.8405 22.9294 26.3794 22.7606 26.5668C22.5919 26.7542 22.3531 27.0411 22.4131 26.822C22.4487 26.6908 23.0171 25.6266 23.1512 25.3631C23.5385 24.6045 22.7918 25.783 23.2851 24.8787C23.7808 23.9698 24.623 22.6416 24.8924 22.0247C24.0427 23.4754 23.1675 24.9626 22.3116 26.4207C22.1934 26.2833 22.3217 25.7287 22.1358 25.7063C22.1119 25.7049 21.6753 26.4966 21.6379 26.5153C21.4823 26.5908 21.7342 25.9918 21.5186 26.1631C21.3499 26.2987 20.7945 27.0825 20.6031 27.25C21.5298 25.5633 21.097 26.067 21.1102 25.8712C21.1144 25.8033 21.3751 25.3605 21.4408 25.2048C21.6823 24.628 20.8589 26.1158 20.7047 26.3356C20.0461 27.2733 21.9778 23.9453 21.8318 23.9702C21.8247 23.9704 20.7276 25.705 20.6544 25.8102C20.1791 26.4972 21.005 25.1882 21.0465 25.0369C21.1225 24.7606 21.3251 24.3117 20.9478 24.7872C20.8364 24.9282 20.14 26.002 20.596 25.1232C20.6557 25.0081 21.0004 24.4243 21.0159 24.3874C21.2684 23.7685 20.1929 25.6074 19.7831 26.2036C19.3734 26.7996 20.0429 25.4877 20.2419 25.1131C20.7563 24.1438 20.5072 24.7254 20.5634 24.6336C21.2328 23.5417 21.0696 23.7017 21.0843 23.585C22.131 21.7774 22.0122 21.8532 21.0953 23.4713C20.9953 23.6481 21.1244 23.4979 21.0843 23.585C20.0167 25.3349 19.8233 25.5259 20.7206 23.8322C21.1413 23.0384 21.6985 22.1519 21.4094 22.4265C21.2787 22.5503 20.5709 23.8025 20.3348 24.1187C19.7961 24.8402 20.3578 23.6146 20.1606 23.7443C20.089 23.7914 19.7244 24.4901 19.6618 24.5457C19.4944 24.6955 19.7394 24.1545 19.527 24.3809C19.5072 24.4023 19.1053 25.1219 19.0813 25.1201C18.8918 25.1203 19.0347 24.5926 18.8945 24.4938C18.8265 24.4465 18.47 24.7647 18.4422 24.6427C18.3915 24.4354 18.8379 23.3084 18.5818 23.4961C18.4166 23.6154 18.0169 24.3366 17.7034 24.8038C17.0959 25.7098 17.974 23.9645 18.1121 23.6955C18.1167 23.6866 18.276 23.5546 18.4565 23.17C18.8817 22.3973 18.1147 23.6926 18.1121 23.6955C18.2012 23.5216 18.1728 23.2885 18.0691 23.4104C18.0125 23.477 17.6264 24.1559 17.6043 24.1779C17.0882 24.686 16.8239 24.7616 16.8417 24.3492C16.8467 24.3339 17.2912 23.5819 17.2976 23.5553C17.397 23.1636 16.7969 24.0507 16.3978 24.5524C15.9989 25.0539 16.043 24.8337 16.7516 23.5109C16.5966 23.6391 16.8447 23.0163 16.9979 22.64C17.1512 22.2636 16.2875 23.7284 16.2662 23.7549C15.5883 24.6051 16.0003 23.7187 15.9358 23.5057C15.9067 23.4019 15.6496 23.5375 15.4834 23.6559C15.3507 23.7518 15.517 23.3875 15.3358 23.5768C15.3115 23.602 14.9372 24.2602 14.9204 24.2841C14.405 25.0322 15.366 23.45 15.5204 23.1573C16.082 22.0932 16.3773 21.5243 16.017 21.9688C15.9343 22.0705 14.5408 24.343 14.4305 24.4591C14.2897 24.6059 14.7866 23.7898 14.6268 23.9645C14.6136 23.9787 14.3174 24.4882 14.3038 24.4502C14.237 24.2806 14.2749 23.9057 14.1166 23.8817C14.0962 23.8765 13.6477 24.6971 13.6103 24.7028C13.4355 24.7291 13.3224 24.6231 13.4269 24.1775C13.4541 24.0653 13.8018 23.5104 13.8935 23.3389C14.4479 22.301 13.5331 23.7453 13.5078 23.7682C12.8818 24.3535 13.4984 22.9232 12.911 23.4328C12.8775 23.4633 11.864 24.9924 12.615 23.612C12.6649 23.5201 13.4346 22.1086 12.8456 23.0371C12.8087 23.0952 12.4168 23.8244 12.4158 23.7262C12.4146 23.6281 12.0662 24.0645 12.4644 23.2444C12.5897 22.986 13.3527 21.5751 12.6523 22.646C12.6037 22.7209 11.0605 25.1659 12.0339 23.4257C12.1942 23.1393 13.2625 21.3201 12.6501 22.215C12.5315 22.3887 12.3178 22.8088 12.1358 23.0428C11.8556 23.4036 12.0714 22.8754 11.5339 23.6499C11.439 23.7871 10.67 24.9963 11.1796 24.0353C11.2594 23.8848 11.6256 23.283 11.6452 23.2032C11.7401 22.8208 11.4026 23.1694 11.5511 22.6918C11.603 22.5238 12.1943 21.5506 12.3122 21.2661C12.43 20.9817 12.5056 20.6861 12.206 21.1137C11.9062 21.5415 11.0328 23.1329 10.9034 23.2255C10.3413 23.6278 10.6357 22.567 10.4702 22.2902C10.4457 22.249 10.1485 22.8274 10.089 22.807C9.86803 22.734 9.22183 23.0619 9.74649 21.7706C10.1667 20.7362 10.7626 20.1098 10.8848 19.6604C10.9425 19.4457 9.82487 21.2363 9.77923 21.2866C9.32041 21.8 9.70872 20.9446 9.45726 21.1298C9.40519 21.1683 8.99599 21.9196 8.95643 21.9442C8.81749 22.0348 8.94231 21.6658 8.84577 21.6903C8.80146 21.703 8.47745 22.2701 8.47752 22.2118C8.47389 22.0787 8.55861 21.8103 8.80796 21.2471C8.83068 21.1958 9.27636 20.5152 9.24674 20.4629C9.19763 20.3803 9.41181 19.8062 9.01408 20.2961C8.89478 20.4437 8.14171 21.7325 8.60785 20.811C8.70516 20.6185 9.62253 19.0786 8.78016 20.3801C8.64005 20.5963 7.48331 22.3399 8.11061 21.147C8.27568 20.833 8.98026 19.546 8.83433 19.7277C8.81175 19.7572 8.42396 20.4591 8.35986 20.5123C8.141 20.6876 8.09291 20.5605 7.87698 20.7252C7.81852 20.7706 7.43603 21.508 7.36225 21.5527C7.15875 21.6768 7.14303 21.423 7.1782 21.1429C7.19196 21.0383 7.56264 20.4589 7.59776 20.3928C8.16944 19.3179 7.31769 20.722 7.25574 20.7967C6.88167 21.2422 7.20544 20.5381 7.02406 20.6686C6.97505 20.7028 6.59593 21.3881 6.55644 21.4459C6.16801 22.0089 6.90979 20.8139 6.95956 20.6635C7.10134 20.2381 6.98119 20.2409 6.85055 20.2805C6.80198 20.2961 6.37769 21.0995 6.33938 21.1044C6.10402 21.1482 5.98506 20.9783 6.08446 20.4569C6.10401 20.3573 6.47433 19.764 6.54878 19.6226C7.07031 18.6336 6.24202 19.9144 6.15496 20.0316C5.75768 20.5671 6.04455 20.0188 5.93046 20.0858C5.36766 20.4226 5.23647 19.8721 5.10591 19.5031C4.93372 19.0257 5.00791 18.2991 4.60028 18.2613C4.57482 18.2581 4.12679 19.0733 4.09882 19.0809C3.75908 19.1423 3.7189 18.6982 3.35632 18.7976C3.32739 18.8043 2.91006 19.5815 2.84871 19.6179C2.71975 19.698 2.66612 19.6112 2.74589 19.3318C2.78395 19.197 3.20573 18.5673 3.23626 18.4449C3.30821 18.1586 3.26378 18.0599 3.11968 18.1395C3.05739 18.175 2.64988 18.9811 2.60432 18.9666C2.28461 18.8837 1.93665 18.8605 2.24744 17.6901C2.26882 17.6097 3.17547 16.0171 2.95795 16.297C2.69865 16.7345 2.39738 17.2514 2.12216 17.7201C1.57482 17.7399 1.49921 16.9603 1.14779 16.6416C1.13286 16.6283 0.672843 17.4841 0.641461 17.4627C0.459286 17.3398 0.139826 17.4648 0.432356 16.5182C0.460689 16.4255 1.33123 14.9558 1.14442 15.1459C1.11067 15.1808 0.910567 15.3278 0.701671 15.6352C0.670492 15.6817 0.284325 16.3795 0.245124 16.3835C0.0243483 16.3949 -0.0513675 16.14 0.0345969 15.6262C0.0492394 15.542 0.504464 14.8246 0.518605 14.7582C0.615654 14.293 0.148979 14.768 0.413137 14.0296C0.591495 13.5328 1.3618 12.283 2.04552 11.0093C2.14197 10.8296 2.10674 10.7717 2.5276 10.0441C3.58574 8.21442 4.77684 6.22985 5.90178 4.27788C6.14412 3.85746 5.81179 4.26868 6.44349 3.27959C6.48589 3.21347 6.732 2.90647 6.94476 2.57004C7.09192 2.33747 7.50719 1.59008 7.70209 1.29618C7.89682 1.00256 7.55499 1.63272 7.79242 1.29234C8.03243 0.947536 8.50967 0.100109 8.62558 0.0344563ZM17.6813 20.9569C18.047 20.2248 16.5332 22.8044 16.9432 22.2152C16.9649 22.1836 17.6635 20.9929 17.6813 20.9569ZM23.4593 23.7805C24.0641 22.6061 23.0458 24.2577 22.5746 25.1624C22.104 26.0661 23.276 24.1366 23.4593 23.7805ZM24.5653 23.3107C25.0194 22.3714 22.8714 26.0285 23.3783 25.3316C23.4071 25.2923 24.539 23.3652 24.5653 23.3107ZM2.45779 10.7736C2.47717 10.7389 2.45965 10.6839 2.43893 10.7173C1.94058 11.5264 1.97594 11.6359 2.45779 10.7736ZM25.7096 22.7642C25.9769 22.2559 25.5803 22.7913 25.2479 23.4234C24.9806 23.9319 25.3772 23.3966 25.7096 22.7642ZM16.9012 16.8063C16.9229 16.7674 16.9166 16.7173 16.7902 16.9352C16.3831 17.6371 16.5355 17.4609 16.9012 16.8063ZM26.7811 23.3328C26.7069 23.1046 28.3784 20.0237 28.3477 20.4634C28.3421 20.543 27.719 21.3901 27.5987 21.6856C27.3797 22.2241 28.5353 20.3515 28.0139 21.412C27.9183 21.606 26.7814 23.3525 26.7784 23.3368C26.7793 23.3355 26.7802 23.3341 26.7811 23.3328ZM19.4651 17.8384C19.4841 17.8037 19.4662 17.7499 19.4456 17.7832C18.9473 18.5918 18.9829 18.7007 19.4651 17.8384ZM16.284 14.3053C16.3245 14.2313 16.2789 14.1135 16.237 14.1789C15.4101 15.4942 15.4999 15.7364 16.284 14.3053ZM23.0428 17.3915C23.5642 16.5898 23.6688 16.5206 23.0964 17.5754C23.0886 17.4971 23.0532 17.4656 23.0428 17.3915Z" fill="#62ABFC"/>
</svg>
