<svg width="55" height="88" viewBox="0 0 55 88" fill="none" xmlns="http://www.w3.org/2000/svg">
<path d="M54.5839 7.42913C54.573 8.02989 54.0061 8.53453 53.427 8.83309C53.2471 8.9261 52.8117 8.61252 52.6647 8.66896C52.3775 8.78044 52.5155 9.08382 52.1968 9.17014C52.0894 9.1965 51.3805 8.73772 51.2849 8.77431C50.758 8.9942 50.771 9.44261 50.42 9.74138C48.6741 11.2433 47.4644 12.9369 46.1557 14.6769C45.7249 15.2506 44.6584 15.671 44.6271 16.4712C44.6247 16.5637 45.3049 16.8519 45.3519 16.8935C46.0685 17.5371 44.7784 16.7911 44.5273 16.8496C43.5242 17.1035 43.1486 17.6955 43.1082 18.4056C43.0994 18.6959 44.525 19.1208 43.6716 18.9874C43.6137 18.9789 42.9457 18.5656 42.8384 18.5928C42.5966 18.6549 42.5779 19.0017 42.4631 19.0913C42.2736 19.2351 42.2351 19.2876 42.157 19.4284C42.1433 19.453 42.1282 19.4805 42.1107 19.5121C41.9515 19.7847 41.4318 19.9501 41.431 20.3446C41.4329 20.4298 42.1938 20.7031 42.2614 20.8719C42.3277 21.0427 42.1258 21.2911 41.9112 21.2964C41.6955 21.3035 41.1528 20.9795 41.0155 20.9306C39.8589 20.5143 41.2038 21.599 41.2197 21.6599C41.4608 22.7606 40.2917 22.9393 39.9229 23.6744C39.6598 24.2036 39.6497 24.9273 39.3469 25.4294C38.995 26.003 38.3403 26.3341 38.1048 26.965C38.0798 27.0299 38.9581 27.3834 38.9293 27.4635C38.6223 28.3134 38.1117 29.0948 37.139 29.6067C37.0401 29.6588 36.3542 29.1801 36.2112 29.2098C35.3499 29.4044 33.4941 29.4506 36.5635 31.3715C36.2681 31.6435 35.9298 31.9898 35.1263 31.9679C34.6114 31.9492 33.9009 31.355 34.1252 31.7645C34.1748 31.8564 34.9148 32.144 34.9359 32.2548C35.024 32.7214 34.6074 32.9759 34.8005 33.4985C34.8415 33.6056 35.4827 33.9065 35.5866 33.9836C36.4251 34.6136 34.7631 34.1176 34.6221 34.1216C33.5724 34.1476 33.7317 34.6389 33.4989 35.0489C33.4445 35.144 34.3515 35.4579 34.3296 35.5649C34.203 36.117 33.8769 36.5804 33.2614 36.8622C33.1222 36.9242 32.4485 36.4615 32.345 36.4725C31.8974 36.5253 33.2376 37.2656 32.8342 37.3307C32.7508 37.3454 32.1449 37.0068 32.0728 36.9807C30.9406 36.57 32.3953 37.4475 32.4118 37.4977C32.6523 38.1542 30.9433 37.6146 30.9626 38.1311C30.9666 38.1936 31.8045 38.4812 31.7677 38.6326C31.5247 39.6496 30.8267 40.495 29.7461 41.0762C29.5789 41.1674 29.0413 40.7699 28.9643 40.742C27.7588 40.3124 29.2295 41.1737 29.2635 41.2484C29.4902 41.8219 28.0524 41.5036 29.737 42.6623C28.3406 43.8645 28.5902 45.8914 26.2108 46.5731C26.1824 46.5827 25.4521 46.1702 25.3987 46.1909C24.7466 46.4375 25.9531 46.9375 27.2198 47.9614C27.5378 48.2187 25.7036 47.5849 25.5673 47.542C25.0656 47.3831 23.9931 46.7419 23.8906 46.7219C23.0799 46.5746 26.7748 48.4026 26.6334 48.685C26.6229 48.6906 25.9644 48.3115 25.8852 48.3008C25.6371 48.2665 25.8697 48.4747 25.6006 48.4279C24.9789 48.3181 23.1623 47.4717 24.0761 48.2477C24.1951 48.3477 26.306 49.355 26.0808 49.5555C25.9893 49.6343 25.8009 50.0955 25.6025 50.1518C25.4046 50.2078 24.7754 49.7822 24.7418 49.7764C23.6831 49.6619 23.3789 49.3483 21.9775 48.8506C20.581 48.3555 23.7322 49.8913 24.0465 50.1367C24.3594 50.3824 23.5035 50.2529 23.2181 50.184C22.9328 50.1147 22.5432 49.824 22.372 49.804C21.2503 49.6794 23.8461 50.7444 24.2836 51.1118C25.3201 51.9809 22.8923 51.0215 22.5373 51.1589C22.4414 51.1962 22.9979 51.4077 23.0165 51.4936C23.0832 51.8301 22.286 51.6091 22.8102 52.2203C22.8956 52.3199 24.177 53.249 23.0822 52.8724C22.9244 52.8179 22.3754 52.4681 22.1944 52.5045C21.9231 52.5583 21.6577 52.7692 21.7678 53.0312C21.8494 53.2249 22.8721 53.5677 22.499 53.5708C22.3325 53.5718 21.839 53.164 21.5728 53.1895C21.3069 53.2144 21.1669 53.5519 21.1233 53.6857C21.0804 53.8194 21.8371 54.1172 21.8807 54.1518C22.1289 54.3534 22.3569 54.7675 22.3454 54.7882C21.8993 55.8887 20.19 56.2439 20.0719 57.4778C20.0618 57.5735 20.8507 57.9056 20.857 57.9242C21.0371 58.3606 19.1213 57.1189 18.3461 56.9679C19.9061 57.7225 19.5688 57.6942 19.6401 57.9741C19.6758 58.1096 20.3001 58.3616 20.3571 58.4011C21.1961 58.9999 19.9728 58.5025 19.7199 58.4058C18.7897 58.0507 19.7831 58.6793 19.1607 58.4431C18.5427 58.2091 17.7466 57.625 17.6632 57.8174C18.1901 58.1499 19.7064 58.7429 19.869 59.0034C20.4835 59.9897 18.8457 60.4099 18.5106 60.7795C18.176 61.1485 18.2077 61.3391 17.881 61.4885C17.2902 61.7584 18.4469 62.1357 18.7958 62.6654C19.1453 63.1936 16.5741 61.7218 15.9863 61.4748C15.399 61.2272 15.9611 61.5658 15.6244 61.4572C15.2879 61.3484 14.9557 61.0471 14.7803 61.103C14.605 61.1591 15.4545 61.9853 16.0272 62.3266C17.2406 63.0494 18.6321 63.5746 18.0137 63.6459C17.9773 63.6496 17.312 63.2412 17.2078 63.2731C16.403 63.537 16.0854 64.0824 15.3434 64.3755C15.2402 64.4153 14.5012 63.959 14.4324 63.9778C13.7136 64.1723 15.096 64.6723 16.4191 65.6481C14.5219 64.6193 13.276 64.1581 13.0935 64.4907C12.983 64.6903 13.8414 65.0807 14.3673 65.5122C14.526 65.6421 13.8758 65.4942 14.2579 65.7204C15.5067 66.4606 17.0223 67.0567 16.2692 67.115C16.2341 67.1165 15.5514 66.7096 15.4817 66.741C15.0277 66.942 16.3584 67.668 16.336 68.1186C16.3184 68.4722 15.2338 68.5694 14.9327 68.8317C12.772 67.7296 13.1098 68.2922 14.5378 69.174C14.3682 69.3575 14.3352 69.6322 14.0239 69.7354C13.9177 69.7708 13.3147 69.4071 13.2424 69.3818C12.111 68.9815 13.5158 69.8089 13.5494 69.8837C13.85 70.6629 12.5434 70.5138 13.3766 71.5363C13.4068 71.5729 14.8962 72.3611 13.7338 71.9336C13.6539 71.9036 13.0499 71.3994 12.8831 71.5979C12.7162 71.796 11.6947 71.8145 12.2343 72.4772C12.3639 72.6374 13.4878 73.4455 12.4568 73.1161C12.317 73.071 11.8972 72.8305 11.6423 72.7386C10.8297 72.4469 12.3228 73.2678 10.9753 72.7266C9.62784 72.1853 8.54325 71.9291 9.27441 72.6949C9.29523 72.718 10.4618 73.402 10.3926 73.4915C10.2811 73.6339 9.91644 73.7317 9.84054 73.9012C9.80464 73.9825 10.5781 74.3102 10.5849 74.3309C10.7353 75.0737 9.87809 75.1129 9.30069 75.5358C9.19339 75.6125 10.0614 76.4285 9.1528 76.2228C8.15781 75.9983 4.60201 73.9121 5.21818 74.8656C5.46368 75.2488 9.99056 77.8645 7.39051 77.0126C7.62649 78.0306 6.05512 78.0702 6.54543 79.2207C6.56695 79.272 7.8153 80.0318 7.75922 80.0988C7.67345 80.1968 7.03459 79.9512 6.95386 80.0114C6.60029 80.2558 6.96391 80.8275 6.71837 81.1121C6.62646 81.2208 6.0201 80.8597 5.91038 80.9893C5.8013 81.1192 6.57884 81.6361 6.07821 81.6337C5.69735 81.6304 3.92992 80.926 3.6319 81.0257C5.29593 81.8773 5.1922 81.997 5.50906 82.4637C5.57076 82.5538 6.17671 82.7973 6.23584 82.8551C6.48937 83.0967 5.96598 82.9368 6.24829 83.1874C6.31596 83.2478 6.88505 83.537 6.97253 83.6027C7.738 84.1722 6.33583 83.7628 6.09198 83.6909C5.16515 83.4195 5.86877 83.8679 5.47405 83.8198C5.07948 83.7715 4.75365 83.3803 4.47998 83.4187C3.91364 83.4985 3.81561 83.9206 3.63955 84.2035C3.57287 84.3181 4.37396 84.6223 4.38207 84.6476C4.45137 84.9893 3.51762 84.8271 4.96359 85.7289C0.961919 83.9167 5.26889 86.0684 4.3082 86.021C4.23087 86.0165 2.36133 85.1144 2.14293 84.8712C1.92478 84.6281 2.58468 84.7608 2.23503 84.3999C2.15314 84.3149 0.518431 83.238 0.427023 83.1577C-0.287023 82.5297 2.49549 83.8999 2.65317 83.9656C4.35788 84.6682 2.6113 83.4795 2.51462 83.3499C2.07106 82.7573 2.5862 82.7053 2.28766 82.2466C2.09568 81.9482 0.290923 81.0152 0.410046 80.9176C0.804962 80.5923 3.40746 81.7261 1.41404 80.2231C0.989096 79.9021 -1.03451 78.9834 0.676292 79.4695C0.784065 79.5003 2.32292 79.9968 1.48732 79.4105C1.38193 79.3366 0.804265 79.045 0.766657 78.9989C0.525942 78.6958 1.03462 78.8324 0.893835 78.5637C0.753036 78.2951 0.520193 77.94 0.806729 77.8599C0.978503 77.8111 2.12439 78.2169 2.41392 78.2985C3.24649 78.5365 2.08168 77.7506 3.04616 78.1251C4.01565 78.5012 5.32781 79.389 6.04533 79.452C4.5497 78.684 3.02026 77.8846 1.51884 77.1069C1.83608 76.6111 2.58316 76.3388 2.78306 75.7792C2.80636 75.7091 1.96612 75.3677 1.97031 75.282C1.99146 74.9222 2.69666 74.9556 2.62228 74.5343C2.56168 74.2065 1.83863 73.5159 1.74881 73.1594C3.5421 73.8764 3.14562 73.2134 3.43762 73.0257C3.53917 72.9596 3.99446 73.1979 4.17768 73.207C4.85781 73.236 3.2814 72.586 3.07748 72.3965C2.20792 71.5859 5.65412 73.2981 5.74507 72.9078C5.75105 72.8877 4.03465 71.7368 3.93634 71.6482C3.29267 71.0754 4.58982 71.9379 4.78732 71.8833C5.148 71.7839 5.66436 71.8484 5.2624 71.3121C5.1427 71.1546 4.09569 70.3921 5.05384 70.6888C5.17935 70.7276 5.77877 71.0446 5.82223 71.0466C6.55803 71.0584 4.66103 70.0891 4.10022 69.5994C3.53956 69.1098 4.9797 69.5208 5.3839 69.6608C6.43034 70.0212 5.74981 69.9755 5.8421 70.0314C6.94127 70.6952 6.83793 70.4111 7.00573 70.3192C8.87981 71.2418 8.86758 70.9883 7.17219 70.22C6.98684 70.1364 7.10519 70.334 7.00573 70.3192C5.23971 69.2702 5.11502 68.9353 6.94461 69.5613C7.80223 69.8544 8.68173 70.4342 8.51315 69.9194C8.43738 69.6864 7.12379 69.0969 6.84311 68.7831C6.20292 68.0668 7.60508 68.2673 7.5789 67.8509C7.56937 67.6997 6.80948 67.4578 6.77876 67.3422C6.69504 67.0345 7.3163 67.1151 7.15346 66.7667C7.13782 66.7346 6.37876 66.4094 6.40271 66.3388C6.5688 65.7986 7.26314 65.5956 7.54038 65.0801C7.67427 64.8303 7.49695 64.1741 7.71046 63.9545C8.07528 63.5736 9.42884 63.5529 9.36511 63.034C9.32681 62.697 8.56323 62.3803 8.11691 62.0185C7.2513 61.3179 9.17803 61.8292 9.47257 61.916C9.48226 61.9189 9.54585 62.2237 9.98198 62.2989C10.8027 62.6297 9.47475 61.9201 9.47257 61.916C9.66317 61.9713 10.0492 61.6229 9.95196 61.466C9.89873 61.3805 9.1887 61.054 9.17411 61.0161C8.84502 60.1185 8.9635 59.4447 9.58664 59.022C9.60595 59.0188 10.3775 59.4288 10.4132 59.4163C10.932 59.2513 10.0883 58.5519 9.66399 57.9851C9.24118 57.4161 9.54391 57.2882 10.9664 57.7985C10.9056 57.5005 11.6513 57.4953 12.0988 57.502C12.5462 57.5086 11.0413 56.7165 11.0191 56.686C10.3023 55.7195 11.3083 55.887 11.6981 55.4522C11.8855 55.2478 11.9039 54.6653 11.8677 54.325C11.8365 54.0547 12.2538 54.1127 12.1207 53.8113C12.1031 53.7708 11.4147 53.4544 11.3926 53.4335C10.6894 52.8167 12.2904 53.7523 12.6071 53.8586C13.7586 54.2455 14.3774 54.4406 14.0086 53.9169C13.9245 53.7964 11.6378 52.4126 11.5558 52.2295C11.4536 51.9936 12.2779 52.4802 12.1491 52.2223C12.1388 52.2007 11.6116 51.9373 11.6827 51.8544C12.0056 51.4663 12.5528 51.1443 12.7292 50.665C12.7553 50.6006 11.8811 50.2578 11.9051 50.1577C12.019 49.6872 12.2863 49.2356 12.8842 49.0231C13.034 48.9719 13.586 49.3308 13.7705 49.3966C14.8878 49.7927 13.4599 48.8307 13.4468 48.7845C13.0918 47.6676 14.7662 47.7831 14.4968 46.685C14.4794 46.6237 13.0074 45.4763 14.4811 46.043C14.5792 46.0804 16.0846 46.6648 15.1672 46.0442C15.1098 46.0054 14.3272 45.7196 14.4799 45.6046C14.6317 45.491 14.2658 44.9904 15.1846 45.1879C15.4742 45.2498 16.9853 45.8142 15.9465 45.0366C15.8736 44.9832 13.4519 43.3693 15.2864 44.1594C15.5882 44.2897 17.4613 45.2607 16.6167 44.5341C16.4526 44.394 15.991 44.2641 15.7894 44.0116C15.4782 43.6236 16.1052 43.636 15.3802 42.9872C15.2511 42.8738 14.0598 42.0566 15.0981 42.4118C15.2607 42.4674 15.8688 42.8258 15.9754 42.7897C16.4852 42.6196 16.2446 42.0516 16.853 41.9286C17.0672 41.8844 18.0518 42.4606 18.388 42.4718C18.7242 42.483 19.1147 42.3613 18.7171 41.9947C18.3193 41.6278 16.627 40.953 16.5977 40.6892C16.4785 39.5278 17.8552 39.1651 18.4342 38.3657C18.5202 38.2472 17.8867 38.0608 17.9718 37.8654C18.283 37.1433 18.3434 35.6755 19.8835 35.6879C21.1145 35.7028 21.5571 36.6917 22.1454 36.5251C22.4271 36.4436 20.6417 35.2991 20.6041 35.2263C20.2126 34.5056 21.1961 34.632 21.1333 34.121C21.12 34.0155 20.3179 33.7066 20.315 33.6211C20.2983 33.3256 20.7599 33.2589 20.8071 33.0108C20.8266 32.8987 20.2348 32.6217 20.3249 32.5553C20.534 32.3924 20.8729 32.3307 21.5253 32.3972C21.5849 32.403 22.2439 32.9001 22.3522 32.7529C22.5254 32.5138 23.2268 32.4651 22.82 31.8878C22.697 31.7154 21.367 31.0379 22.3819 31.3152C22.594 31.3731 24.1679 32.2323 22.8966 31.3146C22.6859 31.1611 21.0062 29.854 22.2993 30.2808C22.64 30.3923 24.0112 30.931 23.8595 30.7204C23.8339 30.6893 23.0893 30.3852 23.0641 30.2617C22.988 29.8326 23.2281 29.5475 23.1634 29.1191C23.1447 29.004 22.3411 28.7547 22.3368 28.5952C22.3229 28.1581 22.7306 27.8203 23.1357 27.5948C23.2861 27.5131 23.8554 27.9102 23.9268 27.9348C25.0866 28.3371 23.6653 27.5093 23.6044 27.4175C23.2456 26.8567 24.0494 26.9766 24.0063 26.6097C23.9962 26.5094 23.2705 26.2097 23.2158 26.1631C22.6862 25.6988 23.8819 26.45 24.0702 26.4211C24.6057 26.3348 24.71 25.9894 24.7645 25.66C24.7835 25.5385 23.9141 25.246 23.9405 25.1417C24.0803 24.519 24.4478 23.9849 25.1709 23.6643C25.3081 23.6056 25.8994 23.9854 26.0526 24.0362C27.1235 24.3939 25.8719 23.4926 25.7672 23.3782C25.2885 22.8564 25.8836 23.0495 25.8792 22.8025C25.8641 21.5599 26.8305 20.5568 27.5168 19.7606C28.4116 18.7129 29.4749 18.0844 29.8897 16.8819C29.9165 16.8066 29.0506 16.4581 29.063 16.3879C29.2778 15.4667 29.9931 14.8577 30.1646 13.9239C30.1794 13.8493 29.3451 13.5455 29.3425 13.4125C29.3366 13.266 29.3845 13.1275 29.4844 13.0176C29.5756 12.9143 29.7069 12.8332 29.8771 12.7884C30.0531 12.741 30.6545 13.2281 30.8177 13.1735C31.1994 13.0474 31.3907 12.8083 31.3918 12.4931C31.3905 12.3582 30.5044 12.1123 30.5653 11.9689C30.9888 10.9334 31.3189 9.9369 32.8653 9.46646C32.9708 9.43558 34.6359 10.2036 34.3934 9.90448C33.9449 9.66436 33.4108 9.39492 32.928 9.14497C33.3807 7.60132 34.6592 6.48095 35.4646 5.10589C35.4979 5.04863 34.5799 4.71236 34.64 4.59955C34.9957 3.92786 35.0747 3.17546 36.2875 2.91532C36.405 2.89222 37.9116 3.69797 37.7851 3.37566C37.763 3.31486 37.7067 2.92116 37.4173 2.67177C37.3729 2.63564 36.6327 2.33273 36.6626 2.22195C36.8385 1.6056 37.3021 1.09163 38.0219 0.746884C38.139 0.692815 38.8486 1.1713 38.9383 1.13653C39.5711 0.88336 39.2467 0.0936518 40.1553 0.00320745C40.7658 -0.0553901 42.0224 0.712518 43.3908 1.20686C43.5841 1.27619 43.7033 1.11042 44.459 1.47829C46.3613 2.40002 48.3869 3.52377 50.4196 4.49609C50.8577 4.70508 50.5135 4.2248 51.4895 4.89492C51.5548 4.93973 51.8124 5.2947 52.1442 5.52035C52.3749 5.67384 53.1667 6.00194 53.4498 6.22266C53.7303 6.44797 53.0562 6.1937 53.3728 6.48478C53.695 6.77616 54.5839 7.17303 54.5839 7.42913ZM14.1011 57.5273C14.9114 57.7347 12.2547 56.3604 12.8049 56.8581C12.8347 56.8837 14.0611 57.5176 14.1011 57.5273ZM4.59444 77.3608C5.87897 77.7441 4.22164 76.7231 3.2368 76.4128C2.25295 76.103 4.20489 77.2449 4.59444 77.3608ZM4.34154 79.9937C5.39506 80.2154 1.63046 78.2614 2.26113 78.9141C2.29656 78.9514 4.28031 79.9809 4.34154 79.9937ZM43.3952 2.11313C43.4302 2.1319 43.5334 2.01316 43.4991 1.99368C42.6863 1.49586 42.4846 1.72552 43.3952 2.11313ZM4.17322 82.6487C4.72428 82.8304 4.24599 82.3087 3.56081 82.0827C3.00958 81.9009 3.48769 82.4228 4.17322 82.6487ZM21.2312 50.5066C21.2723 50.5241 21.3557 50.4482 21.13 50.3363C20.4027 49.9763 20.5408 50.2107 21.2312 50.5066ZM2.34028 86.3791C2.76015 85.903 6.05429 87.1527 5.39955 87.571C5.28103 87.6468 4.52055 86.8336 4.1691 86.8285C3.52828 86.8204 5.40644 87.9809 4.22462 87.7056C4.00857 87.6547 2.30939 86.4027 2.33642 86.3759C2.33771 86.377 2.33899 86.3781 2.34028 86.3791ZM17.3536 59.0564C17.3906 59.0711 17.4895 58.9585 17.4561 58.9377C16.6443 58.4389 16.4445 58.6653 17.3536 59.0564ZM25.6565 45.8571C25.7354 45.8879 25.9575 45.6236 25.8931 45.5789C24.5867 44.7214 24.1337 45.2536 25.6565 45.8571ZM14.8723 68.8077C15.6527 69.3811 15.667 69.602 14.5393 69.1739C14.6676 69.0612 14.748 68.9232 14.8723 68.8077Z" fill="#62ABFC"/>
</svg>
