<svg width="124" height="80" viewBox="0 0 124 80" fill="none" xmlns="http://www.w3.org/2000/svg">
<path d="M109.514 76.584C108.903 75.0256 108.914 73.479 109.066 72.3083C109.114 71.9378 109.559 72.0689 109.612 71.8185C109.717 71.325 109.462 70.9246 109.609 70.4546C109.66 70.2974 110.348 70.4123 110.386 70.2497C110.591 69.3708 110.347 68.5998 110.417 67.7467C110.628 65.2018 110.736 62.7598 110.808 60.3039C110.861 58.8188 110.851 57.2969 110.826 55.7404C110.805 54.4382 111.244 52.7843 110.83 51.4498C110.782 51.2943 110.206 51.4528 110.154 51.4279C109.363 51.0352 110.563 51.0622 110.687 50.7351C111.173 49.4339 111.074 48.047 110.725 46.8595C110.574 46.3527 109.461 46.989 110.063 46.4014C110.104 46.3606 110.74 46.431 110.792 46.2816C110.909 45.9449 110.74 45.3461 110.767 45.0852C110.822 44.5933 110.809 44.5113 110.779 44.0451C110.743 43.4068 111.002 42.624 110.831 41.9215C110.799 41.796 110.344 41.9363 110.131 41.8415C110.091 41.8245 110.059 41.7996 110.041 41.7636C109.922 41.5347 109.956 40.9222 110.102 40.7122C110.247 40.5032 110.754 40.5763 110.869 40.5369C111.835 40.2115 110.468 39.5476 110.434 39.4555C109.832 37.8141 110.603 36.4001 110.608 34.8866C110.61 33.7352 110.366 32.5149 110.402 31.4426C110.449 30.1641 110.791 29.0859 110.709 27.8566C110.701 27.7265 109.95 27.8931 109.938 27.7346C109.818 26.0608 109.836 24.4128 110.247 22.7133C110.289 22.5429 110.963 22.7202 111.045 22.5468C111.095 22.4346 111.154 22.3145 111.215 22.1884C111.739 21.1601 112.379 19.7002 109.753 19.4569C109.793 18.7768 109.804 17.9497 110.293 17.2571C110.607 16.8097 111.377 17.0915 111.001 16.6466C110.917 16.5462 110.312 16.7812 110.234 16.6248C109.903 15.9676 109.985 15.1743 109.549 14.5324C109.459 14.4021 108.906 14.532 108.799 14.5084C108.79 14.5064 108.782 14.5043 108.774 14.5022C108.381 14.5033 108.51 14.4305 108.734 14.2986C108.959 14.1726 109.277 13.99 109.314 13.9472C109.859 13.2763 109.365 13.01 109.039 12.6351C108.959 12.5433 108.499 13.1642 108.412 13.1058C107.977 12.8107 107.493 12.3828 106.978 11.7356C106.863 11.5899 107.297 11.0846 107.254 10.9839C107.034 10.5386 106.443 11.6152 106.222 11.232C106.172 11.1522 106.426 10.6574 106.437 10.5957C106.583 9.61957 105.883 10.8026 105.823 10.8119C104.998 10.9383 104.948 9.44197 104.102 9.41232C104.003 9.41121 104.022 10.1447 103.758 10.1014C103.599 10.0755 103.438 10.047 103.277 10.0156C102.308 9.86372 100.935 9.75183 99.3401 9.63897C99.0685 9.62082 99.1111 9.0645 99.0801 9.00538C98.5436 8.09663 98.7319 9.46044 98.6693 9.53243C98.1412 10.0729 97.12 9.23169 97.2654 10.9153C94.7432 11.3862 92.7078 13.2021 90.0468 13.9429C89.5003 14.1334 88.9345 14.2405 88.371 14.2571C88.3209 14.2598 88.1387 13.6096 88.0435 13.616C86.9076 13.6511 87.4816 14.5395 87.0577 15.9898C86.9304 16.3583 86.0035 14.9939 85.9479 14.8881C85.6913 14.5177 85.661 13.5049 85.5886 13.438C85.0363 12.9041 85.7232 16.1355 85.0257 16.2475C85.0043 16.2452 85.0003 15.6319 84.936 15.5806C84.7385 15.4188 84.6028 15.6811 84.4087 15.4953C83.9659 15.0626 83.6857 13.4835 83.2302 14.4603C83.1698 14.5861 83.4405 16.4443 82.8526 16.3983C82.6183 16.3811 81.6193 16.463 81.3424 16.3484C81.0641 16.2366 81.233 15.6278 81.2122 15.6024C80.4596 14.8275 80.7309 14.4883 80.3477 13.317C79.9725 12.1487 80.1239 14.9501 79.9823 15.2657C79.839 15.5805 79.3071 14.93 79.1765 14.7027C79.0455 14.4755 79.201 14.0906 79.0856 13.9625C78.327 13.125 78.7706 15.3578 78.527 15.8054C77.9552 16.865 77.4829 14.79 76.9479 14.5944C76.8035 14.5416 76.9281 15.0133 76.8013 15.0597C76.3016 15.2376 75.9818 14.595 75.4291 15.2074C75.3359 15.3072 74.9329 16.5723 74.6019 15.6694C74.554 15.5392 74.6498 15.0158 74.4317 14.9099C74.1054 14.7505 73.5222 14.6716 73.1952 14.8702C72.9543 15.017 73.3049 15.8463 72.9732 15.6063C72.8245 15.4995 73.0435 14.9804 72.7647 14.8219C72.4877 14.6621 71.8157 14.7509 71.5631 14.7993C71.3104 14.8468 71.5277 15.4735 71.5119 15.5192C71.4325 15.7446 71.1037 16.05 70.9882 16.1359C70.9679 16.1501 70.9536 16.1582 70.9474 16.1589C68.7274 16.5469 66.5343 15.7282 64.409 16.3439C64.2418 16.3913 64.4354 17.0562 64.4107 17.0704C63.8585 17.4235 64.1062 15.566 63.6311 15.0095C63.8498 16.3794 63.5824 16.1581 63.1867 16.3565C62.9975 16.453 63.1661 16.9739 63.1543 17.0305C62.9535 17.8739 62.6288 16.8509 62.5522 16.6428C62.2676 15.8775 62.1623 16.8312 61.9711 16.3195C61.7813 15.8116 61.9991 15.0036 61.6073 15.0569C61.5509 15.5623 61.9864 16.8188 61.7088 17.0607C60.66 17.9772 58.4421 17.1825 57.5238 17.1646C56.6064 17.1479 56.3195 17.2664 55.7764 17.1371C54.7878 16.9031 55.2323 17.828 54.6745 18.3208C54.1165 18.813 54.1972 16.4292 54.0661 15.9301C53.9377 15.4309 53.8931 15.9605 53.7643 15.6912C53.636 15.4219 53.8299 15.0575 53.5769 14.9745C53.3211 14.8919 52.7383 15.8507 52.695 16.3883C52.6081 17.5271 53.009 18.6803 52.326 18.3212C52.2868 18.2998 52.3547 17.6694 52.2072 17.6188C51.0321 17.2374 49.8527 17.3028 48.6906 16.9678C48.5299 16.9208 48.6161 16.2196 48.5221 16.1845C47.5467 15.8152 47.9752 16.9531 47.5526 18.2856C47.5394 16.5558 47.1745 15.5247 46.4618 15.567C46.0304 15.5919 46.1586 16.3382 45.921 16.8882C45.8498 17.0539 45.5088 16.5595 45.4787 16.9171C45.3797 18.0858 45.7571 19.3596 44.9818 18.8967C44.9478 18.8745 45.0058 18.2346 44.8917 18.2041C44.1523 18.004 44.1462 19.2194 43.3741 19.4192C42.9629 19.5243 42.3295 19.2621 41.7289 19.0546C41.7118 19.0573 41.6596 19.0566 41.6423 19.0585C41.3593 18.9425 41.0705 18.8405 40.8384 18.8053C40.8183 16.865 40.1561 17.3225 39.9198 18.6646C39.4601 18.6181 38.9753 18.7014 38.5285 18.523C38.3781 18.4621 38.4682 17.8989 38.4485 17.8385C38.1458 16.8905 37.9641 18.1947 37.8653 18.247C36.8088 18.7569 35.9344 17.7794 34.9272 18.7522C34.8916 18.7873 34.8452 20.1356 34.5651 19.1537C34.5469 19.086 34.8783 18.4701 34.3988 18.4265C33.9214 18.3827 33.02 17.6663 32.3582 18.2942C32.2002 18.4454 31.8006 19.5416 31.4694 18.6881C31.4253 18.5722 31.4714 18.1854 31.4076 17.9706C31.2036 17.286 31.0988 18.6488 30.8569 17.4923C30.6138 16.3358 30.1211 15.4708 29.4547 16.2707C29.4337 16.294 29.2785 17.3741 29.0687 17.3574C28.7338 17.3298 28.2579 17.1054 27.9085 17.1126C27.7411 17.1164 27.8486 17.7869 27.8195 17.7992C26.6928 18.1752 25.8918 17.5767 24.6864 17.3142C24.4661 17.2647 23.8265 18.1771 23.4015 17.4524C22.934 16.6591 23.4311 13.3698 22.351 14.1487C21.9164 14.4601 21.337 18.6331 20.571 16.4639C19.0474 16.9889 17.6558 15.8678 16.1291 16.6126C16.0593 16.6455 15.8243 17.8079 15.6638 17.7897C15.4256 17.7604 15.306 17.2137 15.1326 17.1751C14.4239 16.9999 13.7559 17.4541 13.0703 17.3673C13.0371 17.3632 13.01 17.3503 12.9873 17.3308C12.8273 17.1992 12.8701 16.7693 12.5989 16.7358C12.2954 16.698 12.0572 17.4343 11.6516 17.0657C11.3326 16.7844 11.0658 15.2607 10.6437 15.0718C10.587 16.5662 10.2917 16.5271 9.7698 16.9059C9.66676 16.9793 9.75897 17.5029 9.70903 17.5645C9.50435 17.8265 9.34318 17.3898 9.15427 17.6758C9.1068 17.7445 9.08818 18.2548 9.04859 18.3398C8.71499 19.0815 8.24441 17.9163 8.16851 17.7137C7.85477 16.9431 7.68545 17.602 7.43554 17.2944C7.19233 16.9872 7.58233 16.6259 7.29379 16.4348C6.69102 16.0394 5.88422 16.0968 5.25512 16.0629C4.99912 16.0525 5.1634 16.7369 5.12645 16.7513C4.61168 16.9156 4.07276 16.1922 3.81112 17.5553C3.38271 14.0536 3.50614 17.8963 2.77071 17.2303C2.71316 17.1768 2.5299 15.5239 2.75575 15.2672C2.98471 15.0108 3.36212 15.5154 3.67854 15.1296C3.75001 15.0382 4.18711 13.4777 4.25329 13.384C4.75004 12.6469 4.79144 15.1308 4.81508 15.2668C5.07252 16.7393 5.62078 15.0739 5.76345 14.9617C6.40899 14.4463 6.93084 14.8126 7.46369 14.451C7.8136 14.2177 7.89865 12.5944 8.16436 12.6531C9.04428 12.847 9.27444 15.1233 10.1636 13.1838C10.3512 12.7699 10.2391 10.9898 10.8214 12.4039C10.8609 12.4932 11.291 13.7835 11.5883 12.9827C11.6257 12.8817 11.6379 12.3642 11.6849 12.3219C11.987 12.0482 12.1833 12.4656 12.5134 12.2757C12.6908 12.1725 12.8913 12.0411 13.1008 11.9719C13.2691 11.9134 13.4434 11.899 13.6144 11.9827C13.8443 12.0922 14.1076 13.0617 14.214 13.2998C14.5126 13.9855 14.8559 12.8757 15.0334 13.7024C15.2138 14.5333 14.8131 15.7845 15.3161 16.3273C15.3563 14.9828 15.4191 13.6031 15.4692 12.251C16.5675 12.315 17.6492 12.7628 18.7557 12.7141C18.894 12.7067 18.7607 11.9823 18.9074 11.9557C19.5256 11.8467 20.064 12.3666 20.7127 12.166C21.209 12.0078 21.7637 11.2457 22.2844 11.0556C22.5968 12.5963 23.3723 12.0775 23.9336 12.22C24.1304 12.2693 24.1159 12.6803 24.2558 12.8149C24.7845 13.3124 24.5396 11.9516 24.6852 11.738C25.3078 10.8261 25.3555 13.9047 26.0898 13.8297C26.1289 13.8268 26.606 12.1864 26.6712 12.0842C27.087 11.4181 26.7396 12.6554 26.9997 12.7767C27.4743 12.9985 27.8059 13.3903 28.3623 12.9091C28.5244 12.7666 28.9137 11.7434 29.2298 12.5338C29.2715 12.6374 29.2496 13.1798 29.283 13.2115C29.8895 13.7397 29.9022 12.0353 30.2447 11.4572C30.5873 10.8791 31.1261 12.0536 31.2351 12.3922C31.5218 13.2682 31.0196 12.7679 31.0043 12.854C30.8277 13.8791 31.215 13.7013 31.5138 13.7865C31.5646 15.4574 31.9818 15.3551 31.8236 13.8681C31.8058 13.7057 31.5743 13.8626 31.5138 13.7865C31.7708 12.1459 32.2195 11.9338 32.7372 13.463C32.9782 14.1796 32.7584 15.0183 33.4761 14.7074C33.8027 14.567 33.6686 13.4173 33.9532 13.1015C34.6039 12.3812 35.468 13.447 36.1406 13.2709C36.3872 13.2069 36.14 12.5796 36.3078 12.5142C36.7489 12.3386 37.1507 12.8065 37.5902 12.5587C37.6298 12.5355 37.5239 11.8775 37.6606 11.8673C38.7099 11.7769 39.6318 12.185 40.7203 12.1745C40.926 12.1724 41.2039 12.1115 41.4783 12.0421L41.2696 12.0514C41.7131 11.9249 42.1809 11.7768 42.5168 11.7986C43.4795 11.857 44.7101 12.7319 45.5105 12.4404C46.0254 12.2536 45.8651 11.604 46.059 11.1393C46.4324 10.2388 47.32 11.7365 47.444 11.9693C47.4482 11.977 47.0028 12.1665 47.2722 12.4856C47.4672 13.1783 47.4391 11.9727 47.444 11.9693C47.5233 12.12 48.4455 12.1993 48.616 12.0594C48.7084 11.9831 48.605 11.3645 48.654 11.3364C49.8251 10.684 51.0229 10.4267 52.275 10.6121C52.2978 10.6228 52.3251 11.3219 52.3779 11.3384C53.1129 11.5868 53.4971 10.6944 54.0361 10.1361C54.5742 9.57802 55.053 9.70409 55.51 10.8662C55.9384 10.6743 56.6185 11.1417 57.0182 11.4258C57.4148 11.7103 57.3303 10.3515 57.3596 10.3216C58.2737 9.36558 58.9254 10.0815 59.9721 10.092C60.4737 10.099 61.422 9.79646 61.9384 9.58803C62.3429 9.42164 62.6343 9.70905 62.9961 9.46176C63.045 9.42865 62.9223 8.83314 62.9355 8.80813C63.2805 8.03821 63.2472 9.53287 63.367 9.78511C63.8036 10.702 64.0633 11.1872 64.5652 10.6709C64.6808 10.5526 64.7938 8.39102 65.0091 8.23874C65.2902 8.04455 65.2693 8.81725 65.5628 8.59406C65.588 8.57565 65.524 8.10856 65.7208 8.10477C66.633 8.08108 67.6517 8.22495 68.5827 8.05143C68.7101 8.0295 68.4459 7.31063 68.628 7.26678C68.9811 7.18183 69.3534 7.1138 69.7288 7.07968C70.3915 7.01295 71.0534 7.03365 71.6684 7.18197C71.9266 7.24702 71.8171 7.78297 71.8851 7.93285C72.2907 8.84007 72.6372 7.44323 72.7151 7.41178C74.5025 6.62828 75.8858 7.84039 77.5426 7.23036C77.6331 7.19454 78.3097 5.72234 78.6212 6.9759C78.643 7.05927 78.952 8.34188 79.2008 7.45974C79.2157 7.40454 79.0279 6.74499 79.343 6.80848C79.658 6.87177 80.1409 6.42215 80.5621 7.1384C80.6928 7.3641 81.0469 8.63768 81.3786 7.60046C81.4126 7.52836 81.826 5.19405 82.099 6.77297C82.1433 7.0326 82.2364 8.72044 82.5795 7.82549C82.6411 7.65197 82.4753 7.28836 82.6505 7.03734C82.9072 6.65157 83.338 7.05808 83.5247 6.26898C83.5651 6.12845 83.5621 4.96915 83.8596 5.79638C83.909 5.92543 83.9715 6.48757 84.0659 6.53299C84.5293 6.74758 84.7368 6.29301 85.0935 6.56859C85.2261 6.66217 85.5327 7.52199 85.7399 7.69752C85.9444 7.87561 86.2867 7.96123 86.163 7.54732C86.163 7.54722 86.163 7.54712 86.163 7.54702C86.2009 7.03718 85.1677 5.96515 85.4974 5.63071C86.9439 4.17307 89.1487 3.90726 91.1225 3.10394C91.4185 2.9845 90.9553 2.62749 91.3834 2.41728C92.8989 1.63636 95.9115 -0.00130367 98.0057 0.721851C99.5962 1.30478 97.9721 2.30965 99.0778 2.46345C99.5822 2.54432 99.9357 0.799622 100.084 0.730731C101.403 0.0508127 102.479 0.777232 103.903 0.720587C104.208 0.713607 104.003 -0.00537682 104.275 5.19753e-05C104.797 0.0104184 105.328 0.183526 105.844 0.384711C106.041 0.487846 106.268 0.596906 106.501 0.635707C106.744 0.675524 106.841 0.159985 107.053 0.262545C107.565 0.504116 108.004 0.869645 108.393 1.52064C108.427 1.57949 107.886 2.08089 108.288 2.2445C108.941 2.51105 109.574 3.27395 110.574 3.1963C110.87 3.17211 111.419 2.10522 111.575 3.11525C111.611 3.33119 110.778 4.50221 111.982 3.75751C112.152 3.6072 114.173 2.88212 114.104 4.18834C114.085 4.52619 113.698 5.70858 114.092 5.80373C114.152 5.81614 114.405 5.18755 114.694 5.35365C115.709 5.95899 116.571 6.98988 117.487 8.06338C117.734 8.3569 117.994 7.51198 118.354 7.98585C119.29 9.21194 119.854 11.1685 119.889 12.6806C119.884 12.7381 119.878 12.7946 119.872 12.8499C119.838 13.1304 119.265 13.0334 119.21 13.0627C118.3 13.5329 119.627 13.5101 119.719 13.6036C120.277 14.1894 119.746 14.7918 119.999 15.391C120.067 15.5569 120.669 15.3448 120.729 15.3711C121.321 15.6531 120.169 15.5455 120.079 15.7895C119.822 16.4738 119.966 17.1826 120.122 17.8338C120.18 18.0732 120.87 17.7161 120.914 17.9336C121.165 19.1171 121.226 20.3902 120.98 21.5837C120.958 21.6866 120.934 21.7887 120.907 21.8898C120.844 22.1215 120.277 22.0115 120.152 22.0662C119.279 22.4373 120.522 22.8488 120.644 22.9519C121.199 23.4225 120.714 23.6441 120.826 24.081C121.385 26.2246 121.101 28.9175 120.895 30.907C120.634 33.5025 120.068 35.4296 120.224 37.7407C120.234 37.8875 120.976 37.7333 120.994 37.8593C121.138 39.0615 121.038 40.2333 121.098 41.415C121.116 41.7623 121.159 42.1349 121.24 42.5176C121.265 42.6389 121.957 42.4157 122.02 42.6059C122.155 43.0017 122.159 43.5251 121.973 43.9767C121.884 44.1963 121.256 43.9677 121.179 44.1894C120.998 44.7061 121.001 45.2589 121.167 45.7709C121.239 45.9908 121.922 45.5785 121.96 45.8693C122.235 47.8404 122.592 49.8507 121.884 52.0618C121.835 52.2134 120.391 52.493 120.702 52.771C121.109 52.7526 121.585 52.7024 122.018 52.6681C122.426 54.9302 122.402 57.2658 122.37 59.6675C122.355 60.4247 122.35 61.1672 122.377 61.9214C122.381 62.0443 123.143 61.7846 123.156 62.0216C123.231 63.4101 123.538 64.7163 122.882 66.1693C122.818 66.3139 121.45 66.3496 121.691 66.7463C121.734 66.8157 121.97 67.4119 122.28 67.5402C122.326 67.5569 122.951 67.3898 122.988 67.5803C123.189 68.701 123.168 69.8703 122.927 70.9583C122.887 71.1347 122.19 71.0513 122.156 71.1786C121.919 72.0831 122.591 72.8931 122.123 73.4873C121.799 73.8509 120.647 74.1032 119.628 74.674C119.495 74.7806 119.496 74.8423 118.92 75.1874C117.541 76.1736 115.786 76.8457 114.3 77.8741C114.142 77.9869 114.348 78.3417 114.611 78.752C114.878 79.1481 115.036 79.5115 114.077 79.1423C113.999 79.101 113.625 78.7732 113.316 78.4865C113.017 78.2291 112.735 77.9926 112.543 77.9555C112.271 77.8861 111.779 78.4662 111.37 78.2334C110.967 78.0059 111.385 77.4889 110.943 77.1974C110.508 76.9207 109.792 77.269 109.514 76.584ZM58.807 12.6922C59.2136 13.3072 59.0168 10.922 58.7103 11.529C58.6957 11.5612 58.7862 12.6621 58.807 12.6922ZM17.62 14.5666C18.0623 15.627 18.3764 14.0782 18.0731 13.2599C17.7685 12.4425 17.4864 14.2451 17.62 14.5666ZM12.9732 15.2642C12.9924 15.2956 13.0112 15.3212 13.0294 15.3413C13.4806 15.8557 13.5987 12.786 13.071 13.3772C13.067 13.3814 13.063 13.3859 13.059 13.3906C13.0252 13.4286 12.9431 15.2152 12.9732 15.2642ZM119 73.6584C118.969 73.668 118.994 73.9163 119.026 73.9134C119.793 73.8581 119.75 73.3936 119 73.6584ZM8.34509 15.9725C8.49254 16.4367 8.98223 15.9227 8.79865 15.3456C8.64984 14.8813 8.16149 15.3951 8.34509 15.9725ZM76.9154 13.4268C76.9215 13.4623 77.121 13.4915 77.1141 13.29C77.0916 12.6411 76.8154 12.8285 76.9154 13.4268ZM0.345566 16.2124C1.59299 16.1541 2.4895 18.897 1.30535 18.7144C1.08216 18.6855 1.65477 17.7688 1.34889 17.5528C0.759851 17.1639 0.700266 18.9545 0.0277974 18.1155C-0.103392 17.9624 0.267949 16.209 0.347035 16.2083C0.346546 16.2096 0.346058 16.211 0.345566 16.2124ZM59.2972 15.531C59.3075 15.5618 59.5839 15.5633 59.5871 15.5314C59.6562 14.7605 59.1006 14.7569 59.2972 15.531ZM88.8692 13.3036C88.9057 13.3474 89.3398 13.1716 89.5058 13.052C89.5421 13.0261 89.5636 13.0044 89.5606 12.9913C89.4428 12.5911 89.2416 12.3783 89.0537 12.3076C88.6597 12.1684 88.2907 12.6102 88.8692 13.3036ZM40.8265 18.7538C40.5464 19.5239 40.172 19.6209 39.9212 18.6656C40.2141 18.7113 40.5304 18.7128 40.8265 18.7538Z" fill="#FF9100"/>
</svg>
