<svg width="39" height="31" viewBox="0 0 39 31" fill="none" xmlns="http://www.w3.org/2000/svg">
<path d="M0.0486054 23.4861C0.584641 22.1454 1.13617 21.9294 1.62961 21.7954C1.78117 21.7633 2.06407 22.0853 2.18179 22.0777C2.40703 22.0684 2.34372 21.8256 2.57702 21.8591C2.65645 21.8711 3.12109 22.3592 3.19227 22.3622C3.58085 22.3734 3.59452 22.1065 3.85554 22.0368C5.10841 21.7339 5.94714 21.2589 6.85758 20.7933C7.15429 20.6428 7.85372 20.8127 7.90581 20.3912C7.91182 20.3412 7.485 19.9338 7.45655 19.8937C7.0212 19.2798 7.82076 20.1624 7.98326 20.2252C8.28558 20.342 8.50712 20.3612 8.66384 20.3093C8.83296 20.2576 8.92002 20.1164 8.94613 19.9246C8.9661 19.769 8.06753 19.0081 8.61107 19.3976C8.64769 19.4241 9.0594 19.8967 9.12872 19.9228C9.28491 19.9811 9.30837 19.8038 9.38442 19.7998C9.53302 19.7944 9.54208 19.777 9.62415 19.7085C9.74169 19.6174 10.0738 19.7309 10.0889 19.5207C10.0906 19.4747 9.61659 19.0398 9.57956 18.9243C9.54242 18.8091 9.683 18.7506 9.82088 18.8283C9.95841 18.9065 10.2915 19.2858 10.377 19.3641C11.0971 20.0263 10.282 18.9363 10.2743 18.8976C10.1595 18.2217 10.9164 18.566 11.1762 18.3182C11.3655 18.1354 11.4022 17.752 11.612 17.603C11.8597 17.431 12.2913 17.5034 12.4621 17.2621C12.4808 17.237 11.9393 16.7102 11.9612 16.6783C12.1965 16.3384 12.5452 16.1262 13.1877 16.2249C13.2526 16.2353 13.6651 16.7564 13.7569 16.7958C14.3082 17.027 15.4784 17.7261 13.6287 15.5075C13.8291 15.4756 14.0544 15.426 14.5587 15.7519C14.8831 15.9619 15.3038 16.5558 15.1818 16.2494C15.1549 16.1808 14.7009 15.7396 14.693 15.6719C14.6606 15.3871 14.9346 15.4141 14.8354 15.0616C14.8143 14.9888 14.4242 14.578 14.3622 14.4964C13.8626 13.8337 14.8856 14.7481 14.9743 14.8014C15.6396 15.1951 15.5617 14.8714 15.7266 14.7449C15.7651 14.7158 15.2094 14.193 15.228 14.1448C15.3315 13.9022 15.5614 13.7807 15.9618 13.8725C16.0522 13.8941 16.4535 14.4053 16.519 14.4401C16.8026 14.588 15.9961 13.667 16.2525 13.7911C16.3055 13.8161 16.6698 14.2347 16.7139 14.277C17.405 14.9414 16.5333 13.9021 16.5254 13.8689C16.4044 13.4262 17.4529 14.3851 17.4659 14.1026C17.4666 14.0678 16.9548 13.5843 16.9854 13.518C17.1877 13.0727 17.6684 12.8979 18.374 13.0179C18.4829 13.036 18.7994 13.4606 18.8462 13.506C19.5784 14.2135 18.7013 13.1719 18.6838 13.1187C18.5687 12.7259 19.4545 13.4643 18.4609 12.1778C19.3952 12.0949 19.349 10.9161 20.8705 11.5083C20.8887 11.5146 21.3205 12.0275 21.355 12.038C21.7742 12.1695 21.0508 11.4186 20.3198 10.3643C20.1365 10.0993 21.2412 11.1758 21.3236 11.2536C21.6265 11.5404 22.2575 12.3135 22.3201 12.3655C22.8152 12.7714 20.6205 10.3098 20.7247 10.2166C20.7316 10.2178 21.1192 10.6852 21.1679 10.7228C21.3204 10.8409 21.188 10.6362 21.3527 10.7695C21.7333 11.0786 22.8135 12.2626 22.29 11.481C22.2218 11.3798 20.9684 9.99088 21.1201 9.97523C21.1812 9.97048 21.3257 9.801 21.452 9.85151C21.5781 9.90196 21.9437 10.3832 21.9642 10.3999C22.6138 10.8905 22.7843 11.1803 23.6235 12.0141C24.4594 12.8449 22.5959 10.7495 22.4152 10.4918C22.2351 10.2346 22.7589 10.6503 22.9315 10.8032C23.1042 10.956 23.3284 11.2687 23.4333 11.349C24.1201 11.872 22.5754 10.2503 22.3263 9.87697C21.7373 8.99242 23.1839 10.4901 23.4111 10.5625C23.4726 10.582 23.1411 10.2426 23.1347 10.1895C23.1134 9.98385 23.5925 10.4272 23.3043 9.88962C23.2572 9.80217 22.5213 8.7854 23.1761 9.43217C23.2703 9.52562 23.5879 9.93612 23.7023 9.99062C23.8737 10.0726 24.0508 10.0692 23.9991 9.8851C23.9607 9.74892 23.3508 9.14738 23.5813 9.29881C23.6841 9.36659 23.9634 9.7854 24.1291 9.88127C24.2946 9.97727 24.4008 9.85685 24.4356 9.8042C24.4706 9.75086 24.0228 9.28161 23.9981 9.2453C23.8579 9.03616 23.744 8.72232 23.7524 8.71612C24.0989 8.31442 25.1746 8.83227 25.3277 8.22972C25.3408 8.18281 24.8796 7.67831 24.877 7.66577C24.7979 7.358 25.8864 8.8157 26.3513 9.21879C25.447 8.16821 25.6521 8.32355 25.6278 8.1453C25.6153 8.05854 25.2504 7.6642 25.2183 7.61945C24.7463 6.95122 25.4608 7.7261 25.6087 7.88318C26.1531 8.46063 25.5887 7.7121 25.9527 8.09797C26.314 8.48102 26.7611 9.12304 26.8242 9.05714C26.525 8.66052 25.6398 7.71058 25.5581 7.50487C25.2557 6.72095 26.2828 7.18965 26.5181 7.13248C26.7504 7.07751 26.7448 6.96362 26.9537 7.02398C27.3301 7.13451 26.6583 6.44136 26.4887 6.01114C26.3202 5.58022 27.7637 7.45739 28.1013 7.8387C28.438 8.22034 28.1235 7.80124 28.319 8.00258C28.5143 8.20401 28.6927 8.50498 28.8027 8.5507C28.9125 8.59645 28.4606 7.79773 28.1411 7.37185C27.4638 6.46987 26.6641 5.59521 27.0435 5.82282C27.0657 5.83655 27.4356 6.3379 27.5008 6.36599C28.0134 6.56756 28.2428 6.4214 28.715 6.58719C28.7807 6.61065 29.186 7.17296 29.229 7.19283C29.6768 7.40274 28.8887 6.5378 28.1802 5.44466C29.2291 6.81559 29.9363 7.6023 30.0689 7.51099C30.0943 7.49373 30.0637 7.42369 30.0013 7.32144C29.8674 7.09966 29.5839 6.7283 29.3955 6.41455C29.3125 6.27612 29.6877 6.63979 29.4797 6.35247C28.8006 5.41255 27.9493 4.43129 28.4064 4.73013C28.4275 4.74479 28.7974 5.26063 28.8419 5.27471C29.1314 5.36833 28.4012 4.40073 28.4643 4.16703C28.5149 3.98279 29.1692 4.41349 29.3733 4.41035C30.5395 5.96114 30.3946 5.51407 29.6446 4.40437C29.7643 4.38328 29.8121 4.25344 30.0041 4.34148C30.0709 4.37056 30.3854 4.83666 30.4252 4.88276C31.0467 5.6075 30.3121 4.53215 30.3012 4.47679C30.2146 3.92507 30.9538 4.60778 30.5921 3.68157C30.5786 3.64851 29.809 2.54184 30.4325 3.30614C30.4749 3.35921 30.7657 3.90484 30.8849 3.8784C31.0018 3.85366 31.5963 4.31906 31.3669 3.7185C31.3122 3.57347 30.7701 2.61818 31.3214 3.27693C31.3956 3.36678 31.6043 3.69241 31.7381 3.86151C32.1641 4.40062 31.4199 3.25915 32.1165 4.18513C32.8142 5.11041 33.3821 5.77253 33.0655 5.02416C33.0565 5.00228 32.4901 4.08218 32.5412 4.06892C32.6227 4.04878 32.8377 4.17691 32.9001 4.12813C32.9298 4.10437 32.545 3.55476 32.5439 3.54087C32.5701 3.07662 33.0507 3.48 33.4259 3.55445C33.4919 3.57128 33.1523 2.70801 33.6104 3.27683C34.1073 3.90242 35.6901 6.7898 35.4792 6.00499C35.3898 5.69426 33.4422 1.99691 34.6597 3.796C34.7057 3.15835 35.4913 3.99791 35.4571 3.1668C35.4555 3.12998 35.0044 2.05404 35.0475 2.05148C35.1109 2.05046 35.3666 2.53249 35.4183 2.5484C35.637 2.62921 35.5924 2.14062 35.7731 2.1447C35.8395 2.14599 36.0334 2.67514 36.1109 2.67794C36.1872 2.68087 35.9628 1.97205 36.1848 2.27096C36.3553 2.49846 36.9398 3.89885 37.0719 4.03963C36.5766 2.6287 36.6478 2.63574 36.6338 2.2243C36.6313 2.14443 36.4438 1.65825 36.4345 1.59489C36.3955 1.32517 36.5716 1.72154 36.5249 1.42993C36.5141 1.35978 36.3601 0.872842 36.3432 0.787815C36.1968 0.0450768 36.666 1.1036 36.739 1.29079C37.0309 1.99676 36.8804 1.34912 37.0233 1.61987C37.1613 1.89207 37.175 2.27608 37.2884 2.43319C37.5176 2.75958 37.6601 2.63913 37.8005 2.63137C37.8549 2.62542 37.6689 1.96859 37.6731 1.95231C37.7562 1.75633 38.0153 2.44323 37.8148 1.09849C38.5832 4.52551 37.8196 0.749797 38.1318 1.40627C38.1565 1.45951 38.4727 3.08949 38.4708 3.33778C38.4697 3.58571 38.3009 3.08958 38.3111 3.47503C38.3108 3.56595 38.5434 5.10643 38.5561 5.20014C38.6364 5.9359 38.0988 3.51397 38.0633 3.38218C37.6893 1.95844 37.949 3.61863 37.9557 3.73627C37.9651 4.2795 37.7857 3.96569 37.7932 4.35641C37.7975 4.60927 38.2389 6.17356 38.191 6.13559C38.0412 6.00798 37.2767 3.87193 37.7724 5.77918C37.8803 6.18546 38.4881 7.8545 37.9475 6.56401C37.9167 6.4814 37.4114 5.30519 37.6513 6.0785C37.6821 6.17578 37.8639 6.66048 37.8734 6.70338C37.9336 6.9813 37.7617 6.60557 37.79 6.80674C37.8187 7.00778 37.8827 7.29963 37.7676 7.15758C37.6996 7.07222 37.2778 6.20368 37.1658 5.99489C36.8459 5.39217 37.2475 6.43429 36.8802 5.69634C36.5046 4.95764 36.0596 3.77875 35.7362 3.33827C36.2928 4.56272 36.8611 5.82083 37.4229 7.05127C37.2553 7.07622 36.8968 6.76786 36.754 6.90954C36.737 6.92826 37.0933 7.55786 37.0848 7.59392C37.0473 7.74338 36.7245 7.33186 36.7225 7.56763C36.7218 7.75284 37.0217 8.46287 37.0417 8.6741C36.2215 7.37041 36.3641 7.8924 36.2018 7.82597C36.145 7.80342 35.9344 7.45046 35.842 7.34962C35.4989 6.97769 36.246 8.11521 36.335 8.31161C36.7186 9.14788 35.0926 6.53376 35.0016 6.68048C34.9954 6.68784 35.7924 8.12519 35.8379 8.21741C36.1286 8.8222 35.5206 7.74235 35.4122 7.66766C35.214 7.53136 34.9408 7.24124 35.1113 7.70391C35.161 7.84142 35.6602 8.73717 35.1709 8.11236C35.1067 8.03065 34.811 7.57592 34.7877 7.55328C34.3875 7.18345 35.3331 8.60147 35.5998 9.11757C35.8679 9.63261 35.1214 8.7175 34.9107 8.45084C34.3676 7.7595 34.7371 8.1155 34.6911 8.04273C34.1469 7.17405 34.1781 7.36597 34.0761 7.33095C33.1245 5.95728 33.1046 6.09262 33.9745 7.29996C34.0689 7.43223 34.0222 7.27526 34.0761 7.33095C34.9528 8.71763 35.0065 8.93544 34.0443 7.73843C33.5929 7.17779 33.1543 6.46268 33.1991 6.8052C33.2192 6.96001 33.9028 7.88592 34.0342 8.17704C34.3381 8.83847 33.5686 8.06907 33.5459 8.29423C33.5402 8.37412 33.9497 8.85517 33.9589 8.92714C33.9849 9.11933 33.6397 8.78614 33.7052 9.03823C33.7117 9.06166 34.1184 9.58097 34.0997 9.60511C33.9613 9.80174 33.564 9.57096 33.3625 9.70815C33.2684 9.77235 33.3294 10.1827 33.1896 10.1978C32.948 10.2282 32.1667 9.62086 32.1639 9.91881C32.1631 10.0151 32.2716 10.1911 32.41 10.3912C32.546 10.5869 32.7104 10.806 32.8289 10.9957C33.2946 11.7373 32.1965 10.6168 32.0273 10.4427C32.0218 10.4368 32.0045 10.2523 31.7523 10.0202C31.2899 9.48664 32.0262 10.4396 32.0273 10.4427C31.9189 10.3294 31.6657 10.3393 31.7119 10.4638C31.7374 10.5315 32.1367 11.0123 32.1427 11.0383C32.2861 11.6391 32.1712 11.9355 31.7774 11.8789C31.7657 11.8721 31.3308 11.325 31.3088 11.3159C30.9893 11.1751 31.449 11.9034 31.668 12.38C31.8853 12.8577 31.7013 12.789 30.8783 11.9125C30.8977 12.0921 30.4494 11.7744 30.1794 11.5801C29.9095 11.3857 30.768 12.441 30.7796 12.4663C31.154 13.274 30.5592 12.7559 30.2985 12.8158C30.1726 12.8429 30.129 13.1369 30.1322 13.3286C30.136 13.482 29.8862 13.2755 29.9495 13.4888C29.9579 13.5174 30.3577 13.9726 30.3699 13.9927C30.7616 14.6105 29.8429 13.4482 29.6566 13.2594C28.9795 12.5725 28.6109 12.2133 28.8069 12.6402C28.8513 12.7383 30.1649 14.4198 30.2054 14.5489C30.2552 14.7141 29.7805 14.1147 29.8451 14.3027C29.8501 14.3183 30.1564 14.6768 30.1089 14.6899C29.892 14.7557 29.5405 14.695 29.4076 14.8709C29.3882 14.8937 29.9033 15.4371 29.8833 15.4793C29.7898 15.6761 29.6029 15.8002 29.2282 15.661C29.1341 15.6252 28.815 15.209 28.7056 15.098C28.0427 14.4275 28.8663 15.5222 28.872 15.5516C29.0295 16.2834 28.0128 15.5279 28.1217 16.2139C28.1292 16.2532 28.9759 17.4588 28.0984 16.5568C28.04 16.4968 27.1434 15.5729 27.6765 16.2744C27.7099 16.3182 28.177 16.789 28.0773 16.7866C27.9775 16.7843 28.1796 17.1948 27.6241 16.7147C27.4491 16.5634 26.5462 15.6494 27.1477 16.4817C27.1897 16.5397 28.6034 18.3746 27.5116 17.2108C27.332 17.0192 26.2246 15.7454 26.7097 16.4711C26.8041 16.6116 27.0825 16.8681 27.1945 17.0826C27.3676 17.4128 26.9809 17.151 27.3965 17.7869C27.4703 17.8994 28.1678 18.8116 27.544 18.2024C27.4463 18.107 27.0879 17.6718 27.0205 17.6472C26.6981 17.5283 26.8209 17.9229 26.4387 17.7406C26.304 17.6769 25.7224 16.9752 25.5146 16.8332C25.3069 16.6912 25.0584 16.5979 25.2866 16.9519C25.5151 17.306 26.5313 18.3451 26.5369 18.4955C26.5623 19.1478 25.6881 18.7864 25.2947 18.9713C25.2363 18.9986 25.6209 19.3515 25.5598 19.4195C25.3358 19.6718 25.2321 20.4201 24.2766 19.7955C23.5106 19.2959 23.2787 18.5986 22.9045 18.4517C22.725 18.3824 23.7869 19.6977 23.8071 19.751C24.0182 20.2878 23.4126 19.8275 23.4304 20.1209C23.4343 20.1816 23.9211 20.6636 23.9194 20.7096C23.9176 20.8713 23.627 20.7227 23.5869 20.8345C23.57 20.8859 23.9276 21.2668 23.8686 21.266C23.7312 21.2686 23.516 21.1673 23.1119 20.8729C23.075 20.8462 22.6839 20.3233 22.6106 20.3573C22.4932 20.4137 22.0533 20.161 22.2836 20.6261C22.3533 20.7656 23.1567 21.649 22.5338 21.1011C22.4036 20.9867 21.455 19.9111 22.2118 20.8977C22.3374 21.0619 23.3331 22.4156 22.5415 21.6798C22.3332 21.4862 21.4977 20.6602 21.5843 20.8309C21.5991 20.8572 22.0525 21.3118 22.0634 21.3865C22.0946 21.6417 21.9334 21.6965 21.957 21.9475C21.9641 22.0155 22.4572 22.4638 22.4537 22.5494C22.4431 22.7867 22.1748 22.8036 21.9141 22.7611C21.8171 22.7445 21.4755 22.3117 21.4318 22.2706C20.7211 21.602 21.5798 22.597 21.6145 22.6691C21.8193 23.104 21.3177 22.7271 21.3296 22.9382C21.3317 22.9953 21.7756 23.4379 21.808 23.484C22.1217 23.937 21.4011 23.0715 21.2814 23.0132C20.9435 22.8473 20.8667 22.9866 20.821 23.1379C20.8043 23.1947 21.3392 23.6892 21.3185 23.734C21.205 24.0093 20.9559 24.1452 20.4922 24.0295C20.4036 24.007 20.046 23.5759 19.9516 23.4893C19.2912 22.883 20.0443 23.8471 20.1059 23.9483C20.3873 24.4106 20.0199 24.0769 20.0129 24.2094C19.9843 24.8637 19.3394 25.0178 18.8792 25.1719C18.2827 25.3742 17.5894 25.2962 17.2908 25.7686C17.2708 25.7986 17.8078 26.3147 17.797 26.3476C17.6359 26.7469 17.1615 26.7963 17.0322 27.2164C17.021 27.2497 17.5399 27.7294 17.5383 27.7998C17.539 27.9474 17.4133 28.0143 17.1826 27.9234C17.0706 27.8803 16.7021 27.3953 16.5979 27.361C16.3533 27.2808 16.2316 27.3279 16.2165 27.4989C16.2124 27.5716 16.7696 28.0367 16.7256 28.0905C16.6388 28.2034 16.5583 28.3172 16.4628 28.4104C16.2275 28.64 15.9073 28.7615 15.2217 28.5162C15.1552 28.4914 14.1125 27.4606 14.2586 27.7107C14.5387 28.0058 14.8729 28.3484 15.1748 28.6614C14.8615 29.2939 14.0437 29.3866 13.5437 29.7816C13.5226 29.7985 14.1081 30.311 14.0705 30.3461C13.8591 30.5444 13.8221 30.8914 13.0772 30.5556C13.0041 30.523 12.0199 29.5748 12.115 29.7753C12.1313 29.813 12.182 30.0257 12.3818 30.2467C12.4122 30.2799 12.8935 30.6988 12.8839 30.7366C12.8171 30.9513 12.5861 30.9935 12.2375 30.8044C12.1806 30.7727 11.6636 30.3319 11.6175 30.3068C11.2888 30.1205 11.6945 30.5328 11.4929 29.6067C11.3573 28.897 10.1911 28.5987 9.14337 28.0724C9.00011 28.0006 9.00835 27.7065 8.33007 27.7031C6.63828 27.6688 4.79908 27.417 2.99645 27.3612C2.80059 27.3613 2.79819 27.5937 2.73818 27.6526C2.67676 27.7068 2.54668 27.7367 2.07792 27.6426C2.04732 27.6349 1.95065 27.5417 1.83918 27.3031C1.72631 27.0684 1.61461 26.7377 1.48144 26.5882C1.29831 26.3742 0.559357 26.5847 0.362726 26.1353C0.180121 25.6546 0.8447 25.4309 0.709203 24.8893C0.563737 24.384 -0.197504 24.1463 0.0486054 23.4861ZM28.9707 10.7137C28.493 10.2613 30.0154 12.1074 29.7131 11.6141C29.6967 11.5881 28.9943 10.7358 28.9707 10.7137ZM36.0866 5.1568C35.5274 4.25675 36.1822 5.66525 36.6049 6.36442C37.0229 7.06517 36.2524 5.43155 36.0866 5.1568ZM36.5967 4.0773C36.1794 3.34913 37.48 6.48312 37.2977 5.81635C37.2873 5.77874 36.6206 4.11977 36.5967 4.0773ZM8.71425 28.2883C8.68672 28.2723 8.65744 28.2607 8.68534 28.2755C9.34214 28.6581 9.37355 28.7241 8.71425 28.2883ZM37.2079 2.97296C37.0414 2.54348 37.0994 3.08007 37.3087 3.6128C37.4727 4.04257 37.4094 3.5087 37.2079 2.97296ZM24.1802 11.4416C24.1558 11.4155 24.0999 11.4216 24.2329 11.5731C24.6614 12.0607 24.5895 11.8805 24.1802 11.4416ZM38.8709 2.57175C38.5949 2.48855 37.9384 -0.241602 38.2973 0.017346C38.3607 0.0645605 38.3314 0.918281 38.4427 1.15559C38.6424 1.58846 38.4338 -0.160832 38.714 0.748488C38.7648 0.914994 38.8875 2.58265 38.8711 2.57568C38.871 2.57437 38.871 2.57306 38.8709 2.57175ZM27.0978 8.53334C27.0763 8.51002 27.0081 8.52777 27.027 8.55286C27.4868 9.15847 27.624 9.1235 27.0978 8.53334ZM21.1758 12.112C21.1284 12.0639 20.975 12.1158 21.0126 12.1655C21.7793 13.1458 22.0911 13.0445 21.1758 12.112ZM29.4066 4.45007C29.005 3.79573 29.023 3.66972 29.6438 4.40379C29.556 4.40587 29.4933 4.44352 29.4066 4.45007Z" fill="#FF9100"/>
</svg>
