<svg width="120" height="70" viewBox="0 0 120 70" fill="none" xmlns="http://www.w3.org/2000/svg">
<path d="M18.5315 1.1746C18.8566 2.14397 18.7839 3.63653 18.539 4.80031C18.4638 5.16633 18.0305 5.00417 17.958 5.25447C17.8155 5.74125 18.0368 6.19004 17.8459 6.67515C17.7803 6.83578 17.1067 6.6443 17.0532 6.81043C16.7629 7.70871 16.9103 8.56997 16.7069 9.47829C16.3892 10.8908 16.0294 12.2709 15.6193 13.6153C14.8041 16.1478 14.0862 18.5981 13.411 21.0473C13.086 22.2235 12.2324 23.57 12.3273 24.8129C12.3389 24.9581 12.9346 24.9559 12.979 24.9893C13.6592 25.5026 12.4992 25.2016 12.3065 25.4546C11.5468 26.4493 11.3805 27.6556 11.5802 28.6334C11.6682 29.0442 12.8477 28.6644 12.1836 29.052C12.1389 29.0798 11.514 28.9696 11.446 29.0804C11.2918 29.3324 11.4121 29.8042 11.3723 29.9929C11.2911 30.3535 11.3022 30.4187 11.3257 30.7416C11.3528 31.1756 11.1318 31.7358 11.3769 32.0845C11.4296 32.1531 12.0198 31.883 12.1566 31.9622C12.2131 31.9939 12.2514 32.0589 12.269 32.1274C12.36 32.4107 12.4017 32.7313 12.3565 32.8902C12.2804 33.1659 11.7659 33.2063 11.6667 33.2789C10.8229 33.858 12.3053 34.2444 12.3604 34.3496C13.3 35.9945 12.6888 37.5059 12.8488 38.952C12.9687 40.0566 13.3277 41.1761 13.3994 42.1688C13.4821 43.3486 13.2568 44.3652 13.4954 45.4345C13.5199 45.5465 14.2418 45.2896 14.273 45.4235C14.5097 46.4334 14.6977 47.3887 14.7799 48.3392C14.8717 48.9134 14.9085 49.4921 14.886 50.0682C14.877 50.2677 14.1772 50.1698 14.128 50.3727C13.8585 51.6497 12.7204 53.3423 15.6263 53.8646C15.5588 54.6567 15.4429 55.6168 14.8326 56.2707C14.4389 56.6926 13.7397 56.2342 14.0182 56.7734C14.0793 56.8955 14.7201 56.7806 14.7634 56.9639C14.9428 57.7514 14.6471 58.556 14.8365 59.3909C14.8762 59.561 15.4414 59.6149 15.5333 59.6813C16.0971 60.0958 15.3735 60.4677 14.9186 60.6821C14.8097 60.6116 14.7216 60.5521 14.702 60.5244C14.5423 60.3311 14.4889 59.9304 14.1511 59.3587C13.8207 58.8065 13.2923 58.4988 13.0718 58.4204C12.6297 58.2758 12.7928 58.3111 12.9965 58.297C13.0969 58.2983 12.9562 57.5421 13.0417 57.5156C13.5366 57.3849 14.4474 57.2812 15.3725 57.4169C15.5825 57.4481 15.5481 58.1205 15.6571 58.1674C16.1465 58.363 15.9455 57.1521 16.412 57.311C16.5081 57.3433 16.5932 57.8937 16.6229 57.9491C17.092 58.819 16.9824 57.4494 17.0377 57.4047C17.7284 56.8101 18.6039 58.0446 19.3388 57.6512C19.4275 57.6025 19.0403 56.9765 19.3007 56.8811C21.0255 56.2446 23.0335 55.9508 25.0365 56.199C25.344 56.2381 25.2148 56.7922 25.244 56.8533C25.6937 57.8112 25.6882 56.4387 25.7824 56.3741C26.5282 55.9012 27.3186 56.9799 27.8232 55.3416C28.5048 55.4241 29.2321 55.4905 29.9882 55.6184C32.3382 56.0481 34.7724 55.8966 37.0908 57.2627C37.1274 57.2824 37.0069 57.9453 37.0805 57.9818C37.9639 58.4274 37.869 57.3748 38.5603 56.1476C38.7318 55.8393 39.086 57.4059 39.1194 57.5211C39.2398 57.9457 39.0177 58.9301 39.0621 59.0138C39.4349 59.6723 39.5884 56.3777 40.1404 56.4123C40.1575 56.4189 40.0457 57.02 40.0884 57.0832C40.2215 57.2816 40.3803 57.0499 40.5089 57.2672C40.803 57.7698 40.8247 59.3767 41.3787 58.4748C41.4487 58.3575 41.4612 56.4849 41.9505 56.6009C42.1462 56.6492 43.0209 56.6635 43.2599 56.7963C43.4986 56.9294 43.3009 57.5231 43.3169 57.5501C43.9402 58.3785 43.6734 58.6962 43.9527 59.8907C44.2345 61.0805 44.2683 58.275 44.4174 57.9683C44.5662 57.6627 45.024 58.3405 45.1346 58.5737C45.2449 58.8072 45.0799 59.1838 45.1812 59.3175C45.8566 60.1907 45.5465 57.939 45.7952 57.5033C46.3785 56.4709 46.7282 58.5636 47.2259 58.7829C47.3602 58.8421 47.2639 58.3653 47.386 58.3247C47.7465 58.2088 47.99 58.5476 48.3228 58.4811C48.4376 58.4588 48.5633 58.3914 48.7102 58.2467C48.8032 58.1524 49.3175 56.9207 49.5732 57.8527C49.608 57.9869 49.465 58.4985 49.6675 58.6251C49.9714 58.8148 50.5221 58.9629 50.8668 58.8149C51.123 58.7054 50.9025 57.8325 51.1963 58.1209C51.3262 58.2498 51.0314 58.7278 51.2758 58.9284C51.5177 59.1281 52.1729 59.164 52.424 59.1716C52.6732 59.1781 52.6011 58.5203 52.6252 58.4788C52.7712 58.2415 53.2873 57.9808 53.3297 57.9864C55.5015 58.1401 57.2962 59.5048 59.3981 59.4895C59.5635 59.4895 59.5698 58.798 59.5962 58.791C60.1967 58.6026 59.4578 60.319 59.7367 60.9834C59.9167 59.6081 60.0999 59.8938 60.5131 59.8123C60.7125 59.7721 60.7047 59.2257 60.7313 59.1746C61.1521 58.4213 61.1601 59.4929 61.1708 59.7137C61.2124 60.5265 61.5777 59.6417 61.6071 60.1858C61.6353 60.7256 61.2097 61.4391 61.5784 61.4974C61.7727 61.029 61.7356 59.7031 62.0555 59.549C63.2707 58.9644 65.0556 60.3626 65.8775 60.648C66.4628 60.8491 66.7812 60.8938 67.0754 61.0032C67.1942 61.0476 67.3093 61.1024 67.437 61.1827C68.2399 61.6828 68.1139 60.6731 68.7331 60.3477C69.3447 60.0178 68.6457 62.293 68.6279 62.8078C68.6121 63.3225 68.7949 62.8242 68.841 63.1171C68.8878 63.41 68.6127 63.7111 68.8245 63.8568C69.0391 64.0038 69.8272 63.2219 69.9937 62.7095C70.3478 61.6253 70.2667 60.4145 70.7817 60.9183C70.8118 60.948 70.6043 61.5453 70.7248 61.628C71.6849 62.2641 72.7667 62.4323 73.7794 62.9533C73.9193 63.0259 73.7245 63.7031 73.8061 63.7532C74.6624 64.2734 74.4461 63.0815 75.0151 61.8242C74.7826 63.537 74.9759 64.6137 75.6697 64.663C76.0849 64.6917 76.0508 63.9347 76.337 63.4158C76.4218 63.2594 76.6887 63.7877 76.754 63.4351C76.964 62.2822 76.7428 60.9795 77.397 61.5138C77.426 61.5391 77.3162 62.171 77.4181 62.2118C78.0815 62.4767 78.177 61.2658 78.8819 61.1188C79.4325 61.0037 80.4413 61.7227 81.0938 61.8177C81.1479 63.7578 81.7598 63.2893 81.9444 61.9406C82.3667 61.9759 82.8177 61.8758 83.2358 62.0362C83.38 62.0908 83.3213 62.6571 83.3427 62.7166C83.4469 63.0115 83.5296 63.0826 83.5961 63.04C83.7409 62.9477 83.8046 62.3215 83.8634 62.2825C84.7893 61.7211 85.69 62.6229 86.4938 61.5495C86.5224 61.5107 86.4001 60.1681 86.7707 61.1113C86.7965 61.1762 86.5743 61.8253 87.0126 61.8135C87.4481 61.8028 88.3895 62.3885 88.8866 61.6646C89.0094 61.4903 89.1699 60.349 89.622 61.1323C89.6831 61.2387 89.7133 61.6266 89.811 61.8268C90.1279 62.4635 89.9638 61.1074 90.4082 62.1985C90.8535 63.2892 91.5052 64.0407 91.9571 63.1234C91.9723 63.0963 91.8852 62.0098 92.081 61.9834C92.3946 61.942 92.8819 62.0608 93.2022 61.9785C93.3551 61.9388 93.1036 61.3091 93.1275 61.2909C94.0705 60.6835 94.9449 61.0846 96.1129 61.0728C96.328 61.0717 96.7017 60.0435 97.2624 60.6558C97.8707 61.3279 98.173 64.634 98.968 63.6503C99.0807 63.5118 99.1031 62.9028 99.1408 62.2566L98.9111 62.2902C99.1499 61.1233 99.4488 59.8393 100.021 61.2046C101.417 60.5712 102.792 61.5996 104.184 60.7803C104.246 60.7439 104.408 59.5717 104.563 59.5824C104.791 59.6006 104.932 60.1414 105.095 60.1728C105.773 60.3181 106.384 59.8418 107.04 59.9119C107.288 59.9377 107.202 60.5009 107.496 60.5329C107.787 60.5649 107.992 59.8245 108.388 60.1888C108.687 60.4669 108.95 61.9889 109.329 62.1777C109.391 60.6837 109.662 60.7218 110.166 60.3487C110.263 60.2764 110.186 59.7519 110.233 59.6909C110.428 59.4311 110.576 59.8703 110.764 59.5878C110.81 59.52 110.839 59.0102 110.879 58.926C111.219 58.1908 111.64 59.3689 111.707 59.5742C111.971 60.3536 112.165 59.7022 112.386 60.0193C112.604 60.3365 112.214 60.6807 112.48 60.8839C112.986 61.2723 113.659 61.2906 114.219 61.3593L114.194 61.3562C114.237 61.3631 114.279 61.3705 114.321 61.3787C114.54 61.4194 114.499 60.7228 114.532 60.713C115.046 60.6216 115.392 61.4367 115.919 60.1554C115.578 63.6652 116.275 59.8813 116.817 60.6913C116.86 60.7564 116.651 62.4055 116.393 62.6079C116.132 62.8094 115.899 62.2384 115.533 62.5535C115.446 62.6276 114.747 64.0749 114.681 64.1579C114.151 64.8042 114.574 62.3613 114.57 62.2217C114.588 61.37 114.338 61.5182 114.127 61.8292L114.169 61.8343C114.005 62.0707 113.854 62.3929 113.796 62.4369C113.176 62.9079 112.727 62.518 112.224 62.8581C111.896 63.078 111.748 64.697 111.517 64.6307C110.758 64.4145 110.581 62.1345 109.749 64.0669C109.573 64.48 109.667 66.2595 109.155 64.8454C109.125 64.7561 108.733 63.467 108.471 64.271C108.438 64.3723 108.43 64.8899 108.389 64.9327C108.118 65.2094 107.945 64.7949 107.649 64.9906C107.356 65.1864 107.007 65.4813 106.672 65.3088C106.47 65.2056 106.196 64.245 106.092 64.0106C105.799 63.3351 105.524 64.4572 105.331 63.6383C105.132 62.8156 105.45 61.5488 104.96 61.0276C104.983 62.3725 104.984 63.7536 104.999 65.1064C104.007 65.0895 102.997 64.7021 101.978 64.8212C101.854 64.8372 102.024 65.5515 101.892 65.5873C101.328 65.7361 100.8 65.2539 100.217 65.5002C99.8878 65.6418 99.5611 66.1088 99.2216 66.4391L100.033 66.3203C99.9313 66.4564 99.8271 66.5744 99.7162 66.6521C99.0997 65.2123 98.5232 65.8798 97.9859 65.862C97.7969 65.8565 97.7143 65.4537 97.5566 65.3531C96.9634 64.984 97.5015 66.2543 97.42 66.4937C97.0689 67.5165 96.3019 64.535 95.643 64.7715C95.608 64.7831 95.5509 66.4843 95.5125 66.5985C95.2789 67.3394 95.3157 66.0583 95.0442 65.9985C94.5469 65.8891 94.1483 65.581 93.7255 66.172C93.6039 66.3463 93.4531 67.43 92.9727 66.7263C92.9099 66.6342 92.8144 66.0998 92.7753 66.0759C92.0784 65.6876 92.4241 67.3554 92.1973 67.9936C91.9684 68.632 91.1924 67.5875 91.0208 67.2751C90.5687 66.4697 91.1658 66.8648 91.164 66.7769C91.1413 65.7367 90.7932 65.9868 90.4847 65.9575C90.1277 64.3248 89.7481 64.4978 90.1653 65.9333C90.2121 66.09 90.412 65.8938 90.4847 65.9575C90.5385 67.6166 90.0918 67.9137 89.3273 66.4893C88.9712 65.8205 89.0575 64.9603 88.4018 65.3747C88.1031 65.5606 88.3986 66.6795 88.1542 67.0328C87.5829 67.8408 86.5673 66.8861 85.9016 67.1226C85.6563 67.209 85.9648 67.8111 85.7971 67.8917C85.3498 68.1072 84.9046 67.6709 84.4587 67.946C84.4184 67.9717 84.5689 68.6219 84.4245 68.6407C84.2635 68.6633 84.1037 68.6744 83.9443 68.6768C83.0803 68.6868 82.2612 68.4212 81.3164 68.4458C80.7826 68.4611 79.8223 68.8478 79.2528 68.7779C78.2639 68.6651 77.076 67.6852 76.2355 67.8813C75.6818 68.0064 75.7702 68.6694 75.5074 69.106C74.9907 69.9523 74.2709 68.3365 74.1884 68.0865C74.1858 68.0787 74.6702 67.9588 74.4434 67.6026C74.3512 66.8884 74.1945 68.0839 74.1884 68.0865C74.1291 67.9273 73.2024 67.6958 73.0041 67.8003C72.8961 67.8587 72.8897 68.486 72.8339 68.5045C71.5029 68.9308 70.1853 68.9107 68.9607 68.4081C68.9404 68.3919 69.0901 67.7085 69.0413 67.679C68.3701 67.2496 67.7532 68.0037 67.0537 68.3837C66.3526 68.7623 65.9029 68.4926 65.809 67.2442C65.7747 67.2478 65.7402 67.2477 65.7054 67.2444C65.3021 67.211 64.8775 66.63 64.6313 66.2725C64.3618 65.8865 64.0368 67.2086 64.0023 67.2288C62.9168 67.8818 62.5501 67.0131 61.625 66.7099C61.1867 66.5634 60.258 66.5903 59.7464 66.6501C59.3432 66.6994 59.1663 66.3447 58.7787 66.4846C58.7263 66.5032 58.6718 67.1085 58.6533 67.1289C58.1393 67.7761 58.5767 66.3488 58.5396 66.0742C58.4054 65.0762 58.3014 64.5389 57.7192 64.903C57.5835 64.986 56.9104 67.0377 56.6838 67.1289C56.3877 67.2432 56.6062 66.5035 56.2923 66.6432C56.2656 66.6545 56.2002 67.1213 56.0279 67.0746C55.2274 66.8639 54.3766 66.4707 53.5306 66.4164C53.4158 66.4072 53.4725 67.1672 53.3063 67.1665C52.526 67.1626 51.6984 67.049 50.9927 66.6381C50.8187 66.5346 50.976 66.0224 50.9494 65.8642C50.7805 64.9059 50.3263 66.2426 50.2716 66.265C49.453 66.5957 48.8076 66.2902 48.1303 66.1057C47.5662 65.976 46.9867 65.8946 46.3329 66.1132C46.2468 66.1451 45.5274 67.5856 45.28 66.3181C45.2626 66.2338 45.0223 64.9377 44.7293 65.8053C44.7109 65.8596 44.8657 66.5285 44.5506 66.4478C44.2358 66.3673 43.7032 66.7861 43.3014 66.0388C43.1735 65.8033 42.9129 64.5069 42.451 65.5067C42.4224 65.5769 41.6612 67.8516 41.5206 66.2462C41.4982 65.9819 41.6304 64.2993 41.0932 65.1354C40.9899 65.2975 41.1385 65.6832 40.8776 65.9035C40.4772 66.2432 40.004 65.7617 39.4896 66.482C39.4 66.6097 38.9779 67.7304 38.756 66.844C38.7216 66.7052 38.842 66.1486 38.6997 66.0757C38.0235 65.7269 37.2659 66.0499 36.5875 65.6062C36.3464 65.45 36.5457 64.552 36.305 64.288C36.065 64.0243 35.5629 63.7476 35.2536 64.1389C34.9454 64.5305 35.1205 66.0027 34.6993 66.0829C32.8545 66.4281 31.1507 65.4018 29.3293 65.0458C29.0598 64.9925 29.2184 65.537 28.8111 65.4937C28.7651 65.4888 28.7181 65.4842 28.6702 65.4798C28.6678 65.488 27.0843 66.0116 25.9531 65.1577C24.9982 64.4354 25.8908 63.5841 25.194 63.3491C24.8425 63.2417 24.8496 64.9647 24.7884 65.0321C24.1802 65.7132 23.4935 65.1068 22.8523 65.4984C22.7205 65.5796 23.023 66.2099 22.9096 66.2716C22.5249 66.488 22.0062 66.3036 21.6069 66.4626C21.4281 66.5356 21.5911 67.0332 21.4104 67.0376C20.9786 67.0543 20.5543 66.9364 20.0159 66.5678C19.967 66.5342 20.0635 65.8392 19.7408 65.8961C19.2237 65.9887 18.4599 65.6824 17.9441 66.3164C17.7958 66.5051 18.0517 67.6727 17.4483 66.9635C17.3185 66.8156 17.1358 65.3893 16.8985 66.708C16.8733 66.9257 16.2883 68.752 15.5948 67.7708C15.407 67.5146 14.9111 66.4051 14.6388 66.625C14.5979 66.6597 14.8577 67.274 14.5923 67.3696C14.129 67.5286 13.5939 67.6168 12.8715 67.6496C12.1323 67.6512 11.2689 67.7513 9.49045 67.1988C9.00484 67.0269 9.01859 67.2187 9.02191 67.4209C9.00978 67.6011 8.96815 67.8349 8.04193 67.3561C6.66786 66.7168 4.60266 64.5086 4.14732 62.2793C3.89845 61.2943 3.86869 60.3643 3.92445 59.6489C3.97469 59.0059 4.09121 58.4481 4.2317 57.9604C4.28062 57.9801 4.40856 57.7855 4.52501 57.6405C4.62607 57.507 5.15214 57.6955 5.21274 57.6959C6.20424 57.6621 4.92179 57.3423 4.8533 57.2769C4.44933 56.8316 5.09161 56.5818 4.95262 56.179C4.91543 56.0691 4.28571 56.1105 4.23116 56.0862C3.69694 55.8508 4.8125 56.0638 4.94277 55.9306C5.31088 55.5535 5.26292 55.1007 5.1687 54.7117C5.13303 54.5688 4.41343 54.7556 4.38969 54.6327C4.23395 53.9105 4.21837 53.2153 4.4746 52.4949C4.52375 52.3585 5.08637 52.3149 5.20563 52.262C6.0365 51.8747 4.78159 51.8862 4.65633 51.8704C4.29118 51.7944 4.33281 51.6865 4.37334 51.5591C4.37202 51.402 4.37191 51.2392 4.28425 51.0603C3.10781 48.6837 3.0386 45.7868 3.02646 43.8302C3.00453 41.2732 3.40942 39.4014 2.98628 37.5791C2.96025 37.4673 2.24374 37.6977 2.21219 37.6059C1.97263 36.8405 1.89413 36.1749 1.78121 35.8211C1.42352 34.7789 1.19968 33.8282 0.98033 32.9391C0.931675 32.7317 0.281349 33.1468 0.180081 32.8083C-0.0311294 32.1184 -0.0672231 31.2627 0.128861 30.6252C0.223183 30.3157 0.845982 30.6927 0.929543 30.3882C1.12758 29.6854 1.17865 28.9948 1.08526 28.3391C1.04449 28.061 0.309646 28.4582 0.313705 28.0932C0.338948 25.6129 0.523771 23.4186 1.78916 21.4658C1.87642 21.3321 3.3427 21.4505 3.11695 21.1037C2.71986 21.0121 2.248 20.9321 1.82116 20.8484C2.10846 17.8119 3.21156 15.1243 3.8267 12.4239C3.85242 12.3104 3.05148 12.3562 3.0972 12.1363C3.15959 11.835 3.20888 11.5304 3.25921 11.2343C3.38256 10.4789 3.49874 9.76603 4.15243 9.02119C4.23593 8.92388 5.59502 9.09001 5.41212 8.74814C5.37959 8.68923 5.22511 8.18974 4.93211 8.0546C4.888 8.03667 4.24752 8.0959 4.23456 7.94564C4.16966 7.06975 4.29582 6.15197 4.61865 5.17759C4.67189 5.02042 5.36099 5.13606 5.40456 5.02185C5.7075 4.19704 5.09677 3.35226 5.6079 2.42597C5.95198 1.79911 7.14297 1.87386 8.25382 1.42513C8.41061 1.36337 8.39322 0.989625 9.05932 0.894393C10.7339 0.655698 12.5932 0.617853 14.3757 0.342041C14.759 0.280099 14.2933 -0.124159 15.2553 0.0380901C15.3195 0.0487941 15.6666 0.344505 15.9929 0.393229C16.2183 0.425976 16.8853 0.242332 17.1788 0.327C17.4721 0.411924 16.9185 0.611694 17.2714 0.777781C17.6287 0.946625 18.3901 0.758057 18.5315 1.1746ZM63.4106 64.5507C63.2265 63.8471 62.7107 66.184 63.1588 65.6903C63.181 65.6637 63.4203 64.5853 63.4106 64.5507ZM102.906 62.9035C102.437 61.8705 102.233 63.4365 102.57 64.2343C102.904 65.0317 103.046 63.2168 102.906 62.9035ZM107.178 62.0122C106.687 61.1817 106.642 64.5753 107.14 63.8872C107.169 63.8484 107.206 62.0604 107.178 62.0122ZM8.74743 2.81764C8.77862 2.8098 8.78049 2.55027 8.74846 2.54815C7.97818 2.49939 7.97446 3.01324 8.74743 2.81764ZM111.477 61.3089C111.354 60.8403 110.882 61.3432 111.038 61.9242C111.16 62.391 111.627 61.891 111.477 61.3089ZM47.2035 59.9507C47.1995 59.915 47.0118 59.877 47.0094 60.0785C47.0012 60.7278 47.2708 60.5528 47.2035 59.9507ZM118.773 62.2666C117.663 61.9982 117.465 59.1277 118.549 59.6021C118.75 59.6872 117.979 60.4261 118.21 60.713C118.648 61.2376 119.184 59.5306 119.577 60.5243C119.651 60.7069 118.839 62.2891 118.771 62.2702C118.772 62.269 118.773 62.2678 118.773 62.2666ZM63.7973 61.6968C63.7973 61.6644 63.5465 61.5836 63.535 61.6134C63.2486 62.3308 63.7494 62.4931 63.7973 61.6968ZM36.349 57.8596C36.3402 57.7915 35.7474 57.6786 35.7225 57.7386C35.3026 58.95 36.5096 59.1828 36.349 57.8596ZM81.1059 61.869C81.3556 61.0953 81.6756 60.9916 81.943 61.9397C81.6634 61.9017 81.3849 61.9059 81.1059 61.869Z" fill="#FF9100"/>
</svg>
