<svg width="38" height="50" viewBox="0 0 38 50" fill="none" xmlns="http://www.w3.org/2000/svg">
<path d="M5.62668e-05 46.2977C0.0181623 45.3835 0.411938 44.9695 0.835111 44.6794C0.96548 44.5957 1.34418 44.7965 1.45229 44.7453C1.66157 44.6501 1.51567 44.4434 1.75323 44.3674C1.83381 44.3433 2.44237 44.6341 2.51146 44.6062C2.88805 44.4448 2.81699 44.1502 3.04808 43.9474C3.46416 43.5862 3.82166 43.2187 4.14485 42.8454C4.70153 42.2038 5.16753 41.5188 5.66629 40.8328C5.92409 40.4783 6.68865 40.2398 6.61955 39.7292C6.61123 39.6687 6.05793 39.4626 6.0173 39.4342C5.39616 38.9968 6.46736 39.5183 6.65216 39.49C7.38469 39.3718 7.61113 38.9935 7.55856 38.5538C7.53545 38.3642 6.3994 38.0357 7.06717 38.153C7.11241 38.1606 7.66656 38.4551 7.74595 38.4412C7.92428 38.4106 7.89989 38.1924 7.97768 38.1409C8.12973 38.0445 8.13593 38.0156 8.2002 37.8916C8.29341 37.7235 8.67529 37.6372 8.63221 37.392C8.62157 37.3383 8.01415 37.1228 7.94474 37.0126C7.87545 36.9024 8.00469 36.753 8.16911 36.7583C8.33352 36.7638 8.77934 37.0015 8.88897 37.0399C9.81257 37.3683 8.67835 36.6027 8.66054 36.562C8.36373 35.8532 9.24748 35.788 9.45286 35.3567C9.60758 35.028 9.55131 34.5632 9.73401 34.2711C9.95707 33.9179 10.4221 33.7642 10.5498 33.3774C10.5636 33.3375 9.86744 33.0421 9.88312 32.9925C10.0515 32.4629 10.3766 32.008 11.0795 31.7596C11.1507 31.735 11.7063 32.1027 11.8124 32.0966C12.4512 32.0476 13.8472 32.2034 11.3921 30.6756C11.5985 30.5266 11.8298 30.3402 12.4387 30.4352C12.8305 30.4967 13.4062 30.9501 13.2108 30.6632C13.1673 30.5993 12.5886 30.3407 12.5655 30.2673C12.469 29.9582 12.7684 29.8369 12.5906 29.4807C12.5532 29.4074 12.0497 29.1476 11.9665 29.0872C11.2938 28.5953 12.5798 29.0899 12.6857 29.1033C13.4799 29.194 13.3314 28.8608 13.4834 28.6246C13.5191 28.5697 12.8167 28.2673 12.8273 28.201C12.8922 27.8603 13.1146 27.5978 13.5666 27.4847C13.6687 27.4605 14.2003 27.837 14.2779 27.8419C14.6129 27.8601 13.5655 27.2258 13.8659 27.2326C13.9279 27.2333 14.4015 27.5228 14.4572 27.5482C15.3303 27.9478 14.1902 27.2114 14.1754 27.177C13.9601 26.7301 15.2779 27.2768 15.2376 26.9463C15.2318 26.9056 14.5878 26.617 14.6087 26.524C14.6501 26.3349 14.7251 26.1602 14.8318 26.0016C15.0726 25.6448 15.4811 25.371 16.0287 25.2161C16.1506 25.1806 16.5691 25.5082 16.628 25.5365C17.5484 25.9764 16.4121 25.2249 16.3839 25.1722C16.192 24.7748 17.2823 25.1771 15.9796 24.1987C16.9845 23.6246 16.7454 22.2813 18.5074 22.2088C18.5284 22.207 19.0834 22.5835 19.1229 22.5784C19.6039 22.5212 18.6905 22.0167 17.7225 21.1638C17.4797 20.9492 18.8618 21.642 18.9642 21.6911C19.3417 21.8718 20.1558 22.45 20.2326 22.4791C20.8394 22.7023 18.0443 20.9521 18.1447 20.7924C18.1525 20.7904 18.6511 21.1374 18.7105 21.1566C18.8966 21.2171 18.7191 21.0469 18.9207 21.1194C19.3867 21.288 20.7571 22.1193 20.0605 21.4777C19.9699 21.3947 18.3771 20.4131 18.5418 20.32C18.6085 20.2841 18.7421 20.017 18.8883 20.0141C19.0345 20.0108 19.5106 20.3847 19.5357 20.3939C20.3249 20.641 20.5572 20.8904 21.6079 21.4387C22.6546 21.9852 20.2836 20.4879 20.0453 20.2799C19.8079 20.0724 20.4481 20.2938 20.6615 20.3849C20.875 20.4761 21.1694 20.7261 21.2972 20.767C22.1338 21.0314 20.186 19.9226 19.8551 19.6149C19.0711 18.8874 20.8911 19.9035 21.1523 19.8763C21.2229 19.8688 20.8063 19.6405 20.7912 19.5827C20.7367 19.3568 21.3319 19.6323 20.934 19.1542C20.8689 19.0767 19.9041 18.2681 20.7229 18.693C20.8407 18.7546 21.2528 19.071 21.3869 19.0785C21.5879 19.09 21.7825 19.0005 21.6979 18.8142C21.6353 18.6765 20.8719 18.2829 21.1492 18.3444C21.2729 18.3721 21.6436 18.7171 21.8411 18.7463C22.0388 18.7751 22.1376 18.5861 22.1683 18.5087C22.1984 18.4314 21.6342 18.1103 21.6014 18.0807C21.4151 17.9094 21.2416 17.6061 21.2499 17.595C21.5727 16.9667 22.837 17.0414 22.9156 16.2792C22.9227 16.2197 22.3368 15.8669 22.3321 15.8538C22.1973 15.542 23.6214 16.6782 24.1962 16.9132C23.0377 16.1521 23.2877 16.2304 23.2341 16.0384C23.2073 15.9453 22.7439 15.6724 22.7016 15.6369C22.078 15.104 22.9855 15.6418 23.1729 15.7492C23.8626 16.1438 23.1248 15.5637 23.5862 15.827C24.0442 16.0882 24.6358 16.6041 24.6963 16.4974C24.3052 16.1901 23.1813 15.5371 23.06 15.3417C22.6017 14.6014 23.8133 14.631 24.061 14.4569C24.3087 14.2822 24.2844 14.1559 24.5253 14.1221C24.9607 14.0612 24.1065 13.6055 23.8491 13.203C23.5923 12.7998 25.4895 14.2181 25.9235 14.485C26.357 14.7523 25.9423 14.4315 26.1908 14.5635C26.4393 14.6957 26.6843 14.9498 26.8139 14.9468C26.9436 14.9434 26.3164 14.2594 25.8942 13.9345C24.9995 13.2466 23.9731 12.6509 24.4298 12.7214C24.4566 12.7259 24.947 13.1111 25.024 13.1103C25.6184 13.0934 25.8531 12.8075 26.4009 12.7623C26.4772 12.7565 27.0207 13.1876 27.0714 13.1888C27.602 13.2019 26.5843 12.6204 25.613 11.746C27.0078 12.7632 27.9246 13.2944 28.0603 13.118C28.1418 13.0132 27.5109 12.6 27.1249 12.2249C27.0085 12.112 27.4866 12.3314 27.206 12.1141C26.2891 11.4033 25.1751 10.7326 25.7303 10.8403C25.7562 10.8461 26.2573 11.2364 26.3087 11.2299C26.644 11.1896 25.6671 10.4716 25.688 10.1864C25.7032 9.96439 26.503 10.1119 26.7268 10.0031C28.3103 11.1246 28.0651 10.7012 27.0204 9.86135C27.1464 9.77774 27.172 9.61041 27.4017 9.60592C27.4802 9.60407 27.9212 9.95356 27.9741 9.98378C28.8038 10.4598 27.7765 9.65818 27.7525 9.6038C27.5386 9.04731 28.4988 9.39882 27.8944 8.5848C27.8725 8.55561 26.7843 7.76014 27.6353 8.26153C27.6938 8.29642 28.1334 8.73639 28.2578 8.64318C28.3822 8.55029 29.134 8.73995 28.7436 8.21164C28.6498 8.08412 27.8319 7.34655 28.5865 7.76081C28.6888 7.81729 28.995 8.05376 29.1813 8.16292C29.7757 8.51007 28.6867 7.69078 29.6715 8.30321C30.6563 8.91558 31.4502 9.29531 30.9212 8.6623C30.9061 8.64346 30.0565 7.97528 30.108 7.93264C30.191 7.86493 30.4595 7.87635 30.5168 7.78425C30.544 7.73991 29.9796 7.37643 29.9748 7.36196C29.8725 6.85966 30.5051 7.00334 30.9326 6.853C31.0121 6.82609 30.3848 6.1323 31.0493 6.44655C31.7768 6.79034 34.3608 8.83509 33.9198 8.10547C33.7439 7.81293 30.4556 5.23298 32.3524 6.30195C32.1934 5.60606 33.3451 5.9032 33.0017 5.07231C32.9867 5.03524 32.0823 4.29692 32.1245 4.26566C32.1891 4.22061 32.6541 4.5073 32.7143 4.48539C32.9776 4.40173 32.7185 3.96529 32.9029 3.8347C32.9719 3.78451 33.411 4.13851 33.4933 4.07871C33.5752 4.01864 33.0132 3.5303 33.3803 3.63459C33.6596 3.71474 34.944 4.52635 35.1636 4.52491C33.9573 3.64102 34.035 3.58652 33.8102 3.22471C33.7664 3.15474 33.3262 2.87507 33.2838 2.82616C33.1018 2.62029 33.4829 2.82983 33.28 2.61232C33.2314 2.55994 32.819 2.25872 32.756 2.19892C32.2043 1.67888 33.2256 2.22803 33.4031 2.32403C34.078 2.68772 33.5698 2.25725 33.8585 2.36914C34.1468 2.48142 34.3793 2.79717 34.5802 2.82969C34.9958 2.89687 35.0739 2.64996 35.2077 2.50664C35.2585 2.44761 34.6768 2.08828 34.6713 2.0705C34.6265 1.83871 35.3079 2.13521 34.2645 1.26164C37.1648 3.24356 34.0466 0.982656 34.7493 1.21253C34.8058 1.23151 36.1593 2.19337 36.3153 2.39308C36.471 2.59269 35.9904 2.3706 36.2403 2.67253C36.2988 2.74367 37.4777 3.76736 37.5433 3.8373C38.0557 4.38447 36.0407 2.93664 35.9263 2.86224C34.6893 2.0624 35.9487 3.1799 36.0176 3.28196C36.3331 3.74979 35.9555 3.67538 36.1673 4.02768C36.3031 4.25708 37.6102 5.22291 37.5215 5.26023C37.2273 5.38461 35.3382 4.12734 36.7759 5.49252C37.0824 5.78385 38.5508 6.78492 37.3055 6.12241C37.227 6.08059 36.1076 5.44719 36.711 5.9918C36.7871 6.06039 37.206 6.36457 37.2329 6.40154C37.4048 6.64335 37.0342 6.45176 37.1337 6.65097C37.2331 6.85016 37.3989 7.1229 37.1882 7.11428C37.0619 7.10956 36.2282 6.6161 36.0173 6.50472C35.4107 6.18242 36.254 6.9193 35.5521 6.48408C34.8467 6.04663 33.8977 5.21352 33.3722 5.02704C34.4577 5.82121 35.5675 6.6423 36.6572 7.44373C36.4173 7.69397 35.8683 7.71074 35.7155 8.02356C35.6975 8.0633 36.3091 8.45147 36.305 8.50495C36.285 8.72863 35.7686 8.56328 35.8185 8.84506C35.8592 9.06488 36.3818 9.64902 36.4442 9.89244C35.1376 9.07306 35.4211 9.57351 35.2055 9.63246C35.1304 9.65355 34.7991 9.41024 34.6649 9.36715C34.1668 9.21037 35.3159 9.942 35.4635 10.1032C36.0934 10.7921 33.5845 9.00817 33.5131 9.23814C33.5084 9.2498 34.7557 10.3261 34.827 10.402C35.2935 10.8949 34.3505 10.0865 34.205 10.0813C33.9393 10.0717 33.5612 9.9266 33.8518 10.3462C33.9383 10.47 34.7003 11.1627 34.0004 10.7813C33.9087 10.7314 33.4717 10.4102 33.4399 10.4001C32.8998 10.245 34.2834 11.2401 34.691 11.6625C35.0985 12.0848 34.0454 11.5351 33.7499 11.3655C32.9849 10.9275 33.4838 11.093 33.4165 11.0392C32.6153 10.3985 32.6888 10.5991 32.5649 10.6237C31.1968 9.66409 31.2036 9.82734 32.442 10.6531C32.5774 10.7431 32.492 10.5944 32.5649 10.6237C33.8527 11.6416 33.9423 11.8775 32.6042 11.1153C31.977 10.7582 31.3351 10.2163 31.455 10.5759C31.5089 10.7386 32.4691 11.3738 32.6731 11.6282C33.1385 12.2086 32.1111 11.8017 32.1283 12.0697C32.1346 12.167 32.6911 12.4711 32.713 12.5502C32.7725 12.7618 32.3165 12.588 32.4341 12.8408C32.4454 12.8642 33.0012 13.2201 32.9832 13.2601C32.8575 13.5703 32.3508 13.5556 32.1443 13.8284C32.045 13.9598 32.1738 14.4087 32.0168 14.5049C31.7474 14.6746 30.753 14.423 30.8001 14.7621C30.8284 14.9817 31.3895 15.3301 31.7177 15.6447C32.3543 16.2542 30.9374 15.5586 30.7207 15.4471C30.7135 15.4434 30.667 15.2384 30.3462 15.1067C29.7425 14.7392 30.7191 15.4441 30.7207 15.4471C30.5805 15.3753 30.2963 15.5213 30.368 15.6391C30.4072 15.7034 30.9297 16.0463 30.9405 16.073C31.1861 16.6989 31.0997 17.102 30.6442 17.2473C30.63 17.2456 30.0609 16.8399 30.0347 16.8409C29.6543 16.8447 30.2759 17.4492 30.591 17.8864C30.9057 18.324 30.6848 18.3453 29.6352 17.7544C29.6826 17.9521 29.1332 17.8154 28.8033 17.7274C28.4735 17.6394 29.587 18.421 29.6036 18.4444C30.1383 19.1873 29.3967 18.8924 29.1137 19.0927C28.9776 19.186 28.9703 19.5479 29.0011 19.7676C29.0276 19.9422 28.7188 19.8296 28.82 20.0439C28.8334 20.0727 29.3444 20.3983 29.3609 20.4155C29.886 20.9326 28.6954 20.05 28.4607 19.925C27.6074 19.4702 27.1475 19.236 27.4261 19.632C27.4896 19.7231 29.1936 21.0098 29.2571 21.1387C29.3363 21.3044 28.7221 20.8483 28.8206 21.0336C28.8285 21.049 29.2208 21.3106 29.1696 21.3494C28.9373 21.5333 28.5395 21.6344 28.4172 21.9031C28.3988 21.939 29.0495 22.3112 29.0333 22.3698C28.9568 22.6442 28.7709 22.8741 28.3351 22.8985C28.2256 22.9036 27.8113 22.5809 27.6738 22.5069C26.8412 22.0605 27.9137 22.9168 27.9244 22.9478C28.2083 23.7101 26.9725 23.3387 27.1981 24.0708C27.2121 24.1126 28.3302 25.0808 27.2264 24.4732C27.1529 24.4328 26.0249 23.8091 26.7187 24.3549C26.7621 24.389 27.3481 24.7019 27.238 24.7476C27.128 24.7937 27.4137 25.1657 26.7299 24.8841C26.5144 24.7955 25.3821 24.1849 26.1721 24.8464C26.2272 24.8926 28.0656 26.3076 26.6859 25.5046C26.4588 25.3723 25.0446 24.4511 25.6907 25.0466C25.8163 25.1615 26.1617 25.3203 26.3185 25.5113C26.5606 25.8051 26.0969 25.6912 26.6536 26.2168C26.7522 26.3097 27.6615 27.0144 26.8822 26.6197C26.7601 26.5579 26.2982 26.2342 26.2207 26.2385C25.8498 26.2583 26.0495 26.6475 25.6033 26.6243C25.4461 26.6168 24.6965 26.0977 24.4466 26.0364C24.1969 25.9752 23.9109 25.9892 24.2187 26.2819C24.5267 26.5746 25.8057 27.2675 25.8378 27.4353C25.9768 28.1643 24.9705 28.1716 24.5795 28.572C24.5218 28.6309 24.9996 28.8452 24.9466 28.9509C24.7506 29.3452 24.7828 30.2353 23.6421 29.9944C22.7276 29.8024 22.3441 29.1303 21.916 29.1465C21.7105 29.1563 23.1001 30.1223 23.1324 30.1721C23.4191 30.6076 22.9028 30.4973 22.8126 30.6697C22.7986 30.6963 22.7946 30.7294 22.8049 30.7719C22.8212 30.8384 23.4363 31.1417 23.4437 31.1943C23.4746 31.3768 23.1358 31.352 23.1165 31.4969C23.1092 31.5626 23.5671 31.8146 23.5045 31.8423C23.3603 31.9109 23.1103 31.9051 22.6205 31.7746C22.5758 31.7629 22.0524 31.3691 21.9817 31.4438C21.8689 31.5654 21.3505 31.4991 21.6922 31.9076C21.7953 32.0301 22.8331 32.6207 22.0573 32.3171C21.8953 32.2537 20.6626 31.5205 21.6732 32.2503C21.8405 32.3727 23.1845 33.3915 22.1909 32.9613C21.9295 32.8477 20.8677 32.3423 20.9961 32.4906C21.0174 32.5128 21.5948 32.7943 21.6226 32.8729C21.7109 33.144 21.5534 33.2865 21.6342 33.5556C21.6566 33.6286 22.2757 33.8806 22.2907 33.9788C22.3328 34.2495 22.0566 34.4018 21.774 34.4863C21.6682 34.5177 21.2112 34.2073 21.1559 34.1836C20.2571 33.7993 21.3851 34.4747 21.4381 34.5376C21.7516 34.9215 21.1414 34.7528 21.2036 34.982C21.219 35.0449 21.7869 35.3114 21.8315 35.3463C22.2656 35.6914 21.3094 35.0944 21.1705 35.0911C20.7779 35.0801 20.7302 35.2766 20.7186 35.4691C20.7151 35.5402 21.3906 35.8166 21.3801 35.8766C21.328 36.2419 21.1037 36.5196 20.5924 36.6353C20.4952 36.656 20.0172 36.363 19.8978 36.3158C19.0624 35.9855 20.0833 36.6649 20.1727 36.7448C20.5799 37.1118 20.115 36.9343 20.1407 37.0863C20.2759 37.8285 19.6504 38.3427 19.2177 38.7626C18.6574 39.3094 17.9269 39.5985 17.7474 40.3C17.7355 40.3439 18.4273 40.6213 18.4258 40.6631C18.3748 41.1906 17.9052 41.5106 17.8924 42.0549C17.8902 42.0989 18.556 42.3389 18.5742 42.419C18.6162 42.5852 18.5122 42.7211 18.2504 42.7534C18.1242 42.7691 17.6096 42.4384 17.4937 42.4596C17.2226 42.5085 17.1092 42.6382 17.146 42.8328C17.1634 42.9154 17.8639 43.116 17.8355 43.2C17.6558 43.7777 17.5363 44.3608 16.4381 44.5526C16.3626 44.5659 14.9999 44.024 15.2233 44.2169C15.5949 44.3826 16.0353 44.57 16.4342 44.7432C16.3068 45.6392 15.5059 46.2475 15.1017 47.045C15.0849 47.0786 15.8299 47.3077 15.8011 47.3737C15.7853 47.4103 15.7716 47.4472 15.759 47.484C15.6358 47.8434 15.6037 48.2213 14.8177 48.3175C14.7322 48.3293 13.465 47.8173 13.6136 48.0062C13.6415 48.0386 13.745 48.2776 14.0064 48.4249C14.046 48.4465 14.6533 48.644 14.6508 48.703C14.6232 49.048 14.3715 49.3085 13.9163 49.4322C13.8418 49.4514 13.2149 49.1859 13.1557 49.1994C12.7409 49.2895 13.1701 49.6766 12.609 49.3835C12.2327 49.1531 11.07 48.9664 9.93039 48.7737C9.76976 48.7507 9.74784 48.6802 9.07463 48.679C7.3832 48.6697 5.53625 48.5021 3.7334 48.4856C3.53872 48.4865 3.54271 48.6344 3.48183 48.6842C3.42049 48.731 3.29046 48.7571 2.82153 48.6773C2.79038 48.6716 2.69597 48.6017 2.57513 48.456C2.45371 48.3167 2.3101 48.1262 2.15773 48.049C1.94808 47.9299 1.24847 48.0551 0.990427 47.8065C0.734636 47.5555 1.33306 47.419 1.0542 47.1143C0.772468 46.816 -0.00742149 46.7257 5.62668e-05 46.2977ZM27.3269 17.3379C26.728 17.0565 28.6957 18.418 28.2868 18.0017C28.2647 17.98 27.3565 17.3515 27.3269 17.3379ZM34.4071 6.65145C33.4708 6.1451 34.6728 7.13113 35.3904 7.52982C36.1071 7.92817 34.691 6.80485 34.4071 6.65145ZM34.6284 5.03349C33.8596 4.676 36.5903 6.69008 36.1372 6.14672C36.1118 6.11579 34.6731 5.05421 34.6284 5.03349ZM9.64408 48.5766C9.61299 48.5694 9.56771 48.6174 9.59833 48.6253C10.3264 48.8436 10.4095 48.7724 9.64408 48.5766ZM34.7921 3.38272C34.3912 3.15353 34.7332 3.58383 35.2317 3.8689C35.6327 4.09827 35.2908 3.66785 34.7921 3.38272ZM22.1326 20.5113C22.1018 20.4932 22.0412 20.5273 22.2106 20.6364C22.7565 20.9877 22.6499 20.816 22.1326 20.5113ZM36.1965 1.39474C35.8806 1.60984 33.4899 0.130702 33.9771 0.000605941C34.0653 -0.0229776 34.6077 0.652329 34.865 0.728574C35.3342 0.867064 33.9796 -0.261762 34.8405 0.15883C34.9978 0.236185 36.2195 1.38622 36.1992 1.39757C36.1983 1.39663 36.1974 1.39569 36.1965 1.39474ZM24.9191 15.7676C24.8917 15.7515 24.819 15.805 24.8437 15.8243C25.4453 16.2904 25.592 16.1834 24.9191 15.7676ZM18.9381 22.7529C18.8785 22.7211 18.7189 22.8568 18.7681 22.8952C19.7658 23.6424 20.0899 23.3726 18.9381 22.7529ZM26.7711 10.0301C26.2005 9.51321 26.1921 9.36907 27.0194 9.86114C26.9238 9.90813 26.8635 9.9806 26.7711 10.0301Z" fill="#FF9100"/>
</svg>
