<svg width="436" height="426" viewBox="0 0 436 426" fill="none" xmlns="http://www.w3.org/2000/svg">
<path d="M95.1494 0.0756141C104.999 1.81611 112.344 7.56352 118.001 15.5795C120.822 20.2206 121.049 23.7868 121.126 29.0795C121.565 37.5354 125.163 42.9556 129.781 49.77C143.554 70.2032 143.554 70.2032 145.442 78.5248C146.283 81.6165 147.894 84.1273 149.501 86.892C149.856 87.5052 150.212 88.1184 150.578 88.7502C153.876 94.4204 157.26 100.04 160.646 105.658C164.411 111.915 168.111 118.21 171.794 124.516C172.59 125.877 173.388 127.237 174.188 128.596C175.298 130.483 176.4 132.374 177.501 134.267C178.13 135.343 178.759 136.42 179.407 137.529C180.959 140.498 182.04 143.375 183.001 146.58C183.661 146.58 184.321 146.58 185.001 146.58C185.246 147.104 185.491 147.629 185.743 148.169C188.51 153.904 191.611 159.37 194.876 164.83C199.305 172.253 203.238 179.799 207.001 187.58C207.686 188.914 208.374 190.247 209.063 191.58C213.439 200.35 216.982 209.495 220.482 218.639C223.303 225.979 226.201 233.288 229.104 240.595C229.835 242.438 230.563 244.283 231.289 246.128C232.347 248.818 233.413 251.504 234.481 254.189C234.805 255.018 235.129 255.847 235.463 256.701C236.84 260.873 236.84 260.873 240.001 263.58C235.666 249.971 235.666 249.971 230.079 236.841C226.904 230.18 226.904 230.18 227.376 227.267C227.582 226.71 227.788 226.153 228.001 225.58C239.001 241.229 239.001 241.229 239.001 247.58C239.661 247.58 240.321 247.58 241.001 247.58C242.001 249.58 243.001 251.58 244.001 253.58C244.317 254.211 244.633 254.843 244.959 255.493C246.599 258.77 248.235 262.049 249.86 265.333C252.807 271.273 255.784 277.191 258.884 283.052C259.379 283.989 259.874 284.926 260.385 285.892C261.359 287.729 262.337 289.565 263.32 291.398C265.613 295.72 267.652 299.849 269.001 304.58C269.991 304.58 270.981 304.58 272.001 304.58C263.374 286.103 253.983 268.155 244.181 250.279C241.219 244.863 238.386 239.41 235.673 233.865C233.296 229.195 230.769 224.611 228.251 220.017C227.201 218.095 226.152 216.173 225.103 214.251C223.599 211.498 222.093 208.745 220.574 205.999C214.952 195.819 210.345 185.84 206.743 174.785C205.39 170.762 203.869 166.802 202.376 162.83C199.986 156.421 197.807 150.016 195.923 143.439C195.044 140.712 193.959 138.141 192.808 135.52C191.278 131.84 190.062 128.05 188.813 124.267C188.405 123.052 188.405 123.052 187.987 121.812C187.602 120.651 187.602 120.651 187.208 119.466C186.976 118.767 186.743 118.068 186.504 117.348C186.001 115.58 186.001 115.58 186.001 113.58C185.011 113.58 184.021 113.58 183.001 113.58C182.011 110.61 181.021 107.64 180.001 104.58C179.279 105.322 178.557 106.065 177.813 106.83C170.91 113.58 170.91 113.58 168.001 113.58C166.001 110.58 166.001 110.58 166.001 107.58C165.341 107.58 164.681 107.58 164.001 107.58C161.001 101.83 161.001 101.83 161.001 99.5795C163.103 98.9077 165.208 98.2422 167.313 97.5795C168.485 97.2083 169.657 96.837 170.864 96.4545C174.001 95.5795 174.001 95.5795 177.001 95.5795C175.816 91.7594 174.599 87.9502 173.376 84.142C173.045 83.0727 172.713 82.0035 172.372 80.9018C170.131 73.9875 167.373 68.3793 163.001 62.5795C154.487 51.2831 152.353 40.0099 152.688 26.017C152.698 24.7737 152.708 23.5304 152.718 22.2494C152.84 12.4613 152.84 12.4613 154.001 8.57952C154.991 8.57952 155.981 8.57952 157.001 8.57952C157.001 9.23952 157.001 9.89952 157.001 10.5795C157.585 10.8502 158.169 11.1209 158.771 11.3998C169.776 17.2205 177.962 29.2372 182.028 40.7045C183.487 46.5154 184.084 52.3924 184.772 58.3359C185.844 66.8675 188.26 73.8444 192.001 81.5795C192.743 83.1322 192.743 83.1322 193.501 84.7162C194.634 87.0242 195.794 89.3097 197.001 91.5795C198.088 91.1271 199.174 90.6746 200.294 90.2084C205.521 88.2541 210.818 87.3848 216.313 86.517C217.738 86.2763 217.738 86.2763 219.19 86.0307C236.016 83.2907 252.603 82.229 269.643 82.2638C272.866 82.267 276.087 82.2434 279.31 82.2182C292.806 82.1768 305.711 83.2726 319.001 85.5795C320.228 85.7783 321.455 85.977 322.719 86.1818C348.172 90.4017 374.11 97.501 396.001 111.58C398.982 113.281 401.988 114.935 405.001 116.58C405.001 117.24 405.001 117.9 405.001 118.58C405.573 118.684 406.146 118.788 406.735 118.896C409.371 119.691 411.061 120.859 413.251 122.517C413.957 123.042 414.664 123.566 415.392 124.107C415.923 124.593 416.454 125.079 417.001 125.58C417.001 126.24 417.001 126.9 417.001 127.58C417.567 127.803 418.133 128.026 418.716 128.255C426.361 132.686 431.245 141.674 433.688 149.892C434.799 159.445 433.987 168.67 428.001 176.58C420.968 183.92 412.45 186.883 402.626 188.58C401.735 188.743 400.843 188.906 399.925 189.074C392.476 190.404 384.992 191.456 377.501 192.517C366.624 194.068 356.029 196.152 345.405 198.947C343.041 199.569 340.672 200.167 338.302 200.763C324.14 204.413 310.523 208.809 299.005 218.076C297.001 219.58 297.001 219.58 295.001 219.58C294.63 220.384 294.63 220.384 294.251 221.205C293.001 223.58 293.001 223.58 290.938 226.205C287.932 231.441 287.608 236.772 288.438 242.705C288.624 243.323 288.81 243.942 289.001 244.58C289.239 243.762 289.239 243.762 289.481 242.927C292.364 233.611 295.96 226.325 304.001 220.58C304.736 220.027 305.471 219.473 306.228 218.904C321.635 208.147 340.962 204.487 359.001 200.58C359.911 200.382 360.821 200.185 361.758 199.982C370.615 198.089 379.481 196.477 388.438 195.142C395.396 194.087 402.264 192.767 409.126 191.205C409.979 191.02 410.831 190.835 411.71 190.644C420.772 188.501 427.33 184.969 433.001 177.58C433.661 177.58 434.321 177.58 435.001 177.58C435.508 182.899 434.327 185.444 431.001 189.58C423.269 197.546 410.215 198.74 399.813 200.58C398.391 200.839 396.968 201.1 395.546 201.361C388.164 202.707 380.771 203.952 373.358 205.118C351.397 208.592 325.647 213.047 307.778 227.232C306.001 228.58 306.001 228.58 303.001 229.58C301.934 231.379 301.934 231.379 301.001 233.58C300.485 234.405 299.97 235.23 299.438 236.08C296.464 241.253 296.303 246.51 297.626 252.33C301.851 262.588 301.851 262.588 310.001 269.58C310.001 270.24 310.001 270.9 310.001 271.58C310.661 271.58 311.321 271.58 312.001 271.58C312.001 272.24 312.001 272.9 312.001 273.58C312.661 273.58 313.321 273.58 314.001 273.58C317.599 279.15 319.751 284.079 318.63 290.806C316.626 298.051 312.621 303.268 306.298 307.306C299.466 310.936 292.563 313.051 285.001 314.58C285.52 315.728 286.04 316.877 286.575 318.06C290.189 326.095 293.717 334.098 296.7 342.392C297.804 345.096 299.014 347.626 300.341 350.224C303.161 355.786 305.527 361.493 307.876 367.267C310.611 373.911 313.362 380.523 316.438 387.017C319.7 393.901 322.877 400.82 326.001 407.767C326.507 408.868 327.013 409.969 327.534 411.103C328.229 412.659 328.229 412.659 328.938 414.247C329.36 415.178 329.782 416.109 330.216 417.069C331.311 420.572 330.594 422.394 329.001 425.58C326.313 425.955 326.313 425.955 323.001 425.58C319.298 421.62 316.375 417.286 313.501 412.705C313.114 412.093 312.726 411.482 312.327 410.852C311.563 409.645 310.801 408.436 310.041 407.227C309.14 405.799 308.226 404.38 307.31 402.962C304.001 397.816 304.001 397.816 304.001 395.58C303.341 395.58 302.681 395.58 302.001 395.58C300.731 393.658 300.731 393.658 299.188 390.83C295.37 384.073 291.17 377.608 286.885 371.139C284.01 366.772 281.274 362.366 278.673 357.83C275.016 351.496 271.027 345.424 266.947 339.358C265.735 337.556 264.528 335.75 263.321 333.943C258.803 327.161 258.803 327.161 254.001 320.58C253.579 321.05 253.157 321.52 252.722 322.004C249.928 324.561 246.409 325.089 242.813 325.955C241.952 326.164 241.09 326.374 240.203 326.591C202.565 335.338 163.388 338.147 125.001 333.58C123.835 333.443 123.835 333.443 122.646 333.303C98.2706 330.268 72.5444 322.247 52.001 308.58C49.5984 307.123 47.1846 305.688 44.7627 304.263C44.0782 303.852 43.3937 303.441 42.6885 303.017C41.9911 302.603 41.2937 302.189 40.5752 301.763C40.0557 301.373 39.5362 300.982 39.001 300.58C39.001 299.92 39.001 299.26 39.001 298.58C38.4441 298.332 37.8872 298.085 37.3135 297.83C34.5769 296.35 32.3245 294.645 30.001 292.58C30.001 291.92 30.001 291.26 30.001 290.58C29.4261 290.335 28.8511 290.09 28.2588 289.837C15.9 282.952 7.02923 264.737 2.89551 251.81C-2.31676 232.987 -0.419387 215.19 8.00098 197.58C8.43153 196.677 8.86208 195.775 9.30567 194.845C15.1084 183.502 23.7833 172.38 33.001 163.58C33.661 163.58 34.321 163.58 35.001 163.58C35.001 162.92 35.001 162.26 35.001 161.58C35.661 161.58 36.321 161.58 37.001 161.58C37.001 160.92 37.001 160.26 37.001 159.58C41.4716 155.58 41.4716 155.58 44.001 155.58C44.001 154.92 44.001 154.26 44.001 153.58C46.1182 151.853 46.1182 151.853 48.876 149.955C49.7809 149.323 50.6858 148.691 51.6182 148.04C54.001 146.58 54.001 146.58 56.001 146.58C56.001 145.92 56.001 145.26 56.001 144.58C58.3525 142.915 58.3525 142.915 61.626 140.955C62.2049 140.607 62.7837 140.259 63.3801 139.901C65.2485 138.785 67.1241 137.682 69.001 136.58C69.9381 136.024 69.9381 136.024 70.8941 135.456C82.7109 128.458 82.7109 128.458 89.001 126.58C89.8982 127.786 89.8982 127.786 90.8135 129.017C92.8105 131.803 92.8105 131.803 96.001 132.58C97.001 135.58 97.001 135.58 96.0049 137.779C95.2914 139.01 95.2914 139.01 94.5635 140.267C92.0004 145.193 91.1875 148.066 92.001 153.58C93.9134 158.708 97.2591 162.794 102.001 165.58C107.576 168.008 112.338 168.573 118.376 168.392C122.948 168.599 125.303 169.526 128.497 172.681C137.001 182.111 137.001 182.111 137.001 185.58C137.661 185.58 138.321 185.58 139.001 185.58C140.728 187.478 140.728 187.478 142.626 189.955C143.258 190.767 143.889 191.579 144.54 192.415C146.001 194.58 146.001 194.58 146.001 196.58C146.661 196.58 147.321 196.58 148.001 196.58C149.728 198.478 149.728 198.478 151.626 200.955C152.258 201.767 152.889 202.579 153.54 203.415C155.001 205.58 155.001 205.58 155.001 207.58C155.661 207.58 156.321 207.58 157.001 207.58C158.439 209.149 159.801 210.788 161.126 212.455C161.925 213.456 162.724 214.458 163.548 215.49C164.357 216.509 165.167 217.529 166.001 218.58C166.749 219.486 167.496 220.392 168.267 221.326C173.27 227.413 176.675 232.191 177.938 240.08C179.132 247.195 182.365 251.674 187.88 256.193C193.869 260.108 200.934 261.951 208.001 262.58C207.671 261.59 207.341 260.6 207.001 259.58C206.341 259.58 205.681 259.58 205.001 259.58C200.001 254.103 200.001 254.103 200.001 251.58C199.341 251.58 198.681 251.58 198.001 251.58C196.556 250.146 196.556 250.146 194.876 248.142C191.507 244.163 188.031 240.302 184.505 236.462C183.001 234.58 183.001 234.58 183.001 232.58C182.341 232.58 181.681 232.58 181.001 232.58C177.001 228.109 177.001 228.109 177.001 225.58C176.341 225.58 175.681 225.58 175.001 225.58C175.001 224.92 175.001 224.26 175.001 223.58C174.341 223.58 173.681 223.58 173.001 223.58C171.395 221.846 169.863 220.041 168.376 218.205C167.559 217.207 166.741 216.209 165.899 215.181C164.001 212.58 164.001 212.58 164.001 210.58C163.341 210.58 162.681 210.58 162.001 210.58C160.274 208.681 160.274 208.681 158.376 206.205C157.744 205.392 157.113 204.58 156.462 203.744C155.001 201.58 155.001 201.58 155.001 199.58C154.341 199.58 153.681 199.58 153.001 199.58C151.661 198.068 151.661 198.068 150.063 195.892C147.084 191.944 143.97 188.144 140.751 184.392C136.887 179.872 133.149 175.276 129.501 170.58C125.934 165.989 122.283 161.495 118.501 157.08C114.123 151.967 109.919 146.74 105.792 141.423C104.949 140.337 104.102 139.254 103.252 138.174C102.395 137.081 101.548 135.98 100.711 134.872C98.2631 131.736 96.8568 130.36 93.001 129.58C86.8607 123.979 81.9383 117.019 77.044 110.341C75.6606 108.471 74.2231 106.64 72.7393 104.849C71.001 102.58 71.001 102.58 71.001 100.58C70.341 100.58 69.681 100.58 69.001 100.58C68.1874 99.4423 67.4263 98.2673 66.6885 97.0795C63.0946 92.0535 58.4001 89.4895 53.1221 86.5366C49.9075 84.5209 47.5837 82.3435 45.001 79.5795C44.4763 79.0871 43.9517 78.5947 43.4111 78.0873C34.8696 69.323 30.001 52.582 30.001 40.5795C33.6362 41.165 36.4468 42.1613 39.6885 43.892C43.0963 45.6616 46.4639 47.1826 50.0635 48.517C60.8243 52.7505 69.2288 59.8152 74.0908 70.4233C74.5414 71.4906 74.5414 71.4906 75.001 72.5795C75.3735 73.4561 75.7461 74.3326 76.1299 75.2358C79.001 82.1984 79.001 82.1984 79.001 84.5795C79.661 84.5795 80.321 84.5795 81.001 84.5795C81.001 85.2395 81.001 85.8995 81.001 86.5795C81.661 86.5795 82.321 86.5795 83.001 86.5795C84.5518 88.1537 84.5518 88.1537 86.3135 90.267C90.2237 94.9329 94.52 99.1216 98.919 103.322C100.342 104.699 101.766 106.077 103.188 107.455C103.912 108.136 104.636 108.818 105.382 109.521C109.699 113.738 111.924 116.614 113.001 122.58C113.331 123.57 113.661 124.56 114.001 125.58C114.661 125.58 115.321 125.58 116.001 125.58C116.001 126.24 116.001 126.9 116.001 127.58C116.661 127.58 117.321 127.58 118.001 127.58C119.446 129.013 119.446 129.013 121.126 131.017C124.495 134.996 127.971 138.857 131.497 142.697C133.001 144.58 133.001 144.58 133.001 146.58C133.661 146.58 134.321 146.58 135.001 146.58C135.001 147.24 135.001 147.9 135.001 148.58C135.661 148.58 136.321 148.58 137.001 148.58C138.565 150.272 140.054 152.035 141.501 153.83C142.295 154.804 143.089 155.779 143.907 156.783C145.588 159.028 146.882 161.026 148.001 163.58C148.661 163.58 149.321 163.58 150.001 163.58C150.001 164.24 150.001 164.9 150.001 165.58C150.991 165.91 151.981 166.24 153.001 166.58C154.418 168.15 155.762 169.787 157.063 171.455C161.086 176.498 165.304 181.283 169.669 186.037C174.821 191.655 179.76 197.453 184.688 203.267C185.152 203.814 185.616 204.361 186.094 204.925C187.402 206.472 188.702 208.026 190.001 209.58C190.643 210.344 191.285 211.109 191.946 211.897C194.077 214.679 195.745 217.48 197.427 220.552C198.059 221.7 198.691 222.848 199.343 224.031C200 225.234 200.657 226.438 201.313 227.642C206.09 236.36 210.945 245.02 216.001 253.58C216.459 254.356 216.917 255.132 217.389 255.932C218.214 257.328 219.04 258.723 219.866 260.119C222.99 265.398 226.097 270.675 229.001 276.08C233.107 283.71 237.548 291.148 242.001 298.58C242.359 299.18 242.718 299.781 243.087 300.4C244.027 301.966 244.982 303.523 245.938 305.08C246.463 305.935 246.988 306.791 247.528 307.673C248.942 309.87 248.942 309.87 252.001 310.58C250.669 308.35 249.335 306.121 248.001 303.892C247.391 302.874 247.391 302.874 246.769 301.834C244.154 297.475 241.499 293.146 238.813 288.83C235.997 284.266 233.362 279.652 230.829 274.927C228.279 270.257 225.641 265.638 223.001 261.017C222.502 260.142 222.004 259.268 221.49 258.367C219.041 254.086 216.559 249.832 214.001 245.615C210.833 240.358 207.901 234.988 205.001 229.58C204.455 228.563 203.908 227.546 203.346 226.499C202.197 224.359 201.049 222.218 199.901 220.078C193.479 208.102 187.049 196.163 179.938 184.58C177.221 180.101 174.907 175.452 172.606 170.751C170.882 167.256 169.05 163.893 167.001 160.58C164.363 156.297 162.102 151.89 159.883 147.378C157.378 142.297 154.77 137.276 152.126 132.267C151.701 131.462 151.276 130.656 150.838 129.827C148.78 125.931 146.714 122.039 144.642 118.15C140.885 111.096 137.167 104.025 133.563 96.892C133.233 96.2447 132.903 95.5973 132.563 94.9304C131.119 92.0472 129.943 89.3659 129.091 86.2475C128.268 83.3635 128.268 83.3635 125.552 82.4623C124.71 82.171 123.868 81.8797 123.001 81.5795C121.481 79.7592 121.481 79.7592 120.188 77.4545C119.687 76.5625 119.186 75.6705 118.669 74.7514C116.742 71.0872 114.856 67.4055 113.001 63.7045C112.657 63.0187 112.313 62.3328 111.958 61.6262C110.396 58.4858 108.902 55.3508 107.509 52.1303C104.506 45.3692 101.67 42.1706 95.4033 38.2787C89.1337 33.8441 85.3538 26.0255 84.001 18.5795C82.8852 6.09964 82.8852 6.09964 85.7471 2.20061C89.0181 -0.15203 91.212 -0.104416 95.1494 0.0756141ZM198.001 94.5795C199.001 96.5795 199.001 96.5795 199.001 96.5795L198.001 94.5795ZM252.126 105.892C247.955 110.438 245.377 114.946 244.501 121.08C245.358 127.08 247.535 131.113 251.813 135.392C260.207 141.152 269.117 142.649 279.188 140.892C288.117 138.721 294.437 134.98 301.001 128.58C301.529 128.096 302.058 127.613 302.603 127.115C306.497 122.839 306.667 118.283 306.571 112.693C305.419 106.405 301.042 102.929 296.181 99.1733C282.875 91.1091 262.969 95.7657 252.126 105.892ZM178.001 98.5795C179.001 101.58 179.001 101.58 179.001 101.58L178.001 98.5795ZM201.001 101.58C201.145 102.796 201.29 104.013 201.438 105.267C201.52 105.952 201.601 106.636 201.685 107.341C202.464 112.856 204.078 117.478 206.251 122.58C206.892 124.106 207.531 125.634 208.169 127.162C208.483 127.913 208.796 128.664 209.12 129.437C210.322 132.36 211.447 135.31 212.563 138.267C214.26 142.74 216.086 147.132 218.001 151.517C220.488 157.242 222.639 163.02 224.63 168.935C225.716 171.822 226.888 174.543 228.188 177.333C231.96 185.52 235.157 193.939 238.438 202.33C239.409 204.803 240.38 207.276 241.352 209.75C241.988 211.369 242.623 212.989 243.259 214.61C245.239 219.656 247.242 224.693 249.263 229.724C251.365 234.966 253.416 240.221 255.376 245.517C255.635 246.212 255.894 246.908 256.161 247.624C256.776 249.276 257.389 250.927 258.001 252.58C261.737 249.079 263.063 246.695 264.001 241.58C264.101 235.826 262.649 232.001 259.001 227.58C258.341 227.58 257.681 227.58 257.001 227.58C257.001 226.92 257.001 226.26 257.001 225.58C256.341 225.58 255.681 225.58 255.001 225.58C255.001 224.92 255.001 224.26 255.001 223.58C254.238 223.435 253.475 223.291 252.688 223.142C249.568 221.328 249.515 220.836 248.544 217.529C247.103 212.871 245.416 208.363 243.626 203.83C243.006 202.25 242.386 200.671 241.767 199.091C241.466 198.325 241.165 197.558 240.854 196.768C239.313 192.814 237.824 188.84 236.337 184.865C235.189 182.041 233.957 179.294 232.677 176.529C229.791 170.227 227.284 163.803 224.813 157.33C224.376 156.198 223.938 155.066 223.487 153.9C218.001 139.593 218.001 139.593 218.001 135.58C218.661 135.58 219.321 135.58 220.001 135.58C220.001 134.92 220.001 134.26 220.001 133.58C220.661 133.58 221.321 133.58 222.001 133.58C225.059 127.683 226.767 123.253 226.001 116.58C223.48 109.679 218.572 106.495 212.204 103.396C208.556 102.044 204.865 101.758 201.001 101.58ZM332.001 120.58C331.235 121.037 330.47 121.495 329.681 121.966C324.113 125.716 320.267 130.326 318.337 136.81C317.466 141.773 318.106 145.377 320.646 149.728C325.202 155.952 330.612 158.765 338.001 160.58C338.789 160.774 339.576 160.969 340.388 161.169C352.635 163.092 364.524 159.22 374.579 152.474C379.541 148.592 382.702 143.815 384.001 137.58C383.807 132.232 382.469 127.7 379.001 123.58C365.891 112.895 346.58 111.753 332.001 120.58ZM38.001 183.58C34.268 188.026 33.3454 192.468 33.6299 198.158C34.388 203.105 36.1973 206.098 40.0596 209.271C49.0407 215.556 58.2152 216.994 69.001 215.58C79.1221 213.275 88.7306 208.184 94.4658 199.314C96.9163 194.462 97.5165 190.934 96.001 185.58C93.7247 179.383 89.73 175.357 83.8135 172.537C67.3366 166.764 49.9044 171.149 38.001 183.58ZM38.001 235.58C33.9773 240.27 33.3546 244.838 33.6299 250.935C34.339 255.988 36.0672 258.914 39.9189 262.232C47.0167 267.37 55.1656 270.494 64.001 269.58C74.0097 267.849 84.142 264.439 91.001 256.58C91.001 255.92 91.001 255.26 91.001 254.58C91.661 254.58 92.321 254.58 93.001 254.58C96.8754 246.394 96.8754 246.394 96.001 237.58C93.2324 231.632 89.921 227.182 83.708 224.642C81.1548 223.819 78.6192 223.162 76.001 222.58C75.2791 222.412 74.5572 222.244 73.8135 222.072C60.439 219.761 47.085 226.114 38.001 235.58ZM99.001 262.58C99.001 263.24 99.001 263.9 99.001 264.58C98.341 264.58 97.681 264.58 97.001 264.58C93.5862 270.239 91.0949 274.797 92.3565 281.482C94.8943 289.741 100.696 295.256 108.001 299.58C116.487 303.124 129.6 303.528 138.188 300.017C144.451 296.48 150.832 291.629 153.001 284.58C153.866 277.36 153.226 272.521 149.001 266.58C148.341 266.58 147.681 266.58 147.001 266.58C147.001 265.92 147.001 265.26 147.001 264.58C131.71 253.774 115.04 252.243 99.001 262.58ZM309.001 279.58C308.721 280.232 308.442 280.884 308.153 281.556C302.907 292.993 294.889 297.045 284.001 302.58C284.661 304.23 285.321 305.88 286.001 307.58C296.143 306 303.852 303.417 310.228 294.951C312.379 291.68 313.01 289.758 312.813 285.83C312.05 282.598 312.05 282.598 311.001 279.58C310.341 279.58 309.681 279.58 309.001 279.58ZM79.001 314.58C93.6524 329.231 133.699 329.784 153.069 329.855C154.898 329.854 156.727 329.849 158.556 329.84C161.301 329.83 164.044 329.84 166.788 329.853C183.028 329.866 199.05 328.508 215.063 325.767C216.052 325.601 217.04 325.435 218.058 325.264C227.53 323.606 236.765 321.237 246.001 318.58C246.001 317.92 246.001 317.26 246.001 316.58C240.222 312.727 231.846 315.966 225.333 317.207C205.929 320.88 186.796 324.408 167.001 324.58C166.11 324.593 165.219 324.607 164.301 324.621C157.865 324.715 151.437 324.691 145.001 324.58C144.173 324.567 143.345 324.554 142.491 324.541C123.074 324.161 103.931 321.196 85.3525 315.533C82.1008 314.443 82.1008 314.443 79.001 314.58Z" fill="#FF9100"/>
</svg>
