<?xml version="1.0" encoding="UTF-8"?>
<svg version="1.1" xmlns="http://www.w3.org/2000/svg" width="500" height="500">
<path d="M0 0 C9.84933342 1.74049865 17.19488322 7.48790847 22.8515625 15.50390625 C25.67261684 20.14499564 25.89933931 23.71114754 25.9765625 29.00390625 C26.41594781 37.45983162 30.01356696 42.87996703 34.63183594 49.69433594 C48.40473702 70.12763114 48.40473702 70.12763114 50.29296875 78.44921875 C51.13347177 81.54085923 52.74441528 84.05173038 54.3515625 86.81640625 C54.70686035 87.42959717 55.0621582 88.04278809 55.42822266 88.67456055 C58.72653216 94.34474474 62.11008687 99.96396054 65.49609375 105.58203125 C69.26193744 111.83893071 72.96157529 118.13474839 76.64501953 124.44042969 C77.44091517 125.80160127 78.23872638 127.16165484 79.03857422 128.52050781 C80.14853505 130.40758227 81.25102317 132.29882564 82.3515625 134.19140625 C82.980625 135.26777344 83.6096875 136.34414062 84.2578125 137.453125 C85.80918779 140.42279191 86.8908056 143.29978197 87.8515625 146.50390625 C88.5115625 146.50390625 89.1715625 146.50390625 89.8515625 146.50390625 C90.09648437 147.02855469 90.34140625 147.55320313 90.59375 148.09375 C93.36070581 153.82802738 96.46192843 159.29446751 99.7265625 164.75390625 C104.15535623 172.17739248 108.08813238 179.72344561 111.8515625 187.50390625 C112.5369392 188.83833227 113.22409564 190.17184778 113.9140625 191.50390625 C118.28982305 200.27412719 121.83212289 209.41976594 125.33276367 218.5637207 C128.15323365 225.90326769 131.05164698 233.21239632 133.95483398 240.51953125 C134.68574505 242.36285571 135.41387709 244.20728421 136.1394043 246.05273438 C137.19709985 248.74221531 138.26356147 251.42806566 139.33203125 254.11328125 C139.65600388 254.94228943 139.9799765 255.77129761 140.31376648 256.62542725 C141.6901735 260.79723777 141.6901735 260.79723777 144.8515625 263.50390625 C140.51660817 249.8956766 140.51660817 249.8956766 134.9296875 236.765625 C131.75423677 230.10408161 131.75423677 230.10408161 132.2265625 227.19140625 C132.4328125 226.63453125 132.6390625 226.07765625 132.8515625 225.50390625 C143.8515625 241.15339079 143.8515625 241.15339079 143.8515625 247.50390625 C144.5115625 247.50390625 145.1715625 247.50390625 145.8515625 247.50390625 C146.8515625 249.50390625 147.8515625 251.50390625 148.8515625 253.50390625 C149.16770508 254.13546631 149.48384766 254.76702637 149.80957031 255.41772461 C151.44949135 258.69475033 153.08561376 261.97351979 154.7109375 265.2578125 C157.65714424 271.19781972 160.63412347 277.11499042 163.734375 282.9765625 C164.22969727 283.91363037 164.72501953 284.85069824 165.23535156 285.81616211 C166.20963144 287.65386323 167.18797633 289.48941653 168.17089844 291.32250977 C170.46371842 295.64438491 172.50226806 299.77362114 173.8515625 304.50390625 C174.8415625 304.50390625 175.8315625 304.50390625 176.8515625 304.50390625 C168.22477446 286.02704608 158.83332298 268.07944748 149.03173828 250.20336914 C146.06989344 244.7873832 143.23624673 239.33436372 140.5234375 233.7890625 C138.14701327 229.11949993 135.61989663 224.53562209 133.1015625 219.94140625 C132.05194541 218.01960657 131.00246653 216.0977314 129.953125 214.17578125 C128.44926636 211.4219743 126.94321247 208.66964152 125.42480469 205.92382812 C119.80272038 195.74362386 115.19606122 185.76401065 111.59326172 174.70898438 C110.24029879 170.686614 108.719091 166.72609153 107.2265625 162.75390625 C104.83679572 156.34583878 102.65765366 149.94026218 100.7734375 143.36328125 C99.89432819 140.63655239 98.8100143 138.06564596 97.65869141 135.44482422 C96.12821066 131.76444855 94.91279242 127.97459542 93.6640625 124.19140625 C93.25510742 122.97614258 93.25510742 122.97614258 92.83789062 121.73632812 C92.45213867 120.57520508 92.45213867 120.57520508 92.05859375 119.390625 C91.8263208 118.69155029 91.59404785 117.99247559 91.35473633 117.2722168 C90.8515625 115.50390625 90.8515625 115.50390625 90.8515625 113.50390625 C89.8615625 113.50390625 88.8715625 113.50390625 87.8515625 113.50390625 C86.8615625 110.53390625 85.8715625 107.56390625 84.8515625 104.50390625 C84.1296875 105.24640625 83.4078125 105.98890625 82.6640625 106.75390625 C75.76065341 113.50390625 75.76065341 113.50390625 72.8515625 113.50390625 C70.8515625 110.50390625 70.8515625 110.50390625 70.8515625 107.50390625 C70.1915625 107.50390625 69.5315625 107.50390625 68.8515625 107.50390625 C65.8515625 101.75390625 65.8515625 101.75390625 65.8515625 99.50390625 C67.95408111 98.83206007 70.05864013 98.16659657 72.1640625 97.50390625 C73.33582031 97.13265625 74.50757813 96.76140625 75.71484375 96.37890625 C78.8515625 95.50390625 78.8515625 95.50390625 81.8515625 95.50390625 C80.66646399 91.68379688 79.44928289 87.87462447 78.2265625 84.06640625 C77.89527344 82.99712891 77.56398437 81.92785156 77.22265625 80.82617188 C74.9813431 73.91193225 72.22310274 68.30370655 67.8515625 62.50390625 C59.33708668 51.20748613 57.20323376 39.93427055 57.5390625 25.94140625 C57.54873047 24.69810547 57.55839844 23.45480469 57.56835938 22.17382812 C57.69011513 12.38572405 57.69011513 12.38572405 58.8515625 8.50390625 C59.8415625 8.50390625 60.8315625 8.50390625 61.8515625 8.50390625 C61.8515625 9.16390625 61.8515625 9.82390625 61.8515625 10.50390625 C62.43550781 10.77460937 63.01945313 11.0453125 63.62109375 11.32421875 C74.62633596 17.14485473 82.81298489 29.16162973 86.87890625 40.62890625 C88.33748826 46.43980324 88.93411993 52.31674821 89.62304688 58.26025391 C90.69480267 66.79184002 93.11027576 73.76879592 96.8515625 81.50390625 C97.5940625 83.05658203 97.5940625 83.05658203 98.3515625 84.640625 C99.48459508 86.94853511 100.64454413 89.23407083 101.8515625 91.50390625 C102.93824219 91.05144531 104.02492187 90.59898437 105.14453125 90.1328125 C110.37173621 88.17849196 115.66816173 87.30918006 121.1640625 86.44140625 C122.5881543 86.20067383 122.5881543 86.20067383 124.04101562 85.95507812 C140.86624393 83.21506384 157.45352815 82.15339346 174.49365234 82.18823242 C177.71616398 82.19139604 180.93775679 82.16781054 184.16015625 82.14257812 C197.656447 82.10121818 210.56140308 83.19699954 223.8515625 85.50390625 C225.07842773 85.70266357 226.30529297 85.9014209 227.56933594 86.10620117 C253.02282256 90.32612132 278.96045943 97.42538888 300.8515625 111.50390625 C303.83262204 113.20544475 306.83879966 114.85925794 309.8515625 116.50390625 C309.8515625 117.16390625 309.8515625 117.82390625 309.8515625 118.50390625 C310.42390625 118.60832031 310.99625 118.71273437 311.5859375 118.8203125 C314.22142018 119.61550124 315.91187558 120.78292116 318.1015625 122.44140625 C318.80796875 122.96605469 319.514375 123.49070312 320.2421875 124.03125 C320.77328125 124.51722656 321.304375 125.00320312 321.8515625 125.50390625 C321.8515625 126.16390625 321.8515625 126.82390625 321.8515625 127.50390625 C322.41746094 127.72691406 322.98335938 127.94992188 323.56640625 128.1796875 C331.21154789 132.60994906 336.09583145 141.59826544 338.5390625 149.81640625 C339.64982339 159.36894994 338.83736805 168.59409178 332.8515625 176.50390625 C325.81844302 183.84448451 317.30088261 186.80776628 307.4765625 188.50390625 C306.58517578 188.66705322 305.69378906 188.8302002 304.77539062 188.99829102 C297.32663745 190.32833447 289.8424155 191.38082486 282.3515625 192.44140625 C271.47412318 193.99204438 260.87970884 196.07637188 250.25537109 198.87158203 C247.89160101 199.49337408 245.52262297 200.09108153 243.15234375 200.6875 C228.99087291 204.33711506 215.37338808 208.73291071 203.85546875 218 C201.8515625 219.50390625 201.8515625 219.50390625 199.8515625 219.50390625 C199.4803125 220.30828125 199.4803125 220.30828125 199.1015625 221.12890625 C197.8515625 223.50390625 197.8515625 223.50390625 195.7890625 226.12890625 C192.78284599 231.36554145 192.45854623 236.69664715 193.2890625 242.62890625 C193.4746875 243.24765625 193.6603125 243.86640625 193.8515625 244.50390625 C194.08939453 243.68599609 194.08939453 243.68599609 194.33203125 242.8515625 C197.21436325 233.53573809 200.81035953 226.24982331 208.8515625 220.50390625 C209.58632813 219.95089844 210.32109375 219.39789063 211.078125 218.828125 C226.48521698 208.0717806 245.81302114 204.41172063 263.8515625 200.50390625 C264.76147949 200.30667969 265.67139648 200.10945312 266.60888672 199.90625 C275.46580044 198.01342181 284.3318551 196.40107102 293.2890625 195.06640625 C300.24669913 194.01166591 307.11458514 192.69106624 313.9765625 191.12890625 C314.82919678 190.94400635 315.68183105 190.75910645 316.56030273 190.56860352 C325.62233749 188.42521208 332.18032923 184.89369505 337.8515625 177.50390625 C338.5115625 177.50390625 339.1715625 177.50390625 339.8515625 177.50390625 C340.35813537 182.82292142 339.17766293 185.36875437 335.8515625 189.50390625 C328.1198268 197.46993697 315.06566427 198.66459391 304.6640625 200.50390625 C303.24148103 200.76357455 301.81903793 201.02400191 300.39672852 201.28515625 C293.01468952 202.63119768 285.62163102 203.87679318 278.20874023 205.04199219 C256.247939 208.51634924 230.49715816 212.97150752 212.62890625 227.15625 C210.8515625 228.50390625 210.8515625 228.50390625 207.8515625 229.50390625 C206.78439546 231.30323204 206.78439546 231.30323204 205.8515625 233.50390625 C205.3359375 234.32890625 204.8203125 235.15390625 204.2890625 236.00390625 C201.314099 241.17775582 201.15388037 246.43410488 202.4765625 252.25390625 C206.70138901 262.5122556 206.70138901 262.5122556 214.8515625 269.50390625 C214.8515625 270.16390625 214.8515625 270.82390625 214.8515625 271.50390625 C215.5115625 271.50390625 216.1715625 271.50390625 216.8515625 271.50390625 C216.8515625 272.16390625 216.8515625 272.82390625 216.8515625 273.50390625 C217.5115625 273.50390625 218.1715625 273.50390625 218.8515625 273.50390625 C222.44909877 279.07428499 224.60165805 284.00333295 223.48046875 290.73046875 C221.4762939 297.97537409 217.4711298 303.19198609 211.1484375 307.23046875 C204.31708366 310.86074317 197.41391413 312.97534581 189.8515625 314.50390625 C190.37105469 315.65246094 190.89054687 316.80101562 191.42578125 317.984375 C195.0397029 326.01955606 198.56720809 334.02230325 201.55078125 342.31640625 C202.65443691 345.02085977 203.86500443 347.55059954 205.19140625 350.1484375 C208.01193119 355.71046069 210.3775157 361.41780633 212.7265625 367.19140625 C215.46204919 373.83573954 218.2125022 380.44726933 221.2890625 386.94140625 C224.5502593 393.8252819 227.72736325 400.74419317 230.8515625 407.69140625 C231.35743896 408.79218506 231.86331543 409.89296387 232.38452148 411.02709961 C233.07976929 412.58376343 233.07976929 412.58376343 233.7890625 414.171875 C234.21058594 415.10281982 234.63210938 416.03376465 235.06640625 416.99291992 C236.16179986 420.49606771 235.4443185 422.31839424 233.8515625 425.50390625 C231.1640625 425.87890625 231.1640625 425.87890625 227.8515625 425.50390625 C224.14881631 421.54477023 221.22510688 417.2099373 218.3515625 412.62890625 C217.96427979 412.01756836 217.57699707 411.40623047 217.17797852 410.77636719 C216.4139435 409.56913748 215.65159071 408.3608411 214.89111328 407.15136719 C213.99030011 405.72377507 213.07639709 404.30445862 212.16015625 402.88671875 C208.8515625 397.74001736 208.8515625 397.74001736 208.8515625 395.50390625 C208.1915625 395.50390625 207.5315625 395.50390625 206.8515625 395.50390625 C205.58203125 393.58203125 205.58203125 393.58203125 204.0390625 390.75390625 C200.22044647 383.99727747 196.0200894 377.53269267 191.73510742 371.06347656 C188.86070379 366.69602981 186.12411044 362.29041845 183.5234375 357.75390625 C179.86630573 351.4208244 175.87722878 345.34806047 171.79785156 339.28271484 C170.58548265 337.47999649 169.37829044 335.67389426 168.171875 333.8671875 C163.65375855 327.0853399 163.65375855 327.0853399 158.8515625 320.50390625 C158.42963623 320.97393066 158.00770996 321.44395508 157.57299805 321.92822266 C154.77907897 324.48558384 151.26002735 325.01381718 147.6640625 325.87890625 C146.80256592 326.08878174 145.94106934 326.29865723 145.0534668 326.51489258 C107.41537652 335.26211608 68.23873223 338.07121823 29.8515625 333.50390625 C28.68584717 333.36710449 28.68584717 333.36710449 27.49658203 333.22753906 C3.12115843 330.19192808 -22.60506505 322.17187582 -43.1484375 308.50390625 C-45.55104004 307.04721022 -47.96484372 305.61188374 -50.38671875 304.1875 C-51.07121094 303.77628906 -51.75570312 303.36507813 -52.4609375 302.94140625 C-53.15832031 302.52761719 -53.85570312 302.11382812 -54.57421875 301.6875 C-55.09371094 301.29691406 -55.61320312 300.90632813 -56.1484375 300.50390625 C-56.1484375 299.84390625 -56.1484375 299.18390625 -56.1484375 298.50390625 C-56.7053125 298.25640625 -57.2621875 298.00890625 -57.8359375 297.75390625 C-60.57254663 296.27465807 -62.82494619 294.56923186 -65.1484375 292.50390625 C-65.1484375 291.84390625 -65.1484375 291.18390625 -65.1484375 290.50390625 C-65.72335938 290.25898438 -66.29828125 290.0140625 -66.890625 289.76171875 C-79.24941651 282.87671725 -88.12019028 264.66136664 -92.25390625 251.734375 C-97.46617513 232.91102845 -95.56880557 215.11450461 -87.1484375 197.50390625 C-86.71789062 196.6015625 -86.28734375 195.69921875 -85.84375 194.76953125 C-80.04101346 183.42632876 -71.3661072 172.30439693 -62.1484375 163.50390625 C-61.4884375 163.50390625 -60.8284375 163.50390625 -60.1484375 163.50390625 C-60.1484375 162.84390625 -60.1484375 162.18390625 -60.1484375 161.50390625 C-59.4884375 161.50390625 -58.8284375 161.50390625 -58.1484375 161.50390625 C-58.1484375 160.84390625 -58.1484375 160.18390625 -58.1484375 159.50390625 C-53.67784926 155.50390625 -53.67784926 155.50390625 -51.1484375 155.50390625 C-51.1484375 154.84390625 -51.1484375 154.18390625 -51.1484375 153.50390625 C-49.03125 151.77734375 -49.03125 151.77734375 -46.2734375 149.87890625 C-45.36851563 149.24726563 -44.46359375 148.615625 -43.53125 147.96484375 C-41.1484375 146.50390625 -41.1484375 146.50390625 -39.1484375 146.50390625 C-39.1484375 145.84390625 -39.1484375 145.18390625 -39.1484375 144.50390625 C-36.796875 142.83984375 -36.796875 142.83984375 -33.5234375 140.87890625 C-32.94456787 140.53134277 -32.36569824 140.1837793 -31.76928711 139.82568359 C-29.90087167 138.70939622 -28.02527942 137.60595793 -26.1484375 136.50390625 C-25.21136963 135.94799805 -25.21136963 135.94799805 -24.25537109 135.38085938 C-12.43855953 128.38240423 -12.43855953 128.38240423 -6.1484375 126.50390625 C-5.25125 127.71046875 -5.25125 127.71046875 -4.3359375 128.94140625 C-2.33896474 131.72718609 -2.33896474 131.72718609 0.8515625 132.50390625 C1.8515625 135.50390625 1.8515625 135.50390625 0.85546875 137.703125 C0.14197266 138.93482422 0.14197266 138.93482422 -0.5859375 140.19140625 C-3.14901734 145.11710159 -3.96187676 147.9905957 -3.1484375 153.50390625 C-1.23601131 158.63219995 2.10969504 162.71818714 6.8515625 165.50390625 C12.42687694 167.93235537 17.18849139 168.49718682 23.2265625 168.31640625 C27.79858292 168.52298981 30.15402993 169.4502338 33.34765625 172.60546875 C41.8515625 182.03553083 41.8515625 182.03553083 41.8515625 185.50390625 C42.5115625 185.50390625 43.1715625 185.50390625 43.8515625 185.50390625 C45.578125 187.40234375 45.578125 187.40234375 47.4765625 189.87890625 C48.10820312 190.69101563 48.73984375 191.503125 49.390625 192.33984375 C50.8515625 194.50390625 50.8515625 194.50390625 50.8515625 196.50390625 C51.5115625 196.50390625 52.1715625 196.50390625 52.8515625 196.50390625 C54.578125 198.40234375 54.578125 198.40234375 56.4765625 200.87890625 C57.10820312 201.69101562 57.73984375 202.503125 58.390625 203.33984375 C59.8515625 205.50390625 59.8515625 205.50390625 59.8515625 207.50390625 C60.5115625 207.50390625 61.1715625 207.50390625 61.8515625 207.50390625 C63.28968923 209.07331426 64.651863 210.7126466 65.9765625 212.37890625 C66.77578125 213.38050781 67.575 214.38210938 68.3984375 215.4140625 C69.20796875 216.43371094 70.0175 217.45335937 70.8515625 218.50390625 C71.59921875 219.41011719 72.346875 220.31632813 73.1171875 221.25 C78.12053911 227.33741113 81.52565343 232.11556224 82.7890625 240.00390625 C83.98294256 247.11904627 87.21563028 251.59857792 92.73046875 256.1171875 C98.7191508 260.03244003 105.78483232 261.87575246 112.8515625 262.50390625 C112.5215625 261.51390625 112.1915625 260.52390625 111.8515625 259.50390625 C111.1915625 259.50390625 110.5315625 259.50390625 109.8515625 259.50390625 C104.8515625 254.02771577 104.8515625 254.02771577 104.8515625 251.50390625 C104.1915625 251.50390625 103.5315625 251.50390625 102.8515625 251.50390625 C101.40625 250.0703125 101.40625 250.0703125 99.7265625 248.06640625 C96.35777679 244.08769302 92.8811643 240.22685015 89.35546875 236.38671875 C87.8515625 234.50390625 87.8515625 234.50390625 87.8515625 232.50390625 C87.1915625 232.50390625 86.5315625 232.50390625 85.8515625 232.50390625 C81.8515625 228.03331801 81.8515625 228.03331801 81.8515625 225.50390625 C81.1915625 225.50390625 80.5315625 225.50390625 79.8515625 225.50390625 C79.8515625 224.84390625 79.8515625 224.18390625 79.8515625 223.50390625 C79.1915625 223.50390625 78.5315625 223.50390625 77.8515625 223.50390625 C76.24522235 221.76998674 74.7140338 219.96581525 73.2265625 218.12890625 C72.40929687 217.13117188 71.59203125 216.1334375 70.75 215.10546875 C68.8515625 212.50390625 68.8515625 212.50390625 68.8515625 210.50390625 C68.1915625 210.50390625 67.5315625 210.50390625 66.8515625 210.50390625 C65.125 208.60546875 65.125 208.60546875 63.2265625 206.12890625 C62.59492188 205.31679688 61.96328125 204.5046875 61.3125 203.66796875 C59.8515625 201.50390625 59.8515625 201.50390625 59.8515625 199.50390625 C59.1915625 199.50390625 58.5315625 199.50390625 57.8515625 199.50390625 C56.51171875 197.9921875 56.51171875 197.9921875 54.9140625 195.81640625 C51.93477659 191.86869821 48.82107009 188.06881349 45.6015625 184.31640625 C41.73761272 179.79595047 37.99990883 175.19994603 34.3515625 170.50390625 C30.78432251 165.91301796 27.13344005 161.41968186 23.3515625 157.00390625 C18.97338624 151.8918478 14.76927548 146.66463088 10.64257812 141.34765625 C9.79932136 140.26181878 8.95273343 139.17855858 8.10253906 138.09814453 C7.24521621 137.00557657 6.39868954 135.90447523 5.56152344 134.79638672 C3.11372653 131.66055537 1.70738273 130.28434281 -2.1484375 129.50390625 C-8.28876605 123.90364484 -13.21110192 116.94300342 -18.10546875 110.265625 C-19.48879397 108.39562322 -20.92635712 106.56475977 -22.41015625 104.7734375 C-24.1484375 102.50390625 -24.1484375 102.50390625 -24.1484375 100.50390625 C-24.8084375 100.50390625 -25.4684375 100.50390625 -26.1484375 100.50390625 C-26.96205182 99.36666095 -27.72311817 98.19172685 -28.4609375 97.00390625 C-32.05479041 91.97784958 -36.74930804 89.41390212 -42.02734375 86.4609375 C-45.24196505 84.44526132 -47.56574747 82.26791528 -50.1484375 79.50390625 C-50.67308594 79.01148438 -51.19773438 78.5190625 -51.73828125 78.01171875 C-60.27982195 69.24735525 -65.1484375 52.50642366 -65.1484375 40.50390625 C-61.51326428 41.08939433 -58.70263521 42.08571475 -55.4609375 43.81640625 C-52.05314184 45.58603308 -48.68552796 47.10697863 -45.0859375 48.44140625 C-34.32511773 52.6748949 -25.92062287 59.73959271 -21.05859375 70.34765625 C-20.60806641 71.415 -20.60806641 71.415 -20.1484375 72.50390625 C-19.77589844 73.38046875 -19.40335937 74.25703125 -19.01953125 75.16015625 C-16.1484375 82.12280869 -16.1484375 82.12280869 -16.1484375 84.50390625 C-15.4884375 84.50390625 -14.8284375 84.50390625 -14.1484375 84.50390625 C-14.1484375 85.16390625 -14.1484375 85.82390625 -14.1484375 86.50390625 C-13.4884375 86.50390625 -12.8284375 86.50390625 -12.1484375 86.50390625 C-10.59765625 88.078125 -10.59765625 88.078125 -8.8359375 90.19140625 C-4.92576151 94.8572567 -0.62941784 99.04602636 3.76953125 103.24609375 C5.19296117 104.62343667 6.61613272 106.00104664 8.0390625 107.37890625 C8.76287109 108.06082031 9.48667969 108.74273437 10.23242188 109.4453125 C14.54975855 113.662246 16.77423153 116.53827759 17.8515625 122.50390625 C18.1815625 123.49390625 18.5115625 124.48390625 18.8515625 125.50390625 C19.5115625 125.50390625 20.1715625 125.50390625 20.8515625 125.50390625 C20.8515625 126.16390625 20.8515625 126.82390625 20.8515625 127.50390625 C21.5115625 127.50390625 22.1715625 127.50390625 22.8515625 127.50390625 C24.296875 128.9375 24.296875 128.9375 25.9765625 130.94140625 C29.34534821 134.92011948 32.8219607 138.78096235 36.34765625 142.62109375 C37.8515625 144.50390625 37.8515625 144.50390625 37.8515625 146.50390625 C38.5115625 146.50390625 39.1715625 146.50390625 39.8515625 146.50390625 C39.8515625 147.16390625 39.8515625 147.82390625 39.8515625 148.50390625 C40.5115625 148.50390625 41.1715625 148.50390625 41.8515625 148.50390625 C43.41589037 150.19664909 44.90484822 151.95960477 46.3515625 153.75390625 C47.145625 154.7284375 47.9396875 155.70296875 48.7578125 156.70703125 C50.43904284 158.95285387 51.73292149 160.95048655 52.8515625 163.50390625 C53.5115625 163.50390625 54.1715625 163.50390625 54.8515625 163.50390625 C54.8515625 164.16390625 54.8515625 164.82390625 54.8515625 165.50390625 C55.8415625 165.83390625 56.8315625 166.16390625 57.8515625 166.50390625 C59.26852757 168.07444831 60.61263066 169.71137289 61.9140625 171.37890625 C65.93671328 176.42193674 70.15498803 181.20754097 74.51953125 185.9609375 C79.67180358 191.57924451 84.61010918 197.37760202 89.5390625 203.19140625 C90.00304443 203.73845215 90.46702637 204.28549805 90.94506836 204.84912109 C92.25263771 206.39616425 93.55225853 207.94991483 94.8515625 209.50390625 C95.49351562 210.26864258 96.13546875 211.03337891 96.796875 211.82128906 C98.92740733 214.60292989 100.59589202 217.4041288 102.27734375 220.4765625 C102.90962891 221.62447266 103.54191406 222.77238281 104.19335938 223.95507812 C104.85052346 225.15871059 105.50742367 226.36248715 106.1640625 227.56640625 C110.9405461 236.28423983 115.79541946 244.94422135 120.8515625 253.50390625 C121.30974365 254.28016357 121.7679248 255.0564209 122.23999023 255.85620117 C123.06505363 257.25210898 123.89062542 258.64771647 124.71679688 260.04296875 C127.84066568 265.32245992 130.94763255 270.59914145 133.8515625 276.00390625 C137.95772647 283.63462457 142.3982756 291.07212227 146.8515625 298.50390625 C147.20992187 299.10460937 147.56828125 299.7053125 147.9375 300.32421875 C148.87731982 301.89058511 149.83260813 303.44764152 150.7890625 305.00390625 C151.31371094 305.85984375 151.83835937 306.71578125 152.37890625 307.59765625 C153.79290408 309.79403069 153.79290408 309.79403069 156.8515625 310.50390625 C155.51924589 308.27412637 154.18593688 306.04495461 152.8515625 303.81640625 C152.24187622 302.79788574 152.24187622 302.79788574 151.61987305 301.75878906 C149.00500972 297.39983679 146.34921053 293.0698792 143.6640625 288.75390625 C140.84789066 284.19071588 138.21250875 279.57624828 135.6796875 274.8515625 C133.1291686 270.18106101 130.49120263 265.56198732 127.8515625 260.94140625 C127.35301758 260.06677734 126.85447266 259.19214844 126.34082031 258.29101562 C123.89197707 254.00995589 121.40924649 249.75607728 118.8515625 245.5390625 C115.68390851 240.28192971 112.75205477 234.91202084 109.8515625 229.50390625 C109.30532227 228.48731934 108.75908203 227.47073242 108.19628906 226.42333984 C107.04744705 224.28326934 105.89934449 222.14280173 104.75195312 220.00195312 C98.32992787 208.02688953 91.89909669 196.08787841 84.7890625 184.50390625 C82.07109433 180.02551967 79.75742478 175.37623824 77.45678711 170.67578125 C75.73253757 167.180745 73.90095277 163.81781392 71.8515625 160.50390625 C69.2140101 156.22135407 66.95274745 151.81401842 64.73388672 147.30200195 C62.22907959 142.22149693 59.62082622 137.20063144 56.9765625 132.19140625 C56.55165527 131.38606445 56.12674805 130.58072266 55.68896484 129.75097656 C53.63036669 125.85498414 51.5645332 121.96291451 49.4921875 118.07421875 C45.73576085 111.02038619 42.0175926 103.94980679 38.4140625 96.81640625 C38.08390137 96.16905518 37.75374023 95.5217041 37.41357422 94.85473633 C35.96918412 91.97162486 34.79321125 89.29028559 33.94140625 86.171875 C33.11891027 83.28789898 33.11891027 83.28789898 30.40234375 82.38671875 C29.56058594 82.09539062 28.71882813 81.8040625 27.8515625 81.50390625 C26.33203125 79.68359375 26.33203125 79.68359375 25.0390625 77.37890625 C24.53761719 76.486875 24.03617187 75.59484375 23.51953125 74.67578125 C21.59268223 71.01160933 19.70664486 67.32986353 17.8515625 63.62890625 C17.50746338 62.94304443 17.16336426 62.25718262 16.80883789 61.55053711 C15.24700564 58.41017447 13.75260082 55.2751545 12.359375 52.0546875 C9.35633752 45.29361159 6.52051379 42.0950181 0.25390625 38.203125 C-6.01575494 33.7684866 -9.79564366 25.94986242 -11.1484375 18.50390625 C-12.2641886 6.02402353 -12.2641886 6.02402353 -9.40234375 2.125 C-6.13131871 -0.22764366 -3.93742356 -0.18002969 0 0 Z M102.8515625 94.50390625 C103.8515625 96.50390625 103.8515625 96.50390625 103.8515625 96.50390625 Z M156.9765625 105.81640625 C152.80545777 110.36222015 150.22782662 114.87005742 149.3515625 121.00390625 C150.20875147 127.00422907 152.38553175 131.0378755 156.6640625 135.31640625 C165.05781172 141.07682238 173.96719835 142.57349158 184.0390625 140.81640625 C192.96734169 138.64504875 199.28804666 134.90407667 205.8515625 128.50390625 C206.38007813 128.02050781 206.90859375 127.53710938 207.453125 127.0390625 C211.34792425 122.76348679 211.51743742 118.20758917 211.421875 112.6171875 C210.27006107 106.3295457 205.89258812 102.85319643 201.03125 99.09765625 C187.72535922 91.03348002 167.81962907 95.69004557 156.9765625 105.81640625 Z M82.8515625 98.50390625 C83.8515625 101.50390625 83.8515625 101.50390625 83.8515625 101.50390625 Z M105.8515625 101.50390625 C105.9959375 102.72078125 106.1403125 103.93765625 106.2890625 105.19140625 C106.37027344 105.87589844 106.45148438 106.56039062 106.53515625 107.265625 C107.31479726 112.78086328 108.92816643 117.40251832 111.1015625 122.50390625 C111.74213684 124.03072557 112.38144961 125.55807476 113.01953125 127.0859375 C113.33325684 127.83697754 113.64698242 128.58801758 113.97021484 129.36181641 C115.17282862 132.28473422 116.2975556 135.23466323 117.4140625 138.19140625 C119.1110239 142.66470776 120.93697819 147.05686202 122.8515625 151.44140625 C125.33867968 157.16622841 127.48950703 162.94483303 129.48046875 168.859375 C130.56661483 171.74648126 131.73844092 174.46773916 133.0390625 177.2578125 C136.81042581 185.4440903 140.00732093 193.8629691 143.2890625 202.25390625 C144.25951159 204.72749528 145.23079463 207.20075555 146.20220947 209.67396545 C146.83833104 211.2937855 147.47403591 212.91376924 148.10931396 214.53392029 C150.08963597 219.58065057 152.09254173 224.61776764 154.11328125 229.6484375 C156.21542171 234.89020256 158.26651276 240.14498768 160.2265625 245.44140625 C160.48566406 246.13685547 160.74476563 246.83230469 161.01171875 247.54882812 C161.62660906 249.19992249 162.23935528 250.85181515 162.8515625 252.50390625 C166.58806706 249.00331135 167.91376326 246.61917483 168.8515625 241.50390625 C168.95172273 235.75025726 167.4992179 231.92530674 163.8515625 227.50390625 C163.1915625 227.50390625 162.5315625 227.50390625 161.8515625 227.50390625 C161.8515625 226.84390625 161.8515625 226.18390625 161.8515625 225.50390625 C161.1915625 225.50390625 160.5315625 225.50390625 159.8515625 225.50390625 C159.8515625 224.84390625 159.8515625 224.18390625 159.8515625 223.50390625 C159.0884375 223.35953125 158.3253125 223.21515625 157.5390625 223.06640625 C154.41822408 221.25196531 154.36576428 220.7602258 153.39453125 217.453125 C151.95372732 212.79540559 150.26703919 208.28695433 148.4765625 203.75390625 C147.85646455 202.17459939 147.23667477 200.5951715 146.6171875 199.015625 C146.31619141 198.24911621 146.01519531 197.48260742 145.70507812 196.69287109 C144.16327044 192.73868124 142.67464001 188.76408712 141.1875 184.7890625 C140.03918608 181.9652847 138.80719568 179.218488 137.52734375 176.453125 C134.6415502 170.15165755 132.13460886 163.72741049 129.6640625 157.25390625 C129.22642578 156.12210938 128.78878906 154.9903125 128.33789062 153.82421875 C122.8515625 139.51788526 122.8515625 139.51788526 122.8515625 135.50390625 C123.5115625 135.50390625 124.1715625 135.50390625 124.8515625 135.50390625 C124.8515625 134.84390625 124.8515625 134.18390625 124.8515625 133.50390625 C125.5115625 133.50390625 126.1715625 133.50390625 126.8515625 133.50390625 C129.90923592 127.60696465 131.61734305 123.17713675 130.8515625 116.50390625 C128.33037761 109.6038213 123.42299433 106.41939312 117.0546875 103.3203125 C113.40617074 101.96829122 109.71586283 101.68280904 105.8515625 101.50390625 Z M236.8515625 120.50390625 C236.08585937 120.96152344 235.32015625 121.41914063 234.53125 121.890625 C228.96339417 125.64019581 225.11805143 130.24999344 223.1875 136.734375 C222.31614317 141.69769186 222.95669092 145.30155801 225.49609375 149.65234375 C230.05226548 155.87604808 235.46260369 158.68930329 242.8515625 160.50390625 C243.63917969 160.69855469 244.42679687 160.89320313 245.23828125 161.09375 C257.48530425 163.0159285 269.37494313 159.14420526 279.4296875 152.3984375 C284.39180613 148.51678019 287.55255411 143.73914652 288.8515625 137.50390625 C288.65710431 132.15630604 287.32000894 127.62445842 283.8515625 123.50390625 C270.74154811 112.81985714 251.43044206 111.6773961 236.8515625 120.50390625 Z M-57.1484375 183.50390625 C-60.88145936 187.94997723 -61.80399448 192.39276674 -61.51953125 198.08203125 C-60.76143787 203.02958808 -58.95215941 206.02191083 -55.08984375 209.1953125 C-46.10870305 215.48059647 -36.93417694 216.91842946 -26.1484375 215.50390625 C-16.02730156 213.19928327 -6.41881207 208.10875225 -0.68359375 199.23828125 C1.76688495 194.38682848 2.36704477 190.85861028 0.8515625 185.50390625 C-1.42469363 179.30743122 -5.4193994 175.28185834 -11.3359375 172.4609375 C-27.81284878 166.68859851 -45.24506454 171.07383537 -57.1484375 183.50390625 Z M-57.1484375 235.50390625 C-61.17211889 240.19443371 -61.79478135 244.76216818 -61.51953125 250.859375 C-60.81041693 255.9127476 -59.08217566 258.83797704 -55.23046875 262.15625 C-48.13276523 267.29423361 -39.98382814 270.41791218 -31.1484375 269.50390625 C-21.13973054 267.77329409 -11.00739912 264.36313311 -4.1484375 256.50390625 C-4.1484375 255.84390625 -4.1484375 255.18390625 -4.1484375 254.50390625 C-3.4884375 254.50390625 -2.8284375 254.50390625 -2.1484375 254.50390625 C1.72601553 246.31793719 1.72601553 246.31793719 0.8515625 237.50390625 C-1.91699208 231.55664087 -5.22837968 227.10665561 -11.44140625 224.56640625 C-13.9946639 223.74303014 -16.53019075 223.0866258 -19.1484375 222.50390625 C-19.8703125 222.33632813 -20.5921875 222.16875 -21.3359375 221.99609375 C-34.71037537 219.68506956 -48.06444511 226.03806462 -57.1484375 235.50390625 Z M3.8515625 262.50390625 C3.8515625 263.16390625 3.8515625 263.82390625 3.8515625 264.50390625 C3.1915625 264.50390625 2.5315625 264.50390625 1.8515625 264.50390625 C-1.56318975 270.16365134 -4.05456461 274.72097103 -2.79296875 281.40625 C-0.25515607 289.66567672 5.54682912 295.1806967 12.8515625 299.50390625 C21.33775609 303.0482895 34.45028251 303.45225842 43.0390625 299.94140625 C49.30138585 296.40400603 55.68252741 291.55327028 57.8515625 284.50390625 C58.71700708 277.28456479 58.07693247 272.44583276 53.8515625 266.50390625 C53.1915625 266.50390625 52.5315625 266.50390625 51.8515625 266.50390625 C51.8515625 265.84390625 51.8515625 265.18390625 51.8515625 264.50390625 C36.56098749 253.69856658 19.89030745 252.16782617 3.8515625 262.50390625 Z M213.8515625 279.50390625 C213.57183594 280.15617187 213.29210937 280.8084375 213.00390625 281.48046875 C207.75780351 292.91731008 199.74007779 296.96959322 188.8515625 302.50390625 C189.5115625 304.15390625 190.1715625 305.80390625 190.8515625 307.50390625 C200.99325587 305.9244622 208.7029844 303.34134914 215.078125 294.875 C217.22920091 291.60448662 217.86049397 289.68253564 217.6640625 285.75390625 C216.90029673 282.52228145 216.90029673 282.52228145 215.8515625 279.50390625 C215.1915625 279.50390625 214.5315625 279.50390625 213.8515625 279.50390625 Z M-16.1484375 314.50390625 C-1.49706138 329.15528237 38.54925427 329.70879954 57.91978455 329.77938843 C59.74885659 329.77802078 61.57792932 329.77308398 63.40698242 329.76464844 C66.15110566 329.75395673 68.89456864 329.76459986 71.63867188 329.77734375 C87.87875445 329.7908677 103.90066575 328.43279905 119.9140625 325.69140625 C120.90212891 325.52543945 121.89019531 325.35947266 122.90820312 325.18847656 C132.38026339 323.53071393 141.61608475 321.16128428 150.8515625 318.50390625 C150.8515625 317.84390625 150.8515625 317.18390625 150.8515625 316.50390625 C145.07271955 312.65134428 136.69652451 315.89065997 130.18359375 317.13110352 C110.77995879 320.80412104 91.64708018 324.3321033 71.8515625 324.50390625 C70.96065918 324.51760254 70.06975586 324.53129883 69.15185547 324.54541016 C62.71582119 324.6394744 56.28719892 324.61502855 49.8515625 324.50390625 C49.02333984 324.49133789 48.19511719 324.47876953 47.34179688 324.46582031 C27.92462607 324.08554798 8.78111145 321.12067201 -9.796875 315.45703125 C-13.04862602 314.36713804 -13.04862602 314.36713804 -16.1484375 314.50390625 Z " fill="#1B1B1B" transform="translate(134.1484375,58.49609375)"/>
<path d="M0 0 C3.63517322 0.58548808 6.44580229 1.5818085 9.6875 3.3125 C13.09529566 5.08212683 16.46290954 6.60307238 20.0625 7.9375 C30.82331977 12.17098865 39.22781463 19.23568646 44.08984375 29.84375 C44.39019531 30.5553125 44.69054687 31.266875 45 32 C45.37253906 32.8765625 45.74507812 33.753125 46.12890625 34.65625 C49 41.61890244 49 41.61890244 49 44 C49.66 44 50.32 44 51 44 C51 44.66 51 45.32 51 46 C51.66 46 52.32 46 53 46 C54.55078125 47.57421875 54.55078125 47.57421875 56.3125 49.6875 C60.22267599 54.35335045 64.51901966 58.54212011 68.91796875 62.7421875 C70.34139867 64.11953042 71.76457022 65.49714039 73.1875 66.875 C73.91130859 67.55691406 74.63511719 68.23882812 75.38085938 68.94140625 C79.69819605 73.15833975 81.92266903 76.03437134 83 82 C83.33 82.99 83.66 83.98 84 85 C84.66 85 85.32 85 86 85 C86 85.66 86 86.32 86 87 C86.66 87 87.32 87 88 87 C89.4453125 88.43359375 89.4453125 88.43359375 91.125 90.4375 C94.49378571 94.41621323 97.9703982 98.2770561 101.49609375 102.1171875 C103 104 103 104 103 106 C103.66 106 104.32 106 105 106 C105 106.66 105 107.32 105 108 C105.66 108 106.32 108 107 108 C108.56432787 109.69274284 110.05328572 111.45569852 111.5 113.25 C112.2940625 114.22453125 113.088125 115.1990625 113.90625 116.203125 C115.58748034 118.44894762 116.88135899 120.4465803 118 123 C118.66 123 119.32 123 120 123 C120 123.66 120 124.32 120 125 C121.485 125.495 121.485 125.495 123 126 C124.41696507 127.57054206 125.76106816 129.20746664 127.0625 130.875 C131.08515078 135.91803049 135.30342553 140.70363472 139.66796875 145.45703125 C144.82024108 151.07533826 149.75854668 156.87369577 154.6875 162.6875 C155.15148193 163.2345459 155.61546387 163.7815918 156.09350586 164.34521484 C157.40107521 165.892258 158.70069603 167.44600858 160 169 C160.64195312 169.76473633 161.28390625 170.52947266 161.9453125 171.31738281 C164.07584483 174.09902364 165.74432952 176.90022255 167.42578125 179.97265625 C168.05806641 181.12056641 168.69035156 182.26847656 169.34179688 183.45117188 C169.99896096 184.65480434 170.65586117 185.8585809 171.3125 187.0625 C179.78050916 202.5448977 179.78050916 202.5448977 188.9375 217.625 C191 221 191 221 191 223 C189.36935236 224.05771739 187.69719127 225.05273046 186 226 C185.01 226.66 184.02 227.32 183 228 C182.34 227.01 181.68 226.02 181 225 C178.94996045 223.80767387 178.94996045 223.80767387 177 223 C177 221.68 177 220.36 177 219 C176.34 219 175.68 219 175 219 C170 213.52380952 170 213.52380952 170 211 C169.34 211 168.68 211 168 211 C166.5546875 209.56640625 166.5546875 209.56640625 164.875 207.5625 C161.50621429 203.58378677 158.0296018 199.7229439 154.50390625 195.8828125 C153 194 153 194 153 192 C152.34 192 151.68 192 151 192 C147 187.52941176 147 187.52941176 147 185 C146.34 185 145.68 185 145 185 C145 184.34 145 183.68 145 183 C144.34 183 143.68 183 143 183 C141.39365985 181.26608049 139.8624713 179.461909 138.375 177.625 C137.55773437 176.62726563 136.74046875 175.62953125 135.8984375 174.6015625 C134 172 134 172 134 170 C133.34 170 132.68 170 132 170 C130.2734375 168.1015625 130.2734375 168.1015625 128.375 165.625 C127.42753906 164.40683594 127.42753906 164.40683594 126.4609375 163.1640625 C125 161 125 161 125 159 C124.34 159 123.68 159 123 159 C121.66015625 157.48828125 121.66015625 157.48828125 120.0625 155.3125 C117.08321409 151.36479196 113.96950759 147.56490724 110.75 143.8125 C106.88605022 139.29204422 103.14834633 134.69603978 99.5 130 C95.93276001 125.40911171 92.28187755 120.91577561 88.5 116.5 C84.12182374 111.38794155 79.91771298 106.16072463 75.79101562 100.84375 C74.94775886 99.75791253 74.10117093 98.67465233 73.25097656 97.59423828 C72.39365371 96.50167032 71.54712704 95.40056898 70.70996094 94.29248047 C68.26216403 91.15664912 66.85582023 89.78043656 63 89 C56.85967145 83.39973859 51.93733558 76.43909717 47.04296875 69.76171875 C45.65964353 67.89171697 44.22208038 66.06085352 42.73828125 64.26953125 C41 62 41 62 41 60 C40.34 60 39.68 60 39 60 C38.18638568 58.8627547 37.42531933 57.6878206 36.6875 56.5 C33.09364709 51.47394333 28.39912946 48.90999587 23.12109375 45.95703125 C19.90647245 43.94135507 17.58269003 41.76400903 15 39 C14.47535156 38.50757813 13.95070313 38.01515625 13.41015625 37.5078125 C4.86861555 28.743449 0 12.00251741 0 0 Z " fill="#212121" transform="translate(69,99)"/>
<path d="M0 0 C3.72553745 1.21296568 7.36968912 2.52825235 11 4 C11.99 4.33 12.98 4.66 14 5 C14.99 5.66 15.98 6.32 17 7 C17.99 7.33 18.98 7.66 20 8 C20.99 8.66 21.98 9.32 23 10 C32.51206128 13.47155521 42.20022203 16.24485576 52.125 18.25 C52.86161865 18.40065918 53.5982373 18.55131836 54.35717773 18.70654297 C68.7373607 21.44959257 82.94305816 22.32813401 97.55541992 22.26074219 C100.29954316 22.25005048 103.04300614 22.26069361 105.78710938 22.2734375 C122.00693782 22.28694451 138.00824224 20.93698025 154 18.1875 C154.98548828 18.0215332 155.97097656 17.85556641 156.98632812 17.68457031 C166.78922531 15.97110689 176.39690816 13.59198497 186 11 C186 12.32 186 13.64 186 15 C186.33 15.99 186.66 16.98 187 18 C147.27658987 28.7085699 104.8064812 31.85516207 64 27 C63.22285645 26.90879883 62.44571289 26.81759766 61.64501953 26.72363281 C43.18964835 24.42527984 12.54148911 19.54148911 -1 6 C0.32 4.68 1.64 3.36 3 2 C2.01 1.67 1.02 1.34 0 1 C0 0.67 0 0.34 0 0 Z " fill="#413F42" transform="translate(100,365)"/>
<path d="M0 0 C0.66 0 1.32 0 2 0 C2.50657287 5.31901517 1.32610043 7.86484812 -2 12 C-9.7317357 19.96603072 -22.78589823 21.16068766 -33.1875 23 C-34.61008147 23.2596683 -36.03252457 23.52009566 -37.45483398 23.78125 C-44.83687298 25.12729143 -52.22993148 26.37288693 -59.64282227 27.53808594 C-81.6036235 31.01244299 -107.35440434 35.46760127 -125.22265625 49.65234375 C-127 51 -127 51 -130 52 C-131.06716704 53.79932579 -131.06716704 53.79932579 -132 56 C-133 57.66666667 -134 59.33333333 -135 61 C-135.68096422 62.32608822 -136.35330586 63.65686601 -137 65 C-137 64.01 -137 63.02 -137 62 C-139.475 62.495 -139.475 62.495 -142 63 C-140.74597107 55.40912274 -137.13998428 49.16901978 -131.0390625 44.45703125 C-130.02972656 43.73580078 -130.02972656 43.73580078 -129 43 C-127.89785156 42.17048828 -127.89785156 42.17048828 -126.7734375 41.32421875 C-111.36634552 30.56787435 -92.03854136 26.90781438 -74 23 C-73.09008301 22.80277344 -72.18016602 22.60554688 -71.24267578 22.40234375 C-62.38576206 20.50951556 -53.5197074 18.89716477 -44.5625 17.5625 C-37.60486337 16.50775966 -30.73697736 15.18715999 -23.875 13.625 C-22.59604858 13.34765015 -22.59604858 13.34765015 -21.29125977 13.06469727 C-12.22922501 10.92130583 -5.67123327 7.3897888 0 0 Z " fill="#393838" transform="translate(472,236)"/>
<path d="M0 0 C2.00661684 3.78820084 4.0041624 7.58111052 6 11.375 C6.57234375 12.45523438 7.1446875 13.53546875 7.734375 14.6484375 C8.27578125 15.6796875 8.8171875 16.7109375 9.375 17.7734375 C9.87773437 18.72653809 10.38046875 19.67963867 10.8984375 20.66162109 C12 23 12 23 12 25 C9.57909983 24.0528759 7.19415773 23.09354872 4.8515625 21.96484375 C-2.68518862 18.48736034 -9.804384 18.21854976 -18 18 C-18 17.34 -18 16.68 -18 16 C-18.66 16 -19.32 16 -20 16 C-24 11.64705882 -24 11.64705882 -24 8 C-8.53963274 -0.16774119 -8.53963274 -0.16774119 0 0 Z " fill="#2A2A2A" transform="translate(176,167)"/>
<path d="M0 0 C0.2165625 0.8971875 0.2165625 0.8971875 0.4375 1.8125 C0.8872439 3.56150404 1.42892341 5.28677023 2 7 C-19.11726664 12.69275712 -42.09561874 16.84759224 -64 17 C-65.73781738 17.01256836 -65.73781738 17.01256836 -67.51074219 17.02539062 C-76.00754986 17.07160318 -84.50320106 17.05636207 -93 17 C-93 16.67 -93 16.34 -93 16 C-88.38 15.67 -83.76 15.34 -79 15 C-79 14.34 -79 13.68 -79 13 C-76.59667856 12.69425976 -74.1931992 12.38983095 -71.78955078 12.08666992 C-69.64451664 11.81609973 -67.49966475 11.54408151 -65.35498047 11.27075195 C-59.75207456 10.56422835 -54.15124354 9.89957354 -48.53125 9.34375 C-32.15607049 7.69013268 -15.67202747 5.22400916 0 0 Z " fill="#474749" transform="translate(285,376)"/>
<path d="M0 0 C3.14991283 2.88399182 5.06929244 5.63243593 6.98828125 9.4375 C7.53033203 10.49839844 8.07238281 11.55929688 8.63085938 12.65234375 C9.18580078 13.75707031 9.74074219 14.86179688 10.3125 16 C14.14576577 23.57558811 18.0809975 30.99769393 22.50854492 38.24609375 C24.05515923 41.10184909 25.06423352 43.89582687 26 47 C23.13302508 45.71480435 21.02392288 44.42870746 19 42 C19 41.34 19 40.68 19 40 C18.34 40 17.68 40 17 40 C15.2734375 38.3203125 15.2734375 38.3203125 13.375 36.125 C12.74335938 35.40570313 12.11171875 34.68640625 11.4609375 33.9453125 C10 32 10 32 10 30 C9.01 29.67 8.02 29.34 7 29 C5.43778244 27.26231598 3.94556521 25.46086782 2.5 23.625 C-1.04211138 19.12495456 -1.04211138 19.12495456 -5 15 C-3.33333333 10 -1.66666667 5 0 0 Z " fill="#343434" transform="translate(193,203)"/>
<path d="M0 0 C0 0.66 0 1.32 0 2 C0.66 2 1.32 2 2 2 C5.59753627 7.57037874 7.75009555 12.4994267 6.62890625 19.2265625 C4.58709041 26.60753653 0.49619126 31.78651732 -5.94921875 35.8671875 C-13.93337424 40.12933201 -13.93337424 40.12933201 -17.8671875 39.65234375 C-18.57101562 39.43707031 -19.27484375 39.22179687 -20 39 C-20 38.34 -20 37.68 -20 37 C-20.99 36.67 -21.98 36.34 -23 36 C-23.33 36.66 -23.66 37.32 -24 38 C-24.66 37.34 -25.32 36.68 -26 36 C-24.97519531 35.68546875 -23.95039063 35.3709375 -22.89453125 35.046875 C-21.53367287 34.61515441 -20.17300573 34.18283066 -18.8125 33.75 C-18.13896484 33.54503906 -17.46542969 33.34007812 -16.77148438 33.12890625 C-12.42905178 31.73085478 -9.51236734 30.00509674 -6 27 C-5.34 27 -4.68 27 -4 27 C-3.566875 25.88625 -3.566875 25.88625 -3.125 24.75 C-2 22 -2 22 -0.90625 20.15625 C0.23805555 17.43359196 0.00780665 15.65933051 -0.375 12.75 C-0.48585938 11.85796875 -0.59671875 10.9659375 -0.7109375 10.046875 C-0.80632812 9.37140625 -0.90171875 8.6959375 -1 8 C-1.66 8 -2.32 8 -3 8 C-3.144375 7.21625 -3.28875 6.4325 -3.4375 5.625 C-3.87798925 3.03578982 -3.87798925 3.03578982 -5 1 C-2 0 -2 0 0 0 Z " fill="#393939" transform="translate(351,330)"/>
<path d="M0 0 C-0.66 0 -1.32 0 -2 0 C-2.33 1.65 -2.66 3.3 -3 5 C-4.32 4.34 -5.64 3.68 -7 3 C-7.33 3.99 -7.66 4.98 -8 6 C-7.34 6.66 -6.68 7.32 -6 8 C-6.94101562 8.44730469 -7.88203125 8.89460938 -8.8515625 9.35546875 C-10.10958875 9.96570537 -11.36738929 10.57640747 -12.625 11.1875 C-13.24246094 11.47947266 -13.85992187 11.77144531 -14.49609375 12.07226562 C-17.77384419 13.67663821 -20.56435793 15.35000524 -23.3359375 17.73828125 C-26 20 -26 20 -28 20 C-28.268125 20.556875 -28.53625 21.11375 -28.8125 21.6875 C-30.1013363 24.19733911 -31.54865343 26.58108906 -33 29 C-33.68096422 30.32608822 -34.35330586 31.65686601 -35 33 C-35 32.01 -35 31.02 -35 30 C-36.65 30.33 -38.3 30.66 -40 31 C-38.74629163 23.41106315 -35.14200381 17.19480253 -29.0625 12.46484375 C-28.381875 11.98144531 -27.70125 11.49804688 -27 11 C-26.195625 10.42378906 -25.39125 9.84757812 -24.5625 9.25390625 C-7.28018483 -2.42672828 -7.28018483 -2.42672828 0 0 Z " fill="#3C3B3D" transform="translate(370,268)"/>
<path d="M0 0 C0.66 1.32 1.32 2.64 2 4 C-2.12727226 5.20981753 -6.26654949 6.33702482 -10.43359375 7.40234375 C-11.41263672 7.65306641 -12.39167969 7.90378906 -13.40039062 8.16210938 C-15.42052858 8.67786164 -17.44136245 9.19089588 -19.46289062 9.70117188 C-23.90815067 10.84390473 -28.25145589 12.02250742 -32.53515625 13.6796875 C-35.69882908 14.88523588 -37.67305478 15.31190111 -41 15 C-41.66 13.68 -42.32 12.36 -43 11 C-41.125 10.375 -41.125 10.375 -39 10 C-38.34 10.66 -37.68 11.32 -37 12 C-36.34 10.68 -35.68 9.36 -35 8 C-34.34 8 -33.68 8 -33 8 C-33 7.34 -33 6.68 -33 6 C-29.19207193 4.98202563 -25.37805433 3.9889703 -21.5625 3 C-20.49322266 2.71382813 -19.42394531 2.42765625 -18.32226562 2.1328125 C-12.01831729 0.51344962 -6.50728557 -0.32844344 0 0 Z " fill="#2B2A2D" transform="translate(403,260)"/>
<path d="M0 0 C2.12108288 3.81794919 3.34946261 7.05299401 2.5625 11.4375 C0.22387265 15.27284886 -3.18268105 17.68575039 -7 20 C-7.66 20 -8.32 20 -9 20 C-11 17 -11 17 -11 14 C-11.66 14 -12.32 14 -13 14 C-16 8.25 -16 8.25 -16 6 C-13.89748139 5.32815382 -11.79292237 4.66269032 -9.6875 4 C-8.51574219 3.62875 -7.34398437 3.2575 -6.13671875 2.875 C-3 2 -3 2 0 2 C0 1.34 0 0.68 0 0 Z " fill="#343434" transform="translate(216,152)"/>
<path d="M0 0 C0.66 0 1.32 0 2 0 C2.50657287 5.31901517 1.32610043 7.86484812 -2 12 C-6.28569405 16.41556356 -12.11084908 18.51403777 -18 20 C-18.99 19.67 -19.98 19.34 -21 19 C-20.34 19 -19.68 19 -19 19 C-19 17.68 -19 16.36 -19 15 C-19.66 14.34 -20.32 13.68 -21 13 C-19.91332031 12.63648438 -19.91332031 12.63648438 -18.8046875 12.265625 C-10.7778359 9.48298311 -5.29698029 6.81040323 0 0 Z " fill="#4D4B4C" transform="translate(472,236)"/>
<path d="M0 0 C10.23 0 20.46 0 31 0 C29 3 29 3 26 4 C28.31 4.33 30.62 4.66 33 5 C33 5.33 33 5.66 33 6 C28.81251481 6.02920143 24.62505609 6.04686646 20.4375 6.0625 C19.25607422 6.07087891 18.07464844 6.07925781 16.85742188 6.08789062 C11.13136928 6.10392999 5.63605518 6.0510705 0 5 C-0.33 4.01 -0.66 3.02 -1 2 C-0.67 1.34 -0.34 0.68 0 0 Z " fill="#4C4B4C" transform="translate(180,388)"/>
<path d="M0 0 C3.72553745 1.21296568 7.36968912 2.52825235 11 4 C11.99 4.33 12.98 4.66 14 5 C14.99 5.66 15.98 6.32 17 7 C17.99 7.33 18.98 7.66 20 8 C23 10 23 10 25 12 C24.01 12 23.02 12 22 12 C22 13.32 22 14.64 22 16 C16.8307147 15.33673121 12.37748635 13.08075343 7.6875 10.9375 C6.85154297 10.56044922 6.01558594 10.18339844 5.15429688 9.79492188 C3.10072738 8.86788193 1.04943713 7.93613122 -1 7 C0.32 5.35 1.64 3.7 3 2 C2.01 1.67 1.02 1.34 0 1 C0 0.67 0 0.34 0 0 Z " fill="#4C4A4B" transform="translate(100,365)"/>
<path d="M0 0 C2.31 0 4.62 0 7 0 C6.67 0.99 6.34 1.98 6 3 C6.99 2.34 7.98 1.68 9 1 C16.17325574 0.38720931 23.22991215 0.42091891 30 3 C29.67 4.32 29.34 5.64 29 7 C19.41682845 7.35347764 11.23799815 6.89009998 2 4 C2 3.34 2 2.68 2 2 C1.34 2 0.68 2 0 2 C0 1.34 0 0.68 0 0 Z " fill="#202020" transform="translate(150,385)"/>
<path d="M0 0 C-0.66 1.65 -1.32 3.3 -2 5 C-10.74326995 6.01125055 -19.39323439 6.11957711 -28.1875 6.0625 C-29.53450352 6.05746963 -30.88150889 6.05290947 -32.22851562 6.04882812 C-35.48572537 6.03715354 -38.74283778 6.02077883 -42 6 C-42 5.67 -42 5.34 -42 5 C-37.38 4.67 -32.76 4.34 -28 4 C-28 3.34 -28 2.68 -28 2 C-18.61304896 0.66581407 -9.50904899 -0.32417212 0 0 Z " fill="#0F0F0F" transform="translate(234,387)"/>
<path d="M0 0 C3.82564684 3.36898179 5.93143538 7.1099972 8.25 11.5625 C8.61351562 12.23474609 8.97703125 12.90699219 9.3515625 13.59960938 C12 18.61272321 12 18.61272321 12 22 C12.66 22 13.32 22 14 22 C14.69710731 23.28650706 15.38242876 24.57940665 16.0625 25.875 C16.63677734 26.95394531 16.63677734 26.95394531 17.22265625 28.0546875 C17.47917969 28.69664062 17.73570312 29.33859375 18 30 C17.67 30.66 17.34 31.32 17 32 C16.360625 31.835 15.72125 31.67 15.0625 31.5 C13.19173179 30.96073333 13.19173179 30.96073333 12 31 C9.53666947 28.53666947 8.89069283 26.39360853 7.6875 23.125 C5.59769677 17.52109312 3.3309575 12.03050977 0.91796875 6.55859375 C0 4 0 4 0 0 Z " fill="#4C4B4B" transform="translate(266,284)"/>
<path d="M0 0 C0.144375 0.598125 0.28875 1.19625 0.4375 1.8125 C0.8872439 3.56150404 1.42892341 5.28677023 2 7 C-0.68533564 7.67662 -3.372725 8.34146121 -6.0625 9 C-7.19075195 9.28617187 -7.19075195 9.28617187 -8.34179688 9.578125 C-13.02773336 10.7141096 -17.17932546 11.20486266 -22 11 C-20.68 10.67 -19.36 10.34 -18 10 C-20.35953094 7.64046906 -21.77895617 7.50858587 -25 7 C-25 6.67 -25 6.34 -25 6 C-24.34926514 5.85377197 -23.69853027 5.70754395 -23.02807617 5.55688477 C-20.08085809 4.8936752 -17.13417572 4.22811499 -14.1875 3.5625 C-13.16333984 3.33240234 -12.13917969 3.10230469 -11.08398438 2.86523438 C-10.10107422 2.64287109 -9.11816406 2.42050781 -8.10546875 2.19140625 C-7.19949951 1.98717041 -6.29353027 1.78293457 -5.36010742 1.57250977 C-2.87179614 1.00374961 -2.87179614 1.00374961 0 0 Z " fill="#535355" transform="translate(285,376)"/>
<path d="M0 0 C3.36589743 1.12196581 3.56173853 1.45617923 5.19140625 4.38671875 C5.77245117 5.4240918 5.77245117 5.4240918 6.36523438 6.48242188 C6.95788086 7.57393555 6.95788086 7.57393555 7.5625 8.6875 C7.96146484 9.39583984 8.36042969 10.10417969 8.77148438 10.83398438 C10.96576313 14.80126966 12.72515547 18.6241823 14 23 C11.13302508 21.71480435 9.02392288 20.42870746 7 18 C7 17.34 7 16.68 7 16 C6.34 16 5.68 16 5 16 C3.01953125 13.953125 3.01953125 13.953125 0.8125 11.25 C0.07644531 10.36828125 -0.65960938 9.4865625 -1.41796875 8.578125 C-3 6 -3 6 -2.73828125 3.671875 C-2.49464844 3.12015625 -2.25101563 2.5684375 -2 2 C-1.34 2 -0.68 2 0 2 C0 1.34 0 0.68 0 0 Z " fill="#2D2D2D" transform="translate(205,227)"/>
<path d="M0 0 C0.8971875 0.309375 0.8971875 0.309375 1.8125 0.625 C1.27791848 5.16894294 -0.58620347 7.92012312 -3.1875 11.625 C-3.88179379 12.9441582 -4.56280495 14.27149406 -5.1875 15.625 C-5.1875 14.635 -5.1875 13.645 -5.1875 12.625 C-6.8375 12.955 -8.4875 13.285 -10.1875 13.625 C-9.60767397 8.84143523 -7.75559656 5.62820934 -5.1875 1.625 C-2.1875 -0.375 -2.1875 -0.375 0 0 Z " fill="#49494A" transform="translate(340.1875,285.375)"/>
<path d="M0 0 C7.68081691 1.2600293 15.34640892 2.58378433 23 4 C19.25 7 19.25 7 17 7 C17 6.34 17 5.68 17 5 C14.03 4.505 14.03 4.505 11 4 C11 4.66 11 5.32 11 6 C11.66 6 12.32 6 13 6 C13 6.66 13 7.32 13 8 C13.66 8.33 14.32 8.66 15 9 C13.27073126 8.68806536 11.54158956 8.37542638 9.8125 8.0625 C8.84957031 7.88847656 7.88664063 7.71445312 6.89453125 7.53515625 C4.25760028 7.0476265 1.6280095 6.53328895 -1 6 C-0.34 5.67 0.32 5.34 1 5 C1.65213292 2.97536745 1.65213292 2.97536745 2 1 C1.34 0.67 0.68 0.34 0 0 Z " fill="#605F60" transform="translate(139,381)"/>
<path d="M0 0 C-0.99 0.33 -1.98 0.66 -3 1 C0.465 2.485 0.465 2.485 4 4 C4 4.33 4 4.66 4 5 C-1.61 5.66 -7.22 6.32 -13 7 C-13.66 6.01 -14.32 5.02 -15 4 C-17.56282742 3.27034634 -17.56282742 3.27034634 -20 3 C-20 2.67 -20 2.34 -20 2 C-17.41842632 1.46867611 -14.83538244 0.94965621 -12.25 0.4375 C-11.52039063 0.28603516 -10.79078125 0.13457031 -10.0390625 -0.02148438 C-6.33442927 -0.74557178 -3.60677678 -1.09817231 0 0 Z " fill="#2E2E30" transform="translate(418,257)"/>
<path d="M0 0 C0 0.66 0 1.32 0 2 C0.66 2 1.32 2 2 2 C5.66641647 6.37149656 5.31749488 10.60258708 5 16 C4.01 15.67 3.02 15.34 2 15 C2 14.34 2 13.68 2 13 C1.34 13 0.68 13 0 13 C-0.33 11.35 -0.66 9.7 -1 8 C-1.66 8 -2.32 8 -3 8 C-3.2165625 6.824375 -3.2165625 6.824375 -3.4375 5.625 C-3.87798925 3.03578982 -3.87798925 3.03578982 -5 1 C-2 0 -2 0 0 0 Z " fill="#3E3E3E" transform="translate(351,330)"/>
<path d="M0 0 C0 0.99 0 1.98 0 3 C-6.48343811 5.63096039 -12.02330843 6.39325819 -19 6 C-17.3046875 2.15625 -17.3046875 2.15625 -14.5625 0.75 C-9.68400622 -0.27705132 -4.96577389 -0.15904614 0 0 Z " fill="#262628" transform="translate(267,383)"/>
<path d="M0 0 C1.32 1.32 2.64 2.64 4 4 C-1.13887901 7.32515701 -5.80154611 9.36461493 -12 9 C-12.66 7.68 -13.32 6.36 -14 5 C-12.125 4.375 -12.125 4.375 -10 4 C-9.34 4.66 -8.68 5.32 -8 6 C-7.79375 5.38125 -7.5875 4.7625 -7.375 4.125 C-5.45224112 1.15346355 -3.33405473 0.86975341 0 0 Z " fill="#282628" transform="translate(374,266)"/>
<path d="M0 0 C0.99 0.33 1.98 0.66 3 1 C2.62207203 3.67456717 2.20233084 4.80611814 0.22265625 6.703125 C-0.49019531 7.21359375 -1.20304687 7.7240625 -1.9375 8.25 C-2.64777344 8.77078125 -3.35804688 9.2915625 -4.08984375 9.828125 C-6 11 -6 11 -8 11 C-8.66 10.34 -9.32 9.68 -10 9 C-12.10820797 9.3185177 -12.10820797 9.3185177 -14 10 C-12.55609075 6.19333016 -10.65047197 4.73397418 -7 3 C-6.34 3.33 -5.68 3.66 -5 4 C-5 4.66 -5 5.32 -5 6 C-4.01 6 -3.02 6 -2 6 C-1.855625 5.195625 -1.71125 4.39125 -1.5625 3.5625 C-1 1 -1 1 0 0 Z " fill="#3F3E3F" transform="translate(350,277)"/>
<path d="M0 0 C0.66 0 1.32 0 2 0 C2.50338797 5.28557366 1.34676996 7.90950339 -2 12 C-4.25 13.375 -4.25 13.375 -6 14 C-6 12.35 -6 10.7 -6 9 C-6.66 8.67 -7.32 8.34 -8 8 C-7.236875 7.4225 -6.47375 6.845 -5.6875 6.25 C-2.99108421 4.16642802 -2.99108421 4.16642802 -1.3125 1.75 C-0.879375 1.1725 -0.44625 0.595 0 0 Z " fill="#3C3C3C" transform="translate(472,236)"/>
<path d="M0 0 C3 1 3 1 4.16796875 2.77734375 C4.50441406 3.49019531 4.84085938 4.20304688 5.1875 4.9375 C5.53167969 5.64777344 5.87585938 6.35804688 6.23046875 7.08984375 C7 9 7 9 7 11 C6.34 10.731875 5.68 10.46375 5 10.1875 C1.35060933 8.74294953 -2.32245433 7.37128822 -6 6 C-5.67 5.34 -5.34 4.68 -5 4 C-4.34 4 -3.68 4 -3 4 C-2.67 3.01 -2.34 2.02 -2 1 C-1.34 0.67 -0.68 0.34 0 0 Z " fill="#494949" transform="translate(181,181)"/>
<path d="M0 0 C-0.33 1.65 -0.66 3.3 -1 5 C-0.34 5 0.32 5 1 5 C1 4.34 1 3.68 1 3 C1.66 3 2.32 3 3 3 C2 6 2 6 -0.25 7.25 C-3.28236729 8.07700926 -5.01120724 7.85394079 -8 7 C-8 6.34 -8 5.68 -8 5 C-8.99 4.67 -9.98 4.34 -11 4 C-11.33 4.66 -11.66 5.32 -12 6 C-12.66 5.34 -13.32 4.68 -14 4 C-12.0429132 3.32968281 -10.08428887 2.66385317 -8.125 2 C-7.03445313 1.62875 -5.94390625 1.2575 -4.8203125 0.875 C-2 0 -2 0 0 0 Z " fill="#49494A" transform="translate(339,362)"/>
<path d="M0 0 C2.97 0 5.94 0 9 0 C9.66 1.32 10.32 2.64 11 4 C6.66914029 5.29925791 2.48525648 6.343621 -2 7 C-2.33 6.34 -2.66 5.68 -3 5 C-2.360625 4.71125 -1.72125 4.4225 -1.0625 4.125 C1.15206079 3.17176549 1.15206079 3.17176549 2 1 C1.34 0.67 0.68 0.34 0 0 Z " fill="#2D2D2E" transform="translate(394,260)"/>
<path d="M0 0 C0.144375 0.598125 0.28875 1.19625 0.4375 1.8125 C0.8872439 3.56150404 1.42892341 5.28677023 2 7 C-2.0527516 7.98248524 -5.83861737 8.08159574 -10 8 C-10 6.68 -10 5.36 -10 4 C-9.01 4 -8.02 4 -7 4 C-7 3.34 -7 2.68 -7 2 C-4.69 1.34 -2.38 0.68 0 0 Z " fill="#2B2B2B" transform="translate(285,376)"/>
<path d="M0 0 C3.96 0 7.92 0 12 0 C11.34 1.65 10.68 3.3 10 5 C6.37 5 2.74 5 -1 5 C-1 2 -1 2 0 0 Z " fill="#2A2A2B" transform="translate(222,387)"/>
<path d="M0 0 C3.72433382 1.2125738 7.37802806 2.50859979 11 4 C11 4.99 11 5.98 11 7 C10.01 7.33 9.02 7.66 8 8 C7.67 8.66 7.34 9.32 7 10 C1.25 8.25 1.25 8.25 -1 6 C0.32 4.68 1.64 3.36 3 2 C2.01 1.67 1.02 1.34 0 1 C0 0.67 0 0.34 0 0 Z " fill="#5D5B5C" transform="translate(100,365)"/>
<path d="M0 0 C3.09764579 3.09764579 5.09629862 5.19259724 7 9 C6.67 9.66 6.34 10.32 6 11 C5.01 11.33 4.02 11.66 3 12 C2.01 11.01 1.02 10.02 0 9 C-0.33 9.66 -0.66 10.32 -1 11 C-1.66 11 -2.32 11 -3 11 C-2.01 7.37 -1.02 3.74 0 0 Z " fill="#4C4C4C" transform="translate(193,203)"/>
<path d="M0 0 C2.31 0 4.62 0 7 0 C6.67 0.99 6.34 1.98 6 3 C6.99 2.34 7.98 1.68 9 1 C11.33199388 0.92094936 13.66832622 0.91201231 16 1 C16 1.66 16 2.32 16 3 C12.08488397 5.61007735 8.5480334 5.22006613 4 5 C3.34 4.67 2.68 4.34 2 4 C2 3.34 2 2.68 2 2 C1.34 2 0.68 2 0 2 C0 1.34 0 0.68 0 0 Z " fill="#151315" transform="translate(150,385)"/>
<path d="M0 0 C-0.66 0 -1.32 0 -2 0 C-2.33 1.65 -2.66 3.3 -3 5 C-4.32 4.34 -5.64 3.68 -7 3 C-7.33 3.99 -7.66 4.98 -8 6 C-7.34 6.66 -6.68 7.32 -6 8 C-7.65 8.33 -9.3 8.66 -11 9 C-11.33 8.01 -11.66 7.02 -12 6 C-13.65 6 -15.3 6 -17 6 C-15.43419334 2.86838668 -12.82184478 2.54395566 -9.625 1.3125 C-8.46226562 0.85488281 -7.29953125 0.39726562 -6.1015625 -0.07421875 C-3 -1 -3 -1 0 0 Z " fill="#646265" transform="translate(370,268)"/>
<path d="M0 0 C0.3125 2.3125 0.3125 2.3125 0 5 C-2.5 6.8125 -2.5 6.8125 -5 8 C-5 7.34 -5 6.68 -5 6 C-5.66 6 -6.32 6 -7 6 C-7 6.66 -7 7.32 -7 8 C-7.66 8 -8.32 8 -9 8 C-8.25 3.25 -8.25 3.25 -6 1 C-3.90200436 0.34437636 -2.19959601 0 0 0 Z " fill="#2B2B2B" transform="translate(347,359)"/>
<path d="M0 0 C3.97497544 3.40712181 5.86793788 7.32760855 8 12 C7.01 13.32 6.02 14.64 5 16 C4.15787744 14.08717875 3.32661136 12.16957527 2.5 10.25 C2.0359375 9.18265625 1.571875 8.1153125 1.09375 7.015625 C0 4 0 4 0 0 Z " fill="#777679" transform="translate(266,284)"/>
<path d="M0 0 C0.66 0.33 1.32 0.66 2 1 C1.67 1.66 1.34 2.32 1 3 C5.23646767 4.0089034 5.23646767 4.0089034 9.375 3.0625 C9.91125 2.711875 10.4475 2.36125 11 2 C10.49396008 4.16874252 10.00016187 5.99967627 9 8 C6.3125 8.375 6.3125 8.375 3 8 C0.93601924 6.176017 -0.39041053 4.27236161 -2 2 C-1.34 1.34 -0.68 0.68 0 0 Z " fill="#595959" transform="translate(359,476)"/>
<path d="M0 0 C1 3 1 3 0.29296875 5.0078125 C-0.25423828 6.05582031 -0.25423828 6.05582031 -0.8125 7.125 C-1.34810547 8.18074219 -1.34810547 8.18074219 -1.89453125 9.2578125 C-3 11 -3 11 -5 12 C-6.61949011 9.42786866 -7.04408751 8.32330841 -6.625 5.25 C-6.41875 4.5075 -6.2125 3.765 -6 3 C-5.195625 2.87625 -4.39125 2.7525 -3.5625 2.625 C-2.716875 2.41875 -1.87125 2.2125 -1 2 C-0.67 1.34 -0.34 0.68 0 0 Z " fill="#424242" transform="translate(471,223)"/>
<path d="M0 0 C0.598125 0.20625 1.19625 0.4125 1.8125 0.625 C1.5625 3 1.5625 3 0.8125 5.625 C-1.25 6.9375 -1.25 6.9375 -3.1875 7.625 C-4.1775 6.965 -5.1675 6.305 -6.1875 5.625 C-5.875 3.75 -5.875 3.75 -5.1875 1.625 C-2.1875 -0.375 -2.1875 -0.375 0 0 Z " fill="#333333" transform="translate(340.1875,285.375)"/>
<path d="M0 0 C1.32 0.66 2.64 1.32 4 2 C3.34 3.98 2.68 5.96 2 8 C0.02 7.34 -1.96 6.68 -4 6 C-4.33 4.35 -4.66 2.7 -5 1 C-4.01 1.495 -4.01 1.495 -3 2 C-2.01 1.34 -1.02 0.68 0 0 Z " fill="#434142" transform="translate(112,370)"/>
<path d="M0 0 C0.33 1.32 0.66 2.64 1 4 C-6.38461538 5.35384615 -6.38461538 5.35384615 -9.5 3.5625 C-9.995 3.046875 -10.49 2.53125 -11 2 C-7.36576791 -0.32590854 -4.22911669 -0.16265833 0 0 Z " fill="#121213" transform="translate(425,256)"/>
<path d="M0 0 C0.66 0.33 1.32 0.66 2 1 C0.84826645 3.46800047 -0.04783565 5.04783565 -2 7 C-2.99 7 -3.98 7 -5 7 C-5.33 6.34 -5.66 5.68 -6 5 C-8.8159849 4.53101037 -8.8159849 4.53101037 -12.0625 4.375 C-13.16722656 4.30023438 -14.27195312 4.22546875 -15.41015625 4.1484375 C-16.26480469 4.09945313 -17.11945313 4.05046875 -18 4 C-18 3.67 -18 3.34 -18 3 C-16.80503906 2.92652344 -16.80503906 2.92652344 -15.5859375 2.8515625 C-10.0487263 2.46085903 -5.24179262 1.93118675 0 0 Z " fill="#4E4E4E" transform="translate(114,271)"/>
<path d="M0 0 C2.64 0 5.28 0 8 0 C8.33 0.99 8.66 1.98 9 3 C10.65 3 12.3 3 14 3 C13.67 2.01 13.34 1.02 13 0 C15.99332739 0.9977758 16.94766315 1.7522025 19 4 C17.41913952 4.36504603 15.83516093 4.71660506 14.25 5.0625 C13.36828125 5.25972656 12.4865625 5.45695312 11.578125 5.66015625 C9.01320972 5.99825872 7.42908361 5.81158635 5 5 C5.66 3.68 6.32 2.36 7 1 C4.69 1 2.38 1 0 1 C0 0.67 0 0.34 0 0 Z " fill="#585858" transform="translate(418,255)"/>
<path d="M0 0 C4.62 0.66 9.24 1.32 14 2 C10 5 10 5 8 5 C8 4.34 8 3.68 8 3 C5.36 2.34 2.72 1.68 0 1 C0 0.67 0 0.34 0 0 Z M-1 2 C-0.01 2 0.98 2 2 2 C2 2.66 2 3.32 2 4 C2.66 4 3.32 4 4 4 C4 4.66 4 5.32 4 6 C4.66 6.33 5.32 6.66 6 7 C3.36 6.67 0.72 6.34 -2 6 C-1.67 4.68 -1.34 3.36 -1 2 Z " fill="#676668" transform="translate(148,383)"/>
<path d="M0 0 C0.99 0.33 1.98 0.66 3 1 C2.67 3.64 2.34 6.28 2 9 C0.68 9.33 -0.64 9.66 -2 10 C-2.1953125 3.9453125 -2.1953125 3.9453125 -2 2 C-1.34 1.34 -0.68 0.68 0 0 Z " fill="#121213" transform="translate(332,297)"/>
<path d="M0 0 C2.97246802 2.54782974 4.41535288 5.45340883 6 9 C6 9.66 6 10.32 6 11 C3.13302508 9.71480435 1.02392288 8.42870746 -1 6 C-1 5.34 -1 4.68 -1 4 C-1.66 4 -2.32 4 -3 4 C-3 3.34 -3 2.68 -3 2 C-2.01 2 -1.02 2 0 2 C0 1.34 0 0.68 0 0 Z " fill="#797979" transform="translate(213,239)"/>
<path d="M0 0 C3.92300495 2.35380297 4.83857315 4.64464931 6 9 C5.195625 8.835 4.39125 8.67 3.5625 8.5 C1.2715557 7.96808161 1.2715557 7.96808161 0 8 C-0.66 7.34 -1.32 6.68 -2 6 C-2 4.68 -2 3.36 -2 2 C-1.34 2 -0.68 2 0 2 C0 1.34 0 0.68 0 0 Z " fill="#413F3F" transform="translate(278,307)"/>
<path d="M0 0 C3.3 0 6.6 0 10 0 C10.33 1.32 10.66 2.64 11 4 C10.0409375 3.7525 10.0409375 3.7525 9.0625 3.5 C7.19173179 2.96073333 7.19173179 2.96073333 6 3 C6.33 3.66 6.66 4.32 7 5 C4.03 4.505 4.03 4.505 1 4 C0.67 2.68 0.34 1.36 0 0 Z " fill="#1C1C1C" transform="translate(426,254)"/>
<path d="M0 0 C3 1 3 1 4.1875 2.8125 C5 5 5 5 5 9 C2.625 8.6875 2.625 8.6875 0 8 C-0.66 7.01 -1.32 6.02 -2 5 C-1.34 4.34 -0.68 3.68 0 3 C0 2.01 0 1.02 0 0 Z " fill="#3B3B3B" transform="translate(208,232)"/>
<path d="M0 0 C-0.99 0.495 -0.99 0.495 -2 1 C-2.33 1.99 -2.66 2.98 -3 4 C-1.68 4.66 -0.36 5.32 1 6 C-5.75 6.125 -5.75 6.125 -8 5 C-8 4.34 -8 3.68 -8 3 C-8.66 2.34 -9.32 1.68 -10 1 C-6.61981469 -0.04005702 -3.5219721 -0.08004482 0 0 Z " fill="#555557" transform="translate(252,384)"/>
<path d="M0 0 C0 1.98 0 3.96 0 6 C-2.31 6.66 -4.62 7.32 -7 8 C-6.44414399 4.1090079 -4.34122117 0 0 0 Z " fill="#2A292A" transform="translate(466,245)"/>
<path d="M0 0 C0.33 0.99 0.66 1.98 1 3 C0.01 3 -0.98 3 -2 3 C-0.68 3.66 0.64 4.32 2 5 C1.67 5.99 1.34 6.98 1 8 C1.99 8.33 2.98 8.66 4 9 C4 9.99 4 10.98 4 12 C3.34 12 2.68 12 2 12 C0.2734375 10.03125 0.2734375 10.03125 -1.625 7.5 C-2.25664063 6.6646875 -2.88828125 5.829375 -3.5390625 4.96875 C-4.02117187 4.3190625 -4.50328125 3.669375 -5 3 C-4.67 2.34 -4.34 1.68 -4 1 C-1.9375 0.375 -1.9375 0.375 0 0 Z " fill="#505050" transform="translate(83,128)"/>
<path d="M0 0 C0.66 0 1.32 0 2 0 C1.938125 1.11375 1.87625 2.2275 1.8125 3.375 C1.874375 4.57125 1.93625 5.7675 2 7 C2.99 7.66 3.98 8.32 5 9 C4.01 9.33 3.02 9.66 2 10 C-0.6875 8.5625 -0.6875 8.5625 -3 7 C-1.125 1.125 -1.125 1.125 0 0 Z " fill="#424141" transform="translate(95,361)"/>
<path d="M0 0 C0 0.99 0 1.98 0 3 C0.99 3.33 1.98 3.66 3 4 C2.67 5.32 2.34 6.64 2 8 C1.34 8 0.68 8 0 8 C-0.66 7.34 -1.32 6.68 -2 6 C-4.10820797 6.3185177 -4.10820797 6.3185177 -6 7 C-4.60667426 3.63279613 -3.0210714 2.0140476 0 0 Z " fill="#616161" transform="translate(342,280)"/>
<path d="M0 0 C0.33 0 0.66 0 1 0 C2.28571429 8.42857143 2.28571429 8.42857143 1 13 C0.67 12.01 0.34 11.02 0 10 C-2.01508358 9.26676204 -2.01508358 9.26676204 -4 9 C-4 7.35 -4 5.7 -4 4 C-2.68 4.99 -1.36 5.98 0 7 C0 4.69 0 2.38 0 0 Z " fill="#4D4B4B" transform="translate(356,339)"/>
<path d="M0 0 C1.65 0.33 3.3 0.66 5 1 C4.01 2.485 4.01 2.485 3 4 C2.34 4 1.68 4 1 4 C0.34 5.32 -0.32 6.64 -1 8 C-1.66 6.68 -2.32 5.36 -3 4 C-2.34 3.67 -1.68 3.34 -1 3 C-0.67 2.01 -0.34 1.02 0 0 Z " fill="#454545" transform="translate(333,274)"/>
<path d="M0 0 C-0.66 1.98 -1.32 3.96 -2 6 C-4 5 -4 5 -5.375 3.5 C-7.22951249 1.78814231 -8.54524501 1.42323362 -11 1 C-3.57142857 -1.42857143 -3.57142857 -1.42857143 0 0 Z " fill="#5C5A5A" transform="translate(381,265)"/>
<path d="M0 0 C1.65 0 3.3 0 5 0 C5 0.99 5 1.98 5 3 C5.309375 4.2684375 5.309375 4.2684375 5.625 5.5625 C5.74875 6.366875 5.8725 7.17125 6 8 C5.34 8.66 4.68 9.32 4 10 C0 3.375 0 3.375 0 0 Z " fill="#424242" transform="translate(216,235)"/>
<path d="M0 0 C0.66 0 1.32 0 2 0 C2.125 2.875 2.125 2.875 2 6 C1.34 6.66 0.68 7.32 0 8 C-2.625 7.625 -2.625 7.625 -5 7 C-4.21654285 5.82780457 -3.42297164 4.66236332 -2.625 3.5 C-2.18414062 2.8503125 -1.74328125 2.200625 -1.2890625 1.53125 C-0.65097656 0.77328125 -0.65097656 0.77328125 0 0 Z " fill="#666666" transform="translate(472,236)"/>
<path d="M0 0 C0.99 0 1.98 0 3 0 C4 3 4 3 2.5625 6.1875 C1.7890625 7.5796875 1.7890625 7.5796875 1 9 C-1 6 -1 6 -2 3 C-1.34 2.01 -0.68 1.02 0 0 Z " fill="#4B4B4B" transform="translate(132,191)"/>
<path d="M0 0 C-0.66 1.65 -1.32 3.3 -2 5 C-3.98 5 -5.96 5 -8 5 C-7.625 3.0625 -7.625 3.0625 -7 1 C-4.53721199 -0.231394 -2.7204945 -0.07159196 0 0 Z " fill="#161619" transform="translate(234,387)"/>
<path d="M0 0 C1.9375 0.3125 1.9375 0.3125 4 1 C4.33 1.99 4.66 2.98 5 4 C5.99 3.67 6.98 3.34 8 3 C8.33 4.98 8.66 6.96 9 9 C7.68103535 8.07161713 6.37001311 7.13194268 5.0625 6.1875 C4.33160156 5.66542969 3.60070312 5.14335937 2.84765625 4.60546875 C1 3 1 3 0 0 Z " fill="#5E5C5D" transform="translate(334,156)"/>
<path d="M0 0 C2.31 0 4.62 0 7 0 C7 0.33 7 0.66 7 1 C5.02 1 3.04 1 1 1 C0.67 1.99 0.34 2.98 0 4 C0.99 4.66 1.98 5.32 3 6 C-0.3 5.67 -3.6 5.34 -7 5 C-4.38058783 3.25372522 -2.96175123 2.61277612 0 2 C0 1.34 0 0.68 0 0 Z " fill="#808080" transform="translate(166,386)"/>
<path d="M0 0 C0.33 1.65 0.66 3.3 1 5 C-0.65 5.66 -2.3 6.32 -4 7 C-4 5.02 -4 3.04 -4 1 C-2 0 -2 0 0 0 Z " fill="#2E2E2E" transform="translate(368,474)"/>
<path d="M0 0 C1.65 0 3.3 0 5 0 C5.33 1.32 5.66 2.64 6 4 C3.36 4 0.72 4 -2 4 C-1.34 2.68 -0.68 1.36 0 0 Z " fill="#101010" transform="translate(167,387)"/>
<path d="M0 0 C1.98 0 3.96 0 6 0 C6 1.65 6 3.3 6 5 C3.03 4.505 3.03 4.505 0 4 C0 2.68 0 1.36 0 0 Z " fill="#201E1F" transform="translate(122,377)"/>
<path d="M0 0 C0 0.99 0 1.98 0 3 C-1.65 2.67 -3.3 2.34 -5 2 C-5 2.66 -5 3.32 -5 4 C-6.32 3.67 -7.64 3.34 -9 3 C-6.27596221 -1.08605669 -4.4643819 -1.38549783 0 0 Z " fill="#101011" transform="translate(332,367)"/>
<path d="M0 0 C0.99 0.33 1.98 0.66 3 1 C3 1.33 3 1.66 3 2 C3.99 2.33 4.98 2.66 6 3 C6 3.99 6 4.98 6 6 C5.34 6 4.68 6 4 6 C3.67 6.99 3.34 7.98 3 9 C2.814375 8.071875 2.814375 8.071875 2.625 7.125 C2.12802644 4.80879168 2.12802644 4.80879168 0 3 C0 2.01 0 1.02 0 0 Z " fill="#141213" transform="translate(278,313)"/>
<path d="M0 0 C1.24546405 2.49092811 0.7767578 3.41080733 0 6 C-1.65 5.67 -3.3 5.34 -5 5 C-5 4.01 -5 3.02 -5 2 C-3.35 1.34 -1.7 0.68 0 0 Z M-7 5 C-5 6 -5 6 -5 6 Z " fill="#242424" transform="translate(348,277)"/>
<path d="M0 0 C-0.66 1.65 -1.32 3.3 -2 5 C-1.01 5.33 -0.02 5.66 1 6 C-0.32 6 -1.64 6 -3 6 C-3.66 5.01 -4.32 4.02 -5 3 C-7.56282742 2.27034634 -7.56282742 2.27034634 -10 2 C-10 1.67 -10 1.34 -10 1 C-3.375 0 -3.375 0 0 0 Z " fill="#535355" transform="translate(408,258)"/>
<path d="M0 0 C1.64826111 2.96687001 2.44271087 5.65626525 3 9 C1.50260417 7.73046875 0.00520833 6.4609375 -1.4921875 5.19140625 C-3.00594079 3.9121848 -3.00594079 3.9121848 -5 3 C-4.67 2.34 -4.34 1.68 -4 1 C-1.9375 0.375 -1.9375 0.375 0 0 Z " fill="#595759" transform="translate(138,185)"/>
<path d="M0 0 C2.31 0 4.62 0 7 0 C7 0.99 7 1.98 7 3 C4.125 3.625 4.125 3.625 1 4 C0.34 3.34 -0.32 2.68 -1 2 C-0.67 1.34 -0.34 0.68 0 0 Z " fill="#111111" transform="translate(260,383)"/>
<path d="M0 0 C0.99 0.33 1.98 0.66 3 1 C2.17857636 5.43568763 0.17658845 8.82341155 -3 12 C-2.68950274 10.56206608 -2.3765224 9.1246682 -2.0625 7.6875 C-1.88847656 6.88699219 -1.71445312 6.08648437 -1.53515625 5.26171875 C-1 3 -1 3 0 0 Z " fill="#676666" transform="translate(44,262)"/>
<path d="M0 0 C0.99 0.495 0.99 0.495 2 1 C2.33 1.99 2.66 2.98 3 4 C5.01508358 4.73323796 5.01508358 4.73323796 7 5 C7 5.66 7 6.32 7 7 C5.00045254 7.04254356 2.99958364 7.04080783 1 7 C0 6 0 6 -0.0625 2.9375 C-0.041875 1.968125 -0.02125 0.99875 0 0 Z " fill="#141414" transform="translate(171,206)"/>
<path d="M0 0 C1.32 0 2.64 0 4 0 C3.34 2.31 2.68 4.62 2 7 C0.66666667 6.33333333 -0.66666667 5.66666667 -2 5 C-1.125 1.125 -1.125 1.125 0 0 Z " fill="#6E6E70" transform="translate(237,149)"/>
<path d="M0 0 C0.99 0.33 1.98 0.66 3 1 C3.33 1.99 3.66 2.98 4 4 C4.66 4.33 5.32 4.66 6 5 C5.67 6.65 5.34 8.3 5 10 C0 3.40909091 0 3.40909091 0 0 Z " fill="#5E5C5D" transform="translate(279,298)"/>
<path d="M0 0 C2.0625 1.6875 2.0625 1.6875 4 4 C3.75 6.75 3.75 6.75 3 9 C2.01 9 1.02 9 0 9 C0 6.03 0 3.06 0 0 Z " fill="#484848" transform="translate(202,170)"/>
<path d="M0 0 C0.66 0 1.32 0 2 0 C2 2.31 2 4.62 2 7 C1.01 6.67 0.02 6.34 -1 6 C-1.8125 4.0625 -1.8125 4.0625 -2 2 C-1.34 1.34 -0.68 0.68 0 0 Z " fill="#171516" transform="translate(354,339)"/>
<path d="M0 0 C3.3 1.65 6.6 3.3 10 5 C8.68 5.33 7.36 5.66 6 6 C5.67 5.34 5.34 4.68 5 4 C4.34 4 3.68 4 3 4 C2.67 4.66 2.34 5.32 2 6 C1.34 4.02 0.68 2.04 0 0 Z " fill="#6A6A6A" transform="translate(431,168)"/>
<path d="M0 0 C2 1 2 1 2.75 2.75 C3.07158914 5.64430225 2.22746624 7.40065973 1 10 C0.67 9.34 0.34 8.68 0 8 C-0.66 7.67 -1.32 7.34 -2 7 C-1.34 4.69 -0.68 2.38 0 0 Z " fill="#7C7C7C" transform="translate(216,156)"/>
<path d="M0 0 C0.144375 0.598125 0.28875 1.19625 0.4375 1.8125 C0.8872439 3.56150404 1.42892341 5.28677023 2 7 C0.35 7 -1.3 7 -3 7 C-4 4 -4 4 -3 1 C-2.01 0.67 -1.02 0.34 0 0 Z " fill="#575757" transform="translate(285,376)"/>
<path d="M0 0 C1.32 0.33 2.64 0.66 4 1 C4 2.32 4 3.64 4 5 C3.01 5.33 2.02 5.66 1 6 C0 5 0 5 -0.0625 2.4375 C-0.041875 1.633125 -0.02125 0.82875 0 0 Z " fill="#211F22" transform="translate(355,273)"/>
<path d="M0 0 C3.52069985 0.58678331 5.71299843 1.35649921 9 3 C5.37 3.33 1.74 3.66 -2 4 C-1.34 2.68 -0.68 1.36 0 0 Z " fill="#585859" transform="translate(413,259)"/>
<path d="M0 0 C0.99 0.33 1.98 0.66 3 1 C3.6875 3.0625 3.6875 3.0625 4 5 C1.69 4.67 -0.62 4.34 -3 4 C-2.67 3.01 -2.34 2.02 -2 1 C-1.34 0.67 -0.68 0.34 0 0 Z " fill="#131313" transform="translate(193,212)"/>
<path d="M0 0 C0.99 0.33 1.98 0.66 3 1 C3 1.66 3 2.32 3 3 C3.66 3.33 4.32 3.66 5 4 C2.36 4 -0.28 4 -3 4 C-2.01 2.68 -1.02 1.36 0 0 Z " fill="#404040" transform="translate(216,389)"/>
<path d="M0 0 C2.1875 0.3125 2.1875 0.3125 4 1 C3.34 2.32 2.68 3.64 2 5 C-0.475 4.01 -0.475 4.01 -3 3 C-1.75 1.4375 -1.75 1.4375 0 0 Z " fill="#141112" transform="translate(99,366)"/>
<path d="M0 0 C1.5 1.375 1.5 1.375 3 3 C3 3.66 3 4.32 3 5 C1.37373596 6.38232443 -0.2925002 7.71937515 -2 9 C-1.41196203 5.97580475 -0.77321882 2.98241547 0 0 Z " fill="#595759" transform="translate(353,334)"/>
<path d="M0 0 C3.2542015 2.83430453 4.5206753 4.68607774 5 9 C4.34 8.67 3.68 8.34 3 8 C3 7.01 3 6.02 3 5 C1.68 4.67 0.36 4.34 -1 4 C-0.67 2.68 -0.34 1.36 0 0 Z " fill="#606060" transform="translate(284,317)"/>
<path d="M0 0 C0.99 1.32 1.98 2.64 3 4 C2.34 5.32 1.68 6.64 1 8 C-2 3.25 -2 3.25 -2 1 C-1.34 0.67 -0.68 0.34 0 0 Z " fill="#595959" transform="translate(226,249)"/>
<path d="M0 0 C2.125 0.375 2.125 0.375 4 1 C3.67 1.66 3.34 2.32 3 3 C3.66 3.33 4.32 3.66 5 4 C2.69 4 0.38 4 -2 4 C-2 2 -2 2 0 0 Z " fill="#0D0D0F" transform="translate(241,386)"/>
<path d="M0 0 C1.32 0 2.64 0 4 0 C4.66 1.65 5.32 3.3 6 5 C3.03 4.505 3.03 4.505 0 4 C0 2.68 0 1.36 0 0 Z " fill="#383838" transform="translate(256,383)"/>
<path d="M0 0 C2.31 0.33 4.62 0.66 7 1 C6.01 1.33 5.02 1.66 4 2 C4 2.66 4 3.32 4 4 C4.66 4.33 5.32 4.66 6 5 C4.35 4.67 2.7 4.34 1 4 C1.33 3.01 1.66 2.02 2 1 C1.34 0.67 0.68 0.34 0 0 Z " fill="#121013" transform="translate(143,383)"/>
<path d="M0 0 C0.33 0 0.66 0 1 0 C1.3125 2.3125 1.3125 2.3125 1 5 C-1.375 6.875 -1.375 6.875 -4 8 C-4.66 7.67 -5.32 7.34 -6 7 C-5.071875 6.6596875 -5.071875 6.6596875 -4.125 6.3125 C-1.38589791 4.62070165 -0.94975528 3.00755839 0 0 Z " fill="#636363" transform="translate(349,352)"/>
<path d="M0 0 C2.97 1.98 2.97 1.98 6 4 C5.01 4.99 4.02 5.98 3 7 C2.34 6.67 1.68 6.34 1 6 C0.32624548 3.911361 0 2.19636905 0 0 Z " fill="#4C4C4C" transform="translate(222,311)"/>
<path d="M0 0 C0 2.64 0 5.28 0 8 C-1.89213369 5.61426621 -3.02391783 3.92824652 -4 1 C-2 0 -2 0 0 0 Z " fill="#5B5B5B" transform="translate(265,265)"/>
<path d="M0 0 C0.66 0 1.32 0 2 0 C2 0.66 2 1.32 2 2 C3.98 2 5.96 2 8 2 C8 2.33 8 2.66 8 3 C4.7 3.66 1.4 4.32 -2 5 C-1.34 3.35 -0.68 1.7 0 0 Z " fill="#666565" transform="translate(93,227)"/>
<path d="M0 0 C0.90305236 2.70915709 1.63723355 5.17042171 2 8 C1.34 8.66 0.68 9.32 0 10 C-0.66 7.03 -1.32 4.06 -2 1 C-1.34 0.67 -0.68 0.34 0 0 Z " fill="#5F5F5F" transform="translate(213,134)"/>
<path d="M0 0 C-0.66 0 -1.32 0 -2 0 C-2.33 1.65 -2.66 3.3 -3 5 C-3.99 4.34 -4.98 3.68 -6 3 C-6 2.01 -6 1.02 -6 0 C-3 -1 -3 -1 0 0 Z " fill="#535254" transform="translate(370,268)"/>
<path d="M0 0 C0.66 0.99 1.32 1.98 2 3 C0.02 4.32 -1.96 5.64 -4 7 C-4.66 6.67 -5.32 6.34 -6 6 C-4.02 4.02 -2.04 2.04 0 0 Z " fill="#828182" transform="translate(341,185)"/>
<path d="M0 0 C0.99 0 1.98 0 3 0 C3.625 1.8125 3.625 1.8125 4 4 C3.01 5.485 3.01 5.485 2 7 C1.34 6.67 0.68 6.34 0 6 C0.33 5.34 0.66 4.68 1 4 C0.34 3.34 -0.32 2.68 -1 2 C-0.67 1.34 -0.34 0.68 0 0 Z " fill="#111111" transform="translate(144,172)"/>
</svg>
