<svg width="193" height="83" viewBox="0 0 193 83" fill="none" xmlns="http://www.w3.org/2000/svg">
<path d="M62.6136 64V57.6591L78.7955 37.9545V37.7273H63.1818V29.0909H92.0455V36.0455L77.0455 55.1364V55.3636H92.5909V64H62.6136Z" fill="white"/>
<line x1="96" y1="33.5" x2="117" y2="33.5" stroke="white" stroke-width="9"/>
<line x1="96" y1="59.5" x2="117" y2="59.5" stroke="white" stroke-width="9"/>
<line x1="96" y1="47.4286" x2="117" y2="47.4286" stroke="white" stroke-width="9"/>
<path d="M136.818 62.6591C133.152 62.6591 130 61.9091 127.364 60.4091C124.742 58.8939 122.72 56.7879 121.295 54.0909C119.886 51.3788 119.182 48.2348 119.182 44.6591C119.182 41.0682 119.886 37.9242 121.295 35.2273C122.72 32.5152 124.742 30.4091 127.364 28.9091C130 27.3939 133.152 26.6364 136.818 26.6364C140.485 26.6364 143.629 27.3939 146.25 28.9091C148.886 30.4091 150.909 32.5152 152.318 35.2273C153.742 37.9242 154.455 41.0682 154.455 44.6591C154.455 48.2348 153.742 51.3788 152.318 54.0909C150.909 56.7879 148.886 58.8939 146.25 60.4091C143.629 61.9091 140.485 62.6591 136.818 62.6591ZM136.886 54.2727C138.22 54.2727 139.348 53.8636 140.273 53.0455C141.197 52.2273 141.902 51.0909 142.386 49.6364C142.886 48.1818 143.136 46.5 143.136 44.5909C143.136 42.6515 142.886 40.9545 142.386 39.5C141.902 38.0455 141.197 36.9091 140.273 36.0909C139.348 35.2727 138.22 34.8636 136.886 34.8636C135.508 34.8636 134.341 35.2727 133.386 36.0909C132.447 36.9091 131.727 38.0455 131.227 39.5C130.742 40.9545 130.5 42.6515 130.5 44.5909C130.5 46.5 130.742 48.1818 131.227 49.6364C131.727 51.0909 132.447 52.2273 133.386 53.0455C134.341 53.8636 135.508 54.2727 136.886 54.2727Z" fill="white"/>
<path d="M189.352 27.0909V62H182.193L168.301 41.8523H168.08V62H159.642V27.0909H166.903L180.642 47.2045H180.932V27.0909H189.352Z" fill="white"/>
<circle cx="29.5" cy="45.5" r="23" stroke="white" stroke-width="13"/>
<path d="M129.75 70.2727L129.568 71.4091H125.045L125.227 70.2727H129.75ZM126.886 68.1818H128.227L126.841 76.5C126.78 76.8788 126.79 77.1629 126.869 77.3523C126.953 77.5379 127.078 77.6629 127.244 77.7273C127.415 77.7879 127.598 77.8182 127.795 77.8182C127.943 77.8182 128.064 77.8106 128.159 77.7955C128.254 77.7765 128.33 77.7614 128.386 77.75L128.477 78.9545C128.375 78.9886 128.237 79.0227 128.062 79.0568C127.892 79.0947 127.682 79.1136 127.432 79.1136C127.053 79.1136 126.697 79.0322 126.364 78.8693C126.03 78.7064 125.775 78.4583 125.597 78.125C125.419 77.7917 125.371 77.3712 125.455 76.8636L126.886 68.1818ZM133.855 79.1818C133.018 79.1818 132.327 78.9962 131.781 78.625C131.236 78.25 130.855 77.7273 130.639 77.0568C130.423 76.3826 130.389 75.5985 130.537 74.7045C130.685 73.8106 130.978 73.0227 131.418 72.3409C131.857 71.6553 132.404 71.1212 133.06 70.7386C133.715 70.3523 134.435 70.1591 135.219 70.1591C135.673 70.1591 136.111 70.2348 136.531 70.3864C136.952 70.5379 137.315 70.7841 137.622 71.125C137.929 71.4621 138.143 71.9091 138.264 72.4659C138.385 73.0227 138.378 73.7083 138.241 74.5227L138.151 75.0909H131.423L131.605 73.9318H136.969C137.056 73.4394 137.033 73 136.901 72.6136C136.772 72.2273 136.546 71.9223 136.224 71.6989C135.906 71.4754 135.503 71.3636 135.014 71.3636C134.51 71.3636 134.041 71.5 133.605 71.7727C133.17 72.0417 132.806 72.3826 132.514 72.7955C132.223 73.2045 132.041 73.6212 131.969 74.0455L131.81 75.0455C131.696 75.7689 131.713 76.3447 131.861 76.7727C132.012 77.2008 132.276 77.5095 132.651 77.6989C133.026 77.8845 133.495 77.9773 134.06 77.9773C134.42 77.9773 134.751 77.928 135.054 77.8295C135.357 77.7273 135.628 77.5758 135.866 77.375C136.105 77.1705 136.306 76.9167 136.469 76.6136L137.696 76.9773C137.488 77.4167 137.194 77.803 136.815 78.1364C136.44 78.4659 136.001 78.7235 135.497 78.9091C134.997 79.0909 134.45 79.1818 133.855 79.1818ZM143.085 79.1818C142.263 79.1818 141.589 78.9886 141.062 78.6023C140.54 78.2159 140.176 77.6837 139.972 77.0057C139.767 76.3277 139.737 75.553 139.881 74.6818C140.025 73.7955 140.316 73.0133 140.756 72.3352C141.195 71.6534 141.742 71.1212 142.398 70.7386C143.053 70.3523 143.775 70.1591 144.562 70.1591C145.176 70.1591 145.71 70.2727 146.165 70.5C146.619 70.7273 146.97 71.0455 147.216 71.4545C147.462 71.8636 147.578 72.3409 147.562 72.8864H146.222C146.184 72.4886 146.013 72.1364 145.71 71.8295C145.411 71.5189 144.968 71.3636 144.381 71.3636C143.858 71.3636 143.377 71.5 142.938 71.7727C142.498 72.0417 142.129 72.4223 141.83 72.9148C141.53 73.4034 141.328 73.9773 141.222 74.6364C141.108 75.3106 141.117 75.8977 141.25 76.3977C141.383 76.8977 141.623 77.286 141.972 77.5625C142.32 77.839 142.759 77.9773 143.29 77.9773C143.638 77.9773 143.964 77.9167 144.267 77.7955C144.57 77.6742 144.839 77.5 145.074 77.2727C145.309 77.0455 145.494 76.7727 145.631 76.4545H146.972C146.805 76.9697 146.538 77.4337 146.17 77.8466C145.803 78.2557 145.358 78.5814 144.835 78.8239C144.313 79.0625 143.729 79.1818 143.085 79.1818ZM150.705 73.75L149.841 79H148.5L150.432 67.3636H151.773L151.068 71.6364H151.182C151.455 71.1818 151.818 70.822 152.273 70.5568C152.731 70.2917 153.307 70.1591 154 70.1591C154.591 70.1591 155.089 70.2784 155.494 70.517C155.903 70.7519 156.191 71.1136 156.358 71.6023C156.528 72.0871 156.553 72.7045 156.432 73.4545L155.5 79H154.159L155.068 73.5455C155.182 72.8523 155.089 72.3163 154.79 71.9375C154.494 71.5549 154.034 71.3636 153.409 71.3636C152.97 71.3636 152.561 71.4564 152.182 71.642C151.807 71.8277 151.489 72.0985 151.227 72.4545C150.97 72.8106 150.795 73.2424 150.705 73.75ZM162.635 79L164.567 67.3636H165.976L164.249 77.75H169.658L169.453 79H162.635ZM173.999 79.2045C173.446 79.2045 172.961 79.1004 172.544 78.892C172.127 78.6799 171.819 78.375 171.618 77.9773C171.417 77.5758 171.362 77.0909 171.453 76.5227C171.54 76.0227 171.709 75.6174 171.959 75.3068C172.209 74.9924 172.512 74.7462 172.868 74.5682C173.228 74.3864 173.614 74.2519 174.027 74.1648C174.444 74.0739 174.858 74.0038 175.271 73.9545C175.809 73.8864 176.247 73.8333 176.584 73.7955C176.921 73.7576 177.175 73.6951 177.345 73.608C177.516 73.5208 177.62 73.3712 177.658 73.1591V73.1136C177.749 72.5568 177.675 72.1231 177.436 71.8125C177.197 71.4981 176.771 71.3409 176.158 71.3409C175.521 71.3409 174.989 71.4811 174.561 71.7614C174.133 72.0417 173.817 72.3409 173.612 72.6591L172.43 72.2045C172.741 71.6742 173.112 71.2614 173.544 70.9659C173.976 70.6667 174.429 70.4583 174.902 70.3409C175.375 70.2197 175.832 70.1591 176.271 70.1591C176.552 70.1591 176.868 70.1932 177.22 70.2614C177.572 70.3258 177.902 70.4602 178.209 70.6648C178.519 70.8693 178.752 71.178 178.908 71.5909C179.067 72.0038 179.089 72.5568 178.976 73.25L178.021 79H176.68L176.885 77.8182H176.817C176.696 78.0076 176.51 78.2102 176.26 78.4261C176.014 78.642 175.701 78.8258 175.322 78.9773C174.947 79.1288 174.506 79.2045 173.999 79.2045ZM174.385 78C174.915 78 175.379 77.8958 175.777 77.6875C176.179 77.4792 176.5 77.2102 176.743 76.8807C176.989 76.5511 177.143 76.2045 177.203 75.8409L177.408 74.6136C177.339 74.6818 177.205 74.7443 177.004 74.8011C176.804 74.8542 176.576 74.9015 176.322 74.9432C176.072 74.9811 175.828 75.0152 175.589 75.0455C175.355 75.072 175.165 75.0947 175.021 75.1136C174.665 75.1591 174.326 75.233 174.004 75.3352C173.686 75.4337 173.417 75.5833 173.197 75.7841C172.982 75.9811 172.847 76.25 172.794 76.5909C172.714 77.0568 172.826 77.4091 173.129 77.6477C173.432 77.8826 173.851 78 174.385 78ZM180.651 79L182.582 67.3636H183.923L183.219 71.6591H183.332C183.454 71.5076 183.622 71.3144 183.838 71.0795C184.054 70.8409 184.344 70.6288 184.707 70.4432C185.071 70.2538 185.537 70.1591 186.105 70.1591C186.84 70.1591 187.455 70.3428 187.952 70.7102C188.452 71.0777 188.802 71.5985 189.003 72.2727C189.207 72.947 189.234 73.7424 189.082 74.6591C188.931 75.5833 188.641 76.3845 188.213 77.0625C187.789 77.7367 187.266 78.2595 186.645 78.6307C186.027 78.9981 185.355 79.1818 184.628 79.1818C184.067 79.1818 183.634 79.089 183.327 78.9034C183.024 78.714 182.8 78.5 182.656 78.2614C182.516 78.0189 182.408 77.8182 182.332 77.6591H182.173L181.946 79H180.651ZM182.696 74.6364C182.59 75.2955 182.592 75.8769 182.702 76.3807C182.812 76.8807 183.029 77.2727 183.355 77.5568C183.681 77.8371 184.113 77.9773 184.651 77.9773C185.211 77.9773 185.704 77.8295 186.128 77.5341C186.552 77.2348 186.901 76.8333 187.173 76.3295C187.446 75.822 187.635 75.2576 187.741 74.6364C187.84 74.0227 187.836 73.4697 187.73 72.9773C187.628 72.4811 187.412 72.089 187.082 71.8011C186.757 71.5095 186.31 71.3636 185.741 71.3636C185.196 71.3636 184.713 71.5019 184.293 71.7784C183.876 72.0511 183.531 72.4337 183.259 72.9261C182.99 73.4148 182.802 73.9848 182.696 74.6364Z" fill="white"/>
</svg>
