<svg width="20" height="179" viewBox="0 0 20 179" fill="none" xmlns="http://www.w3.org/2000/svg">
<path d="M4.47414 178.382C3.68092 177.553 3.18391 176.106 2.97831 174.892C2.91454 174.515 3.47049 174.434 3.44759 174.161C3.40332 173.629 2.96823 173.344 2.96993 172.79C2.9741 172.607 3.81662 172.419 3.80478 172.238C3.73931 171.255 3.17815 170.544 2.97285 169.603C1.93741 164.96 1.20272 160.382 1.05211 156.003C0.993915 154.548 1.59555 152.777 1.16301 151.374C1.11155 151.209 0.38347 151.361 0.320609 151.333C-0.642194 150.891 0.853568 150.953 1.02983 150.62C1.72452 149.272 1.72632 147.883 1.39554 146.664C1.2533 146.155 -0.190603 146.725 0.611653 146.174C0.665851 146.136 1.45265 146.239 1.53105 146.094C1.70704 145.764 1.54771 145.157 1.60259 144.911C1.71199 144.431 1.70182 144.346 1.69887 143.893C1.70118 143.467 1.88492 142.972 1.9289 142.48C1.94766 142.272 1.94111 142.067 1.88437 141.87C1.84151 141.729 1.04288 141.932 0.902153 141.708C0.761502 141.483 0.819599 140.89 1.00578 140.684C1.19193 140.478 1.82377 140.556 1.96775 140.518C3.18304 140.205 1.48512 139.54 1.44253 139.452C0.71295 137.831 1.67142 136.444 1.67527 134.919C1.67619 133.77 1.37214 132.523 1.43466 131.428C1.51256 130.111 1.97379 129.02 1.93812 127.743C1.93533 127.609 0.987561 127.737 0.982293 127.572C0.927461 125.821 1.10218 124.085 1.82727 122.382C1.90085 122.212 2.71642 122.478 2.83938 122.311C3.57278 121.284 5.3046 119.724 1.74793 118.863C1.93492 118.151 2.14086 117.284 2.91271 116.698C3.40988 116.316 4.27989 116.785 3.93367 116.249C3.85668 116.129 3.05759 116.218 3.00178 116.042C2.76782 115.297 3.08676 114.526 2.7394 113.778C2.66683 113.626 1.958 113.607 1.83436 113.555C0.834548 113.119 2.58522 112.684 2.71948 112.573C3.72476 111.692 3.42514 110.971 3.5314 110.082C3.55643 109.876 2.58664 110.031 2.57675 109.83C2.53848 108.786 2.72441 107.732 3.24431 106.774C3.36241 106.559 4.14784 106.846 4.24554 106.748C4.66664 106.311 3.15365 106.065 3.52835 105.643C3.6053 105.555 4.28993 105.678 4.36745 105.668C5.58436 105.517 3.92183 105.118 3.89176 105.044C3.6014 104.399 4.38005 104.018 4.83248 103.562C5.03439 103.357 5.17133 103.136 5.11922 102.87C5.09719 102.767 4.20215 102.909 4.19357 102.625C4.1313 100.728 4.53774 98.764 5.38281 96.9455C5.51307 96.662 6.15413 96.9212 6.23657 96.9092C7.52572 96.707 5.84421 96.3841 5.78761 96.284C5.38514 95.4982 6.85983 94.9043 4.8769 94.2423C5.81404 91.1181 4.89546 87.8164 7.00602 84.7666C7.03084 84.7277 7.85799 84.88 7.90388 84.8023C8.46634 83.8746 7.15221 83.9394 5.63704 83.1136C5.25679 82.9042 7.22381 82.6088 7.36882 82.5832C7.90299 82.4817 9.12283 82.7875 9.2288 82.7456C10.0634 82.4016 5.9596 81.9958 6.03364 81.3796C6.04283 81.3613 6.78587 81.5349 6.86709 81.4929C7.12181 81.3633 6.84243 81.1697 7.12155 81.0483C7.52697 80.8726 8.46684 80.8649 8.84223 80.7172C9.06251 80.647 9.08439 80.5063 8.66345 80.3077C8.51444 80.2462 6.18509 80.1415 6.29995 79.8762C6.35483 79.7677 6.27338 79.1983 6.38684 78.9845C6.50816 78.7799 7.27134 78.7836 7.30197 78.7678C8.18453 78.0289 8.62541 78.16 9.99546 77.5084C11.3434 76.8122 7.95529 77.7241 7.54673 77.7C7.14127 77.6795 7.8119 77.0214 8.04736 76.8164C8.28659 76.6187 8.78879 76.6263 8.91219 76.4749C9.69952 75.4473 7.15804 76.695 6.56029 76.6523C5.15195 76.5884 7.46089 75.3328 7.51012 74.7426C7.52412 74.5859 7.01192 74.9043 6.91553 74.8072C6.54346 74.4284 7.18489 73.8458 6.28277 73.5966C6.13465 73.553 4.51496 73.7179 5.46343 73.0072C5.60042 72.9052 6.24601 72.7727 6.29871 72.518C6.37785 72.136 6.28919 71.5455 5.95667 71.3014C5.71143 71.1227 4.83316 71.7978 5.01841 71.3714C5.10144 71.1814 5.78089 71.1968 5.8889 70.8601C5.997 70.5248 5.71747 69.895 5.6019 69.6556C5.48596 69.4179 4.78318 69.8447 4.72459 69.8445C4.38683 69.8389 3.83718 69.493 3.82266 69.4504C3.42146 68.5097 3.31853 67.4823 3.2557 66.468C3.14819 65.0945 3.21381 63.817 2.80817 62.5646C2.75274 62.388 1.91895 62.6072 1.90175 62.5813C1.47569 61.9809 3.78565 62.2324 4.50062 61.7469C2.78212 61.972 3.06748 61.6884 2.84744 61.2723C2.74038 61.0701 2.0788 61.2275 2.00896 61.2133C0.970707 60.9546 2.27481 60.6525 2.54136 60.5894C3.52144 60.3435 2.34474 60.1663 3.00277 60.0061C3.65632 59.8545 4.63701 60.1335 4.6158 59.7433C3.99361 59.6405 2.37868 59.9802 2.11044 59.6655C1.08097 58.4393 2.48002 56.2224 2.7145 55.3281C2.93991 54.4078 2.86785 54.0956 3.16012 53.586C3.6951 52.6733 2.45548 52.862 2.00376 52.1654C1.55689 51.4647 4.43139 52.2337 5.07298 52.2481C5.71376 52.268 5.08248 52.0731 5.44433 52.0275C5.80585 51.9837 6.1961 52.2725 6.36496 52.058C6.53241 51.8465 5.53323 51.0047 4.89609 50.7955C3.54395 50.3596 2.0326 50.3931 2.66652 49.8335C2.7039 49.802 3.44524 50.0679 3.54956 49.9404C4.35362 48.9207 4.63733 47.7711 5.4049 46.7815C5.51128 46.6473 6.32476 46.9734 6.39613 46.898C7.1463 46.1021 5.647 46.113 4.18775 45.2318C6.26209 45.8362 7.61076 45.8621 7.7877 45.173C7.89525 44.7578 6.96042 44.6163 6.37975 44.1891C6.2048 44.0599 6.90477 43.9148 6.4864 43.7591C5.11996 43.2452 3.47526 43.1519 4.27502 42.5825C4.3123 42.5585 5.0599 42.8416 5.13228 42.745C5.60303 42.1227 4.14989 41.6887 4.13924 40.9132C4.13095 40.3057 5.24919 39.5005 5.49233 38.915C6.08615 39.0138 6.50463 39.047 6.77354 39.0308C7.59142 38.9604 7.03668 38.4543 5.82591 38.0592C5.96352 37.6217 5.94588 37.1251 6.24301 36.728C6.34457 36.5911 7.02251 36.7995 7.10044 36.7925C8.32152 36.693 6.74586 36.2434 6.69859 36.1355C6.25527 34.987 7.61202 34.3398 6.59749 33.134C6.56085 33.0914 4.91094 32.7441 6.16992 32.6864C6.25645 32.684 6.95356 33.1466 7.09458 32.686C7.23605 32.2228 8.2841 31.5027 7.64046 30.7074C7.4854 30.5153 6.21876 29.8559 7.33102 29.736C7.48184 29.7208 7.94695 29.8602 8.22292 29.85C9.10216 29.8182 7.45279 29.38 8.91841 29.4274C10.3838 29.4764 11.5395 29.2214 10.6966 28.3724C10.6724 28.3464 9.38262 27.9191 9.44685 27.7176C9.55023 27.3969 9.92476 26.9903 9.98911 26.6531C10.0199 26.4896 9.1783 26.4153 9.16946 26.3838C8.95091 25.1831 9.85673 24.5641 10.4438 23.4682C10.5534 23.2659 9.58563 22.3861 10.5626 22.1831C11.6325 21.9599 15.5262 23.3673 14.8186 22.1141C14.5386 21.602 9.59514 19.8353 12.4065 19.7267C12.2491 18.8359 12.6737 18.1413 13.0081 17.397C13.0305 17.3369 13.0274 17.161 13.0267 17.0969C13.0635 16.408 13.0044 15.7084 12.4435 15.0988C12.3882 15.0354 10.9178 15.1085 10.9063 14.957C10.8908 14.7248 11.5286 14.4557 11.5348 14.2795C11.5766 13.5379 10.8475 13.0586 10.7447 12.3892C10.7032 12.1345 11.4036 12.0172 11.349 11.7059C11.2918 11.3926 10.3481 11.4841 10.6398 10.9471C10.863 10.542 12.5434 9.60489 12.5969 9.10802C10.8352 9.73398 10.7715 9.44341 10.1257 9.13907C10.0008 9.08119 9.43189 9.41419 9.34159 9.39921C8.9615 9.34577 9.40031 8.98784 8.9949 8.95591C8.89742 8.94799 8.30355 9.18216 8.19059 9.18964C7.20937 9.26564 8.35414 8.27277 8.55108 8.09537C9.30256 7.42804 8.47615 7.6047 8.72278 7.22706C8.96866 6.84837 9.54689 7.01594 9.64015 6.65397C9.83132 5.90145 9.42193 5.21351 9.20398 4.63029C9.11331 4.39881 8.39663 4.88989 8.36546 4.86455C8.04098 4.55008 8.39099 3.94753 7.65653 3.93377C7.65471 3.93049 7.65153 3.91967 7.64996 3.91627C7.47545 3.89983 7.23681 3.91216 6.90907 3.96237C10.9658 2.24562 6.40209 3.80623 7.01786 2.80305C7.06861 2.72283 9.04509 2.08855 9.39388 2.19443C9.74158 2.29739 9.21624 2.78797 9.76247 2.92571C9.82575 2.94181 10.339 2.89387 10.8592 2.84653L10.7774 2.62854C11.3039 2.53688 11.8356 2.43991 11.9014 2.44243C12.9165 2.47989 10.0883 3.75276 9.94077 3.84135C8.35417 4.80778 10.4823 4.45384 10.6681 4.51954C11.5209 4.82391 11.3292 5.48236 11.9706 5.78384C12.3867 5.98283 14.2741 5.23056 14.3247 5.51387C14.4972 6.47065 11.9762 7.79569 14.5894 7.75007C15.1474 7.74607 17.1618 6.78566 15.7725 8.06759C15.6866 8.15194 14.3579 9.17729 15.4107 9.13569C15.5437 9.13104 16.1557 8.9206 16.224 8.95249C16.6693 9.17056 16.2534 9.55489 16.6045 9.84543C16.9553 10.1357 17.4454 10.4863 17.356 10.9802C17.3043 11.2802 16.2278 11.9232 15.9727 12.1162C15.2368 12.6636 16.6799 12.7011 15.7269 13.1506C14.7654 13.5884 13.1468 13.5554 12.6094 14.2127C14.2551 13.8685 15.9507 13.5445 17.6105 13.2205C17.7974 14.3109 17.601 15.445 17.6472 16.5328C17.6516 16.959 17.6723 18.1279 17.5236 18.5274C17.4608 18.7062 17.4104 18.8863 17.3778 19.0693C17.3556 19.2035 18.266 19.2878 18.265 19.4367C18.2564 20.0656 17.5033 20.427 17.5995 21.1123C17.6806 21.63 18.4817 22.3858 18.5964 22.9392C16.6527 22.7929 17.1107 23.6852 16.8139 24.1801C16.7103 24.355 16.2131 24.2247 16.0187 24.3198C15.2984 24.6775 17.008 24.8329 17.2366 25.0308C18.2125 25.8774 14.4502 25.0667 14.3839 25.7874C14.3784 25.8282 16.2773 26.7322 16.3889 26.8189C17.1142 27.3929 15.6777 26.728 15.4745 26.9434C15.1044 27.3329 14.5562 27.5458 15.0299 28.2008C15.1702 28.395 16.3433 29.0238 15.3129 29.1198C15.178 29.1324 14.5189 28.9719 14.4735 28.9954C13.7058 29.4352 15.7894 29.8816 16.4307 30.3479C17.0718 30.8143 15.531 31.0247 15.0949 31.0468C13.9664 31.1034 14.6754 30.7511 14.573 30.7152C13.3511 30.2944 13.4937 30.7075 13.3323 30.9709C11.2738 30.6133 11.3192 31.04 13.1734 31.246C13.3759 31.2682 13.2274 31.0102 13.3323 30.9709C15.2951 31.6135 15.4719 32.0827 13.4997 32.2124C12.5754 32.2746 11.5852 31.869 11.8352 32.6315C11.9482 32.977 13.3856 33.1106 13.7223 33.4545C14.4913 34.2359 13.0289 34.8235 13.128 35.5152C13.1643 35.7646 13.9792 35.6634 14.0309 35.8377C14.1705 36.3013 13.5254 36.5867 13.7542 37.0685C13.7759 37.1123 14.605 37.1476 14.5937 37.2838C14.5264 38.2836 13.9079 39.0787 13.7001 40.1064C13.6908 40.1549 13.6819 40.2037 13.6735 40.2528C13.5565 40.9566 13.7776 42.119 13.5582 42.6768C13.1803 43.6679 11.7347 44.5446 11.8297 45.4006C11.887 45.9623 12.7172 46.035 13.2111 46.385C14.1683 47.0634 12.0995 47.3444 11.7824 47.3764C11.7713 47.3794 11.6842 46.898 11.2176 47.0353C10.327 46.972 11.7798 47.3703 11.7824 47.3764C11.5772 47.395 11.1964 48.2184 11.3135 48.42C11.3768 48.5312 12.1505 48.6501 12.1692 48.7045C12.5975 49.9929 12.5643 51.1271 12.0044 52.1656C11.9853 52.1823 11.1312 51.9965 11.097 52.0383C10.5975 52.6199 11.5823 53.2165 12.1305 53.8239C12.6786 54.4342 12.4172 54.7851 10.8904 54.9024C11.0276 55.3139 10.3076 55.7911 9.87645 56.078C9.44488 56.3662 11.1361 56.5589 11.1671 56.5883C12.17 57.5173 11.1726 57.91 11.0038 58.7601C10.9197 59.1629 11.1779 59.9353 11.3876 60.3197C11.5541 60.6256 11.1707 60.8403 11.4506 61.1006C11.488 61.135 12.2382 61.0254 12.2683 61.034C13.1985 61.2339 11.3439 61.2854 11.0218 61.3849C9.85285 61.7467 9.23843 62.0168 9.86239 62.3492C10.0071 62.4378 12.6767 62.2352 12.8535 62.3223C13.0819 62.4543 12.1331 62.5851 12.4003 62.7232C12.4223 62.7346 12.9964 62.6031 12.9957 62.7137C12.9981 62.9391 12.9658 63.1783 12.9492 63.4077C12.9806 63.866 13.0388 64.3313 13.2235 64.755C13.2662 64.858 14.1 64.4126 14.1754 64.5538C14.5293 65.2183 14.8005 66.0213 14.6918 66.9284C14.6622 67.1525 14.0087 67.2809 13.8442 67.393C12.8522 68.0793 14.5812 67.7968 14.6356 67.8442C15.9716 68.9602 15.032 70.6756 16.3881 72.2405C16.4601 72.3071 18.4859 72.5478 17.1176 73.4339C17.0293 73.5008 15.6116 74.3415 16.7666 74.3786C16.8393 74.3836 17.5588 73.8914 17.6077 74.3661C17.6536 74.8303 18.3979 75.501 17.6481 76.4159C17.4138 76.7182 15.9281 77.4592 17.2777 78.0215C17.3742 77.9893 20.3685 79.1252 18.3671 79.7015C18.0339 79.7944 15.9496 79.6832 16.9881 80.6921C17.1848 80.9015 17.681 80.5604 17.935 81.121C18.0507 81.3852 18.0648 81.6754 18.0436 81.9805C18.0537 82.257 17.9359 82.5614 18.5506 82.9372C18.706 83.0351 20.0904 83.5112 18.9815 83.6406C18.8078 83.6611 18.1168 83.5045 18.023 83.6305C17.5729 84.2375 17.97 84.9758 17.4198 85.6092C17.2263 85.835 16.1043 85.605 15.7767 85.83C15.4491 86.0561 15.1101 86.5493 15.6049 86.8663C16.1001 87.1816 17.9333 87.0441 18.0436 87.4567C18.5237 89.2508 17.3319 90.9404 17.0439 92.7427C17.0011 93.0094 17.6651 92.8334 17.6484 93.2317C17.5908 94.6925 18.0085 97.3035 16.5289 98.4913C15.3447 99.4397 14.6099 98.0719 14.0986 98.824C13.8543 99.1862 15.9229 99.7723 15.9815 99.8704C16.5788 100.832 15.5933 101.381 15.8057 102.224C15.8498 102.398 16.7163 102.309 16.7444 102.457C16.8475 102.964 16.4193 103.446 16.4435 103.925C16.4564 104.139 17.1102 104.163 17.0411 104.353C16.9935 104.491 16.9315 104.623 16.8503 104.75C16.6633 105.034 16.3724 105.302 15.9161 105.568C15.8566 105.602 15.0751 105.252 15.0118 105.582C14.9111 106.119 14.2423 106.732 14.8011 107.409C14.9694 107.61 16.4537 107.768 15.3887 108.058C15.1663 108.119 13.3933 107.835 14.8888 108.445C15.1368 108.552 17.1406 109.514 15.7637 109.762C15.4014 109.826 13.9174 109.934 14.1257 110.175C14.1594 110.208 14.9689 110.166 15.0294 110.355C15.2286 111.017 15.0812 111.672 15.2721 112.344C15.3246 112.525 16.1745 112.34 16.2264 112.607C16.3714 113.329 16.0839 114.195 15.7679 114.864C15.6499 115.109 14.9795 114.878 14.9034 114.89C13.6664 115.088 15.2885 115.401 15.3759 115.508C15.8981 116.163 15.0922 116.58 15.2538 117.155C15.2962 117.316 16.0853 117.263 16.1526 117.299C16.8089 117.672 15.4245 117.328 15.2548 117.522C14.7753 118.06 14.7927 118.712 14.8547 119.289C14.8785 119.504 15.8001 119.325 15.811 119.517C15.8931 120.653 15.7378 121.814 15.1809 122.885C15.0744 123.087 14.3831 122.921 14.2214 122.956C13.0902 123.198 14.5903 123.716 14.7307 123.82C15.3709 124.305 14.7452 124.456 14.8425 124.866C15.3284 126.855 14.8445 129.267 14.5574 131.129C14.1869 133.556 13.5115 135.442 13.6957 137.771C13.7066 137.918 14.6357 137.764 14.6571 137.891C14.8633 139.345 14.6248 140.755 14.774 142.209C14.7944 142.41 14.8218 142.608 14.8586 142.805C14.8821 142.94 15.7589 142.725 15.8263 142.94C15.9707 143.375 15.9374 143.937 15.6692 144.39C15.54 144.61 14.7753 144.343 14.6608 144.564C14.3921 145.069 14.3483 145.638 14.5089 146.142C14.5792 146.356 15.4677 145.995 15.4889 146.276C15.6547 148.222 15.9114 150.056 14.914 152C14.8455 152.132 13.0313 152.419 13.4079 152.661C13.916 152.633 14.5113 152.573 15.0532 152.529C15.6028 155.14 15.3572 157.624 15.9029 159.93C15.9259 160.026 16.8146 159.601 16.8629 159.781C17.1487 160.829 17.7255 161.679 17.2601 163.094C17.2161 163.234 15.6122 163.829 15.9882 164.057C16.0552 164.097 16.4749 164.492 16.8704 164.466C16.9289 164.459 17.618 164.048 17.7075 164.191C18.2131 165.019 18.5102 166.022 18.574 167.167C18.5838 167.354 17.7506 167.598 17.7521 167.736C17.7664 168.711 18.8092 169.234 18.5811 170.359C18.4355 171.129 17.0624 171.691 15.9894 172.71C15.8377 172.853 16.0048 173.191 15.2982 173.646C13.5211 174.791 11.4455 175.833 9.56237 177.072C9.15615 177.339 9.88839 177.533 8.71866 177.869C8.63964 177.89 8.10004 177.753 7.70911 177.875C7.43833 177.959 6.77143 178.508 6.39723 178.569C6.02275 178.63 6.55779 178.13 6.08272 178.141C5.60076 178.15 4.81839 178.739 4.47414 178.382ZM7.97022 57.4184C7.13789 57.6887 10.1235 57.8731 9.42556 57.5197C9.38833 57.5024 8.01111 57.4047 7.97022 57.4184ZM15.244 16.2087C14.4808 16.6209 14.9311 16.7982 15.6188 16.7804C15.6216 17.0477 15.6346 17.7807 15.5413 18.0312C15.7452 18.1005 15.9778 18.1599 16.2106 18.1987C16.3226 17.8979 16.3071 17.0178 16.3037 16.6968C16.5311 16.6478 16.7512 16.5771 16.9347 16.4834C17.897 15.9801 15.6176 15.9976 15.244 16.2087ZM13.2203 11.5022C12.3761 12.3161 16.4837 11.2547 15.48 10.8784C15.4228 10.8561 13.2688 11.4536 13.2203 11.5022ZM14.88 171.645C14.8491 171.671 14.9483 171.918 14.9859 171.904C15.8761 171.545 15.6779 171.053 14.88 171.645ZM10.6145 7.37396C10.1468 7.7439 10.9387 7.93546 11.5229 7.47721C11.9919 7.10515 11.1952 6.90976 10.6145 7.37396ZM8.86993 74.211C8.83039 74.2321 8.86323 74.4328 9.09762 74.3406C9.85296 74.0433 9.53804 73.8585 8.86993 74.211ZM8.05435 0.249949C8.09563 1.32155 4.88677 2.92166 4.96674 1.48121C4.98653 1.23039 6.1686 1.75776 6.41277 1.39122C6.864 0.752527 4.63401 0.793578 5.69979 0.0315404C5.89634 -0.0946279 8.05941 0.194528 8.05951 0.250998C8.05779 0.250649 8.05607 0.250298 8.05435 0.249949ZM4.37283 57.4133C4.33274 57.4181 4.28237 57.6905 4.32151 57.6987C5.26342 57.8843 5.3645 57.3506 4.37283 57.4133ZM7.75193 85.5819C7.66644 85.5885 7.53132 86.221 7.60703 86.2497C9.12469 86.7149 9.40137 85.447 7.75193 85.5819ZM5.5577 38.916C5.47269 38.8778 5.39497 38.8411 5.32492 38.8059C4.65951 38.4137 4.71702 38.1097 5.82449 38.0603C5.72563 38.3201 5.67175 38.5806 5.58452 38.8462C5.57606 38.8693 5.56715 38.8925 5.5577 38.916Z" fill="#4CC72E"/>
</svg>
