<svg width="71" height="98" viewBox="0 0 71 98" fill="none" xmlns="http://www.w3.org/2000/svg">
<path d="M70.7879 17.7647C71.1058 18.9289 70.9085 20.481 70.5897 21.6886C70.4908 22.0628 69.9515 21.904 69.8597 22.1684C69.6813 22.6929 69.9647 23.1252 69.7468 23.6464C69.6716 23.8111 68.8224 23.6564 68.7627 23.8285C68.4426 24.7876 68.7052 25.6855 68.578 26.6374C67.9547 31.417 67.8912 36.0505 67.7668 40.8544C67.7262 42.4322 67.0686 44.3959 67.4881 45.9978C67.5379 46.187 68.2678 46.0336 68.3304 46.0667C69.2896 46.5896 67.7937 46.4791 67.6159 46.8563C66.9148 48.3608 66.9343 50.0028 67.2933 51.3991C67.4481 51.9914 68.878 51.3125 68.0896 51.9608C68.0364 52.0058 67.2467 51.8946 67.1721 52.064C67.0044 52.4469 67.1823 53.16 67.1353 53.4457C67.0414 54.0072 67.0542 54.0992 67.0733 54.6296C67.0931 55.3647 66.7489 56.2258 66.9672 56.9979C67.016 57.162 67.8056 56.8996 67.9559 57.1578C68.1062 57.4201 68.0747 58.1157 67.8981 58.3605C67.7215 58.6052 67.0865 58.5384 66.9444 58.5875C65.744 58.9926 67.4739 59.7162 67.5211 59.8195C67.5465 59.8781 67.5702 59.9366 67.5924 59.995C68.2787 61.8107 67.4502 63.4537 67.5199 65.1921C67.5768 66.5634 67.9405 68.0216 67.9277 69.3268C67.9095 70.8944 67.4938 72.2133 67.5799 73.723C67.588 73.8804 68.53 73.6893 68.5417 73.8812C68.6672 75.9565 68.5519 77.9632 67.9576 79.9123C67.8973 80.109 67.0636 79.8754 66.9539 80.0744C66.7878 80.3851 66.5623 80.7424 66.3805 81.1175C65.8656 82.5279 65.4607 83.7419 67.9106 85.0825C67.5283 86.2154 66.8892 87.5443 65.8035 88.113C65.1065 88.4709 64.5721 87.5311 64.5781 88.3526C64.5749 88.5383 65.3744 88.7233 65.3108 88.9821C65.027 90.0931 64.1401 90.9117 63.7755 91.979C63.7031 92.197 64.2775 92.6133 64.3334 92.7444C64.7533 93.849 62.8765 93.341 62.6755 93.3612C61.6358 93.5717 61.0782 93.9664 60.5558 94.4266C60.1534 94.774 59.7367 95.1213 59.235 95.4061C58.9137 95.5842 59.7727 96.1899 59.4594 96.399C57.7844 97.4867 55.8028 97.8621 54.1944 97.5921C53.8305 97.5299 54.0802 96.693 53.9087 96.6208C53.1969 96.3 53.1198 97.8325 52.4138 97.5077C52.2693 97.4396 52.3545 96.7462 52.3288 96.67C51.9661 95.4727 51.6089 97.1516 51.4936 97.1838C50.155 97.6229 49.5958 95.7612 48.4862 95.8238C48.3465 95.8308 48.4979 96.7502 48.108 96.7153C45.509 96.4784 43.0668 95.4449 41.1065 93.9532C40.8018 93.7219 41.2819 93.1992 41.2887 93.1149C41.3985 91.798 40.5622 93.2966 40.4242 93.3111C39.3801 93.3949 39.1364 91.7419 37.7515 93.3482C34.4045 91.1187 30.4077 90.2915 27.9679 86.7909C27.9362 86.7483 28.4305 86.0662 28.3659 85.9846C27.6 84.9962 27.138 86.2327 25.6527 87.2048C25.2759 87.4465 25.7579 85.494 25.7844 85.3452C25.8871 84.8008 26.7009 83.8358 26.6976 83.7164C26.656 82.7688 24.5934 86.3396 23.98 85.9667C23.9646 85.9492 24.4403 85.3507 24.4288 85.2553C24.3962 84.9576 24.0788 85.1165 24.0585 84.7972C24.0167 84.0609 24.9506 82.2837 23.8051 82.942C23.6562 83.027 22.5173 85.0739 22.0289 84.6352C21.838 84.4613 20.8604 83.8848 20.6774 83.585C20.4961 83.2876 21.0864 82.7719 21.0851 82.7322C20.9282 81.443 21.4089 81.2622 21.8657 79.7988C22.3228 78.3413 20.4968 81.3353 20.1388 81.5681C19.7899 81.8059 19.7081 80.7657 19.7453 80.4467C19.7785 80.1252 20.2001 79.8308 20.1789 79.6222C20.0451 78.2612 18.888 80.8519 18.3315 81.1485C17.01 81.847 18.0074 79.3812 17.6462 78.8236C17.6219 78.7859 17.5896 78.7933 17.5523 78.8248C17.435 78.9144 17.2881 79.2298 17.1529 79.1855C16.4286 78.9204 16.6539 78.0576 15.5655 78.0076C15.4059 78.0243 13.7166 78.4821 14.3426 77.401C14.4385 77.2531 15.0523 76.9936 14.9937 76.6716C14.9028 76.1888 14.6292 75.4831 14.2295 75.1828C13.9304 74.9567 13.1641 75.8006 13.2567 75.251C13.3031 75.0102 14.0181 75.0501 14.0669 74.6349C14.1142 74.227 13.7622 73.449 13.6344 73.149C13.5027 72.8515 12.8013 73.2909 12.7411 73.2853C12.3899 73.2392 11.812 72.7408 11.798 72.6885C11.4478 71.7203 11.3516 70.7241 11.2986 70.0955C10.5545 67.2682 12.176 65.3621 12.9072 63.753C13.0107 63.5446 12.2249 63.179 12.2334 63.1421C12.4301 62.2605 13.8866 64.1135 14.7914 64.176C13.3756 63.1763 13.8082 63.1199 14.0008 62.5953C14.0936 62.3418 13.4941 62.0119 13.4566 61.9498C12.9377 60.9881 14.1142 61.6503 14.3525 61.7879C15.2467 62.2752 14.5696 61.2855 15.1641 61.6204C15.7507 61.9568 16.2094 62.8875 16.5201 62.5437C16.1668 62.0163 14.7451 61.1562 14.8171 60.7029C15.1097 58.9579 17.8616 58.1497 18.713 57.5255C19.5749 56.8923 19.7329 56.5773 20.3214 56.3092C21.3768 55.8186 20.2393 55.2586 20.2729 54.4201C20.2816 53.594 22.2846 55.7865 22.8225 56.1404C23.3654 56.4866 22.9468 55.9717 23.2916 56.107C23.6414 56.2361 23.7831 56.7353 24.086 56.5831C24.3099 56.4712 24.193 55.6824 23.8928 55.1083C23.7915 54.8952 23.6552 54.7209 23.5205 54.6061C22.4061 53.72 21.0224 53.1862 21.5963 53.1828C21.6343 53.1715 22.3203 53.5492 22.4326 53.4821C23.3434 52.8049 23.5486 51.3582 24.1244 50.0994C24.2051 49.925 25.064 50.1167 25.1207 50.0126C25.7043 48.886 24.232 49.2646 22.6137 48.6746C24.77 48.8025 26.0963 48.4634 26.0863 47.5835C26.0791 47.0597 25.1391 47.1739 24.4629 46.8792C24.2592 46.7922 24.8884 46.3999 24.4422 46.3547C22.9835 46.2118 21.3856 46.637 21.9802 45.7624C22.0085 45.723 22.8073 45.793 22.8471 45.66C23.1054 44.8063 21.5865 44.8123 21.3284 43.9451C21.1264 43.269 21.9171 41.9195 21.9717 41.099C24.384 40.841 23.7395 40.1186 22.0415 40.0216C22.0435 39.4833 21.8771 38.9399 22.0361 38.3949C22.0901 38.2074 22.8017 38.2284 22.8738 38.1958C24.0067 37.6952 22.3629 37.6905 22.2838 37.5865C21.496 36.4457 22.562 35.2579 21.1837 34.2732C21.134 34.2382 19.4604 34.4414 20.6239 33.9319C20.7042 33.8975 21.5243 34.1636 21.4924 33.6C21.4616 33.0408 22.1757 31.8423 21.2729 31.2139C21.0553 31.0598 19.6258 30.8278 20.6114 30.2696C20.7453 30.1942 21.2307 30.1637 21.4825 30.0441C22.2837 29.6584 20.5849 29.8334 21.9581 29.2979C23.3306 28.7596 24.2924 27.9944 23.1634 27.3905C23.1302 27.3712 21.7697 27.4391 21.7447 27.193C21.7174 26.9153 21.7941 26.5315 21.8101 26.1844L21.8135 26.1939C21.7766 26.0519 21.7321 25.9203 21.6719 25.8126C21.5735 25.638 20.8942 26.1454 20.8643 26.1219C19.8265 25.1751 20.0387 23.9953 19.6318 22.5852C19.555 22.3192 18.207 22.2452 18.7393 21.3484C19.3273 20.3774 23.1968 18.8577 21.7029 18.2131C21.0887 17.9286 16.2631 20.0066 18.1209 17.8301C16.6335 16.6255 16.9346 14.4657 15.1335 13.4638C15.0517 13.4163 13.7035 14.0182 13.6111 13.8439C13.4807 13.5903 13.9597 13.0829 13.8847 12.8927C13.5783 12.0772 12.6546 11.7796 12.2523 11.0857C12.0932 10.8175 12.7211 10.4805 12.53 10.1634C12.338 9.84866 11.4499 10.2152 11.4959 9.55765C11.5223 9.04721 12.7411 7.54566 12.5447 6.98228C11.1218 8.19591 10.9153 7.89319 10.1414 7.78596C9.99152 7.7659 9.60267 8.30257 9.50716 8.31591C9.11086 8.38338 9.35931 7.86422 8.95659 7.97607C8.85979 8.00291 8.40417 8.45008 8.29995 8.49809C7.40658 8.93041 8.01167 7.53305 8.0962 7.27449C8.44689 6.31368 7.76467 6.82434 7.78005 6.35377C7.78286 5.87577 8.42943 5.79575 8.29038 5.39371C7.99029 4.55078 7.08395 4.06307 6.40318 3.66562C6.12834 3.50889 5.91849 4.36363 5.86958 4.3585C5.24829 4.26938 5.00868 3.18028 4.06585 4.63146C4.69546 2.50875 4.5363 2.57378 4.20236 3.03764C4.16421 3.01911 4.04819 3.00576 4.00598 3.00161C3.82735 3.54962 3.70721 4.51777 3.27422 4.12542C3.21359 4.06141 2.83289 2.01421 3.13251 1.67557C3.3407 1.4451 3.68316 1.66071 4.0116 1.6814C4.15221 1.69521 4.53869 1.73968 4.66577 1.80142C4.78262 1.85435 4.91757 1.8655 5.09279 1.77387C5.20958 1.6976 6.50993 0.133692 6.65101 0.0698869C7.67841 -0.477334 6.40333 2.36362 6.34924 2.52455C5.83252 4.31541 7.37777 2.78182 7.64434 2.77594C8.73928 2.66195 9.10052 3.46258 9.95026 3.53875C10.5136 3.60284 11.859 2.08222 12.1362 2.40664C13.0368 3.49687 11.2396 5.72442 13.8172 4.89022C14.3641 4.71577 15.8823 3.07256 15.1581 4.89826C15.12 5.02098 14.312 6.53598 15.3218 6.17833C15.4502 6.13426 15.9512 5.72475 16.0335 5.73981C16.576 5.85148 16.3321 6.37421 16.8083 6.58687C17.2667 6.77686 17.9021 7.01142 18.0097 7.53326C18.0803 7.85298 17.3317 8.88042 17.1635 9.15418C16.6881 9.95447 18.081 9.51821 17.3663 10.2977C16.6433 11.0746 15.0914 11.5867 14.8763 12.4607C16.282 11.5381 17.7424 10.6173 19.1667 9.70549C19.9111 10.9178 20.1936 12.3782 20.9716 13.5074C21.072 13.6508 21.7499 13.0265 21.8782 13.1696C22.3968 13.7448 22.2037 14.6778 22.8213 15.2225C23.3154 15.6649 24.4717 15.7522 25.0089 16.2064C23.5418 17.5157 24.5628 17.9933 24.7532 18.6967C24.8152 18.9328 24.3586 19.169 24.294 19.3979C24.0619 20.258 25.4043 19.1734 25.7243 19.1992C27.0992 19.3285 23.7504 21.224 24.2558 21.9544C24.2807 21.992 26.362 21.5284 26.5141 21.5416C27.4839 21.5856 25.9248 21.953 25.9385 22.2982C25.9615 22.882 25.7547 23.4237 26.3972 23.7608C26.5197 24.0553 26.8748 24.884 26.9056 25.2015C26.9478 25.2428 26.9958 25.2844 27.0503 25.3264C27.2624 25.4866 28.6075 25.7139 27.7063 26.2711C27.5883 26.3442 26.917 26.4428 26.8854 26.4895C26.3696 27.3274 28.4676 26.9601 29.2534 27.2417C30.0386 27.5209 28.7092 28.4322 28.3148 28.635C27.2967 29.1683 27.8069 28.4581 27.6975 28.4581C26.3983 28.4699 26.6999 28.8969 26.656 29.2674C24.6091 29.6864 24.8186 30.1496 26.6186 29.6492C26.8151 29.5937 26.5748 29.3549 26.656 29.2674C28.7277 29.2105 29.0865 29.7304 27.3025 30.655C26.4662 31.0887 25.3892 30.9946 25.9121 31.7886C26.1477 32.1469 27.541 31.7596 27.9849 32.0376C28.9993 32.6834 27.8396 33.9262 28.1718 34.7035C28.2924 34.9852 29.0271 34.5801 29.1365 34.7703C29.4312 35.2892 28.9149 35.8369 29.2933 36.3462C29.3286 36.3919 30.1271 36.1538 30.1618 36.3235C30.4389 37.5974 30.0655 38.8037 30.2092 40.169C30.2787 40.8169 30.8579 41.9754 30.8295 42.6787C30.7909 43.9111 29.7007 45.4881 30.0353 46.5304C30.2497 47.203 31.0666 47.0391 31.6379 47.3261C32.747 47.8879 30.8019 49.0158 30.496 49.1479C30.4869 49.1526 30.293 48.5177 29.8698 48.8558C28.9879 49.0469 30.4921 49.1393 30.496 49.1479C30.3049 49.2387 30.0877 50.4916 30.2234 50.783C30.3016 50.9305 31.0857 50.8941 31.1115 50.9719C31.5348 52.9429 32.2208 54.6567 29.4537 58.7562C29.3886 58.8227 28.7446 58.2195 28.6078 58.369C28.5582 58.4218 28.5087 58.4745 28.4593 58.5271C27.5129 59.2665 27.8549 60.4207 27.7087 61.4924C27.5638 62.5768 26.9327 62.9016 25.5506 62.1582C25.2567 62.7127 24.2083 62.7946 23.6051 62.8099C23.0005 62.8267 24.1209 64.1067 24.1147 64.1587C23.9621 65.7779 22.8092 65.5169 21.9039 66.1893C21.4688 66.5067 20.9641 67.38 20.8176 67.8328C20.6984 68.1939 20.2667 68.0909 20.3062 68.4546C20.3125 68.5022 20.9328 68.9376 20.9497 68.9634C21.5324 69.6942 20.1178 68.4974 19.8177 68.3468C18.7373 67.7889 18.0762 67.6179 18.437 68.1296C18.5007 68.2804 20.872 69.515 21.0882 69.4033C21.3353 69.3049 20.4076 69.0751 20.6902 68.9297C20.7139 68.9103 21.2827 69.0834 21.3044 68.861C21.3899 68.2505 21.192 66.9707 20.7105 66.1562C21.0506 67.1439 21.1703 67.7198 21.3451 68.2017C21.4018 68.3691 22.2326 67.8866 22.3266 68.1159C22.7547 69.1741 22.9141 69.7606 22.6797 70.3088C22.6186 70.4438 21.9969 70.6563 21.829 70.7568C20.831 71.4051 22.4531 70.8214 22.4815 70.8033C22.8941 70.8375 22.8668 70.9087 22.792 71.0482C22.7125 71.1788 22.5977 71.3722 22.687 71.3706C22.9127 71.5018 23.1761 71.6104 23.4918 71.6831C23.6135 71.7141 25.2407 70.6046 24.6666 72.1103C24.628 72.2102 24.0076 73.7292 24.8691 72.9824C24.9228 72.9355 25.2041 72.1292 25.466 72.4043C25.7436 72.6896 26.5094 72.5325 26.4519 73.5795C26.4337 73.9093 25.8701 75.4551 26.9712 74.6433C27.052 74.5896 29.2183 72.545 28.3695 74.3665C28.2302 74.6665 27.0623 76.4251 28.1303 75.8189C28.335 75.6998 28.4178 75.1963 28.8166 75.0995C29.419 74.9425 29.6247 75.7351 30.5702 75.2117C30.7368 75.1187 31.8143 74.0989 31.5237 75.193C31.4785 75.3645 31.0325 75.918 31.137 76.0732C31.627 76.8104 32.5931 76.8346 33.0427 77.6578C33.2057 77.9498 32.5085 78.8622 32.6195 79.2781C32.7333 79.6956 33.1164 80.2507 33.6482 79.9522C34.178 79.6523 34.766 77.9022 35.2431 78.0021C37.3014 78.4256 38.5417 80.2764 40.2508 81.2683C40.5026 81.4143 40.5648 80.7251 40.954 80.8957C42.402 81.538 45.0018 81.9721 45.7084 83.6793C46.3132 85.0676 44.7917 85.4211 45.4068 86.115C45.7174 86.4507 46.7671 84.5743 46.8703 84.5376C47.8941 84.1583 48.191 85.2138 48.9664 85.1122C49.127 85.0903 49.1882 84.225 49.3183 84.2142C49.7604 84.1684 50.0742 84.6247 50.4559 84.6223C50.6223 84.6179 50.7029 83.969 50.8316 84.0414C51.1338 84.2048 51.3789 84.5133 51.6154 85.1496C51.6406 85.2079 51.3704 85.9993 51.6085 86.0509C51.9913 86.1322 52.4661 86.7482 52.7868 86.1061C52.8808 85.9125 52.7625 84.4264 53.0113 85.4375C53.0564 85.6486 53.2562 87.4325 53.2357 85.8713C53.2309 85.7421 53.2159 85.15 53.1704 84.7645C53.1334 84.3771 53.0563 84.2046 53.2571 84.8476C53.3498 85.1903 53.8733 86.562 53.8332 86.3298C53.8196 86.2957 53.5189 85.5524 53.4886 85.4803C53.3887 85.2746 53.2913 85.359 53.083 85.3347C53.1192 85.2756 53.1564 85.2097 53.1815 85.1459C53.2338 85.0114 52.5578 84.4976 52.6433 84.3246C52.8647 83.859 53.3311 83.6857 53.7511 83.5865C53.9063 83.5518 54.3826 84.0541 54.4451 84.096C55.5023 84.7253 54.2748 83.6253 54.2187 83.5404C53.9204 82.9803 54.6577 83.2515 54.5883 82.9518C54.5669 82.876 53.854 82.5496 53.7971 82.5077C53.2274 82.1237 54.452 82.8177 54.6218 82.8239C55.1057 82.8341 55.1338 82.5803 55.0802 82.3885C55.0592 82.3192 54.165 82.1509 54.1523 82.1056C54.0757 81.9107 54.1154 81.793 54.3476 81.5386C54.4092 81.1689 54.4943 80.8067 54.6048 80.4525C54.694 80.1718 55.397 80.331 55.5553 80.2695C56.6627 79.8511 55.1304 79.3095 54.9836 79.178C54.313 78.5891 54.9295 78.3522 54.8105 77.8393C54.2245 75.324 54.6294 72.4855 54.8301 70.2581C55.0924 67.3735 55.6698 65.0966 55.365 62.3197C55.3464 62.1436 54.4261 62.3667 54.3981 62.2153C54.315 61.6977 54.2718 61.2141 54.2441 60.6939C54.1646 59.2022 54.2354 57.7253 53.9582 56.2501C53.9292 56.0876 53.0612 56.3697 52.9851 56.1107C52.8223 55.5694 52.8335 54.8751 53.0858 54.3147C53.2071 54.0413 53.9814 54.3583 54.0881 54.0841C54.3385 53.448 54.3646 52.7557 54.1896 52.1242C54.1131 51.8546 53.2346 52.314 53.2054 51.9601C52.9866 49.5294 52.704 47.1507 53.7381 44.6319C53.809 44.4582 55.6309 44.2111 55.2608 43.8729C54.7515 43.8734 54.1542 43.9069 53.6108 43.9244C53.1288 40.4107 53.5735 36.8725 53.4783 33.3032C53.4742 33.1539 52.5186 33.4639 52.5056 33.1755C52.4288 31.4929 52.0721 29.8841 52.9429 28.1167C53.0278 27.9384 54.7381 27.9316 54.4529 27.4417C54.4009 27.354 54.1332 26.6224 53.7519 26.4369C53.6946 26.4132 52.906 26.5951 52.8695 26.3508C52.6723 24.9417 52.7743 23.4481 53.1857 22.0008C53.2535 21.7651 54.1143 21.9664 54.17 21.7988C54.5592 20.6191 53.8488 19.3905 54.5651 18.2383C55.0477 17.4563 56.5264 17.6537 57.9524 17.2014C58.1533 17.1388 58.1667 16.6653 59.006 16.5955C61.1164 16.4645 63.4372 16.6101 65.6854 16.4363C65.9273 16.4126 65.9135 16.2852 65.989 16.2256C66.0269 16.2 66.087 16.2261 66.2104 16.2322C66.334 16.2435 66.5208 16.1887 66.8143 16.2122C66.8914 16.1925 67.2927 16.5359 67.6953 16.633C67.9732 16.6962 68.8216 16.5253 69.1798 16.6641C69.5363 16.7686 68.829 16.9916 69.2529 17.2024C69.6823 17.4177 70.65 17.2981 70.7879 17.7647ZM20.9312 62.8541C20.0811 62.5337 22.097 64.7439 21.913 63.9333C21.9018 63.8915 20.9736 62.8692 20.9312 62.8541ZM18.2644 13.5634C17.4415 14.7332 19.2757 14.013 19.9407 13.152C20.6045 12.2919 18.5092 13.2017 18.2644 13.5634ZM14.2536 9.37715C13.8051 10.5175 17.294 8.10353 16.1656 8.02034C16.1006 8.01428 14.2789 9.31014 14.2536 9.37715ZM58.4507 19.0134C58.4899 19.0018 58.513 18.6904 58.4729 18.6759C57.5156 18.5512 57.4712 19.2 58.4507 19.0134ZM9.66853 5.75414C9.43205 6.31229 10.3042 6.23468 10.6191 5.54703C10.8686 4.98674 9.95179 5.04592 9.66853 5.75414ZM18.4604 77.6117C18.4397 77.6515 18.6051 77.8139 18.7443 77.6038C19.1895 76.9253 18.8015 76.9364 18.4604 77.6117ZM0.363769 3.04073C1.71314 2.94194 3.23266 6.20227 1.68941 6.11186C1.40719 6.09571 2.04613 4.90018 1.64333 4.65925C0.91847 4.21863 0.896928 6.46455 0.0302613 5.41624C-0.113093 5.22295 0.295368 3.03841 0.365228 3.03549C0.364742 3.03724 0.364255 3.03898 0.363769 3.04073ZM18.2967 60.4008C18.2635 60.3776 18.0008 60.575 18.0224 60.6088C18.5497 61.4174 19.0749 61.024 18.2967 60.4008ZM29.1437 86.5219C29.1168 86.6041 29.744 87.0488 29.8046 86.9931C30.9069 85.8323 29.6578 84.9392 29.1437 86.5219ZM22.0345 41.0788C21.0453 40.8396 20.8844 40.4469 22.0405 40.0234C22.0199 40.374 22.0526 40.7237 22.0345 41.0788Z" fill="#4CC72E"/>
</svg>
