<svg width="46" height="76" viewBox="0 0 46 76" fill="none" xmlns="http://www.w3.org/2000/svg">
<path d="M0.435569 0.337049C1.17941 -0.120728 2.24847 -0.0557356 3.01485 0.197788C3.25887 0.275031 3.23738 0.817081 3.40749 0.894881C3.74127 1.04665 3.96877 0.746659 4.28922 0.946054C4.3955 1.01482 4.4058 1.86252 4.51294 1.91589C5.10236 2.20237 5.55324 1.92629 6.10315 2.03983C8.75785 2.61202 11.138 2.80108 13.5881 3.14136C14.3953 3.25337 15.3612 4.01425 16.1852 3.69304C16.2818 3.65476 16.2352 2.91702 16.2544 2.85655C16.5589 1.93121 16.439 3.41741 16.6221 3.61842C17.3499 4.41258 18.1557 4.50664 18.8833 4.25535C19.1917 4.14643 18.957 2.66978 19.2245 3.5053C19.2429 3.56179 19.1278 4.3397 19.2064 4.42716C19.3824 4.62365 19.75 4.50354 19.8919 4.57411C20.1654 4.71392 20.2118 4.70895 20.4751 4.73498C20.8387 4.77782 21.2429 5.19741 21.6412 5.05213C21.7275 5.01889 21.6818 4.21011 21.8285 4.08524C21.9759 3.96047 22.3286 4.05968 22.4305 4.25921C22.5328 4.45867 22.4233 5.08185 22.4309 5.22772C22.4849 6.45762 23.0532 4.81619 23.1148 4.78079C24.1533 4.17249 24.8831 5.23334 25.7909 5.36792C26.4863 5.46894 27.3032 5.28947 27.9722 5.47244C28.8005 5.70173 29.3716 6.28429 30.2432 6.46846C30.3342 6.48897 30.5042 5.55443 30.6197 5.57908C31.7014 5.83803 32.8219 6.23091 34.1244 7.66581C34.5941 8.09343 34.9913 8.62838 35.2359 9.13219C35.3985 9.48561 34.4529 9.56309 34.5409 9.90369C34.7852 10.9522 34.3188 11.7215 34.3724 12.0346C34.4082 12.3557 34.9629 12.3687 36.5223 11.444C36.3838 11.3216 36.1397 11.0812 35.8206 10.9954C35.7544 11.1345 35.6539 11.3321 35.4891 11.6387C35.2721 12.0658 34.6174 12.6979 34.9888 12.5002C35.0705 12.4546 35.5147 11.7998 35.593 11.7726C35.9081 11.6486 35.9735 11.9918 36.3892 11.7503C36.4731 11.6987 36.7893 11.0649 36.8595 10.9578C37.4096 10.0813 36.8309 11.6961 36.8397 11.8365C36.8171 12.844 37.3006 12.6471 37.7438 12.8494C37.8492 12.8978 38.0761 11.9641 38.191 11.9792C38.7813 12.0711 39.4599 12.4252 40.0338 13.2019C40.158 13.3767 39.6227 14.0095 39.6586 14.1278C39.7993 14.6332 40.6585 13.3607 40.8655 13.8895C40.9072 13.9989 40.475 14.5441 40.4465 14.6167C39.9606 15.7301 41.1219 14.4875 41.2186 14.5153C41.7242 14.6001 41.8574 15.1047 41.8712 15.6085C41.7904 16.0524 41.6353 16.5123 41.9261 16.6616C41.9956 16.6968 42.5728 16.0153 42.7302 16.1532C43.8039 17.0842 44.485 18.7129 44.2805 20.3314C44.25 20.5803 43.5725 20.6328 43.5006 20.6738C42.3574 21.2604 44.0161 20.8763 44.1007 20.9376C44.7118 21.4056 43.3976 22.1347 45.4568 22.239C45.1314 24.8248 45.6197 27.4645 43.2436 28.7784C43.2156 28.7948 42.4394 28.4762 42.3873 28.5091C41.75 28.8936 43.0131 29.2255 44.3561 30.1745C44.6912 30.4181 42.7906 29.9963 42.6515 29.9642C42.1343 29.8588 41.0125 29.3069 40.9076 29.2984C40.0827 29.2331 43.9202 30.7402 43.7845 31.0743C43.774 31.0818 43.0901 30.7499 43.0091 30.7485C42.7554 30.7424 42.9994 30.941 42.7244 30.9221C42.0888 30.8759 40.2155 30.1635 41.1731 30.8925C41.2978 30.9862 43.4741 31.8436 43.2552 32.0774C43.165 32.1721 43.0013 32.6623 42.8077 32.7337C42.6136 32.8058 41.9553 32.4266 41.9214 32.4232C40.8539 32.3959 40.5285 32.1029 39.0872 31.7298C37.6487 31.366 40.9194 32.6282 41.2538 32.845C41.5874 33.0603 40.7225 33.013 40.4306 32.9765C40.139 32.9382 39.7233 32.6852 39.5498 32.6856C38.4121 32.7043 41.1142 33.4673 41.591 33.7803C42.7309 34.4969 40.2113 33.8289 39.8776 34.0376C39.7894 34.0887 40.3725 34.2078 40.4063 34.2856C40.537 34.5808 39.7095 34.5249 40.3648 34.976C40.4682 35.0633 41.9556 35.5685 40.8093 35.4635C40.6432 35.4525 40.0168 35.2762 39.8555 35.3522C39.6131 35.4636 39.4331 35.7367 39.637 35.917C39.788 36.0443 40.8613 35.9983 40.5223 36.0996C40.3714 36.1497 39.7539 35.9986 39.5219 36.1106C39.3774 36.1823 39.3312 36.3413 39.329 36.4765C39.328 36.5784 39.339 36.6711 39.3482 36.7287C39.3729 36.8811 40.181 36.7854 40.2357 36.7966C40.5499 36.8677 40.942 37.1789 40.9406 37.2064C41.0348 38.6217 39.5745 39.7381 39.8768 41.0353C39.899 41.1386 40.7546 41.174 40.7668 41.1908C41.0798 41.5798 38.8596 41.0348 38.077 41.1703C39.8001 41.3539 39.472 41.452 39.6288 41.7135C39.7056 41.84 40.3788 41.8675 40.4455 41.887C41.4319 42.1973 40.1109 42.1391 39.8402 42.1301C38.844 42.1024 39.985 42.3891 39.3187 42.37C38.6576 42.3493 37.7189 42.0382 37.6989 42.2592C38.3031 42.4131 39.9313 42.4831 40.1653 42.6945C41.0516 43.503 39.5915 44.5083 39.37 44.9891C39.1492 45.4742 39.231 45.6599 38.9564 45.9135C38.4593 46.3724 39.6777 46.3968 40.1571 46.8285C40.6359 47.2615 37.7581 46.5547 37.124 46.485C36.4904 46.4142 37.1241 46.5857 36.7697 46.5791C36.4155 46.5723 36.0139 46.3675 35.8595 46.4789C35.7054 46.5891 36.7472 47.1687 37.3916 47.3402C38.7571 47.7025 40.2416 47.8102 39.6637 48.0715C39.6295 48.0863 38.8775 47.8758 38.7854 47.9399C38.0789 48.4553 37.9213 49.0963 37.2871 49.626C37.1987 49.699 36.3609 49.4679 36.2998 49.5089C35.6607 49.9351 37.1307 50.0064 38.677 50.5712C36.5638 50.1323 35.2352 50.0631 35.1534 50.4629C35.1037 50.7033 36.0397 50.8203 36.6684 51.0853C36.858 51.1646 36.1916 51.2272 36.6237 51.3303C38.0363 51.6671 39.6614 51.775 38.9593 52.0687C38.9262 52.0814 38.1526 51.8985 38.0953 51.9518C37.7214 52.2983 39.2106 52.5802 39.3287 53.0246C39.4216 53.371 38.4242 53.8228 38.2264 54.1811C35.8226 53.856 36.3251 54.3035 37.9681 54.6481C37.8703 54.884 37.9338 55.1592 37.6786 55.3701C37.5914 55.443 36.899 55.3147 36.8224 55.3168C35.6215 55.3521 37.2286 55.6311 37.2868 55.6891C37.8466 56.3194 36.5779 56.6925 37.7431 57.3243C37.7851 57.3475 39.4643 57.4859 38.2277 57.5507C38.1424 57.5556 37.3885 57.3269 37.3135 57.5804C37.2386 57.8286 36.3116 58.2852 37.0807 58.6727C37.2655 58.7685 38.6266 59.0166 37.5549 59.1645C37.4093 59.1848 36.9267 59.1495 36.6572 59.1783C35.7985 59.2748 37.5002 59.3596 36.0521 59.4718C35.2157 59.5381 34.5 59.6607 34.2376 59.8314L34.2454 59.6884C34.0394 59.8094 34.0738 59.9982 34.4864 60.201C34.5146 60.22 35.8585 60.3705 35.8355 60.4753C35.7964 60.6519 35.5223 60.925 35.546 61.1235C35.5577 61.2174 36.3889 61.0923 36.4053 61.1072C36.9205 61.6097 36.2476 62.0922 36.117 62.8356C36.0954 62.9847 37.2768 62.9338 36.5031 63.4461C35.6693 64.035 31.7017 65.2075 32.9154 65.5874C33.4242 65.7799 38.2681 63.8287 36.0407 65.4123C37.0283 65.8712 36.2931 67.3045 37.5997 67.5001C37.6583 67.5097 38.9148 66.7627 38.9484 66.8429C38.997 66.9649 38.4909 67.4259 38.5124 67.5301C38.5884 67.9758 39.2743 67.906 39.4422 68.2545C39.5084 68.3871 38.9334 68.7967 39.0163 68.9579C39.1011 69.1196 39.8832 68.6088 39.6964 69.0775C39.5536 69.4339 38.2545 70.8266 38.2644 71.1679C38.8526 70.6441 39.2081 70.3681 39.4643 70.2149L39.4265 70.17C39.7896 69.9818 39.9496 70.0126 40.2783 69.9756C40.3889 69.9637 40.8741 69.5261 40.9537 69.5009C41.2909 69.3924 40.9173 69.7951 41.2746 69.6666C41.361 69.6365 41.8802 69.2651 41.9805 69.2202C42.8575 68.8294 41.8543 69.9015 41.6748 70.0816C41.0027 70.7784 41.7339 70.3763 41.5082 70.7065C41.2832 71.0374 40.7768 71.1285 40.6875 71.3969C40.5035 71.9541 40.8683 72.2808 41.0816 72.5916C41.1697 72.7133 41.7676 72.0973 41.7957 72.1024C42.1388 72.1841 41.6672 73.0194 43.0289 71.9935C39.9311 75.1081 43.4566 71.8344 43.0862 72.7125C43.0561 72.7831 41.6165 74.2793 41.2998 74.3917C40.9809 74.5012 41.3029 73.8994 40.8213 74.0764C40.7119 74.123 39.0673 75.2013 38.945 75.2394C38.0197 75.578 40.3673 73.5462 40.4906 73.429C41.8007 72.1313 39.9815 73.2079 39.8028 73.2122C39.0254 73.2891 39.1774 72.7485 38.6145 72.7692C38.249 72.7799 36.5679 73.9204 36.5353 73.7643C36.4497 73.2805 38.6548 71.4905 36.4699 72.674C36.0889 72.8892 34.8484 73.889 35.1348 73.5269L35.4256 73.8723C35.4643 73.7752 35.5612 73.6089 35.737 73.3521C35.7975 73.2551 36.7915 71.9699 35.9137 72.4998C35.8027 72.5664 35.3151 72.9918 35.254 73.0044C34.8535 73.0793 35.1553 72.6393 34.8218 72.6266C34.4894 72.6151 34.0249 72.6305 34.0309 72.2871C34.0309 72.0777 34.8534 71.1732 35.0429 70.936C35.5894 70.2544 34.3474 70.924 35.0925 70.2012C35.8479 69.483 37.2421 68.7244 37.6006 68.0854C36.2411 69.0746 34.8349 70.0752 33.459 71.058C33.0369 70.3821 33.0492 69.4284 32.5654 68.7643C32.5035 68.6817 31.7813 69.2356 31.6932 69.1556C31.3199 68.8051 31.679 68.1242 31.2175 67.7822C30.8582 67.5208 29.7926 67.5062 29.3828 67.1595C31.0401 66.1464 30.1996 65.8003 30.205 65.2542C30.2071 65.0673 30.7 64.9203 30.8236 64.7556C31.2845 64.1446 29.7177 64.8306 29.4225 64.7768C28.1577 64.4901 31.8689 63.4775 31.6601 62.9405C31.6514 62.9247 29.5569 62.8694 29.4194 62.8075C28.5333 62.521 30.1138 62.6315 30.229 62.3668C30.4446 61.8786 30.9042 61.5632 30.2818 61.0602C30.0974 60.9267 28.8115 60.5106 29.8114 60.2013C29.9422 60.163 30.6191 60.208 30.6598 60.1773C31.3045 59.6766 29.4699 59.5087 28.6856 59.0861L28.6452 59.8218C28.5936 59.8094 28.546 59.7963 28.5034 59.7825C27.7823 59.5436 29.2577 59.1999 29.6829 59.1408C30.7824 58.9773 30.149 59.2884 30.2567 59.3004C31.5355 59.432 31.318 59.1836 31.4303 59.0006C33.519 59.0173 33.3998 58.7679 31.5385 58.8106C31.3351 58.8162 31.5264 58.9657 31.4303 59.0006C29.3846 58.7972 29.1305 58.4673 31.0565 58.2227C31.9595 58.1101 32.9983 58.2918 32.6358 57.8401C32.4729 57.6345 31.0326 57.6382 30.6508 57.4363C29.7799 56.9687 31.1558 56.5159 30.9794 56.0863C30.9156 55.9273 30.1186 56.0113 30.0481 55.8991C29.8591 55.5982 30.4697 55.408 30.1961 55.0994C30.1703 55.0711 29.344 55.0526 29.3423 54.9633C29.3143 54.2839 29.9054 53.7704 30.008 53.0963C30.0566 52.7717 29.6881 52.1249 29.8285 51.8038C30.0666 51.2407 31.3618 50.7342 31.1548 50.2104C31.0238 49.8668 30.1997 49.7974 29.6692 49.5676C28.641 49.121 30.6429 48.9974 30.9506 48.9922C30.9607 48.9921 31.1051 49.2917 31.5468 49.2235C32.4295 49.2952 30.9538 48.996 30.9506 48.9922C31.1496 48.9858 31.4285 48.4918 31.2926 48.3597C31.2182 48.2876 30.4442 48.1793 30.4199 48.1443C29.8608 47.3143 29.7974 46.5786 30.2861 45.9572C30.3039 45.948 31.1589 46.1281 31.19 46.1043C31.6468 45.7776 30.6444 45.326 30.081 44.8871C29.5176 44.4496 29.773 44.2366 31.2825 44.3198C31.1408 44.0464 31.8552 43.8216 32.286 43.6964C32.7171 43.5695 31.0471 43.2473 31.0169 43.2247C30.0493 42.5118 31.0589 42.3806 31.2938 41.8689C31.4083 41.6274 31.2387 41.0947 31.09 40.8093C30.9703 40.5812 31.3818 40.5093 31.1528 40.2894C31.1223 40.26 30.3679 40.1906 30.3399 40.1793C29.4664 39.8638 31.2911 40.1885 31.6246 40.1854C32.8369 40.1736 33.4861 40.1391 32.9537 39.8028C32.8323 39.7214 30.1994 39.2725 30.0536 39.1597C29.8693 39.0079 30.8158 39.1468 30.5981 38.9834C30.5803 38.9697 29.9932 38.9203 30.0262 38.8378C30.1718 38.4571 30.5395 38.0574 30.4913 37.6756C30.487 37.6245 29.5508 37.662 29.5289 37.5909C29.4422 37.3066 29.4528 37.0276 29.7188 36.765C29.7614 36.5707 29.8164 36.3832 29.8837 36.2042C29.9983 35.9132 30.6503 36.1095 30.8455 36.0514C32.0258 35.7345 30.3558 35.1783 30.333 35.0742C29.7197 32.9779 31.5814 32.1817 31.2894 30.7232C31.2672 30.6501 29.7332 29.495 31.2877 29.8269C31.3924 29.8453 32.9707 30.2136 32.0133 29.6441C31.9537 29.6078 31.1329 29.4353 31.2976 29.245C31.4611 29.0575 31.085 28.5122 32.0368 28.5892C32.337 28.6123 33.8966 29.0362 32.817 28.3067C32.7415 28.256 30.2304 26.7744 32.1174 27.4311C32.4276 27.5403 34.3636 28.3788 33.4757 27.7013C33.3031 27.5712 32.8327 27.4754 32.6156 27.2343C32.2799 26.8651 32.9054 26.8351 32.1242 26.2641C31.9866 26.1615 30.7227 25.4697 31.7763 25.7626C31.9416 25.8078 32.5808 26.1061 32.6792 26.0727C33.1514 25.9111 32.8193 25.4605 33.3661 25.3762C33.559 25.3442 34.6172 25.7676 34.9403 25.767C35.263 25.7676 35.6099 25.6512 35.1422 25.4009C34.6727 25.1562 32.9099 24.7166 32.8036 24.5652C32.3277 23.951 33.3797 23.9918 33.5432 23.8879C33.5666 23.8799 32.9172 23.8717 32.9049 23.8783C32.8804 23.8869 32.7189 23.9731 32.7517 24.0674C32.7822 24.1553 33.0051 24.2065 33.6481 23.9543C34.6561 23.5004 35.4699 23.265 35.8466 23.0012C36.0088 22.8368 34.0841 23.705 34.0287 23.7429C33.413 24.0199 34.1981 23.5101 33.8883 23.5633C33.8272 23.5795 33.1353 24.0824 33.094 24.0951C32.9515 24.1498 33.2175 23.8683 33.1175 23.856C33.0714 23.8522 32.5722 24.2734 32.5949 24.222C32.6257 24.1422 32.7072 24.0137 32.8686 23.7926C33.0597 23.8001 33.2674 23.7714 33.4897 23.6981C33.5431 23.6719 33.9878 22.9738 34.1542 23.0897C34.4402 23.2873 34.9352 22.8792 34.6439 23.4308C34.5522 23.5947 33.8577 24.9162 34.3499 24.0104C34.4488 23.8193 35.2702 22.2256 34.5256 23.5852C34.3936 23.8072 33.4432 25.6677 33.849 24.3779C33.9599 24.0399 34.4309 22.647 34.2464 22.8206C34.2199 22.8495 33.9664 23.612 33.8602 23.6531C33.4882 23.7837 33.145 23.5574 32.6023 23.6041C32.4551 23.6172 32.319 24.4594 32.1044 24.4519C31.5121 24.4324 30.8052 23.8852 30.2489 23.2924C30.0451 23.0726 30.5452 22.561 30.5615 22.4849C30.8712 21.2696 29.9032 22.605 29.7471 22.6248C28.819 22.742 28.7263 21.7548 28.0091 21.4583C27.8075 21.3696 27.4428 22.0782 27.3658 22.1066C26.5709 22.3445 27.7239 21.4675 27.6015 21.167C27.4063 20.6716 27.0983 20.2764 26.7458 19.9081C26.1973 19.3452 25.6852 18.735 25.2797 18.1606C24.9272 17.6495 24.5078 18.7225 24.1958 18.2326C23.2789 16.7532 22.9824 15.5369 22.9302 15.1324C22.9119 14.6959 23.012 15.1038 24.0149 16.3704C24.4212 16.8376 24.8011 16.1268 25.0005 16.1429C26.0745 16.1534 26.1504 17.4223 26.4189 18.13C26.3875 18.2267 26.3638 18.3018 26.3603 18.3325C26.2774 19.0834 26.7028 18.607 26.7398 18.7592C26.9628 19.48 26.2075 18.7446 25.5352 18.3622C24.6336 17.8359 23.7994 17.035 22.6302 17.0684C22.555 17.0697 22.5204 18.002 22.4551 18.0151C21.639 18.1451 20.8484 17.7074 19.996 17.9154C19.9259 17.9309 19.9615 18.8172 19.8479 18.8717C19.6128 18.9895 19.3383 18.9237 19.1264 18.6293C19.0228 18.4873 19.2173 17.7409 19.1109 17.6135C18.8617 17.3149 18.5778 17.2373 18.298 17.366C18.1789 17.4228 18.3127 18.3314 18.1624 18.335C17.1354 18.3792 16.1431 18.5115 15.0999 17.3419C15.0289 17.2616 14.9652 15.4289 14.8088 15.7807C14.7982 16.2892 14.8002 16.8875 14.7965 17.4311C13.2953 17.7277 11.7921 17.1411 10.3045 17.1467C10.2424 17.1471 10.4168 18.1082 10.2985 18.1139C9.61349 18.1488 8.99568 18.4744 8.21895 17.5913C8.14138 17.5053 7.98412 15.8036 7.80598 16.0849C7.77419 16.1359 7.49603 16.3999 7.46914 16.7777C7.46633 16.8345 7.62186 17.6182 7.53205 17.6535C7.00596 17.8448 6.43688 17.7493 5.85689 17.3626C5.76339 17.2986 5.69041 16.4484 5.621 16.3959C5.10062 16.0358 4.8157 16.7597 4.28823 16.1005C3.91819 15.6612 3.62571 14.2207 3.08932 12.8702C3.01189 12.6799 2.82969 12.6991 2.58002 11.8967C1.94694 9.87987 1.39983 7.62818 0.716292 5.48097C0.568053 5.01806 0.359421 5.62799 0.23204 4.4409C0.223489 4.36106 0.383565 3.9076 0.34477 3.50545C0.318161 3.22703 -0.00675476 2.43075 9.91821e-05 2.06275C0.00976264 1.69448 0.314163 2.35338 0.377686 1.90815C0.442147 1.45801 0.123502 0.535077 0.435569 0.337049ZM34.2115 43.1172C35.0478 43.0682 32.1018 42.5507 32.7751 42.8626C32.8111 42.8783 34.1704 43.12 34.2115 43.1172ZM34.9563 68.1967C35.9126 67.2457 34.1617 68.0997 33.4122 68.824C32.6757 69.565 34.6718 68.4927 34.9563 68.1967ZM37.4647 69.9839C38.0737 69.0857 34.7344 71.7013 35.636 71.4502C35.6876 71.4366 37.4301 70.0369 37.4647 69.9839ZM3.71518 12.2838C3.70351 12.2457 3.55843 12.2408 3.56485 12.2798C3.72154 13.2192 3.99778 13.2316 3.71518 12.2838ZM39.8445 71.2724C40.2629 70.8688 39.5732 71.0402 39.0539 71.5417C38.6331 71.9404 39.322 71.7711 39.8445 71.2724ZM38.4828 33.6062C38.5261 33.6165 38.5991 33.5199 38.3588 33.4445C37.5841 33.2023 37.7512 33.4333 38.4828 33.6062ZM42.9352 74.7625C42.5082 74.1651 44.6943 71.4001 44.8789 72.1151C44.9185 72.2489 43.9337 72.7633 43.8315 73.0989C43.6623 73.7254 45.2613 72.2039 44.7037 73.2803C44.6062 73.4817 42.9608 74.8088 42.931 74.7653C42.9324 74.7644 42.9338 74.7634 42.9352 74.7625ZM37.7724 43.6049C37.8121 43.6077 37.8745 43.4608 37.8364 43.4507C36.9132 43.2139 36.7875 43.506 37.7724 43.6049ZM42.6142 28.0887C42.6977 28.1074 42.8911 27.7594 42.8198 27.7238C41.3918 27.0905 41.0168 27.731 42.6142 28.0887ZM38.1615 54.1787C39.0875 54.4645 39.1758 54.6641 37.9694 54.6475C38.0522 54.4948 38.0821 54.3329 38.1615 54.1787Z" fill="#4CC72E"/>
</svg>
