<svg width="82" height="52" viewBox="0 0 82 52" fill="none" xmlns="http://www.w3.org/2000/svg">
<path d="M3.42592 0.0262623C4.06258 -0.111929 4.78031 0.316573 5.29554 0.811504C5.45691 0.965321 5.25734 1.46567 5.36412 1.5953C5.57346 1.84828 5.85757 1.64104 6.05685 1.93266C6.12215 2.03182 5.85072 2.83321 5.9229 2.91832C6.3184 3.37859 6.80803 3.26192 7.25254 3.53804C9.43699 4.90119 11.714 5.72641 14.1126 6.78457C14.9113 7.13568 15.6924 8.16358 16.6795 8.14882C16.7966 8.14687 16.9731 7.42839 17.0128 7.37774C17.6358 6.609 17.0398 7.97729 17.1787 8.23604C17.6568 9.12454 18.3588 9.55014 19.1729 9.75529C19.3051 9.79014 19.4378 9.81906 19.5705 9.84264C19.9944 9.91893 20.2895 8.42524 20.2948 9.3538C20.2943 9.41629 19.8374 10.06 19.8969 10.1859C20.0289 10.4662 20.5296 10.5922 20.6646 10.7494C20.9251 11.0555 20.9896 11.0883 21.2867 11.301C21.6954 11.6043 21.9255 12.2713 22.4486 12.4955C22.5631 12.5429 22.9741 11.8351 23.2116 11.8636C23.4484 11.889 23.7941 12.3131 23.7784 12.5703C23.766 12.8277 23.2605 13.2132 23.1779 13.3354C22.4558 14.338 24.0625 13.603 24.1539 13.6491C25.6062 14.2628 25.4433 15.8257 25.9495 16.8134C26.3482 17.5838 26.983 18.2827 27.2057 19.0013C27.4668 19.8569 27.2698 20.6578 27.574 21.3512C27.6052 21.4246 28.4738 21.0452 28.5136 21.1343C28.9361 22.0838 29.1069 22.95 28.8114 23.9348C28.7816 24.0351 27.9719 24.2402 27.8972 24.3614C27.4321 25.0608 26.3897 26.6667 29.6874 25.1664C29.6959 25.4775 29.7275 25.8069 29.2738 26.4263C28.9861 26.8299 28.1554 27.2203 28.599 27.1759C28.6975 27.1647 29.2957 26.645 29.3914 26.6581C29.6071 26.6858 29.698 26.8037 29.8192 26.901C30.0134 27.0895 30.2119 27.258 30.52 27.3472C30.6563 27.3843 31.1983 26.9281 31.3199 26.8769C32.3224 26.4842 31.228 27.8893 31.1714 28.0285C30.8266 29.1621 31.3848 29.3926 31.6842 30.0057C31.7519 30.1479 32.5088 29.5416 32.6066 29.6684C33.1039 30.3347 33.3631 31.1609 33.2162 32.0037C33.1808 32.1903 32.3673 32.321 32.3104 32.4218C32.0632 32.8519 33.537 32.4359 33.3221 32.8488C33.2777 32.9333 32.6047 33.1052 32.5357 33.1396C31.4487 33.6683 33.1131 33.3224 33.1636 33.3611C33.8275 33.8068 32.2116 34.6233 32.581 35.0519C32.6269 35.1028 33.4427 34.7519 33.5195 34.9078C33.8797 35.6534 34.0578 36.4329 33.725 36.4514C33.5758 36.4385 33.4222 36.5175 33.3356 36.6934C33.2898 36.7963 32.8486 37.2863 32.7939 37.3465C32.0603 38.3885 33.1743 37.0962 33.2102 37.0423C33.5631 36.7363 33.2025 38.1526 34.2213 36.3874C34.7858 37.1918 36.2463 37.1077 37.7182 38.0649C37.8666 38.2801 38.0177 38.6167 38.3233 39.1933C38.3375 39.2158 38.2264 40.0469 38.2595 40.0885C38.6838 40.5911 38.7035 39.2775 38.8553 37.6841C38.8674 37.2848 39.1576 39.1927 39.2079 39.3293C39.325 39.8403 39.3589 41.0887 39.3936 41.1866C39.7345 41.9468 39.242 37.8541 39.4287 37.8253C39.4371 37.8309 39.5226 38.5855 39.5538 38.657C39.655 38.881 39.6688 38.5729 39.7796 38.8181C40.0298 39.3858 40.5362 41.3286 40.5564 40.1257C40.5528 39.9704 39.9617 37.7098 40.1941 37.7628C40.2906 37.7869 40.6665 37.6315 40.8303 37.7338C40.9933 37.8382 41.1597 38.5775 41.1775 38.6059C41.8415 39.4293 41.8553 39.8616 42.5632 41.1728C43.2929 42.4678 41.9778 39.2175 41.9042 38.8265C41.8286 38.4378 42.3878 39.0976 42.5684 39.331C42.7447 39.5668 42.8494 40.0425 42.9719 40.1663C43.7943 40.9628 42.4497 38.4965 42.3444 37.9354C42.0678 36.6163 43.3709 38.8753 43.7672 38.964C43.8704 38.9896 43.5482 38.4886 43.5869 38.4075C43.7393 38.0946 44.2691 38.7339 44.2047 37.9249C44.1983 37.791 43.6659 36.3019 44.3653 37.2247C44.4668 37.3574 44.7222 37.9568 44.9001 38.0235C45.1666 38.1241 45.5281 38.0798 45.5903 37.7917C45.6352 37.5793 44.9494 36.7447 45.2738 36.938C45.4191 37.0239 45.6077 37.6382 45.8559 37.7536C46.1042 37.8693 46.4301 37.6391 46.547 37.5411C46.6637 37.443 46.1667 36.7984 46.1484 36.7455C46.046 36.4417 46.0773 35.9614 46.0987 35.9489C47.1008 35.2 48.848 35.662 49.6561 34.5658C49.7194 34.4812 49.1842 33.8127 49.1889 33.7926C49.2721 33.3034 50.3246 35.3328 50.9511 35.8256C49.9484 34.4123 50.2434 34.5909 50.3364 34.2985C50.383 34.1546 49.9532 33.6354 49.9237 33.5725C49.5002 32.6287 50.3385 33.6509 50.5144 33.8571C51.1617 34.6152 50.6162 33.572 51.0511 34.0776C51.4817 34.5801 51.8737 35.4896 52.0594 35.3506C51.7702 34.798 50.7255 33.5465 50.7298 33.228C50.7303 32.9079 50.8738 32.6889 51.0741 32.5513C51.6975 32.1227 52.7922 32.3245 53.2042 32.2189C53.7716 32.0714 53.8861 31.8913 54.2818 31.9495C54.9863 32.0658 54.2854 31.0668 54.4046 30.4084C54.5332 29.749 55.5533 32.5337 55.8579 33.0943C56.1577 33.6571 55.9458 33.0355 56.14 33.3323C56.3329 33.6296 56.3878 34.0769 56.566 34.1429C56.74 34.2101 56.6571 33.0193 56.4558 32.3836C56.0256 31.0376 55.2931 29.738 55.8695 30.0663C55.9025 30.0863 56.121 30.8367 56.2326 30.8769C57.0999 31.176 57.7789 30.9671 58.5916 31.2497C58.7033 31.2899 58.9038 32.1359 58.9712 32.1688C59.6684 32.5184 59.0152 31.1987 58.8156 29.5584C59.4151 31.6323 59.9805 32.8348 60.3724 32.7257C60.6103 32.6607 60.2914 31.7733 60.2556 31.09C60.2453 30.8838 60.6034 31.4518 60.508 31.018C60.2001 29.5987 59.5713 28.0926 60.1921 28.5841C60.2197 28.608 60.3798 29.3871 60.4587 29.4142C60.9675 29.5952 60.6056 28.1229 61.0299 27.8171C61.3634 27.577 62.2492 28.3028 62.6954 28.3497C63.2636 30.7075 63.5032 30.0783 63.2824 28.4129C63.5663 28.4168 63.8362 28.2588 64.1456 28.4276C64.2517 28.485 64.3431 29.1839 64.3706 29.2555C64.7929 30.3816 64.5631 28.7671 64.609 28.6921C65.1126 27.9515 65.8568 29.0617 66.2373 27.7665C66.2502 27.72 65.985 26.0556 66.3674 27.2367C66.3922 27.3184 66.3296 28.1084 66.6229 28.1161C66.9199 28.1232 67.5952 28.9245 67.8634 28.0924C67.927 27.892 67.9674 26.5017 68.3216 27.5295C68.3688 27.6692 68.4116 28.1513 68.488 28.4118C68.7306 29.2421 68.5529 27.547 68.8983 28.9591C69.083 29.718 69.2922 30.3676 69.4818 30.6455C69.6644 30.8823 69.8463 30.8377 69.956 30.3504C69.9656 30.3194 69.828 28.9736 69.9505 28.9733C70.1489 28.9737 70.4758 29.1992 70.6756 29.1592C70.7718 29.1395 70.5831 28.3206 70.5979 28.3028C71.1542 27.7974 71.9202 28.2772 72.4428 28.8625C72.469 28.8674 72.5274 28.9141 72.5504 28.9277C72.5795 29.0134 72.611 29.0987 72.6463 29.182C72.6894 29.3022 73.8116 28.8094 73.3205 29.6215C72.7565 30.4827 69.4728 32.964 70.476 32.6495C70.8494 32.4885 75.3278 29.7669 73.3372 31.6655C74.3769 32.0402 73.5539 33.4253 74.8033 33.7556C74.8592 33.7713 76.212 33.2156 76.2389 33.3116C76.2749 33.4527 75.7036 33.8315 75.709 33.941C75.7159 34.408 76.4087 34.4913 76.5089 34.8947C76.5203 34.9391 76.4733 34.9931 76.402 35.0519L76.3917 35.033C76.2281 35.188 75.9223 35.3836 75.9674 35.5118C76.0314 35.6913 76.883 35.306 76.6348 35.752C76.4442 36.0892 74.9543 37.2769 74.9127 37.6177C76.4846 36.6059 76.5464 36.7721 77.1263 36.7534C77.2382 36.7487 77.7456 36.3369 77.8264 36.316C78.1666 36.222 77.7757 36.6075 78.1377 36.4917C78.2248 36.4642 78.7553 36.1091 78.8563 36.0663C79.7331 35.6858 78.7074 36.731 78.5305 36.9152C77.8556 37.6108 78.5925 37.2172 78.3691 37.5521C78.1459 37.8872 77.6342 37.9682 77.5467 38.2411C77.3677 38.8081 77.7221 39.1362 77.9108 39.4558C77.9893 39.581 78.6286 39.0086 78.656 39.0152C79.0075 39.1394 78.4456 39.9148 79.9282 39.0713C76.4692 41.7808 80.3814 38.9749 79.9161 39.8367C79.878 39.9058 78.2121 41.1445 77.8871 41.2131C77.5624 41.2818 77.9754 40.7428 77.4815 40.8672C77.3657 40.8967 75.6332 41.8151 75.5169 41.8546C74.6088 42.1648 77.122 40.3468 77.2533 40.2375C78.6644 39.0486 76.7755 40.0044 76.6102 40.0205C75.8542 40.0971 76.032 39.5885 75.4648 39.5999C75.0964 39.6045 73.4102 40.7376 73.3675 40.5651C73.2235 39.989 75.4769 38.262 73.1403 39.1842C72.6411 39.3788 70.8466 40.6927 72.0781 39.3851C72.1542 39.3004 73.3316 38.1801 72.3824 38.5695C72.2627 38.6186 71.7167 38.9659 71.6543 38.9691C71.2455 38.9805 71.6087 38.5892 71.2763 38.5198C71.1169 38.4863 70.9255 38.4531 70.7755 38.3892C70.7428 38.2999 70.5739 38.0648 70.548 37.9734C70.4029 37.9159 70.3108 37.8319 70.3616 37.6779C70.4199 37.5011 71.4228 36.8112 71.6584 36.6227C72.3387 36.0823 71.0095 36.5429 71.8796 35.9819C72.7528 35.4158 74.2535 34.8999 74.7165 34.3349C73.2132 35.0879 71.6645 35.8493 70.1508 36.6029C69.9305 36.0404 70.1488 35.2877 69.828 34.8768C69.7874 34.8278 69.0349 35.3324 68.9727 35.2944C68.7171 35.1392 69.1526 34.6156 68.8107 34.5617C68.5427 34.5214 67.6696 34.9459 67.4274 35.0269C68.9146 33.8032 68.277 34.0556 68.3636 33.8952C68.3887 33.8336 68.7582 33.4766 68.8589 33.3401C69.2223 32.828 68.0773 34.0865 67.8853 34.2729C67.6651 34.4965 67.7112 34.4533 67.8761 34.2595L69.8842 35.4754C70.5871 35.0191 71.2464 33.0985 71.3944 33.1797C71.3736 33.1852 71.5292 35.2415 71.5876 35.3658C71.783 36.1908 71.5907 34.6513 71.6252 34.4975C71.641 34.2176 71.4582 33.7432 71.3154 34.3789C71.2742 34.5665 71.2938 35.8627 70.8975 34.9285C70.8465 34.8059 70.7451 34.1354 70.7155 34.1003C70.1825 33.5202 70.4983 35.6261 70.2667 36.3877C70.2663 36.3889 70.2659 36.3902 70.2655 36.3914C70.1877 37.1213 69.7092 35.7087 69.5879 35.2989C69.2781 34.2362 69.6359 34.8183 69.6286 34.7108C69.5438 33.4294 69.364 33.6777 69.1871 33.5949C68.8559 31.5322 68.6391 31.692 69.0041 33.5175C69.044 33.7169 69.1405 33.5053 69.1871 33.5949C69.3464 35.6432 69.1622 35.9366 68.5863 34.0897C68.315 33.2247 68.2674 32.1712 67.9324 32.6154C67.7811 32.8164 68.0927 34.2222 68.0059 34.6352C67.813 35.5765 67.1206 34.34 66.7944 34.6196C66.6781 34.7206 66.9573 35.4681 66.8842 35.5636C66.6929 35.8192 66.368 35.2826 66.1945 35.6284C66.1792 35.6606 66.4004 36.4562 66.3308 36.4816C65.8086 36.6902 65.2196 36.2823 64.6478 36.4063C64.371 36.4663 63.9997 37.0299 63.6991 37.016C63.1828 36.994 62.2539 36.0129 61.9206 36.4184C61.7058 36.6783 62.008 37.4483 62.0627 38.0192C62.177 39.123 61.2141 37.3852 61.0621 37.1176C61.0568 37.1087 61.2242 36.8499 60.9715 36.4871C60.6261 35.6724 61.063 37.1133 61.0621 37.1176C60.9679 36.9426 60.4563 36.9169 60.4196 37.0972C60.3997 37.1952 60.6823 37.9238 60.6676 37.9608C60.3141 38.8235 59.8463 39.2114 59.1654 39.0962C59.1498 39.0856 58.8323 38.2716 58.7992 38.2569C58.3236 38.0331 58.5352 39.1065 58.5558 39.7926C58.5736 40.4801 58.3223 40.3646 57.5226 39.0856C57.4254 39.3422 56.875 38.8782 56.5368 38.6023C56.1961 38.3277 56.9872 39.8338 56.9921 39.8692C57.1469 40.9728 56.5417 40.3081 56.13 40.3413C56.1133 40.3447 56.0967 40.3488 56.0803 40.3538C55.8321 40.4251 55.5187 40.9304 55.3741 41.2528C55.2584 41.5116 54.9143 41.2635 54.8686 41.6026C54.8621 41.6482 55.3135 42.2568 55.3221 42.2862C55.619 43.1797 54.6799 41.58 54.45 41.3366C53.6164 40.4497 53.1564 39.9884 53.1959 40.6453C53.2056 40.7954 54.5141 43.1283 54.4792 43.3402C54.4328 43.6103 53.9579 42.7783 53.9226 43.0814C53.9189 43.1067 54.2519 43.593 54.1342 43.641C53.5924 43.8699 52.8646 43.9425 52.3665 44.3351C52.2969 44.3871 52.8984 45.1113 52.8048 45.2001C52.3657 45.6156 51.7731 45.9469 51.0232 45.888C50.8373 45.8708 50.5808 45.2613 50.4529 45.1115C49.682 44.2032 50.3139 45.8139 50.2861 45.8678C49.7023 47.1577 48.1798 46.2323 47.3595 47.4398C47.3262 47.5047 47.5672 49.4116 46.6911 48.079C46.6282 47.9926 45.7762 46.6114 46.0008 47.7081C46.0133 47.7772 46.4829 48.4782 46.189 48.5088C45.9016 48.537 45.6564 49.2273 44.961 48.5109C44.7351 48.2876 43.9572 46.864 43.9917 48.1946C44.0215 48.2809 44.2163 51.2432 43.4351 49.3875C43.3076 49.0811 42.8043 47.0365 42.6154 48.2001C42.5729 48.4264 42.8584 48.8415 42.6754 49.188C42.3821 49.7236 41.7489 49.2797 41.3564 50.2906C41.3026 50.4682 41.0398 51.9536 40.5532 50.9109C40.4808 50.7472 40.5088 50.0366 40.3223 49.9761C39.4495 49.6831 38.486 50.1778 37.5259 49.6101C37.1948 49.4086 37.4746 48.2923 37.1835 47.9527C36.8883 47.6139 36.3187 47.2185 35.8559 47.6404C35.3732 48.0578 35.3637 49.9308 34.7006 49.9047C34.0955 49.872 33.5013 49.7288 32.9323 49.4995C32.8683 49.4969 32.3896 48.6129 31.4178 48.1673C31.2298 48.0799 31.1926 48.753 30.8833 48.6607C30.3081 48.4835 29.33 48.3308 28.0904 47.6779C26.8814 47.0638 25.3422 45.6957 24.9114 44.128C24.5818 42.8872 25.1201 42.7231 25.5482 42.6334C25.9936 42.5419 26.3673 42.5161 26.1188 41.8037C26.043 41.5766 25.7675 41.4819 25.4107 41.42C24.6937 41.3216 23.6623 41.4117 23.5735 41.3305C22.3024 40.1731 23.0752 39.2977 22.6107 38.743C22.5178 38.6295 21.7274 38.9809 21.658 38.883C21.4128 38.5454 21.7033 38.1366 21.5709 37.9029C21.51 37.8001 20.8825 37.9821 20.9065 37.8738C20.957 37.6181 21.1775 37.3787 21.7175 37.0367C21.7664 37.0043 22.5809 36.9004 22.5706 36.7512C22.5541 36.5197 23.0516 36.0802 22.3906 36.0735C22.1918 36.0718 20.7836 36.5652 21.7159 36.1114C21.911 36.0183 23.6019 35.4211 22.1009 35.8297C21.8442 35.8779 19.8476 36.5091 21.0552 35.9132C21.3728 35.7548 22.6801 35.0855 22.443 35.123C22.4066 35.1322 21.6935 35.4996 21.6042 35.4939C21.3044 35.4727 21.3131 35.3088 21.032 35.3277C20.9569 35.3361 20.2674 35.7993 20.1828 35.8059C19.9526 35.831 20.0717 35.6313 20.2086 35.3845C20.2605 35.293 20.8168 34.8885 20.8744 34.8408C21.7854 34.0316 20.4821 35.0323 20.402 35.0858C20.3141 35.1348 20.2581 35.1597 20.2236 35.1669C19.7507 34.8429 19.8655 34.1834 19.4224 33.8657C19.2764 33.7575 18.7154 34.317 18.6384 34.3299C17.866 34.424 19.1699 33.83 19.1661 33.5564C19.1648 32.7916 18.764 32.2714 18.3835 31.8054C18.2433 31.635 17.5748 32.2972 17.4557 32.1338C16.7323 31.1648 16.3295 30.0568 16.441 28.9869C16.4637 28.785 17.1552 28.6318 17.2899 28.5386C18.2383 27.9013 16.6948 28.1267 16.529 28.0966C15.7792 27.9806 16.3131 27.6367 16.1033 27.3875C15.0606 26.1379 15.0397 24.6403 15.0039 23.8186C14.9635 22.7504 15.3158 22.0056 14.9479 21.7744C14.9268 21.7621 14.1799 22.3165 14.1552 22.3174C13.8918 22.3364 14.128 22.0655 13.8612 22.1946C13.8428 22.2063 13.3182 22.9148 13.2781 22.9627C13.1936 23.0672 13.2186 23.0255 13.3397 22.7693C13.396 22.6447 13.8153 22.0144 13.8568 21.8979C13.9486 21.6216 13.8864 21.5149 13.7347 21.5975C13.6707 21.635 13.3215 22.4682 13.277 22.4579C13.2608 22.4553 13.2438 22.4526 13.2262 22.4498C12.8128 22.3509 12.0588 22.1537 11.5117 20.829C11.4732 20.7331 11.9525 18.9632 11.7034 19.2551C11.5458 19.7387 11.374 20.3118 11.2127 20.8309C9.75753 20.6993 8.37107 19.7008 6.77214 19.2351C6.70478 19.2158 6.60678 20.1892 6.47579 20.1567C5.717 19.9696 4.91178 20.0693 4.30824 18.9545C4.24763 18.8452 4.64326 17.1829 4.35263 17.3856C4.30154 17.4229 3.89494 17.5703 3.7274 17.9142C3.70345 17.9663 3.60549 18.7603 3.48585 18.7591C2.79212 18.738 2.12229 18.4151 1.53984 17.8001C1.44596 17.6994 1.73145 16.8909 1.66592 16.8119C1.20028 16.2577 0.465494 16.7685 0.081895 15.9055C-0.174906 15.3247 0.245931 13.9122 0.338455 12.4574C0.351446 12.2522 0.135126 12.176 0.28844 11.3494C0.673384 9.27096 1.23523 7.02311 1.6328 4.80511C1.71858 4.3274 1.31766 4.78022 1.72432 3.66568C1.75203 3.59119 2.04482 3.25285 2.17624 2.87346C2.26735 2.6112 2.36806 1.75958 2.51296 1.42952C2.65782 1.0998 2.60052 1.81909 2.80767 1.4387C3.01587 1.05331 3.15126 0.0886421 3.42592 0.0262623ZM54.983 37.41C54.4197 36.7945 55.9446 39.3677 55.7142 38.6723C55.7013 38.6356 55.0106 37.4402 54.983 37.41ZM72.1362 34.2323C73.1764 33.3838 71.4024 34.187 70.5896 34.8215C69.772 35.4459 71.8182 34.4851 72.1362 34.2323ZM74.197 36.1424C74.9897 35.4014 71.1742 37.2542 72.088 37.1651C72.1399 37.1606 74.1511 36.1856 74.197 36.1424ZM1.30429 12.2313C1.30934 12.1918 1.15721 12.1218 1.14566 12.1597C0.873935 13.074 1.17804 13.2133 1.30429 12.2313ZM76.687 38.0857C77.1065 37.6827 76.401 37.8219 75.8781 38.3221C75.4585 38.7263 76.1662 38.589 76.687 38.0857ZM44.4223 40.2688C44.3995 40.2304 44.2759 40.2465 44.3886 40.4717C44.7524 41.1973 44.8048 40.916 44.4223 40.2688ZM79.397 41.8549C79.1297 41.2059 81.7435 38.8368 81.8516 39.6691C81.8714 39.82 80.7741 40.0825 80.6163 40.4051C80.3298 40.9943 82.2408 39.8851 81.4674 40.8304C81.3254 41.0028 79.406 41.8966 79.3923 41.8568C79.3939 41.8562 79.3954 41.8556 79.397 41.8549ZM53.061 34.373C53.0372 34.341 52.8792 34.3924 52.8965 34.428C53.3191 35.282 53.6225 35.1878 53.061 34.373ZM37.9168 39.964C37.9209 39.8813 37.6714 39.7498 37.6457 39.8212C37.0858 41.2901 37.809 41.6076 37.9168 39.964ZM62.7172 28.411C62.6695 27.4394 62.8663 27.277 63.2813 28.4119C63.0897 28.3913 62.9094 28.4247 62.7172 28.411Z" fill="#4CC72E"/>
</svg>
