<svg width="127" height="35" viewBox="0 0 127 35" fill="none" xmlns="http://www.w3.org/2000/svg">
<path d="M2.85566 8.85583C4.79018 8.41163 7.35393 8.47069 9.30055 8.69273C9.92126 8.76014 9.65065 9.31452 10.074 9.38557C10.9027 9.52394 11.6362 9.20325 12.4534 9.38345C12.725 9.44572 12.4624 10.3093 12.7467 10.3554C14.304 10.6019 15.7193 10.2749 17.2711 10.3318C17.9645 10.3575 18.6478 10.3795 19.3532 10.3957C26.2749 10.5707 33.0768 10.3505 40.0748 10.1888C42.6117 10.1295 45.7391 10.6689 48.328 10.1531C48.631 10.092 48.3971 9.36964 48.451 9.30495C49.2973 8.3134 49.0983 9.81886 49.7044 9.97468C52.1183 10.5886 54.7481 10.477 57.0003 10.043C57.9528 9.85674 56.8893 8.45975 57.9218 9.2153C57.9933 9.26625 57.7984 10.0633 58.0698 10.1292C58.6783 10.2774 59.8211 10.0633 60.282 10.0962C61.2017 10.1613 61.3281 10.1455 62.1927 10.1005C63.345 10.0478 64.7697 10.3514 66.0057 10.103C66.2713 10.0476 65.8719 9.26677 66.2896 9.10623C66.391 9.06722 66.5338 9.03803 66.6957 9.01877C67.2157 8.95807 67.9219 8.99161 68.2077 9.1184C68.6002 9.28527 68.4741 9.92418 68.55 10.0646C69.1752 11.2506 70.361 9.48753 70.5253 9.43557C73.4996 8.54295 76.1548 9.33358 78.9901 9.12989C81.134 8.97392 83.422 8.48187 85.4744 8.36559C87.9257 8.23024 90.0422 8.49645 92.4392 8.24705C92.6925 8.22172 92.3268 7.30239 92.6365 7.26959C94.5528 7.06735 96.4746 6.95055 98.4091 6.98788C99.6338 7.02351 100.915 7.07474 102.231 7.1859C102.548 7.21294 102.247 8.0835 102.572 8.1591C104.551 8.61319 107.935 9.72584 108.488 5.97178C109.825 5.89014 111.467 5.74854 112.807 6.26029C113.666 6.59148 113.054 7.60638 113.959 7.06882C114.165 6.94898 113.755 6.21412 114.073 6.09385C114.697 5.86256 115.383 5.73937 116.149 5.63816C116.606 5.57856 116.887 5.53672 117.278 5.45459C117.353 5.43652 117.419 5.41785 117.5 5.39456C117.528 5.38448 117.54 5.37532 117.507 5.37323C117.502 5.37301 117.497 5.37293 117.491 5.37305C117.468 5.3766 117.537 5.36106 117.369 5.39341C117.276 5.4175 117.209 5.41032 116.776 5.56989C116.659 5.61642 116.512 5.67542 116.275 5.80831C116.04 5.95456 115.697 6.12143 115.174 6.74769C114.665 7.27799 113.96 9.0065 114.557 10.4798C115.121 11.8971 115.935 12.3013 116.323 12.5433C117.151 12.962 117.356 12.9192 117.561 12.972C117.744 13.0014 117.836 13.0073 117.91 13.0131C118.007 13.0197 117.973 13.0177 118.001 13.0197C118.126 13.0284 118.16 13.0306 118.183 13.0348C118.174 13.0693 117.989 13.1218 117.792 13.1901C117.571 13.2895 117.673 13.9925 117.613 14.1243C117.044 15.197 115.867 13.5727 115.6 13.4682C113.712 12.681 112.455 13.1419 110.761 13.2468C110.372 13.2705 110.905 14.1841 110.531 14.2411C108.597 14.5236 106.548 14.5951 104.618 14.3141C104.179 14.2501 104.517 13.4129 104.304 13.3409C103.391 13.0315 103.308 14.5718 102.414 14.3054C102.225 14.2513 102.278 13.552 102.239 13.4785C101.642 12.3231 101.318 14.0451 101.187 14.092C99.5309 14.7238 98.3319 13.036 96.7336 13.3987C96.5412 13.4439 97.0415 14.2887 96.4963 14.3623C92.8667 14.8578 88.9972 14.8725 85.3425 14.3898C84.7758 14.3158 85.1362 13.6337 85.096 13.5547C84.4479 12.3217 84.1753 14.0419 83.9948 14.1167C82.5774 14.6622 81.1421 13.3132 80.2785 15.3887C76.9141 15.1837 73.5501 15.5077 70.2089 15.5338C67.3997 15.5548 64.6194 15.3515 61.867 14.5346C61.7898 14.5138 61.9259 13.6756 61.7722 13.6376C59.9216 13.1712 60.2781 14.4722 59.0619 16.0679C58.7557 16.4685 57.816 14.5492 57.7318 14.4087C57.4282 13.8907 57.7351 12.6428 57.6337 12.5427C56.7923 11.7572 56.951 15.8779 55.8328 15.8881C55.7977 15.8815 55.9382 15.1215 55.8436 15.0469C55.5502 14.8126 55.2616 15.1169 54.9738 14.859C54.3146 14.2625 54.0467 12.2618 53.0641 13.4456C52.9408 13.5996 53.1739 15.9321 52.1839 15.8439C51.7865 15.8048 50.0494 15.8984 49.5589 15.7702C49.0685 15.6395 49.3681 14.8726 49.3325 14.8414C47.9693 13.9062 48.4506 13.4715 47.6975 12.0344C46.9357 10.6066 47.3321 14.0952 47.091 14.5023C46.852 14.9071 45.8337 14.1576 45.5699 13.8943C45.3092 13.6293 45.5653 13.1272 45.3397 12.9839C43.8243 12.059 44.885 14.7723 44.4854 15.3695C44.3424 15.5883 44.1986 15.7142 44.0526 15.7702C43.1985 16.0833 42.2477 14.284 41.3734 14.1639C41.0924 14.1257 41.3802 14.6895 41.1439 14.7714C40.2071 15.0881 39.5399 14.3461 38.5331 15.2093C38.3671 15.3501 37.6716 17.0032 36.9692 15.9316C36.8691 15.777 37.0232 15.1063 36.5974 15.0108C35.9645 14.8663 34.8474 14.8608 34.2232 15.1601C33.7607 15.3815 34.4491 16.3683 33.8039 16.1182C33.5161 16.0069 33.9342 15.3217 33.3969 15.1648C32.8641 15.0064 31.5799 15.214 31.0959 15.3094C30.6119 15.4041 30.9997 16.1648 30.9682 16.2246C30.7769 16.5684 29.9155 17.0989 29.8356 17.1118C27.9795 17.4571 26.1569 17.5404 24.3361 17.6828C21.7133 17.9472 19.3789 17.4111 17.1563 17.508C16.8391 17.5215 16.9942 18.3873 16.9452 18.3982C15.8797 18.695 16.8428 16.4723 16.105 15.6795C16.1543 17.4178 15.7141 17.0733 15.0273 17.2833C14.7021 17.3899 14.9187 18.0527 14.8907 18.1224C14.5372 19.1606 14.1761 17.8941 14.0278 17.6443C13.5462 16.7212 13.519 17.9382 13.1613 17.3646C12.7913 16.8864 12.8938 15.9806 12.4531 15.942C12.3684 15.952 12.292 15.9434 12.1352 16.088C12.144 16.3263 12.4066 16.3444 12.6094 16.4701C12.8292 16.5905 12.9458 16.8832 13.0699 17.1091C13.1971 17.3381 13.2841 17.5841 13.5269 17.6432C13.6163 17.6655 13.9304 17.6658 14.271 16.9616C14.4725 16.5608 14.4089 15.7582 14.2206 15.4182C14.1312 15.2182 14.0131 15.0521 13.9246 14.9451C13.8528 14.8547 13.7838 14.7835 13.7233 14.7272C13.5072 14.5333 13.4823 14.5127 13.4656 14.4718C13.4522 14.4373 13.4728 14.4198 13.505 14.4063C13.5691 14.3796 13.6767 14.3709 13.8001 14.3695C14.0444 14.3662 14.3448 14.3934 14.6589 14.439C15.2929 14.5312 16.0051 14.7033 16.7091 14.901C18.1171 15.2959 19.4997 15.7958 20.3458 15.9516C20.8169 16.0381 21.2022 16.0952 21.5314 16.1398C22.3217 16.2454 22.7887 16.2516 23.4761 16.4346C25.2179 16.8676 24.5876 15.6521 25.6441 15.088C26.6997 14.5087 26.2785 17.4787 26.4574 18.1101C26.6407 18.7398 26.7914 18.0792 27.0043 18.4199C27.2197 18.7602 26.8026 19.2115 27.283 19.3215C27.7677 19.4333 28.9858 18.2258 29.0994 17.5496C29.3496 16.1193 28.6821 14.6868 29.9197 15.1159C29.9916 15.1413 29.8251 15.9344 30.0981 15.9922C32.2646 16.4246 34.4911 16.2334 36.6827 16.5302C36.9846 16.5722 36.8145 17.461 36.9915 17.4951C37.2274 17.5409 37.4203 17.5581 37.5787 17.5496C38.642 17.5021 38.1417 16.2543 38.9205 14.7758C38.8566 16.9457 39.4877 18.2114 40.8166 18.1613C41.6215 18.1339 41.4448 17.1995 41.9502 16.516C42.1022 16.31 42.7034 16.9376 42.7931 16.4917C43.0934 15.0335 42.502 13.4282 43.927 14.0327C43.9893 14.0616 43.8164 14.8598 44.0302 14.9017C45.4109 15.1752 45.5333 13.6597 46.9718 13.4187C48.0956 13.2318 50.1286 14.0323 51.4015 14.0304C51.636 16.4484 52.8505 15.7377 53.0474 14.005C53.8584 13.9442 54.6779 13.6802 55.4732 13.7094C55.7482 13.7179 55.7636 14.4404 55.8151 14.5053C55.9735 14.7007 56.101 14.7949 56.2022 14.8195C56.6427 14.9175 56.6944 13.8167 56.8611 13.7307C59.0904 12.6998 60.8281 14.0426 62.9641 13.0876C63.0372 13.0541 63.3948 11.398 63.7723 12.6987C63.7899 12.7876 63.0182 13.4438 63.9485 13.6483C64.8953 13.8547 66.3994 15.0919 67.8271 14.6584C68.1692 14.5509 69.3052 13.4371 69.6279 14.6409C69.6693 14.8035 69.4488 15.2431 69.4909 15.5348C69.6245 16.4644 70.31 14.8904 70.3327 16.4073C70.3556 17.9245 70.8986 19.2225 72.3994 18.663C72.4417 18.6484 73.0602 17.6124 73.4436 17.5915C73.4705 17.5898 73.4963 17.5933 73.5207 17.6028C74.1025 17.8326 74.8947 18.3551 75.5366 18.5193C75.8431 18.5974 75.8658 17.7352 75.9227 17.7348C78.0797 17.8238 79.3844 18.8914 81.5283 19.7609C81.9196 19.921 83.3763 19.1095 83.9379 20.1922C84.5473 21.3784 82.6203 25.1147 84.7911 24.6942C85.6438 24.5256 88.1428 19.8083 88.7674 22.8395C89.6178 22.9032 90.3992 23.1395 91.1453 23.4465C92.9935 24.204 94.7408 25.2438 96.9084 25.1358C97.0462 25.1298 97.8255 23.8321 98.1118 23.9293C98.5385 24.0771 98.6046 24.7987 98.9065 24.9242C100.168 25.4665 101.514 25.2034 102.76 25.606C103.235 25.7575 102.896 26.3989 103.463 26.5795C104.028 26.759 104.633 25.9529 105.306 26.5804C105.81 27.0567 105.945 29.0424 106.66 29.4505C107.148 27.646 107.673 27.8162 108.745 27.5846C108.953 27.5399 108.919 26.8589 109.026 26.8053C109.468 26.5738 109.653 27.1804 110.085 26.9185C110.189 26.8557 110.359 26.2404 110.454 26.1544C111.276 25.4009 111.84 27.0528 111.924 27.3389C112.274 28.4293 112.794 27.7198 113.153 28.2237C113.507 28.7276 112.675 28.954 113.142 29.3406C113.641 29.756 114.254 30.0588 114.87 30.3313L114.848 30.3225C115.419 30.5937 116.011 30.8401 116.526 31.0877C116.953 31.2896 117.011 30.3805 117.081 30.3913C118.063 30.6001 118.6 31.8432 119.788 30.5129C118.635 34.7981 120.501 30.3785 121.421 31.6976C121.49 31.8005 120.892 33.7963 120.353 33.9108C119.811 34.0229 119.449 33.1633 118.708 33.3537C118.534 33.3995 116.987 34.836 116.837 34.8966C115.664 35.3748 116.848 32.5055 116.876 32.3312C117.171 30.4443 115.423 31.9551 115.144 31.9922C114.774 32.0347 114.457 32.007 114.172 31.9508L114.239 31.9774C113.531 31.8612 112.94 31.5275 112.203 31.6498C111.527 31.7586 110.881 33.6873 110.458 33.4966C109.023 32.866 109.177 29.9786 107.062 31.9686C106.607 32.3933 106.387 34.627 105.66 32.6427C105.616 32.5179 105.138 30.7518 104.389 31.6075C104.296 31.7155 104.142 32.3442 104.046 32.3764C103.403 32.5794 103.153 31.987 102.479 32.0752C101.806 32.1634 100.975 32.3373 100.318 31.9471C99.9216 31.713 99.6654 30.405 99.5339 30.0671C99.1664 29.097 98.1971 30.2869 98.0955 29.1963C97.9966 28.1008 99.0926 26.7635 98.3265 25.8711C97.8631 27.4876 97.3418 29.1347 96.8513 30.7539C94.7553 30.1363 92.8115 29.0231 90.628 28.3812C90.3564 28.3026 90.347 29.252 90.0455 29.1883C89.7596 29.1262 89.4945 29.0283 89.2414 28.911C88.5093 28.5547 87.8771 27.9821 86.9661 27.9061C86.0567 27.8333 84.8538 28.4761 83.8948 28.4579C83.8669 26.4502 82.3258 26.7101 81.3672 26.2849C81.0285 26.1355 81.1809 25.6442 80.9687 25.4175C80.1656 24.5759 80.1972 26.3373 79.8713 26.5314C78.4713 27.3597 79.2932 23.6006 77.909 23.3581C77.8361 23.3443 76.4542 25.1156 76.2957 25.2073C75.2989 25.8163 76.3409 24.483 75.8783 24.2101C75.031 23.7083 74.5334 23.0769 73.2435 23.3334C72.9186 23.4007 71.9845 24.1514 71.4654 23.5695C71.4081 23.4881 71.3616 23.3768 71.3295 23.2286C71.2973 23.0817 71.5495 22.4509 71.5031 22.3938C70.6439 21.4164 69.964 23.438 69.1609 23.9411C68.3624 24.4454 67.8984 22.7736 67.8275 22.313C67.6489 21.12 68.3291 21.9704 68.386 21.8762C69.062 20.7415 68.3255 20.7508 67.8411 20.5025C68.3358 18.4706 67.5584 18.3873 67.3365 20.2547C67.3123 20.4583 67.7636 20.3811 67.8411 20.5025C66.8262 22.3457 66.0461 22.4023 65.6489 20.337C65.4571 19.3715 66.0743 18.4291 64.742 18.5323C64.1436 18.5861 64.0756 20.0393 63.5351 20.3359C62.3317 21.0181 61.1932 19.5236 60.1783 19.7126C59.8281 19.7824 60.1488 20.5754 59.9221 20.6519C59.3543 20.8609 58.8381 20.3049 58.4284 20.6761C58.3969 20.7102 58.6123 21.5095 58.5012 21.5391C58.356 21.5818 58.2333 21.6081 58.1305 21.621C56.1028 22.1134 54.262 22.0568 52.302 22.2712C51.149 22.4032 49.1819 22.9982 48.059 22.9556C46.097 22.898 43.806 21.7442 42.3128 22.089C41.3419 22.3105 41.5914 23.1275 41.2109 23.7057C40.483 24.8234 39.0835 22.9679 38.8743 22.687C38.8649 22.6762 39.6212 22.4228 39.1759 22.0327C38.8643 21.1727 38.8803 22.6827 38.8743 22.687C38.8172 22.6054 38.4838 22.5489 38.121 22.5342C37.5724 22.5254 36.9386 22.5739 36.7529 22.682C36.5724 22.7878 36.7611 23.5531 36.6652 23.5936C34.384 24.5378 31.9855 24.9776 29.4328 24.7822C29.3874 24.7694 29.3962 23.8934 29.2909 23.8741C27.815 23.5794 26.9321 24.6892 25.6613 25.3511C24.3957 26.0107 23.2742 25.7764 22.5382 24.2411C22.0157 24.3137 21.3714 24.1486 20.7464 23.886C20.2692 23.645 19.8168 23.3357 19.4862 23.1018C18.8147 22.6262 18.5293 24.3047 18.4622 24.3314C16.3333 25.172 15.3525 24.1024 13.0169 23.5601C12.6691 23.4744 12.2365 23.4069 11.5428 23.263C11.1709 23.1732 10.8455 23.1446 9.87733 22.7666C9.65666 22.6754 9.25187 22.5004 8.75031 22.1837C8.42492 21.9745 8.01624 21.6885 7.53135 21.2032C6.98287 20.6094 6.03267 19.6472 5.62607 17.4781C5.43468 16.376 5.55538 15.1181 5.91281 14.1148C6.21406 13.2513 6.61229 12.6157 7.00282 12.1137C7.89319 11.0433 8.2196 10.9057 8.65299 10.5851C8.84883 10.4534 9.05103 10.3345 9.18691 10.2592C9.30876 10.1912 9.42237 10.132 9.52921 10.0791C9.74282 9.97345 9.92962 9.89219 10.0991 9.82348C11.328 9.27533 12.4443 8.99562 13.1942 8.82514C14.6561 8.50865 15.3788 8.9345 16.3718 8.70458C16.5047 8.67534 16.3991 7.91387 16.4405 7.88621C17.5641 7.02878 16.9415 8.85599 17.1359 9.1961C17.7803 10.4371 18.1493 11.1124 19.181 10.613C19.4298 10.4998 20.1692 7.86996 20.4455 7.71776C20.8244 7.52538 20.6869 8.48096 21.0534 8.24384C21.0816 8.22384 21.0676 7.63629 21.2576 7.6537C21.6214 7.68253 21.9115 7.7301 22.1547 7.75925C23.3289 7.61808 24.5207 7.48323 25.6541 7.23874C25.9189 7.18413 25.4078 6.32743 25.7902 6.23337C27.5863 5.79279 29.578 5.52131 31.3588 5.71908C31.7979 5.7706 31.6204 6.45554 31.7385 6.63553C32.4547 7.72432 33.0217 5.92824 33.1497 5.87924C36.1661 4.66866 38.6683 5.95367 41.6564 4.8827C41.7599 4.84401 42.2211 4.05709 42.7418 3.84638C43.093 3.71666 43.4697 3.79271 43.7643 4.35193C43.822 4.45112 44.5967 5.99193 45.0551 4.85357C45.0848 4.78245 44.6234 3.9885 45.3191 4.01867C46.0075 4.04946 47.0719 3.4276 48.034 4.29088C48.3413 4.56228 49.0833 6.13159 49.88 4.82445C49.9261 4.73229 51.1613 1.80181 51.6772 3.78479C51.7604 4.11142 51.735 6.22044 52.7039 5.11848C52.8901 4.90514 52.5355 4.44116 53.0315 4.13795C53.7938 3.67088 54.8114 4.22258 55.7357 3.27498C55.8961 3.1071 56.5803 1.6698 57.1395 2.75381C57.2268 2.92357 57.067 3.62872 57.3579 3.70606C58.7421 4.07725 60.1743 3.60432 61.5524 4.08855C62.0403 4.25865 61.7939 5.3979 62.3024 5.70169C62.8112 6.00546 63.8325 6.29505 64.3565 5.77148C64.8798 5.24768 64.2953 3.43688 65.0781 3.28622C66.7022 2.97267 68.2978 3.03677 69.8707 3.18255C71.5884 3.34167 73.3793 3.60139 75.1605 3.60275C75.6748 3.60266 75.2196 2.97364 75.9579 2.92702C78.6948 2.75469 83.438 1.87435 85.9242 3.1005C87.9191 4.08377 85.5462 5.07454 87.048 5.43145C87.774 5.60093 88.4121 3.44593 88.5787 3.36864C90.2119 2.58739 91.444 3.44216 92.9338 3.05402C93.2434 2.97339 92.878 2.1411 93.1419 2.0819C94.0433 1.87204 95.0141 2.18771 95.8837 2.05707C96.2708 1.99669 96.1536 1.35018 96.5138 1.37547C97.3668 1.42899 98.1657 1.64758 99.0335 2.19921C99.113 2.24945 98.662 3.09623 99.2924 3.08141C100.338 3.05329 101.643 3.56421 102.787 2.85504C103.127 2.64202 103.008 1.15414 103.857 2.12519C104.032 2.32819 103.966 4.13035 104.728 2.52105C104.843 2.25459 106.195 0.0594873 106.996 1.34965C107.205 1.68944 107.827 3.11358 108.228 2.85236C108.282 2.81141 107.994 2.02902 108.335 1.92493C109.538 1.57213 110.87 1.55724 112.096 1.2129C112.443 1.1179 111.859 0.329918 112.373 0.215112C113.739 -0.0972929 115.508 -0.0221004 116.966 0.142566C117.652 0.198442 117.221 0.913065 117.278 0.984432C117.519 1.27865 117.503 1.38982 118.19 1.39865C118.24 1.39991 118.297 1.40114 118.368 1.40317C118.404 1.40419 118.443 1.40542 118.487 1.4071C118.509 1.40795 118.532 1.40891 118.557 1.41004C118.6 1.41285 118.537 1.40608 118.809 1.42624C119.045 1.45198 119.302 1.45097 120.078 1.63575C120.488 1.75376 121.022 1.84941 122.133 2.4798C122.684 2.8149 123.433 3.30339 124.275 4.35049C125.105 5.35979 125.963 7.1884 125.947 9.12861C125.79 13.2332 123.631 14.6706 122.925 15.3082C122.05 15.9642 121.594 16.1344 121.246 16.2956C120.577 16.5739 120.334 16.6199 120.12 16.6813C119.73 16.7805 119.589 16.8003 119.476 16.8226C119.461 16.8261 119.447 16.8295 119.434 16.8329C119.328 16.8597 119.258 16.8847 119.196 16.9132C119.074 16.9696 118.989 17.0383 118.904 17.1171C118.673 17.418 118.614 17.8611 118.485 17.9239C118.245 18.0309 118.149 18.0952 117.979 18.1476C117.819 18.1988 117.648 18.2311 117.465 18.2509C117.054 18.2972 116.354 18.0356 115.656 18.298C115.385 18.3969 115.709 19.1374 115.665 19.2154C115.195 19.9839 115.397 18.5256 115.001 18.4344C113.865 18.1796 112.634 18.4598 111.5 18.7548C111.084 18.8642 111.711 19.6782 111.336 19.766C109.104 20.3043 106.646 20.6094 104.21 20.4055C103.751 20.3651 103.948 19.6366 103.836 19.4895C103.072 18.458 102.297 20.0723 102.083 20.2384C101.133 20.9966 100.673 20.4144 99.7581 20.5923C99.5625 20.63 99.3642 20.665 99.1637 20.6973C95.5169 21.363 91.0649 21.3253 87.522 21.3609C82.707 21.4121 78.9019 21.0249 74.3104 21.4913C74.0218 21.5198 74.373 22.4293 74.124 22.4658C71.9072 22.7603 69.6888 22.7702 67.4735 22.8882C66.4936 22.9403 65.4689 23.0224 64.4767 23.1674C64.2149 23.2038 64.6482 24.0607 64.2285 24.1486C63.3727 24.335 62.2799 24.3553 61.3807 24.1306C60.9409 24.0227 61.4681 23.231 61.0315 23.1376C60.0185 22.9182 58.9335 22.9259 57.9134 23.1351C57.4805 23.2259 58.1998 24.0819 57.6318 24.13C53.756 24.4771 49.9473 24.8982 45.9326 24.0143C45.6573 23.9536 45.2905 22.1426 44.7419 22.5343C44.7351 23.0447 44.7803 23.6412 44.8004 24.1848C39.1558 24.8839 33.4989 24.667 27.8059 25.0016C27.5664 25.0159 28.0529 25.9526 27.5905 25.9852C25.2607 26.1501 22.9728 26.5296 20.5804 26.1276C20.2174 26.0692 19.8585 25.9934 19.5032 25.897C19.2303 25.8237 19.222 24.1109 18.4449 24.4311C18.3162 24.4885 17.1226 24.8112 16.8338 25.2061C16.7958 25.2652 17.0796 26.0425 16.6911 26.0967C14.4447 26.3965 12.059 26.4065 9.781 26.1096C9.41175 26.0603 9.72885 25.1814 9.46172 25.1393C7.58847 24.8452 5.66945 25.6616 3.86719 25.0593C2.65695 24.654 2.94587 23.1521 2.18277 21.7751C2.0753 21.5808 1.34559 21.6209 1.22355 20.7884C0.916482 18.6949 1.04132 16.3566 0.672552 14.1293C0.591964 13.6496 -0.333568 14.2674 0.128694 13.0427C0.160906 12.9606 0.835054 12.5022 0.972363 12.0889C1.06876 11.803 0.761369 10.9744 0.979868 10.5991C1.19471 10.2244 1.54602 10.9098 1.92334 10.4578C2.30191 10.0007 2.0246 9.04988 2.85566 8.85583ZM16.4551 20.9474C15.89 20.0528 15.4009 23.0052 16.2294 22.3893C16.2708 22.3561 16.4841 20.9914 16.4551 20.9474ZM93.4675 26.8329C93.0139 25.3182 91.8541 26.9823 92.1532 28.1449C92.4628 29.3074 93.6133 27.2939 93.4675 26.8329ZM102.392 28.2198C101.672 26.9698 100.493 31.0469 101.744 30.474C101.817 30.442 102.434 28.2924 102.392 28.2198ZM5.03096 21.0914C5.01868 21.0525 4.49449 21.0619 4.48373 21.1025C4.29332 22.074 5.34449 22.0542 5.03096 21.0914ZM111.102 29.3733C110.964 28.7358 109.93 29.1377 110.109 29.9272C110.246 30.5592 111.268 30.1632 111.102 29.3733ZM41.1856 12.7158C41.2016 12.7589 41.5815 12.7573 41.5458 12.5078C41.4331 11.7038 40.9323 11.9895 41.1856 12.7158ZM125.799 33.5258C124.504 33.9382 123.331 32.8934 123.298 32.0146C123.192 31.1231 123.604 30.4732 124.053 30.6192C124.157 30.6399 124.103 30.9346 123.99 31.253C123.887 31.5708 123.701 31.9088 123.926 32.065C124.363 32.3393 124.68 31.8448 124.886 31.4258C125.11 31.0005 125.303 30.6399 125.993 30.9577C126.279 31.0666 126.02 33.4835 125.797 33.5319C125.798 33.5299 125.798 33.5278 125.799 33.5258ZM16.5271 17.3353C16.5189 17.2948 16.0074 17.1895 15.9873 17.2259C15.5752 18.1292 16.6248 18.3448 16.5271 17.3353ZM63.2675 13.7125C63.2967 13.7969 64.5149 13.8699 64.5545 13.7917C65.1787 12.2358 62.7223 12.084 63.2675 13.7125ZM51.4285 14.0924C51.8617 13.0819 52.4325 12.8887 53.0448 14.0042C52.5085 14.0262 51.9744 14.089 51.4285 14.0924Z" fill="#4CC72E"/>
</svg>
