<svg width="84" height="101" viewBox="0 0 84 101" fill="none" xmlns="http://www.w3.org/2000/svg">
<path d="M69.4308 96.514C67.1661 96.7755 64.5355 96.9789 61.072 96.593C59.31 96.3583 57.3168 96.0656 54.6326 94.8129C52.0641 93.7556 48.1137 90.1824 47.2387 86.0615C46.6005 83.4466 46.8215 81.6611 47.0287 80.2611C47.6227 77.3988 47.8969 78.9513 48.4139 77.326C49.4917 74.4425 50.2667 72.3544 51.572 70.4097C52.0067 69.7857 52.2958 71.0083 52.7323 70.3553C55.1222 66.833 57.0495 63.6494 59.5671 60.5246C59.7905 60.2492 60.0208 59.9668 60.2404 59.701C60.326 59.5932 60.4119 59.487 60.5027 59.3779C60.5951 59.2676 60.6768 59.1685 60.8683 58.9517C60.9569 58.8524 61.0558 58.7442 61.1813 58.6154C61.2564 58.549 61.5487 58.2001 62.2582 57.6808C62.4476 57.5453 62.6784 57.3898 62.9993 57.2122C63.1602 57.1235 63.3443 57.0294 63.5631 56.9322C63.5775 56.9253 64.015 56.7299 64.4635 56.6018C64.9274 56.467 65.5091 56.341 66.2495 56.3154C67.6809 56.2103 70.026 56.862 71.4513 58.3144C72.9021 59.7362 73.3241 61.1945 73.5094 62.0854C73.6128 62.6509 73.5962 62.6586 73.6157 62.8203C73.6282 62.9558 73.6359 63.0814 73.6405 63.1986C73.6496 63.4329 73.6466 63.634 73.6385 63.8118C73.6012 64.5153 73.5112 64.8898 73.4426 65.193C73.4069 65.3418 73.3728 65.4657 73.3407 65.5751C73.3096 65.68 73.3025 65.7002 73.2841 65.7575C73.0137 66.5488 72.9108 66.7007 72.7815 66.9846C72.6619 67.2301 72.5774 67.3892 72.4695 67.5941C72.0947 68.2916 71.7689 68.8466 71.4198 69.4424C70.7496 70.5769 70.0825 71.6688 69.4142 72.7545C68.0774 74.9236 66.7414 77.0506 65.4043 79.1653C62.7202 83.407 60.0235 87.6132 57.263 91.8158C56.9451 92.3021 56.6623 92.7336 56.4132 93.1121C56.3113 93.2648 56.1135 93.5725 55.9833 93.7721C55.8396 93.9935 55.7324 94.1562 55.5988 94.3628C55.4362 94.6168 55.3096 94.8142 55.2241 94.9458C55.1461 95.0693 55.0869 95.1707 55.1481 95.054C55.1524 95.0456 55.1575 95.0358 55.1634 95.0242C55.1693 95.0126 55.1495 95.0517 55.2029 94.9478C55.2499 94.8465 55.304 94.7764 55.4885 94.2859C55.5639 93.9647 55.789 93.8048 55.8473 92.185C55.7882 91.4393 55.8917 89.4504 53.497 87.4347C52.3397 86.5128 50.8211 86.1452 49.7992 86.1617C48.7481 86.1664 48.0746 86.3893 47.5947 86.5678C46.653 86.9498 46.3306 87.2385 46.0554 87.4374C45.7984 87.6386 45.6588 87.7725 45.5484 87.8788C45.3355 88.088 45.248 88.1933 45.1756 88.2766C45.1064 88.3578 45.0658 88.409 45.0343 88.4489C45.0113 88.4782 45.0239 88.4623 45.0187 88.4689C45.015 88.4737 45.0116 88.4782 45.0082 88.4826C45.0016 88.4913 44.9956 88.4992 44.9901 88.5066C44.9791 88.5212 44.9702 88.5333 44.9627 88.5436C44.9332 88.5843 44.9243 88.5984 44.9224 88.6022C44.9199 88.6083 44.9474 88.5718 44.9871 88.5162C45.079 88.392 45.2346 88.17 45.3835 87.9559C45.506 87.7816 45.6468 87.5787 45.8038 87.3505C46.9618 85.6711 48.1229 83.9622 49.267 82.2794C51.591 78.8567 53.9047 75.4351 56.2552 71.9702C59.7358 66.8404 64.4676 60.9537 67.751 55.3901C68.1419 54.7287 67.2747 54.7031 67.3045 54.5481C67.743 52.2086 68.624 53.5707 69.5749 52.5076C70.117 51.8837 70.5928 51.3401 71.1268 50.7033C71.352 50.4455 71.6752 50.0448 71.9253 49.7533C72.0322 49.6326 72.2299 49.3864 72.3882 49.2026C72.4766 49.0987 72.5303 49.0399 72.656 48.8943C72.745 48.7899 72.8367 48.6837 72.9738 48.5382C73.1315 48.3845 73.2361 48.2261 73.8251 47.7974C73.9882 47.6894 74.1643 47.5772 74.4054 47.4457C74.466 47.4128 74.5312 47.3787 74.6029 47.343C74.6554 47.3166 74.8549 47.2185 75.0324 47.1482C75.4213 47.0107 75.9241 46.764 77.0961 46.7878C78.0998 46.6999 80.4607 47.7587 81.1314 49.4154C81.5007 50.1439 81.5976 50.9332 81.6096 51.2117C81.6247 51.4581 81.6194 51.6695 81.6061 51.8544C81.5435 52.5865 81.4027 52.9453 81.2996 53.2391C81.236 53.4067 81.219 53.4399 81.1877 53.5118C81.1589 53.5763 81.131 53.6356 81.1038 53.6913C81.0494 53.8025 80.9979 53.8995 80.948 53.9894C80.6023 54.5889 80.4014 54.8332 80.1789 55.137C79.7591 55.6911 79.3718 56.1631 78.9874 56.6322C78.226 57.5573 77.4803 58.4479 76.7666 59.3137C75.3071 61.0812 73.9476 62.7742 72.6717 64.4258C71.2066 66.3193 73.8716 65.4687 71.6872 66.7413C71.5351 66.8322 71.3431 65.8583 70.8477 66.3028C69.7437 67.293 67.9855 69.5113 67.1866 70.3208C65.6317 71.8938 65.4006 72.165 63.9937 73.728C62.0782 75.8436 59.5203 78.0947 57.589 80.4728C57.1815 80.9786 58.3544 80.8843 57.7549 81.7427C57.1489 82.609 55.2273 84.5994 54.4649 85.145C53.6954 85.6993 53.5004 84.9809 53.2826 85.0037C52.1908 85.1117 51.44 86.3767 50.9328 87.4736C50.7788 87.7321 50.6394 87.9668 50.4944 88.1888C50.4506 88.2737 50.2707 88.4782 50.1368 88.6227C49.983 88.7831 49.8467 88.9239 49.5832 89.1179C49.1337 89.3852 48.4869 89.9018 46.89 89.8591C45.9093 89.9092 44.0318 88.8895 43.503 87.8522C42.8758 86.8597 42.8437 86.0307 42.8134 85.9252C42.7076 84.931 42.8074 84.6672 42.8294 84.4433C46.0033 74.7008 49.9618 71.3186 53.6865 64.9044C56.3749 60.55 58.9851 55.8412 62.0116 51.6708C62.1661 51.4611 62.2857 51.2942 62.3658 51.1802C62.4362 51.0823 62.505 50.9688 62.4526 51.0643C62.4506 51.0716 62.3892 51.1713 62.2926 51.4115C62.2433 51.5379 62.1788 51.7068 62.1106 51.997C62.0772 52.1432 62.0429 52.3213 62.0207 52.5548C62.0097 52.6716 62.0021 52.8025 62.0018 52.9514C62.0026 53.0422 62.0002 53.05 62.0107 53.2379C62.0249 53.4556 62.0567 53.7069 62.1264 53.9932C62.2689 55.1307 63.8457 56.9517 65.2669 57.1905C66.6414 57.51 67.3031 57.2316 67.7123 57.1249C67.9038 57.0641 68.1083 56.9742 68.1378 56.9602C68.1752 56.9432 68.2094 56.927 68.241 56.9115C68.3043 56.8805 68.3575 56.8524 68.4035 56.8271C68.5856 56.7258 68.6667 56.6666 68.7187 56.6299C68.8643 56.5188 68.7399 56.6057 68.6538 56.6797C68.5421 56.7736 68.4651 56.839 68.3431 56.947C67.8713 57.366 67.3787 57.8265 66.8772 58.2986C65.8959 59.2228 64.884 60.1952 63.92 61.1325C61.9512 63.0522 60.0486 64.9652 58.0996 67.1348C57.6885 67.5914 58.8704 67.7004 58.3693 68.2601C53.6261 73.5871 48.1053 79.5081 43.8656 83.7949C43.7398 83.9656 43.6411 84.0936 43.5362 84.2284C43.4576 84.3341 43.3922 84.4196 43.3098 84.5245C43.3009 84.5354 43.2876 84.5534 43.2376 84.6193C43.1902 84.6804 43.1446 84.7434 43.0109 84.8983C42.9368 84.9807 42.8573 85.0793 42.6178 85.2979C42.4895 85.4096 42.333 85.5551 41.965 85.7846C41.5719 85.9679 41.0398 86.4969 39.2412 86.4172C38.3642 86.361 37.1669 85.8544 36.4492 85.0649C35.7136 84.2876 35.4475 83.4831 35.332 82.9719C35.1542 82.0919 35.2396 81.6822 35.2722 81.3763C35.3658 80.7985 35.4501 80.6316 35.5037 80.4698C35.613 80.1839 35.6599 80.1039 35.7011 80.0185C35.7407 79.9406 35.7679 79.8912 35.7925 79.847C35.8539 79.7375 35.8453 79.7575 35.8666 79.7223C35.928 79.6258 35.9935 79.5261 36.0559 79.4327C36.1013 79.3683 36.1498 79.2992 36.202 79.2245C36.3164 79.0586 36.4021 78.9422 36.5014 78.8042C37.0046 78.1067 37.1516 79.451 37.6657 78.8321C40.8426 74.9764 46.3879 69.3537 44.9436 64.9479C46.8638 62.2315 49.1981 58.9237 51.4486 56.8423C52.8989 55.5013 52.6185 57.5538 53.604 55.3774C53.8269 54.8886 52.7869 55.0236 53.1711 54.3241C54.8013 51.3628 57.0779 48.4651 58.6718 45.4926C58.7166 45.4083 58.7413 45.331 58.7508 45.2597C58.7676 45.0591 58.6224 44.941 58.4901 44.8271C58.3526 44.7204 58.2299 44.6124 58.1847 44.5813C58.153 44.5718 58.1313 44.5474 58.0542 44.6269C58.0112 44.676 57.9535 44.7505 57.8638 44.9137C57.8414 44.9551 57.8168 45.0026 57.7897 45.0592C57.7762 45.0875 57.7621 45.1181 57.7473 45.1516C57.7276 45.199 57.7346 45.1709 57.6748 45.3338C57.5889 45.6008 57.4415 45.9407 57.3925 46.7895C57.3545 47.5087 57.4677 49.6275 59.5346 51.1278C59.9887 51.458 60.5931 51.7215 60.9372 51.8239C61.2843 51.9337 61.6108 51.9963 61.9044 52.0294C62.4937 52.094 62.9483 52.0507 63.3034 51.9937C64.0099 51.8699 64.3675 51.7013 64.6378 51.5814C65.1403 51.3433 65.364 51.1632 65.3859 51.1584C65.5235 51.0714 65.5989 51.0205 65.6534 50.9865C65.7633 50.9157 65.7623 50.9339 65.777 50.9387C65.7927 50.9942 65.6531 51.1596 65.5196 51.2879C65.226 51.5712 64.8122 51.8428 64.393 52.07C63.5498 52.5301 62.683 52.8138 62.4338 52.9992C58.8321 55.65 56.9702 58.3374 54.2383 61.4177C53.6032 62.1339 55.0606 61.9136 54.4809 62.6189C51.7292 65.9471 48.7491 69.2673 45.6808 72.2708C45.3605 72.5839 45.0442 72.8903 44.7319 73.1894C43.9875 73.9035 43.9892 72.6624 43.6058 72.9729C42.7565 73.6711 42.5447 74.3668 42.3386 75.0611C42.2428 75.3997 42.1302 75.7607 41.9402 76.1184C41.8358 76.3075 41.7255 76.4825 41.5261 76.7143C41.4717 76.7768 41.434 76.8194 41.3459 76.9102C41.2574 76.9988 41.2122 77.0508 40.9725 77.2603C40.9105 77.313 40.8623 77.354 40.7445 77.4442C40.548 77.5769 40.3749 77.7701 39.5933 78.0704C39.4912 78.1065 39.3758 78.1429 39.2422 78.177C39.1712 78.1948 39.1179 78.2077 39.0148 78.2281C38.8236 78.2653 38.5994 78.2957 38.3332 78.3021C37.3309 78.4599 35.2116 77.4696 34.6682 76.1406C34.0626 74.9488 34.2374 74.0321 34.2149 74.0657C34.2244 73.8855 34.2431 73.7411 34.2631 73.6183C34.3481 73.1378 34.4352 72.9407 34.4988 72.7691C34.6485 72.4093 34.7411 72.2716 34.7998 72.1777C35.2023 71.5883 35.6039 72.2982 35.7309 72.2264C37.4809 71.6182 36.6151 69.8508 36.7584 69.5474C37.5053 67.968 38.4547 66.8267 39.4392 65.7812C40.7962 64.344 42.2473 63.0602 43.3685 61.0302C43.5991 60.6094 42.2853 61.038 42.9676 59.9013C47.5577 52.2514 52.8468 44.4446 58.2501 37.4218C59.0881 36.3318 59.1068 37.5118 59.2212 37.4848C61.0562 36.9929 60.1276 35.304 60.3188 34.8942C61.8659 31.6827 64.8792 29.709 64.5276 26.5939C65.0178 25.9301 65.4991 25.2737 65.969 24.6315C67.4762 22.5809 68.8647 20.5958 70.5696 18.4519C70.802 18.1688 71.0102 17.9092 71.3766 17.5242C71.4572 17.4411 71.5919 17.3039 71.7609 17.1571C71.821 17.105 72.0053 16.9467 72.2321 16.8003C72.292 16.7615 72.3587 16.7205 72.4358 16.6771C72.5316 16.6228 72.7214 16.5231 72.9443 16.4407C73.1737 16.3568 73.4713 16.2658 73.8923 16.2322C73.9974 16.2243 74.1101 16.2206 74.2302 16.2233C74.3566 16.2278 74.4502 16.2289 74.6918 16.2654C75.1141 16.3308 75.6034 16.5018 76.0301 16.7859C76.9082 17.3401 77.3408 18.3225 77.428 18.688C77.5209 19.0129 77.5485 19.2683 77.5598 19.4763C77.581 19.8718 77.5244 20.196 77.5123 20.2698C77.4697 20.5179 77.4179 20.695 77.3779 20.8245C77.3159 21.0236 77.2406 21.2134 77.198 21.316C76.8 22.2352 76.5094 22.7206 76.1753 23.3299C75.5247 24.4863 74.8694 25.568 74.1949 26.6549C69.2178 34.5364 63.9469 41.9871 57.6447 48.7211C57.5151 48.8617 57.0418 48.0913 56.7868 48.373C56.1249 49.1 55.6708 49.6784 55.3732 50.1587C54.2703 51.9241 55.15 52.5393 54.687 55.1885C54.5355 56.044 51.5841 56.6852 51.3483 56.7509C50.4778 57.0101 49.9835 55.6301 49.75 55.7619C47.8539 56.8635 51.2747 59.1987 49.4882 61.3664C49.4272 61.4293 49.0772 60.6625 48.8695 60.7949C48.2226 61.2042 47.995 61.9465 47.3381 62.323C46.152 62.9953 44.712 62.6011 43.8372 63.7109C43.6046 64.007 43.4174 64.4064 43.2801 64.9658C43.2385 65.1374 43.7528 65.4915 44.0606 66.0478C44.2146 66.3253 44.3222 66.6485 44.2619 67.0427C44.2321 67.2387 44.1589 67.455 44.0092 67.7042C43.8256 67.9707 43.7327 68.1921 42.9688 68.7804C42.7683 68.9087 42.6188 69.0791 41.8628 69.3668C41.6412 69.4426 41.3805 69.5165 41.0161 69.5552C40.5939 69.5976 40.0592 69.5824 39.4557 69.3737C38.1191 68.9201 37.4664 67.7711 37.298 67.3165C36.9163 66.2452 37.0248 65.9841 37.003 65.6348C37.0098 65.3294 37.0347 65.1058 37.0611 64.8974C37.1732 64.0855 37.3285 63.4647 37.4995 62.78C37.8657 61.3432 38.2903 59.8298 38.5412 59.2067C39.0076 58.0537 39.5148 59.0702 39.5694 58.9923C41.4079 56.05 41.4741 57.3835 43.3434 56.2017C45.2124 55.0352 41.7208 54.4956 41.5389 53.7298C41.355 52.9683 42.8529 50.8827 43.305 50.4057C43.7559 49.9236 43.991 50.7731 44.303 50.3198C46.3664 47.3177 43.1106 48.3306 42.9348 47.0585C42.5101 44.0621 45.7298 42.8143 46.6129 40.6658C46.6338 40.6163 46.6418 40.5626 46.6312 40.5647C46.6272 40.5597 46.5799 40.588 46.5977 40.8255C46.604 40.8833 46.6173 40.9525 46.644 41.0304C46.6411 41.0526 46.7757 41.3373 46.9812 41.4859C47.1904 41.6545 47.4667 41.7253 47.6547 41.7279C47.8477 41.7325 47.9723 41.6988 48.062 41.6738C48.2407 41.618 48.2964 41.5863 48.3174 41.5961C48.3473 41.5968 48.3719 41.6009 48.3957 41.6058C48.5561 41.6894 48.8991 41.5071 48.7868 41.7145C48.7225 41.8547 48.637 42.0266 48.5356 42.2178C47.5898 43.9967 46.3678 44.9164 45.7324 47.3661C45.6197 47.8047 45.8756 50.481 44.1768 51.1214C43.9335 51.2111 43.6587 50.3946 43.0258 51.1953C42.081 52.388 40.5949 54.6633 39.9725 56.1732C39.5144 57.2865 41.1232 56.6345 40.0847 57.7709C39.6243 58.2735 39.7008 56.8895 38.8775 57.8664C38.059 58.8316 36.5034 61.6174 35.9377 62.6914C35.3731 63.7593 36.4031 63.5698 36.4032 63.6819C36.4041 63.9741 36.2394 64.6024 36.0765 65.1872C35.9403 65.6122 35.8694 65.896 35.7858 66.1732C35.7707 66.2538 35.7127 66.4384 35.7861 66.2945C35.7905 66.2853 35.7953 66.2746 35.8006 66.2621C35.8124 66.2181 35.7851 66.3547 35.8787 65.9969C35.8977 65.9072 35.9239 65.7918 35.9349 65.5715C35.9305 65.3495 35.9839 65.01 35.665 64.336C35.4136 63.6341 34.1168 62.8571 33.3556 62.9806C32.5927 63.0325 32.316 63.2554 32.1171 63.364C31.9273 63.486 31.8387 63.5679 31.7689 63.6304C31.6981 63.6958 31.666 63.731 31.6683 63.728C31.6557 63.7406 31.6446 63.7519 31.6346 63.7623C31.557 63.8433 31.5339 63.872 31.5151 63.8927C31.4821 63.93 31.4845 63.9251 31.4842 63.9252C33.6749 60.298 36.1917 56.3182 38.554 52.6384C39.746 50.7671 40.9126 48.9199 42.0414 47.015C42.594 46.0834 43.156 45.1026 43.6657 44.156C43.9281 43.6677 44.1834 43.1757 44.4046 42.7185C44.5342 42.4483 44.618 42.2695 44.7245 42.0157C44.7671 41.9134 44.8055 41.8123 44.8216 41.7584C44.8243 41.7494 44.8241 41.7481 44.821 41.7594C44.82 41.7786 44.8067 41.7561 44.7915 41.9869C44.7927 42.1018 44.7761 42.2827 44.914 42.6242C45.0216 42.952 45.54 43.491 46.1008 43.5558C46.6349 43.6303 46.8937 43.4827 47.038 43.421C47.1828 43.3476 47.2379 43.2997 47.2735 43.2725C46.4963 43.9166 45.7435 44.6279 45.0287 45.3877C44.5104 45.9419 45.4712 46.197 45.3982 46.2878C43.8509 48.3721 43.6525 45.3122 41.8042 46.1712C43.2648 47.1482 42.2787 47.7236 41.2274 49.2812C40.7233 50.037 41.5566 50.0827 41.5567 50.1899C41.5203 51.843 39.9334 51.761 39.5696 51.7925C38.2384 51.904 38.6075 53.3816 37.7185 53.4864C36.8292 53.6026 36.8558 51.8802 35.8039 53.3884C36.0202 54.1614 38.1151 53.9926 37.549 55.2632C35.3922 59.9759 29.5222 67.7304 27.4239 71.4124C25.3028 75.0532 24.781 76.3308 23.2928 78.4094C22.9 78.9443 22.5404 79.4537 22.2513 79.8372C22.0369 80.1068 21.9977 80.4996 22.137 80.3392C22.1533 80.3061 22.1733 80.2575 22.1824 80.1506C22.1838 80.0442 22.2107 79.8714 22.0383 79.5034C21.9453 79.3159 21.7677 79.0735 21.4915 78.8915C21.22 78.7082 20.9008 78.6292 20.6795 78.6153C20.2324 78.5949 20.0683 78.6786 19.9424 78.7093C19.546 78.8458 19.5852 78.7863 19.5108 78.7387C19.4374 78.3828 19.3307 78.0069 19.6801 77.0486C20.4804 74.6869 22.4356 77.128 23.1749 77.1382C23.9194 77.1115 23.5537 76.4159 24.0907 76.1467C24.6295 75.8713 24.5188 77.0181 25.1689 76.0535C25.8437 75.0661 26.1471 71.7377 25.6914 71.1051C24.7468 69.7544 22.8506 70.4258 24.4961 67.9269C24.5911 67.7824 25.0906 68.5963 25.4184 68.0255C27.863 63.6928 29.709 58.8713 31.5603 54.2396C31.6682 53.9607 31.7645 53.7068 31.8499 53.4767C31.9617 53.1774 32.1927 53.2057 32.4159 53.2751C32.6373 53.3473 32.8486 53.4612 32.9259 53.2268C33.025 52.9174 33.0852 52.7157 33.131 52.4533C33.1547 52.3052 33.1679 52.1741 33.1717 52.0544C33.1738 51.9345 33.1762 51.8357 33.1388 51.6528C33.0998 51.4884 33.054 51.3555 32.9174 51.1949C32.763 51.0106 32.4985 50.919 32.3174 50.9245C32.0346 50.9236 31.7813 51.0697 31.6873 51.1426C31.1891 51.5303 31.1496 51.858 31.121 52.2087C31.1348 52.8807 31.5226 53.5601 31.3931 54.9263C30.145 53.0998 28.2076 53.1893 26.1219 55.9082C24.9001 57.5129 25.8736 57.7941 25.6366 59.2398C25.5755 59.6613 24.2142 60.4456 24.4313 60.9061C25.1256 62.4327 27.2044 62.2871 24.7214 64.6997C24.6103 64.8052 24.2341 63.9592 23.8977 64.3569C21.7244 66.9323 22.7559 68.1136 20.86 71.2224C20.257 72.2147 19.269 73.4538 18.1901 74.7249C17.6687 75.3334 17.0877 76.0043 16.5149 76.6552C16.3842 76.7999 16.2283 76.9802 16.0828 77.1445C15.9304 77.3184 15.8256 77.4255 15.6523 77.6261C15.487 77.8146 15.3805 77.9232 15.1952 78.1302C15.104 78.2313 15.0179 78.3234 14.9297 78.4134C14.8979 78.4434 14.8119 78.5388 14.7113 78.6376C14.5998 78.7407 14.5136 78.8472 14.1772 79.0683C14.0904 79.1196 13.9981 79.1708 13.893 79.2228C13.7808 79.2759 13.6992 79.3207 13.4381 79.4106C13.3187 79.4496 13.1799 79.4878 13.0081 79.5154C12.9158 79.5293 12.8493 79.5387 12.7046 79.5458C12.5402 79.5529 12.35 79.5457 12.1373 79.5062C11.7178 79.437 11.183 79.1785 10.8399 78.8126C10.4898 78.4529 10.3145 78.0474 10.2337 77.7418C10.1477 77.3901 10.1587 77.3017 10.1504 77.1492C10.1477 77.0117 10.1555 76.8963 10.1668 76.7941C10.1945 76.5655 10.2154 76.5023 10.2421 76.391C10.2968 76.1823 10.3485 76.0475 10.3934 75.9334C10.5841 75.4662 10.736 75.2005 10.8911 74.9012C13.0411 75.9575 13.9622 73.0667 13.1466 71.1366C14.2512 69.3213 15.2863 67.323 16.4859 65.6601C16.8945 65.094 17.2834 65.8352 17.3925 65.7961C19.0954 65.1946 18.1143 63.6073 18.2772 63.1811C19.3263 60.5482 20.7327 58.4636 21.9375 56.2539C22.8441 54.5909 23.6897 52.8908 24.2236 50.8779C24.2681 50.71 22.9296 49.6471 24.6255 49.1456C24.7398 49.1162 24.639 50.8506 25.7849 48.9467C26.9321 47.0397 29.8105 43.8858 30.702 40.8426C30.9161 40.1087 30.6988 37.789 32.3863 37.0362C32.6128 36.9383 32.9178 37.3718 33.2953 37.2619C34.5142 36.8841 33.3016 35.5897 35.1099 35.3703C36.5854 35.1866 38.2809 34.2305 39.1948 32.009C39.265 31.8436 39.319 31.6943 39.3603 31.5457C39.378 31.4763 39.4424 31.304 39.4755 31.0973C39.4846 31.0407 39.4934 30.9758 39.4976 30.8912C39.4923 30.9077 39.528 30.6648 39.4457 30.386C39.3883 30.1033 39.0251 29.5978 38.557 29.4764C38.1148 29.3442 37.8005 29.4653 37.7094 29.4946C37.6499 29.517 37.6016 29.5396 37.5601 29.5613C37.4774 29.6048 37.4203 29.6443 37.372 29.6804C37.2769 29.7527 37.2158 29.8137 37.1573 29.8748C37.1089 29.9278 37.0976 29.9498 37.0691 29.988C37.0189 30.0585 36.9705 30.1321 36.92 30.2117C36.8167 30.3741 36.7817 30.4747 36.7058 30.6283C36.6155 30.7729 37.2101 32.1503 36.5714 32.9122C35.5835 34.0824 33.9992 35.669 33.0177 36.9562C32.5392 37.5848 33.5116 37.6961 33.44 37.8141C30.6334 42.2306 27.7803 44.7478 24.0919 48.9699C23.4158 49.7421 22.4983 52.7763 20.5529 53.7766C18.4238 54.8633 16.5951 50.5776 14.2529 55.0513C13.3156 56.8247 15.6884 62.1934 11.2575 63.1541C11.2488 63.1661 11.2402 63.1782 11.2315 63.1902C11.169 63.277 11.1146 63.3482 11.0711 63.4027C11.0164 63.469 10.97 63.5138 10.9698 63.5228C10.982 63.5249 10.9764 63.5139 11.1073 63.4965C11.2298 63.4729 11.4883 63.5614 11.5791 63.6875C11.729 63.9117 11.6398 63.8465 11.645 63.8045C11.5993 63.5394 11.6445 63.0914 11.7059 62.6792C11.8293 61.8657 12.0338 61.033 12.2594 60.2122C12.7087 58.5921 13.2647 56.9797 13.8114 55.386C14.9121 52.1859 16.0105 48.9776 16.5737 45.4623C16.6261 45.1427 15.52 43.7657 15.7552 43.0515C16.1031 42.0051 16.9319 41.6088 17.1993 40.8673C17.4699 40.1266 17.6879 39.4059 17.884 38.6683L17.8816 38.7325C17.6368 37.3988 16.1302 37.6455 15.1264 38.0612C14.0468 38.4804 13.0068 39.0568 11.9078 39.573C10.8217 40.096 10.8663 39.2784 9.5672 39.9282C8.2726 40.5768 7.86803 41.8713 5.90066 42.3587C4.43678 42.701 2.28971 41.671 0.810794 41.7641L3.56462 44.7453C3.57274 44.7301 3.58077 44.7146 3.58873 44.6986C1.81121 44.1094 2.26536 42.829 2.87341 40.4626C2.98922 40.0049 2.18975 40.1615 2.21281 39.9338C2.30014 38.9892 3.1672 38.4759 3.23037 37.5653C3.24785 37.3424 2.68711 37.0372 2.67159 36.8351C2.51333 35.1067 4.91937 33.7152 5.3372 33.4816C6.91792 32.5938 6.55236 31.5568 7.46861 30.7036C8.3784 29.8653 7.90744 31.6302 8.79057 30.5437C10.6251 28.2846 12.3979 25.0657 13.912 22.5797C14.511 21.5887 13.3748 21.8314 13.4435 21.6795C14.488 19.5033 16.5201 17.8837 15.753 15.8683C20.3724 16.7078 16.1363 14.4058 18.6699 11.9195C18.871 11.7249 20.8231 12.5082 20.5468 13.5517C20.2676 14.5997 18.8967 15.6119 18.5618 17.087C18.4777 17.4416 19.1414 20.1102 19.1038 20.4023C18.8255 22.6547 16.0087 21.3252 15.807 21.3301C13.5857 21.4616 14.1633 24.592 13.9745 25.1975C13.0833 28.0089 11.4802 29.8929 10.7044 32.2031C10.1947 33.7142 11.896 34.8345 11.2426 35.872C9.13486 39.2583 5.87571 39.2686 6.5591 43.5895C6.77221 44.363 8.7174 44.8656 6.97033 45.8291L6.72849e-06 38.2833C0.0616772 38.3371 0.137297 38.3955 0.229892 38.4575C0.287397 38.4982 0.712315 38.8286 1.3424 38.896C1.95562 38.972 2.71465 38.7953 3.00497 38.0962C3.07705 37.9207 2.79235 37.3397 2.93458 37.2103C3.89729 36.3473 4.9168 36.3844 6.14613 35.4427C7.39219 34.4996 8.87784 33.2338 11.0423 32.5201C12.3221 32.0858 14.7989 32.5278 16.1869 32.8258C17.0905 33.0283 18.5464 33.1641 20.036 34.2313C21.5328 35.3193 22.1596 36.8168 22.4162 37.7538C22.5098 38.2439 22.4869 39.5012 22.3348 39.9764C22.2536 40.6069 22.139 41.1524 21.5631 41.412C20.3137 41.984 19.3076 39.8544 17.9961 41.9169C19.5824 42.4805 21.1776 43.1694 22.757 43.7892C21.2205 48.7373 19.1727 53.4622 17.8202 58.3449C17.6553 58.9527 18.7002 58.5929 18.5512 59.2359C18.2565 60.507 17.8231 61.6726 17.4657 62.7129C17.2901 63.2145 17.1267 63.7635 17.0777 63.9294C17.0657 63.9543 17.066 63.9549 17.0666 63.7705C17.065 63.6945 17.0684 63.513 17.031 63.1958C16.9728 62.9525 17.0152 62.2656 16.2037 60.8896C15.6885 60.0105 14.431 58.7996 12.8927 58.3642C11.4114 57.8941 9.94129 58.1895 9.3869 58.383C8.26038 58.7629 7.85824 59.152 7.68021 59.2708C7.24884 59.619 7.26293 59.6409 7.22009 59.6656C7.32557 59.5313 7.4309 59.3919 7.53588 59.2469C8.84506 57.4366 9.69822 54.9106 11.0093 52.9133C13.4206 53.0014 15.1435 49.7994 16.8832 47.8615C17.4934 47.1815 17.8601 47.5463 18.3919 47.138C20.3884 45.586 18.3403 45.447 18.5412 44.7535C19.4055 41.7767 22.5965 43.9399 24.6068 41.1711C24.716 41.0233 24.437 38.0186 24.519 37.7017C25.0388 35.656 25.2823 37.8797 26.1406 37.0101C27.7107 35.4199 29.0408 34.4866 30.1661 32.0563C30.5107 31.3248 30.6268 29.0867 32.416 28.4664C32.646 28.391 33.0873 28.9211 33.2384 28.8012C33.5219 28.5661 33.6822 28.4355 33.9321 28.1721C34.0421 28.0581 34.1405 27.9505 34.2332 27.8442C34.3659 27.6951 34.499 27.5426 34.6583 27.372C34.7034 27.3247 34.7251 27.2986 34.8017 27.2246C34.8949 27.1365 35.002 27.0394 35.148 26.9227C35.2959 26.806 35.4766 26.6687 35.7745 26.497C35.9248 26.4115 36.1061 26.3169 36.3474 26.2181C36.4078 26.1935 36.4721 26.1687 36.541 26.144C36.5553 26.1379 36.812 26.0477 37.0748 25.9892C37.6046 25.8729 38.4003 25.7606 39.447 26.0381C40.4871 26.2921 41.6357 27.1217 42.2017 28.0033C42.7928 28.8852 42.9472 29.6461 43.0171 30.1702C43.1047 31.3975 43.0208 31.1782 43.0202 31.4178C42.9852 31.7312 42.9404 31.942 42.9014 32.1163C42.8219 32.4585 42.7582 32.6584 42.7042 32.8371C42.6004 33.2566 42.5782 33.4712 42.5424 33.7454C42.5803 34.8367 43.1709 35.6619 43.0387 36.756C42.8169 38.5881 40.2787 39.985 39.6549 40.2085C38.0323 40.7982 39.7726 39.089 39.7134 38.9767C39.0399 37.5983 38.3061 39.2763 37.5042 40.4178C35.6023 39.5302 34.7254 41.2586 36.6823 41.603C36.8958 41.641 37.2781 40.6125 37.5042 40.4178C38.6454 42.514 37.7906 44.4706 34.9528 45.521C33.6249 46.0132 33.2408 44.5883 31.8943 47.6622C31.2857 49.0573 32.8231 49.2715 32.5007 50.6177C31.7792 53.6448 28.7546 56.3806 27.5199 59.1428C27.5028 59.1805 27.486 59.2182 27.4695 59.2559C26.9969 60.3318 28.2221 59.6825 27.9227 60.4293C27.127 62.4125 25.7191 63.7831 24.963 65.7892C24.8954 65.971 25.8435 65.9575 25.5354 66.5391C23.2728 70.8901 20.3115 74.7547 18.3428 78.5341C18.2797 78.6582 18.2137 78.8522 18.3013 78.6335C18.3219 78.5748 18.3666 78.4599 18.4303 78.1781C18.4458 78.108 18.462 78.0277 18.4778 77.9337C18.4948 77.8338 18.521 77.6497 18.5351 77.4514C18.5497 77.2477 18.5578 77.0013 18.5387 76.6902C18.5286 76.5325 18.513 76.3694 18.4816 76.1654C18.4355 75.8707 18.3605 75.5294 18.2263 75.1415C17.9668 74.3772 17.4118 73.3672 16.4699 72.5654C15.5046 71.7202 14.2396 71.2675 13.2995 71.1658C12.8352 71.1066 12.368 71.1174 12.0996 71.1407C11.8734 71.1589 11.6725 71.1878 11.493 71.2212C11.134 71.2886 10.8594 71.3718 10.6368 71.4496C10.1519 71.6278 10.0627 71.6891 9.90044 71.7689C9.7586 71.8433 9.65971 71.9023 9.58557 71.9478C8.94664 72.3721 8.7876 72.5665 8.63809 72.7027C8.50446 72.8348 8.45035 72.8967 8.41808 72.9307C8.38387 72.965 8.38076 72.9637 8.39096 72.9442C8.41821 72.8969 8.48297 72.7972 8.54377 72.6996C8.69036 72.4705 8.83569 72.2333 9.0101 71.9512C9.34078 71.412 9.69516 70.8232 10.0467 70.2456C10.7402 69.1038 11.4616 67.9504 12.0522 67.1457C14.6917 63.5259 18.8095 59.6308 20.8755 56.2958C22.2372 54.1134 21.2509 54.0764 21.4734 52.842C21.8644 50.4646 26.0753 48.4701 27.005 48.1105C27.0172 48.1023 26.5018 48.6724 26.2323 49.1179C25.9891 49.531 25.907 49.8526 26.5196 49.497C27.7254 49.4947 26.9795 48.1426 27.005 48.1105C27.0987 48.0813 27.4345 47.8055 27.9802 47.4207C28.2562 47.2314 28.7552 46.8602 29.5261 46.5016C30.0626 46.2653 30.8941 45.8817 32.3088 45.8749C33.0294 45.8571 34.4326 46.1123 35.4705 46.8181C36.0022 47.1616 36.4647 47.5909 36.8214 48.0301C37.1653 48.4609 37.3028 48.703 37.4765 49.0256C37.7944 49.6375 37.9524 50.1798 38.0482 50.6406C38.0956 50.8717 38.1264 51.0845 38.1473 51.2827C38.1607 51.4161 38.1682 51.5267 38.1739 51.6413C38.1952 52.0928 38.1747 52.4724 38.141 52.8228C38.0995 53.2284 38.0741 53.3492 38.0343 53.5887C37.9963 53.8051 37.9541 54.0145 37.909 54.2202C37.7338 54.9989 37.5976 55.4645 37.4604 55.981C37.3889 56.2554 37.339 56.4776 37.3222 56.6184C37.2633 57.1095 38.0892 57.0773 38.0436 57.3297C36.9205 63.3195 34.991 68.9606 32.138 74.4183C32.079 74.51 31.3503 74.0022 31.2223 74.2206C29.3433 77.3192 29.4816 79.6406 27.9183 83.1876C27.5652 83.8913 27.2235 84.5589 26.3211 85.5618C25.9962 85.8761 25.7405 86.2238 24.6011 86.9355C23.8884 87.2389 23.273 88.0542 20.0574 88.019C18.5264 87.9987 16.0217 86.926 14.8258 85.4549C13.6192 84.0726 13.282 82.9162 13.0743 82.1564C12.7266 80.6325 12.8359 80.0538 12.8564 79.507C12.9002 78.9863 12.9648 78.6528 13.0257 78.3635C13.1516 77.7904 13.2768 77.4214 13.3992 77.0863C13.886 75.8184 14.3727 75.0851 14.9991 74.302C15.0232 74.3894 15.4222 74.0471 15.8062 73.8389C16.2127 73.6 16.7047 73.3627 17.2416 73.2276C18.0314 71.4429 20.0305 69.0919 21.2125 67.7605C22.3995 66.4151 21.0213 65.3974 21.0681 65.2408C22.4643 60.4832 24.7099 58.4803 27.5757 54.2147C28.9306 52.1832 31.5095 47.9857 33.0922 45.7016C34.3278 43.8857 35.4903 43.1186 36.6942 41.4161C36.8615 41.1837 36.1096 40.8829 36.147 40.7991C37.1169 38.439 37.6738 40.5607 38.2457 40.438C40.1729 40.0603 41.2732 39.8259 42.9824 37.9816C43.3173 37.7426 43.6339 37.3522 44.9991 36.9329C45.6785 36.752 46.8351 36.5739 48.2221 37.0883C49.6462 37.6081 50.6455 38.7691 51.0676 39.6523C51.877 41.4771 51.602 42.1818 51.6002 42.6894C51.5864 42.8137 51.5707 42.9213 51.5546 43.018C51.5378 43.1191 51.5229 43.1939 51.5192 43.2169C51.5066 43.2871 51.4941 43.3515 51.4817 43.4117C51.432 43.6516 51.386 43.8306 51.3427 43.9935C51.3008 44.1517 51.251 44.3152 51.2361 44.3864C50.966 45.4511 52.5077 48.2734 52.0898 49.4128C51.558 50.8487 50.9683 49.9212 50.4473 51.3808C50.4032 51.5019 50.923 51.7822 50.4536 52.5912C48.2355 56.4247 45.605 60.3812 43.3859 64.3402C43.0725 64.8929 44.2861 64.6633 43.8529 65.4577C43.3157 66.4399 42.7743 67.405 42.1594 68.443C41.8069 69.0293 41.6222 69.3601 41.0222 70.2677C41.006 70.2914 40.8871 70.468 40.7705 70.6284C40.6264 70.817 40.5256 70.9928 39.9821 71.5849C39.9344 71.635 39.9442 71.6261 39.8297 71.7429C39.5028 72.0436 39.2046 72.4507 37.8637 73.2508C37.1547 73.6218 36.1307 74.2337 33.9693 74.401C31.8936 74.6735 28.1985 73.3941 26.5568 71.1753C24.8547 69.034 24.6797 67.3579 24.5467 66.3707C24.4516 65.3516 24.5226 64.7741 24.5736 64.3278C24.8195 62.736 25.0471 62.4539 25.0015 62.5077C25.0186 62.4584 25.0348 62.4133 25.05 62.3713C25.1111 62.2044 25.1591 62.0852 25.201 61.984C25.284 61.7844 25.3434 61.6554 25.3978 61.5384C25.5277 61.2629 25.5342 61.2567 25.5909 61.1432C25.6385 61.0494 25.6863 60.957 25.7361 60.8619C25.8549 60.6345 25.8949 60.5644 25.9782 60.4111C26.0545 60.2716 26.1365 60.1231 26.2251 59.9638C27.3396 57.9861 28.4633 56.253 29.6176 54.6484C30.2174 53.8225 30.47 54.6992 30.7473 54.606C32.4328 54.0279 31.8989 51.5379 32.0286 51.2489C34.3953 45.856 37.5774 42.1127 40.1319 37.5711C40.2727 37.3194 40.3538 37.1697 40.5735 36.8023C40.6233 36.7197 40.6761 36.6339 40.7349 36.5409C40.8202 36.407 40.9201 36.2541 41.056 36.0636C41.1312 35.9592 41.1804 35.8897 41.3206 35.7112C41.5091 35.478 41.7353 35.1914 42.2252 34.7356C42.4763 34.5072 42.7956 34.231 43.3103 33.8962C43.9711 33.4977 45.0694 32.7822 47.2114 32.6286C49.3303 32.3805 52.4521 33.7343 53.7124 35.4151C55.1869 37.3552 54.9536 37.5079 55.2273 38.1143C55.3947 38.6279 55.4773 39.0386 55.5315 39.3819C55.6345 40.0654 55.6316 40.4964 55.6259 40.8389C55.6217 41.0089 55.6133 41.1535 55.6034 41.2819C55.5913 41.4319 55.5905 41.4328 55.5836 41.5028C55.5721 41.6156 55.5598 41.7149 55.5475 41.8052C55.5229 41.9853 55.4981 42.1301 55.4746 42.2576C55.4209 42.5403 55.4007 42.623 55.3713 42.7548C55.3149 43.0011 55.2665 43.1869 55.2313 43.3242C55.1483 43.641 55.0936 43.8435 55.0268 44.0881C54.7895 44.9606 54.5951 45.7069 54.4151 46.5C54.3195 46.9261 55.0858 50.4353 53.1765 51.2534C53.0457 51.3184 51.1017 52.1157 51.7928 53.5952C51.8364 53.6878 52.8748 53.1302 52.3611 54.5045C51.8454 55.8872 51.7068 58.2821 50.2945 59.9633C49.8484 60.4957 47.8957 61.531 48.6615 63.6862C48.6898 63.7618 49.2593 64.7377 49.5111 65.7311C49.6469 66.117 49.7303 66.473 49.698 66.545C49.6815 66.5731 49.6387 66.5435 49.5515 66.2744C49.5053 66.1524 49.4522 65.94 49.361 65.5986C49.3142 65.4065 49.2588 65.2067 49.1769 64.9196C49.0874 64.5855 48.982 64.2412 48.7823 63.7213C48.6317 63.3226 48.4378 62.9791 48.186 62.6216C47.9454 62.304 47.5995 61.7833 46.8915 61.0553C46.2664 60.4363 44.815 59.0509 42.4501 58.5934C40.1134 58.1468 38.3166 58.9391 37.6163 59.3924C36.7968 59.9128 36.5802 60.256 36.4111 60.4846C36.2589 60.7134 36.2333 60.8264 36.2391 60.8559C36.26 60.9101 36.4046 60.6435 36.5213 60.0708C36.6194 59.6175 35.7629 59.9278 36.2534 58.8541C36.39 58.56 36.5736 58.2565 36.7905 57.9433C37.819 56.4601 39.2585 55.1627 39.7965 53.2935C39.9114 52.8954 39.8107 50.7678 41.4464 50.4667C41.7036 50.4185 42.0176 51.1526 42.4979 50.68C44.3944 48.8123 45.8628 46.4711 47.6381 44.3797C48.0118 43.9401 48.4035 43.5064 48.8184 43.0885C49.6493 42.25 50.2113 43.4081 51.1849 42.5957C52.1554 41.7883 53.8515 39.9422 54.1761 38.5905C54.5009 37.2388 52.2088 37.33 53.2052 35.6776C56.4684 30.2344 60.5128 25.2659 64.0113 20.3217C64.5577 19.5438 65.0931 18.7547 65.562 18.0214C65.7992 17.6499 66.0225 17.2858 66.1877 17.0027C66.2644 16.8739 66.3386 16.7357 66.3342 16.7587C66.326 16.7911 66.3162 16.7904 66.1858 17.1709C66.155 17.2665 66.119 17.3707 66.0502 17.6304C66.0182 17.7532 65.9833 17.8984 65.9473 18.0797C65.9293 18.1704 65.9112 18.2702 65.8935 18.3819C65.8838 18.4445 65.879 18.4743 65.8649 18.5789C65.851 18.6827 65.838 18.7957 65.8267 18.9206C65.7885 19.4226 65.7391 20.0966 65.9405 21.2034C65.9933 21.4802 66.0656 21.7848 66.1694 22.1185C66.2994 22.5493 66.5968 23.3184 67.0335 24.0168C67.8706 25.4642 69.71 27.0325 71.5876 27.5888C73.7141 28.1867 74.3311 27.9819 75.1815 27.9278C75.9596 27.8289 76.5361 27.6559 76.9917 27.4918C77.4465 27.3255 77.7826 27.162 78.0557 27.0165C78.3009 26.8835 78.365 26.8424 78.495 26.7631C79.5832 26.0428 79.5323 25.9728 79.7063 25.8402C79.8353 25.7213 79.8609 25.7003 79.8985 25.6728C79.9637 25.6265 79.9813 25.6407 80.0055 25.6572C80.0496 25.6946 80.0992 25.7585 80.1482 25.8252C80.2415 25.9678 80.3585 26.0684 79.9154 26.6573C78.9908 27.8975 77.7533 29.7698 76.46 31.7549C73.104 36.9162 69.1364 43.1083 65.9822 46.141C62.4769 49.5229 65.0148 44.0519 62.667 46.8534C61.5351 48.209 62.282 50.945 62.1092 51.336C60.4408 55.1731 58.1034 57.0874 56.3413 60.3735C55.9759 61.0553 57.1031 60.8798 56.7855 61.4529C55.7076 63.4138 54.1235 65.1864 53.0383 67.0192C52.5429 67.8586 53.1984 68.0451 52.6791 68.7667C51.7451 70.073 50.808 71.2107 49.6984 72.3007C49.3371 72.6646 48.9944 72.968 48.5962 73.323C48.4489 73.4507 48.4423 71.9472 47.5819 73.2436C46.8868 74.2943 45.9777 75.4146 45.1775 76.5467C44.9734 76.8371 44.7905 77.1064 44.6606 77.3153C44.6309 77.3628 44.6064 77.4041 44.6056 77.4052C44.6049 77.4061 44.6128 77.3922 44.6341 77.3517C44.6475 77.3244 44.7064 77.2205 44.8199 76.955C44.8415 76.864 45.0401 76.585 45.2578 75.4397C45.2835 75.2868 45.308 75.1124 45.3268 74.9066C45.3362 74.8037 45.344 74.6928 45.3492 74.5724C45.3518 74.5122 45.3537 74.4495 45.3548 74.3843C45.3551 74.3646 45.3552 74.3628 45.3555 74.3248C45.3559 74.2771 45.3558 74.2284 45.3552 74.1781C45.3539 74.0772 45.3505 73.9713 45.3439 73.8581C45.2776 72.9927 45.1102 71.4924 43.766 69.7887C42.4492 68.0439 39.908 67.1206 38.437 67.1577C38.0541 67.1471 37.7148 67.1678 37.4139 67.2028C37.1356 67.2326 36.7685 67.3072 36.7462 67.3132C36.5498 67.3554 36.3743 67.4016 36.2152 67.4488C35.8974 67.5435 35.6446 67.6412 35.4317 67.7326C35.008 67.9164 34.7368 68.0742 34.5233 68.2045C34.1204 68.4527 33.8584 68.6712 33.8201 68.7006C33.7333 68.7703 33.6672 68.8267 33.6128 68.8742C33.5058 68.9676 33.4374 69.0329 33.4 69.0684C33.2777 69.1857 33.2908 69.1724 33.3033 69.1522C33.5414 68.8455 34.0397 68.1356 34.3777 67.4997C34.8023 66.7151 33.687 65.7146 35.725 64.9363C36.0655 64.8045 36.7635 65.7591 37.2 64.8253C37.3105 64.5839 37.4003 64.2121 37.4544 63.6578C37.4936 63.2233 38.3195 59.1137 40.5051 58.6619C41.0802 58.5433 42.9696 58.6124 43.4864 57.6725C43.5513 57.5426 42.5776 57.4374 43.0841 56.7405C44.88 54.2932 47.047 51.9477 48.917 49.4399C49.4221 48.7616 47.9753 49.1503 48.7391 48.1673C49.7619 46.8505 51.0162 45.4242 52.3162 44.0511C52.98 43.3499 53.6499 42.6662 54.3652 41.9657C54.7476 41.5916 55.0583 41.2912 55.6243 40.7665C55.6797 40.7166 55.7922 40.6114 55.8934 40.5207C55.9461 40.4732 56.0017 40.4237 56.0622 40.3706C56.1248 40.316 56.1767 40.2704 56.3134 40.1536C56.4374 40.0486 56.5822 39.9282 56.791 39.7691C56.8961 39.6893 57.0177 39.5994 57.1712 39.4933C57.4688 39.3061 57.9112 38.926 59.2589 38.3997C59.9702 38.158 60.9701 37.7717 62.9036 37.8345C63.3857 37.8581 63.9256 37.9219 64.5137 38.0572C64.8075 38.1248 65.1129 38.2105 65.4256 38.3176C65.7929 38.4418 66.2786 38.6423 66.7095 38.8701C68.5046 39.7709 70.0577 41.54 70.7439 43.0866C72.0924 46.288 71.5389 47.8274 71.4355 48.7586C71.3414 49.2293 71.2413 49.5661 71.1517 49.8417C71.1067 49.979 71.0636 50.0998 71.0228 50.2089C70.9997 50.2701 70.992 50.2895 70.977 50.3279C70.7595 50.8734 70.6078 51.1518 70.4835 51.3847C70.2071 51.8814 70.171 51.9121 70.0666 52.076C69.9797 52.207 69.8831 52.3463 69.8289 52.4202C69.7179 52.5719 69.613 52.7095 69.5063 52.8473C69.4555 52.9082 69.4049 52.9689 69.3544 53.0294C68.5966 53.9389 68.5026 52.8771 68.3925 52.9035C66.5833 53.3653 67.4691 54.9756 67.2806 55.4173C66.1134 58.1254 64.2302 59.5429 62.9014 61.9041C62.5333 62.555 63.4782 62.5484 63.454 62.7107C63.17 64.3708 62.6335 62.6369 61.9657 63.3635C60.0904 65.3991 58.4693 67.9912 57.0468 70.3692C56.5213 71.2498 57.9084 70.7784 57.43 71.5603C54.6338 76.1712 51.5049 80.9071 48.3476 85.0479C47.7657 85.8095 47.4867 84.9298 47.2489 85.0115C47.0441 85.0932 46.8712 85.194 46.738 85.2884C46.5953 85.3983 46.4746 85.5314 46.4059 85.6264C46.3874 85.6523 46.377 85.6678 46.3801 85.6626C46.3818 85.6596 46.3865 85.6522 46.3974 85.6339C46.4115 85.6091 46.4335 85.5707 46.4787 85.4844C46.5271 85.3871 46.5856 85.2923 46.7543 84.8888C46.8397 84.6568 46.966 84.4279 47.1605 83.5534C47.2359 83.0786 47.4236 82.4832 47.245 80.9527C47.155 80.3372 46.8834 78.7202 45.5399 77.0998C44.2358 75.4059 41.6203 74.3254 39.9281 74.348C36.4858 74.4426 35.8852 75.4282 35.2483 75.7333C34.6977 76.1263 34.4778 76.3511 34.294 76.5251C33.9538 76.8621 33.8478 77.0006 33.75 77.1148C33.425 77.5177 33.4954 77.4407 33.466 77.4719C33.4403 77.4992 33.437 77.4935 33.442 77.473C33.4831 77.3606 33.5134 77.2314 33.5803 77.0268C33.9357 76.3834 34.0992 76.0804 34.1686 75.859C34.2515 75.6262 34.3805 75.3371 34.4057 75.1839C34.5004 74.824 34.5859 74.5144 34.6583 74.3694C35.6712 72.1592 36.7268 71.9066 37.9592 70.3355C44.021 62.6872 51.9561 54.4379 59.1072 47.6809C59.4051 47.4081 59.6294 47.2078 59.9839 46.9036C60.1845 46.7319 60.39 46.5604 60.6456 46.3617C60.6803 46.3348 60.7022 46.3181 60.7526 46.2794C60.8122 46.2337 60.8751 46.1861 60.9431 46.1359C61.0794 46.0355 61.2337 45.9252 61.4309 45.7952C61.6297 45.6651 61.8667 45.5152 62.2149 45.3293C62.3024 45.2828 62.3973 45.2341 62.5023 45.1829C62.5548 45.1573 62.6098 45.1311 62.6677 45.1042C62.6966 45.0908 62.7263 45.0772 62.7568 45.0635C62.772 45.0567 62.7875 45.0498 62.8031 45.0428C62.8462 45.0236 62.9054 44.9978 62.9602 44.9747C63.8655 44.7754 65.3032 43.445 69.7645 44.9649C71.9315 45.7862 73.9552 48.1381 74.5335 49.9854C74.8688 50.9119 74.9898 51.7068 75.0362 52.3533C75.0416 52.4295 75.0469 52.5295 75.0488 52.5756C75.0502 52.606 75.0513 52.636 75.0523 52.6658C75.0543 52.7253 75.0556 52.7835 75.0564 52.8406C75.0579 52.9546 75.0571 53.0639 75.0545 53.1687C75.0305 54.0058 74.9162 54.5674 74.8125 55.01C74.5952 55.88 74.394 56.3116 74.2361 56.6685C73.8678 57.4384 73.8392 57.4303 73.7234 57.637C73.5256 57.9649 73.3457 58.2307 73.1896 58.4545C72.971 58.7622 72.7509 59.0553 72.5088 59.3705C66.9097 66.7373 61.9198 73.9845 57.279 82.4697C56.9576 83.0686 58.1036 82.9201 57.8364 83.4451C57.2388 84.6091 56.6331 85.7801 56.136 86.8048C56.0025 87.0806 55.9012 87.2959 55.8039 87.5109C55.7127 87.7102 55.638 87.8993 55.6622 87.8379C55.6702 87.8033 55.7353 87.6852 55.8657 87.0974C55.9149 86.8585 55.9757 86.5408 56.0132 86.0374C56.031 85.7846 56.0423 85.4835 56.0278 85.107C56.0203 84.9187 56.006 84.7113 55.9799 84.4807C55.9668 84.3653 55.9507 84.2442 55.9307 84.1167C55.9071 83.959 55.8439 83.6159 55.7684 83.3242C55.4718 82.1426 54.7051 80.2344 52.8025 78.6753C51.0415 77.0775 47.9281 76.6033 47.3087 76.6848C45.0949 76.7075 44.0439 77.2771 43.3477 77.5934C43.1751 77.6799 43.0271 77.7613 42.8968 77.837C42.7672 77.9121 42.6459 77.9888 42.6109 78.0113C42.503 78.0803 42.4099 78.1434 42.3278 78.2011C42.164 78.3165 42.0433 78.4104 41.9479 78.4875C41.7605 78.6395 41.6593 78.7372 41.6346 78.7606C41.5585 78.8338 41.5614 78.836 41.6033 78.7918C45.0557 75.1183 48.5077 71.4887 51.7731 67.6079C52.1889 67.116 50.9146 67.2134 51.5567 66.4072C52.8734 64.7444 54.6883 62.7833 56.3059 61.3771C57.1049 60.6772 56.7382 62.2357 57.5286 61.5231C59.3545 59.8816 61.1234 57.9499 62.6338 55.9709C63.2657 55.1375 61.551 55.7545 62.436 54.7036C63.7341 53.1528 65.0205 51.5893 66.2301 50.0843C66.844 49.32 67.432 48.5784 67.9497 47.9007C68.2123 47.5571 68.4516 47.2321 68.565 47.0699C68.588 47.0375 68.6031 47.0148 68.5822 47.0499C68.5512 47.108 68.538 47.1039 68.3196 47.5362C68.2678 47.6418 68.2064 47.772 68.1334 47.9438C68.0883 48.0557 67.9093 48.4542 67.7292 49.1233C67.6393 49.4642 67.5422 49.8882 67.4753 50.4737C67.4426 50.7668 67.4183 51.1014 67.4171 51.4915C67.4351 51.9335 67.3696 52.1035 67.6166 53.4475C67.8551 55.6761 70.6067 59.5675 73.7215 60.4421C77.134 61.4017 77.2939 60.9019 78.1975 60.8994C79.6642 60.6733 80.3154 60.3441 80.8046 60.1319C81.0738 60.0048 81.1419 59.9653 81.2376 59.9149C81.3281 59.8662 81.4071 59.8217 81.4773 59.7808C81.7565 59.6175 81.9073 59.5118 82.0094 59.4397C83.0037 58.7136 83.1904 58.4411 83.4084 58.2282C83.596 58.0268 83.6747 57.9288 83.7272 57.8651C83.8271 57.7404 83.7869 57.7868 83.7907 57.7808C83.7783 57.7928 83.7007 57.8928 83.6245 57.994C83.5038 58.1518 83.3113 58.4141 83.128 58.6661C82.8039 59.1081 82.3893 59.6863 82.0262 60.1867C81.2482 61.2644 80.4856 62.3086 79.6728 63.3996C78.0727 65.5443 76.4076 67.6746 74.6363 69.781C74.2102 70.2866 72.3485 69.7857 71.8813 71.1455C72.2495 71.512 72.7538 71.8339 73.1839 72.1695C70.1991 76.966 67.1037 81.6785 63.967 86.3513C62.3994 88.6861 60.8186 91.018 59.206 93.382C58.8251 93.9389 58.378 94.5954 58.0098 95.1285C57.7825 95.4608 57.5757 95.7608 57.3827 96.0377C57.2522 96.2273 57.1361 96.3942 57.0295 96.5451C57.0026 96.5832 56.9774 96.6187 56.9502 96.657C56.8999 96.7291 56.8512 96.7983 56.7993 96.8711C56.7469 96.9446 56.6934 97.019 56.6178 97.1211C56.5794 97.1728 56.5355 97.2314 56.4734 97.3116C56.4578 97.3317 56.441 97.3533 56.4224 97.3769C56.4132 97.3885 56.2994 97.5352 56.1598 97.6971C55.9816 97.8867 55.8756 98.0781 55.0703 98.756C54.5597 99.0809 54.2055 99.7166 51.6328 100.425C50.3775 100.725 47.8419 100.911 45.3642 99.3796C42.8777 97.8561 41.869 95.4223 41.5925 94.1227C41.1018 91.4166 41.5485 90.8157 41.6248 90.2042C41.763 89.6611 41.8661 89.4026 41.945 89.1922C42.1019 88.793 42.1825 88.638 42.2483 88.5004C42.3064 88.3816 42.3772 88.2481 42.3754 88.2516C42.3801 88.2429 42.3846 88.2345 42.389 88.2263C42.3979 88.21 42.4063 88.1946 42.4143 88.1798C42.8679 87.3852 42.9331 87.3218 43.1901 86.9077C43.3301 86.6856 43.3827 86.6069 43.4817 86.4528C43.5735 86.3104 43.6718 86.1578 43.7769 85.9943C44.2183 85.3071 44.5094 84.8646 44.9693 84.1505C46.364 82.0017 47.7435 79.8198 49.096 77.6146C49.399 77.1199 48.0507 77.4759 48.6314 76.5174C51.9008 71.0809 55.267 64.916 58.5894 60.5544C58.6445 60.5463 58.9208 60.6037 59.0249 61.3874C59.0115 61.5894 58.9771 61.8422 58.9359 62.3756C58.9178 62.6483 58.8936 62.9932 58.916 63.5376C58.9221 63.6743 58.932 63.8244 58.9485 63.9917C58.9567 64.0753 58.9667 64.1632 58.9789 64.256C58.985 64.3024 58.9916 64.35 58.9989 64.3988C59.0032 64.4277 59.0044 64.4332 59.0122 64.4864C59.022 64.5546 59.0331 64.6251 59.0457 64.6981C59.2352 65.7486 59.8348 68.1127 62.4659 69.815C65.1434 71.4867 67.8079 70.9486 68.8747 70.5573C69.1683 70.4569 69.4642 70.3243 69.4801 70.3141C69.559 70.2766 69.6336 70.2394 69.7043 70.2025C69.8456 70.1289 69.9715 70.0571 70.0853 69.9881C70.5382 69.7108 70.8112 69.4813 71.0182 69.2942C71.414 68.9286 71.5974 68.6669 71.6095 68.6034C71.8069 68.174 71.6576 68.1295 71.5299 68.1948C71.3648 68.3191 71.1861 68.5315 71.0331 68.8143C70.8675 69.1023 69.4182 71.5064 69.3359 72.3013C69.3283 72.4121 70.2656 72.452 69.79 73.191C68.4454 75.28 67.1064 77.4099 66.0341 79.3477C65.5039 80.3025 65.0427 81.23 64.7592 81.8774C64.6172 82.1922 64.5262 82.4374 64.4773 82.4509C64.4141 82.4617 64.4559 82.214 64.1818 81.3746C64.1365 81.246 64.0833 81.1133 64.0221 80.9801C63.7475 80.4194 63.5221 80.5608 63.3539 80.7198C63.1762 80.8828 63.0182 81.0519 62.8118 80.7572C62.4281 80.2221 61.9559 79.8945 61.74 79.7943C61.5125 79.6861 61.5065 79.7298 61.6421 79.7756C61.9221 79.8832 62.6864 79.9955 63.5281 80.033C65.2574 80.1198 67.363 80.0285 69.41 80.2362C72.1918 80.4963 71.3349 82.0467 72.9916 83.3232C73.226 83.5038 75 83.332 75.1908 84.1551C75.6741 86.2266 75.0766 88.6265 75.693 90.8228C75.8285 91.2961 78.1589 90.4949 76.8805 91.8265C76.7938 91.916 75.0908 92.5074 74.696 92.9515C74.4217 93.2593 75.069 94.0466 74.4836 94.4667C73.8972 94.886 73.1279 94.2508 72.1059 94.7683C71.0668 95.2864 71.6646 96.2221 69.4308 96.514ZM26.6165 61.7528C28.1387 60.7585 25.686 59.0293 25.4076 60.9295C25.3976 61.0229 26.54 61.8052 26.6165 61.7528ZM17.0596 52.7453C15.1933 54.3548 16.6486 56.2667 18.0424 55.1629C19.436 54.0616 17.6264 52.2548 17.0596 52.7453ZM10.1106 37.5455C12.8001 37.3442 11.4254 33.3056 9.2251 35.3644C9.10228 35.4825 9.95158 37.5605 10.1106 37.5455ZM66.1137 84.2953C66.1364 84.3379 67.3701 84.3205 67.3969 84.2763C67.9872 83.2979 65.566 83.3338 66.1137 84.2953ZM6.97423 35.0307C6.10775 35.4053 5.64825 37.6541 6.72754 37.1556C7.57766 36.7814 8.05481 34.551 6.97423 35.0307ZM48.0488 40.9353C48.0094 40.9646 47.7084 41.8482 47.9474 41.9159C48.3476 41.9943 48.5867 41.7188 48.6208 41.4053C48.6587 41.0901 48.4705 40.7256 48.0488 40.9353ZM25.5397 3.69295C22.6001 8.21047 17.9086 9.18277 21.2986 4.37355C21.9125 3.50294 21.0613 6.91152 22.0347 5.92017C23.8134 4.10554 22.7905 1.55749 25.1104 0.014892C25.5329 -0.263871 25.7139 3.43962 25.5389 3.70366C25.5392 3.70009 25.5394 3.69653 25.5397 3.69295ZM30.1897 62.7543C30.2398 62.7448 30.9192 61.6662 30.9034 61.6182C30.4407 60.5339 29.0604 62.7234 30.1897 62.7543ZM59.0111 45.4598C59.1236 45.4518 60.9265 43.0776 60.9173 42.9531C60.5574 40.7924 56.9213 45.5749 59.0111 45.4598ZM10.9732 74.8799C10.7974 73.0665 11.5496 71.5305 13.1424 71.1414C12.3963 72.3422 11.7014 73.5318 10.9732 74.8799Z" fill="#FF9100"/>
</svg>
