<svg width="97" height="124" viewBox="0 0 97 124" fill="none" xmlns="http://www.w3.org/2000/svg">
<path d="M45.5631 60.3838C43.4309 66.1243 41.2207 72.2057 37.8722 79.2957C37.6525 79.7376 37.3921 80.2571 36.8307 81.0356C36.6065 81.32 35.8166 82.499 34.1054 83.6196C33.6608 83.9071 33.1335 84.2007 32.5024 84.4643C31.8415 84.7232 31.2751 84.964 29.8884 85.1614C27.3755 85.5511 24.3441 84.5954 22.7022 83.3101C21.8522 82.6921 21.2141 82.0153 20.7954 81.4957C20.5373 81.1762 20.3262 80.8763 20.1472 80.598C19.7904 80.0407 19.5579 79.5699 19.3793 79.1647C19.202 78.7593 19.0808 78.4179 18.9852 78.1182C18.9384 77.9713 18.8942 77.8193 18.8635 77.7072C18.8413 77.6264 18.821 77.5489 18.8022 77.4742C18.6542 76.8787 18.5894 76.4497 18.5402 76.0748C18.4074 74.939 18.4233 74.4426 18.4168 73.8658C18.4202 72.8801 18.4663 72.073 18.5151 71.3253C18.6183 69.8043 18.7589 68.4274 18.915 67.0505C19.2309 64.2953 19.6063 61.6868 20.0168 59.0941C20.8389 53.9267 21.7864 49.0292 22.7509 44.5595C23.7776 39.8813 23.8319 42.3664 24.5933 39.1518C25.0867 37.1024 25.5391 35.102 25.994 33.1071C27.2207 28.5998 27.2706 25.1924 31.4076 18.5368C31.4278 18.5092 31.4461 18.4846 31.4622 18.4633C32.0852 17.7257 33.0081 16.0042 36.5901 15.0442C38.3325 14.6159 40.5776 14.8928 42.1057 15.6549C42.4929 15.8375 42.8438 16.0385 43.1576 16.2448C43.3146 16.348 43.4625 16.4526 43.6017 16.5574C43.7005 16.632 43.7594 16.6784 43.8344 16.7388C44.1205 16.97 44.3661 17.1986 44.5799 17.4174C46.2087 19.2026 46.3341 20.1107 46.5897 20.7286C46.6865 21.0183 46.7661 21.334 46.7848 21.4146C46.8087 21.5145 46.8283 21.6042 46.8453 21.6865C46.879 21.8508 46.9021 21.9856 46.9205 22.1033C46.9561 22.3318 46.9765 22.5246 46.9862 22.6308C46.9947 22.7247 47.0006 22.8054 47.0051 22.8779C47.0229 23.1808 47.0198 23.3018 47.0184 23.426C47.0141 23.688 46.9994 23.7736 46.984 23.8981C46.9521 24.1001 46.91 24.1941 46.8633 24.2522C46.7698 24.3529 46.6568 24.2715 46.5443 24.1845C46.316 23.981 46.1071 24.0201 46.0332 25.2302C45.615 30.9114 45.1715 35.9826 44.7734 41.2438C44.2449 47.8913 43.3748 54.2533 42.3868 60.7618C40.8928 70.5759 39.3459 80.2316 38.8035 89.5692C38.8056 89.2872 38.8513 88.9496 38.6884 88.0203C38.5856 87.5452 38.4636 86.8849 37.8582 85.8328C37.3032 84.8365 35.799 83.1735 33.5393 82.6719C32.4591 82.4156 31.3757 82.4685 30.5743 82.6443C30.0227 82.7623 29.5658 82.929 29.1881 83.0994C28.4334 83.4453 27.9775 83.7914 27.6377 84.0698C26.9763 84.6331 26.7325 84.9801 26.5322 85.2387C25.8405 86.2521 26.0333 86.0588 25.9356 86.2123C25.8518 86.3851 25.8347 86.4343 25.8327 86.4392C25.8227 86.4669 25.8508 86.4012 25.8701 86.3538C25.9197 86.2318 25.9804 86.0745 26.0478 85.8955C26.1139 85.72 26.1752 85.5554 26.2479 85.3567C26.3106 85.1865 26.3796 84.9966 26.4512 84.7983C26.7235 84.0449 26.9925 83.2865 27.2709 82.4965C27.8153 80.9521 28.3645 79.3765 28.9105 77.8088C30.0034 74.6695 31.0957 71.5223 32.1925 68.3727C34.3852 62.0744 36.5837 55.7971 38.8118 49.5022C40.1054 45.8604 41.4946 42.2968 43.1651 38.6695C44.0409 36.8326 44.8015 35.119 46.3647 32.8125C46.5972 32.4849 46.819 32.1832 47.1766 31.7663C47.3387 31.579 47.5549 31.3399 47.8314 31.0755C48.0853 30.8354 48.4674 30.4864 49.0556 30.1082C49.3181 29.9406 49.7579 29.6813 50.3358 29.4591C50.9196 29.2455 51.577 29.0276 52.7164 29.008C54.9402 28.859 57.4321 30.6586 58.0111 31.6339C58.396 32.1409 58.6566 32.6335 58.8293 33.0217C58.9693 33.337 59.0713 33.6241 59.1524 33.8892C59.3228 34.4641 59.3677 34.7498 59.4234 35.0878C59.6984 37.42 59.4938 38.2299 59.4055 39.4384C56.3644 59.2277 51.5914 76.9204 47.5404 95.5142C46.8734 98.5156 46.2337 101.456 45.6228 104.435C45.3176 105.927 45.0275 107.385 44.7606 108.845C44.629 109.568 44.5046 110.282 44.408 110.93C44.3844 111.089 44.3625 111.247 44.3475 111.366C44.3307 111.491 44.3203 111.627 44.3245 111.539C44.325 111.512 44.3283 111.465 44.3256 111.315C44.3226 111.234 44.3255 111.179 44.3006 110.917C44.2878 110.796 44.2693 110.646 44.2296 110.441C44.2195 110.39 44.2081 110.335 44.1946 110.275C44.1879 110.246 44.1806 110.215 44.1728 110.183C44.1617 110.138 44.1416 110.06 44.1219 109.991C44.0377 109.703 43.9209 109.332 43.633 108.805C43.3239 108.278 42.9197 107.588 41.7938 106.814C40.1982 105.595 37.281 105.741 36.154 106.445C35.8389 106.599 35.5831 106.758 35.3691 106.909C35.2621 106.985 35.1656 107.058 35.0776 107.129C34.9896 107.201 34.9816 107.209 34.9364 107.247C34.7847 107.378 34.6603 107.499 34.5541 107.609C34.3422 107.831 34.1995 108.011 34.0867 108.163C33.8681 108.46 33.7439 108.689 33.7068 108.755C33.652 108.854 33.6119 108.933 33.5795 109C33.4469 109.282 33.45 109.298 33.4225 109.366C33.3701 109.518 33.4189 109.384 33.4465 109.282C34.3344 106.146 35.244 102.96 36.1731 99.7897C39.7672 87.5307 44.3881 73.705 49.6038 60.3574C50.0325 59.2614 50.4577 58.1513 50.7944 57.1729C50.8333 57.059 50.872 56.9432 50.9027 56.8472C50.9278 56.7748 50.9654 56.6282 50.9275 56.7877C50.9184 56.8483 50.894 56.8736 50.8449 57.3282C50.8315 57.5113 50.804 57.7444 50.848 58.2464C50.8542 58.31 50.862 58.3786 50.8724 58.4532C50.8776 58.4906 50.8835 58.5293 50.8901 58.5699C50.9068 58.6717 50.929 58.7877 50.9594 58.916C51.096 59.4146 51.2805 60.2285 52.2536 61.2651C53.1263 62.3477 55.4799 62.9849 56.4407 62.7434C57.3532 62.6289 57.9428 62.3403 58.3506 62.111C59.15 61.6311 59.3941 61.3089 59.6053 61.0872C59.7187 60.9577 59.774 60.8861 59.8337 60.8081C59.9456 60.6598 60.0103 60.5599 60.0605 60.481C60.1979 60.2592 60.2177 60.2072 60.2366 60.1725C60.2547 60.1363 60.2581 60.1278 60.2588 60.1259C60.2569 60.1266 60.2136 60.2227 60.1767 60.3107C60.0129 60.7011 59.827 61.203 59.659 61.6915C57.9265 66.7396 56.248 71.6888 54.7165 76.4365C53.9894 78.6949 55.1441 77.5902 55.0555 78.0391C53.6738 85.0145 53.0071 82.3295 51.3839 86.6067C50.3168 89.4693 49.1313 92.6891 48.5204 95.128C48.5169 95.1364 48.5195 95.1179 48.5271 95.0464C48.5308 95.0103 48.5358 94.9606 48.5406 94.8888C48.5429 94.8528 48.5452 94.8112 48.547 94.7621C48.5469 94.7427 48.5561 94.5925 48.5442 94.3614C48.5284 94.1275 48.5119 93.8111 48.3508 93.2622C48.1767 92.7376 47.8714 91.8196 46.7232 90.8896C45.6689 89.9281 43.4315 89.6708 42.4694 90.0526C41.4132 90.3743 40.9958 90.7612 40.6956 90.9984C40.4122 91.2416 40.2558 91.4281 40.1812 91.5158C40.1396 91.5659 40.1061 91.6086 40.0779 91.6457C40.0217 91.7199 39.9861 91.772 39.9608 91.8105C39.8648 91.9614 39.9096 91.9046 39.9283 91.8748C39.952 91.8395 40.0085 91.7405 40.0439 91.6786C40.2164 91.3725 40.4224 90.9714 40.6376 90.5379C41.0403 89.7296 41.4678 88.8253 41.8709 87.962C42.6965 86.189 43.5088 84.3875 44.3171 82.5755C45.9362 78.9424 47.5304 75.2794 49.1139 71.6337C52.2905 64.3425 55.3418 57.1561 58.5741 50.3549C58.6812 50.1311 58.7792 49.9239 58.8689 49.7315C58.9046 49.6572 58.9349 49.5941 58.9638 49.5344C58.9784 49.5043 58.9926 49.4751 59.0085 49.4431C59.0164 49.4271 59.0249 49.4103 59.0344 49.3917C59.0354 49.3899 59.0391 49.3816 59.0806 49.3067C59.0996 49.2726 59.122 49.2326 59.1638 49.163C59.2136 49.0851 59.2444 49.0155 59.4617 48.7259C59.6116 48.5624 59.6519 48.3816 60.4556 47.7687C60.8987 47.5268 61.6276 46.7599 63.8045 46.9615C64.858 47.0862 66.0403 47.772 66.6514 48.5251C67.2883 49.2778 67.5053 49.9405 67.6283 50.3994C67.8424 51.3231 67.7661 51.6926 67.7525 51.9841C67.725 52.2629 67.6915 52.4188 67.6651 52.5432C67.6112 52.7834 67.5754 52.8885 67.548 52.9764C67.4433 53.2877 67.4307 53.2947 67.4307 53.3002C67.3626 53.4712 67.3443 53.5117 67.3105 53.5923C67.2735 53.6783 67.2597 53.7126 67.2441 53.7514C67.184 53.9013 67.0902 54.1225 67.0501 54.2317C66.9978 54.3666 66.9435 54.5076 66.8898 54.649C66.8458 54.7696 66.8125 54.8698 66.7771 54.9757C66.6281 55.4152 66.571 55.6872 66.5552 55.8847C66.521 56.2848 66.6754 56.3374 66.7932 56.3947C67.0191 56.5276 67.1046 56.676 65.1458 59.8302C64.8643 60.2869 64.9959 58.2095 64.0222 60.0392C61.8186 64.1856 58.0742 72.2253 56.4253 75.4653C53.2499 81.6969 52.7524 82.7344 49.8226 88.6705C48.2123 91.9209 46.4168 95.4008 44.5612 98.937C41.7136 104.281 39.0286 109.631 35.7349 115.102C35.082 116.106 35.2592 116.15 35.4675 116.241C35.5578 116.298 35.6554 116.358 35.536 116.67C35.4772 116.82 35.3822 117.021 35.1 117.388C34.9451 117.578 34.7885 117.792 34.3018 118.206C34.0493 118.399 33.7723 118.675 32.8767 119.057C32.4597 119.222 31.7266 119.467 30.7247 119.427C29.6088 119.407 28.2761 118.84 27.5042 118.104C25.8653 116.457 25.9423 115.403 25.7954 114.775C25.6687 113.545 25.8033 113.071 25.8782 112.549C25.9677 112.054 26.0752 111.645 26.1879 111.259C26.4179 110.48 26.6853 109.769 26.9798 109.053C27.5717 107.622 28.2738 106.196 29.0109 104.801C30.4728 102.04 32.0369 99.4967 32.8833 98.2441C34.5879 95.7436 34.4682 97.1872 34.8654 96.8028C35.0283 96.6495 35.194 96.4783 35.3627 96.2903C38.5046 92.7704 42.2831 84.1943 42.9769 83.1307C45.4209 79.2473 47.9188 75.5358 50.5838 71.964C51.9229 70.1763 53.2848 68.4393 54.8136 66.7016C55.5781 65.838 56.3671 64.9849 57.3184 64.0975C57.7938 63.658 58.3123 63.2023 58.9678 62.7274C59.7474 62.2533 60.1784 61.6401 62.5168 61.2065C64.7358 60.9906 68.0852 60.8038 71.0726 63.6556C73.8476 66.6378 73.7119 69.693 73.6453 71.8235C73.2862 76.1736 71.9917 79.4853 70.6849 82.8017C67.98 89.342 64.671 95.3165 61.1627 101.383C59.2066 104.703 57.5786 107.521 55.0204 111.299C54.8572 111.508 54.7325 111.667 54.596 111.838C54.5042 111.952 54.4243 112.051 54.3473 112.144C54.3287 112.167 54.2237 112.294 54.1102 112.418C54.0783 112.453 54.0417 112.492 53.9901 112.545C53.9642 112.571 53.9343 112.601 53.8968 112.637C53.878 112.655 53.8572 112.675 53.8335 112.697C53.8451 112.686 53.7816 112.746 53.7037 112.812C53.623 112.88 53.5228 112.964 53.3394 113.09C53.1429 113.213 52.9168 113.397 52.2356 113.625C51.8874 113.729 51.3927 113.864 50.6084 113.803C49.8468 113.756 48.7131 113.343 47.968 112.548C46.4692 110.828 46.8109 109.606 46.8114 109.121C46.8838 108.58 46.9774 108.356 47.0396 108.173C47.1688 107.832 47.2364 107.722 47.2903 107.617C47.3577 107.493 47.3411 107.525 47.3492 107.511C47.3533 107.503 47.3572 107.496 47.3611 107.49C47.3766 107.463 47.3905 107.439 47.4032 107.418C47.4287 107.376 47.45 107.341 47.4695 107.31C47.5416 107.196 47.6161 107.087 47.6525 107.033C47.6857 106.984 47.7199 106.934 47.756 106.882C47.8265 106.781 47.9166 106.653 47.9677 106.581C48.084 106.416 48.2493 106.186 48.3562 106.038C48.8804 105.311 49.3626 104.652 49.8847 103.942C50.8949 102.568 51.9145 101.195 52.9387 99.8219C54.9669 97.1036 57.0204 94.3799 59.069 91.695C63.1614 86.3357 67.2504 81.0954 71.3082 76.1992C72.0508 75.3044 72.7907 74.4234 73.518 73.5705C77.0947 69.3873 80.8241 64.0719 82.5514 60.5557C82.5328 60.6267 82.4987 60.6823 82.4375 61.0632C82.4256 61.1486 82.4075 61.2815 82.4008 61.4895C82.3982 61.7072 82.3914 61.9003 82.4668 62.3355C82.5682 62.8306 82.7407 63.4963 83.4135 64.2923C84.0954 65.17 85.5581 65.6959 86.1119 65.701C86.7921 65.7753 87.3436 65.6539 87.5715 65.5939C87.8168 65.5293 87.9953 65.46 88.1363 65.399C88.4159 65.2734 88.4798 65.2264 88.5802 65.1665C88.734 65.0685 88.7687 65.0348 88.7856 65.0214C88.8243 64.9818 88.6326 65.1474 88.4744 65.305C88.1424 65.6302 87.7491 66.0523 87.3672 66.4752C86.596 67.3308 85.8164 68.2451 85.0432 69.1699C83.4931 71.027 81.9715 72.9255 80.4471 74.8629C76.7797 79.5272 73.1313 84.2569 69.3783 89.2644C68.1967 90.8401 70.3313 89.5785 68.9066 91.4833C65.889 95.5186 62.8966 99.5365 59.8824 103.563C58.3731 105.579 56.8751 107.575 55.3323 109.602C54.5624 110.613 53.7988 111.609 52.9951 112.632C52.579 113.161 52.1926 113.647 51.7365 114.2C51.5282 114.451 51.2837 114.744 51.0083 115.053C50.8518 115.228 50.742 115.352 50.4943 115.603C50.3654 115.73 50.3137 115.79 50.0199 116.045C49.8867 116.158 49.7308 116.285 49.4947 116.446C49.465 116.466 49.4339 116.487 49.4011 116.508C49.3557 116.538 49.2691 116.592 49.1905 116.638C49.0262 116.734 48.8271 116.841 48.5541 116.955C48.0178 117.151 47.1199 117.557 45.4624 117.216C44.2806 117.016 41.8888 115.772 41.0888 113.494C40.3629 111.391 40.7482 110.234 40.9132 109.393C41.3609 107.751 41.8694 106.932 42.3594 106.053C43.3334 104.403 44.3224 103.091 45.3144 101.808C47.2957 99.2749 49.3274 96.9558 51.3533 94.6749C55.4145 90.1193 59.5171 85.7314 63.4562 81.2899C65.6992 78.7561 68.0324 76.3394 70.4435 74.0062C72.3286 72.1989 70.5446 75.1631 72.4636 73.4054C74.1664 71.8552 76.0538 70.2207 78.0696 68.564C78.1604 68.4861 78.2456 68.4064 78.4664 68.2542C78.5239 68.2155 78.5923 68.1711 78.6859 68.1179C78.7329 68.0914 78.7864 68.0625 78.8502 68.0312C78.8863 68.0136 78.9024 68.0056 78.9672 67.9767C79.1359 67.905 79.3573 67.811 79.7557 67.7496C80.1406 67.6972 80.8021 67.6602 81.5844 68.0635C82.3767 68.4543 82.931 69.3209 83.0688 69.8913C83.3338 71.064 83.0867 71.3703 83.0409 71.6357C82.9859 71.8011 83.0069 71.7346 82.993 71.7741C82.9856 71.7939 82.9784 71.8125 82.9714 71.8302C82.9574 71.8656 82.9441 71.8973 82.9314 71.9262C82.744 72.3355 82.6383 72.4546 82.6019 72.5146C82.4971 72.6668 82.3838 72.8175 82.3116 72.9093C82.1282 73.1467 81.9888 73.3152 81.812 73.5326C81.654 73.7244 81.5005 73.908 81.3299 74.1126C81.181 74.2888 81.0205 74.479 80.8491 74.6823C80.2146 75.429 79.5774 76.1686 78.9103 76.9447C77.6172 78.4441 76.2898 79.9803 74.9735 81.5195C72.3336 84.606 69.7353 87.7062 67.3528 90.7194C62.5999 96.7301 58.7512 102.339 57.4415 106.363C55.9643 108.113 54.4465 109.911 52.8647 111.774C51.6583 113.197 50.4211 114.686 49.4809 116.001C49.2658 116.296 49.0366 116.681 49.0623 116.616C49.0748 116.571 49.119 116.514 49.2139 116.115C49.2527 115.827 49.3849 115.62 49.2385 114.566C49.1737 114.155 48.9068 113.236 48.2215 112.488C47.5549 111.726 46.5863 111.291 45.929 111.169C45.3772 111.058 44.965 111.077 44.6612 111.109C44.4257 111.135 44.2525 111.174 44.1139 111.211C43.8424 111.286 43.7608 111.327 43.6679 111.367C43.5302 111.431 43.5154 111.448 43.5239 111.445C43.7684 111.337 44.6009 110.721 45.2446 110.196C49.1194 107.041 52.8851 104.047 56.2189 101.567C61.0956 97.9323 57.2697 102.474 62.616 97.286C63.833 96.1058 61.6716 96.9493 63.5085 95.2477C66.575 92.409 69.7719 89.5556 73.0206 86.6714C74.6479 85.2274 76.2544 83.8046 77.9012 82.349C78.6959 81.6467 79.5406 80.9009 80.3617 80.1834C80.757 79.8379 81.1965 79.4563 81.6242 79.0933C81.7205 79.0113 81.8581 78.8961 81.9656 78.8066C82.0713 78.7186 82.1978 78.6146 82.329 78.5096C82.3944 78.4573 82.4511 78.4122 82.5216 78.3574C82.607 78.2915 82.6912 78.2278 82.7804 78.1631C82.855 78.1095 82.9933 78.0076 83.2173 77.8729C83.2741 77.839 83.3378 77.8024 83.415 77.7614C83.438 77.7523 83.6961 77.597 84.1493 77.4578C84.3928 77.3887 84.7146 77.294 85.2942 77.2908C85.5842 77.293 85.9473 77.3235 86.3841 77.4538C86.6112 77.5243 86.8047 77.594 87.1052 77.7536C87.4363 77.9318 87.7751 78.1831 88.0614 78.4858C89.2777 79.8131 89.1489 81.1947 89.0707 81.7316C88.9664 82.3388 88.8301 82.5999 88.7363 82.8126C87.5956 85.2886 86.2547 87.4484 84.8982 89.4872C83.6136 91.3796 84.541 91.2914 84.245 91.8928C81.7279 96.9682 74.1679 102.038 72.6788 103.179C69.7122 105.603 66.9101 107.766 64.174 109.778C62.6631 110.883 61.0444 111.915 58.9789 112.608C57.0109 113.257 53.9288 113.703 51.2552 111.631C49.314 109.878 49.3582 108.513 49.1189 107.496C48.9656 106.453 48.9561 105.602 48.9693 104.75C49.0075 103.067 49.1809 101.541 49.3875 100.018C49.8107 96.9834 50.4043 93.9891 51.0965 90.858C51.7743 87.8515 50.0464 91.1979 50.674 88.2986C52.5788 79.6979 54.8213 71.1412 56.9459 62.6722C56.9601 62.6178 56.9665 62.5891 56.9656 62.5992C56.9664 62.6152 56.9531 62.6268 56.938 62.9147C56.9353 62.9855 56.9339 63.0724 56.9378 63.183C56.9483 63.325 56.928 63.3143 57.0035 63.7782C57.0845 64.1694 57.2105 64.7722 57.7885 65.5727C58.0773 65.9644 58.5013 66.3884 59.04 66.7155C59.6414 67.089 60.3837 67.3094 61.0097 67.3524C62.2954 67.4294 63.0091 67.0541 63.4266 66.8432C63.5453 66.7783 63.593 66.7479 63.634 66.7227C63.6772 66.6959 63.7172 66.67 63.7543 66.6451C63.8286 66.5953 63.8918 66.5493 63.9471 66.5073C64.1659 66.3389 64.269 66.232 64.3374 66.1621C64.5126 65.9696 64.4228 66.0561 64.3766 66.1227C64.3131 66.2068 64.2274 66.3292 64.1429 66.4546C63.7888 66.9816 63.3757 67.6674 62.9999 68.3092C62.2204 69.6444 61.4524 71.0419 60.7025 72.4347C59.2032 75.2252 57.7499 78.0556 56.3654 80.8504C54.9365 83.7604 55.4301 80.7106 54.7105 82.0923C52.5755 86.2707 52.3032 88.6516 51.8058 91.2929C51.7429 91.5991 51.6735 91.913 51.5583 92.3029C51.4942 92.5112 51.4318 92.7159 51.2898 93.0484C51.2052 93.2326 51.1412 93.403 50.8808 93.8056C50.8154 93.9033 50.7386 94.0149 50.6049 94.1769C50.4737 94.3308 50.3306 94.5031 49.9975 94.775C49.7228 94.9919 49.1384 95.4221 48.203 95.6037C47.1222 95.8455 45.7928 95.4521 45.1337 94.9537C43.9028 94.0016 43.8835 93.5219 43.6978 93.2275C43.5566 92.914 43.5071 92.7475 43.4562 92.5842C43.3694 92.2917 43.3331 92.1086 43.3014 91.9527C43.2407 91.6406 43.2116 91.4243 43.1843 91.2141C43.1325 90.8012 43.1026 90.4491 43.0759 90.0912C43.0415 89.6273 43.0165 89.1316 43.0056 88.5991C42.9813 87.093 43.7268 87.901 43.7866 87.6243C44.7275 83.3579 43.5408 79.551 43.6764 78.3973C43.9866 75.6192 44.5774 73.1171 45.2886 70.8104C48.2278 61.5576 52.3731 55.0826 56.9566 45.9223C57.647 44.5583 55.2474 47.1863 57.2433 43.3815C58.3607 41.257 59.5477 39.1002 60.5629 37.0807C60.4539 37.3154 60.2562 37.6807 60.2109 38.4576C60.1753 38.843 60.2923 39.8486 60.809 40.5799C61.0573 40.9542 61.376 41.269 61.6881 41.4933C61.9448 41.6775 62.1553 41.7864 62.3647 41.8776C63.1862 42.2156 63.6779 42.149 63.7926 42.1568C63.98 42.1509 64.0949 42.1332 64.1736 42.1202C64.4065 42.075 64.3217 42.0854 64.2604 42.112C64.1001 42.1708 63.8366 42.284 63.5578 42.4148C63.0103 42.6717 62.4169 42.9794 61.804 43.3104C60.6106 43.9564 59.3828 44.6707 58.1648 45.4024C55.7196 46.8737 53.3002 48.4228 50.8759 50.0299C46.0562 53.2292 41.2958 56.6137 36.6322 60.1216C25.76 68.1815 18.4257 79.9344 12.6109 92.3138C12.4745 92.5892 12.346 92.845 12.1666 93.171C12.1191 93.2565 12.0684 93.3475 11.992 93.4727C11.9662 93.5149 11.9368 93.562 11.8997 93.6181C11.8633 93.6677 11.8275 93.7445 11.6121 93.9952C11.5837 94.0272 11.5511 94.0627 11.5116 94.1033C11.4918 94.1235 11.4703 94.145 11.4464 94.168C11.416 94.1959 11.4248 94.1933 11.2866 94.3115C11.0334 94.4645 10.75 94.9255 9.37022 94.9969C8.69258 95.0174 7.76195 94.6344 7.28107 94.0943C7.03152 93.8339 6.86898 93.571 6.75938 93.3464C6.69262 93.2058 6.69321 93.1999 6.66992 93.1436C6.65123 93.0965 6.63466 93.0512 6.61982 93.0077C6.40626 92.3161 6.46792 92.0486 6.47036 91.8379C6.48614 91.6368 6.50929 91.525 6.52787 91.4333C6.56511 91.2628 6.59034 91.187 6.61464 91.1089C6.68616 90.893 6.72187 90.8153 6.76197 90.7168C6.80303 90.6186 6.83105 90.5559 6.86961 90.4691C8.92404 86.2913 8.12188 89.5834 8.31971 89.3373C11.4488 85.7981 11.3138 82.5206 11.9318 81.2056C11.9727 81.1209 12.014 81.0358 12.0558 80.9502C16.9546 70.9209 23.2454 62.5552 25.2418 54.9748C27.7657 50.6923 30.2854 46.4195 32.8864 42.1582C35.5315 37.9862 37.6584 34.0118 41.4884 29.7397C41.9163 29.2999 42.1228 29.0883 42.5588 28.6467C42.6568 28.5479 42.684 28.5205 42.8243 28.3808C42.8895 28.3161 42.9462 28.2604 43.0038 28.2053C43.0328 28.1775 43.062 28.1498 43.0974 28.1172C43.1356 28.0863 43.0035 28.1887 43.3419 27.9078C43.3909 27.8698 43.4507 27.823 43.5642 27.747C43.6924 27.6706 43.8082 27.5623 44.3222 27.3698C44.5969 27.2887 44.9818 27.1184 45.8605 27.2061C46.7082 27.2129 48.2615 28.2175 48.5911 29.3343C48.9693 30.3992 48.7952 30.9623 48.7389 31.3047C48.6585 31.6491 48.5794 31.8218 48.5199 31.9582C48.2859 32.4408 48.2269 32.4684 48.1647 32.5667C48.1363 32.6055 48.1146 32.6339 48.0958 32.6581C48.088 32.6682 48.0901 32.6654 48.0874 32.6689C48.0579 32.7065 48.0356 32.7337 48.0156 32.758C47.6919 33.136 47.6312 33.1911 47.4077 33.4367C46.7375 34.1625 46.0629 34.879 45.3985 35.5844C44.0557 37.0088 42.7291 38.406 41.3811 39.8214C38.6955 42.6405 36.0105 45.4397 33.3046 48.2341C27.4827 53.9581 23.8117 58.8961 15.4107 65.1675C14.5676 65.4662 14.056 65.6574 12.8734 65.814C12.055 65.8838 10.0575 66.0814 8.38135 64.267C6.96092 62.5108 7.15852 61.0646 7.17814 60.1492C7.2109 59.7041 7.28582 59.2334 7.36673 58.8449C7.44173 58.4825 7.53291 58.1209 7.63776 57.7553C8.46798 55.0035 9.55147 52.882 10.6716 50.679C12.9099 46.3852 15.375 42.3239 17.8465 38.3003C22.5849 30.3813 28.6085 22.1066 31.4263 14.7472C31.4108 14.8346 31.3863 14.9626 31.3883 15.198C31.3904 15.3161 31.4 15.463 31.4383 15.6509C31.4964 15.8532 31.4728 15.9976 31.8271 16.5626C32.1425 17.0562 32.8136 17.4994 33.3681 17.602C33.9204 17.7243 34.3493 17.6204 34.4222 17.6065C34.7168 17.5408 34.8762 17.4618 34.9886 17.4058C35.2177 17.2813 35.2089 17.268 35.2408 17.2462C35.2621 17.2281 35.2618 17.2253 35.25 17.2335C35.212 17.2567 35.0748 17.3809 34.968 17.4838C34.7182 17.7259 34.4558 18.0022 34.1994 18.2779C33.6754 18.8433 33.1273 19.4664 32.6092 20.0617C31.5469 21.2859 30.4907 22.5406 29.4427 23.7935C29.0615 24.2534 29.0456 22.9014 28.2974 23.8099C19.2421 34.9692 21.9829 33.5813 17.6448 42.171C17.023 43.4104 14.8562 45.4909 13.0231 47.1384C12.9168 47.257 12.9046 47.3359 12.4512 47.7321C12.4192 47.7583 12.3836 47.7864 12.3431 47.8166C12.3228 47.8317 12.3013 47.8474 12.2784 47.8636C12.2166 47.908 12.0767 48.0031 11.9114 48.0877C11.5848 48.238 10.9587 48.5742 9.84842 48.3271C8.69817 48.0779 7.92777 46.9744 7.78795 46.4375C7.59995 45.8562 7.62857 45.5619 7.63039 45.3463C7.63831 45.1477 7.67299 44.9616 7.66909 44.9853C7.67787 44.9369 7.68668 44.8953 7.69523 44.8581C7.72962 44.7108 7.75885 44.6256 7.78429 44.5531C7.89754 44.2501 7.91258 44.2691 7.96604 44.1654C8.07059 43.9787 8.12226 43.9255 8.20686 43.7967C8.34746 43.6044 8.49364 43.4074 8.62177 43.2472C8.8906 42.9012 9.13195 42.6096 9.34508 42.3531C9.77109 41.8416 10.0752 41.4913 10.1652 41.3803C11.7136 39.4902 11.6954 42.2645 12.1482 41.5998C15.8871 36.1782 11.6125 35.2019 16.1432 27.3694C16.293 27.1325 16.3374 28.5357 16.7885 27.9285C17.3675 27.152 17.8776 26.3366 18.4314 25.5008C18.5144 25.3798 18.6022 25.2502 18.7866 25.0527C18.8404 24.9972 18.8665 24.9679 18.9761 24.87C19.1567 24.7217 19.394 24.4992 19.9793 24.3071C20.5108 24.0853 21.7631 24.1845 22.3963 24.7468C22.9646 25.1964 23.1696 25.6688 23.282 25.9703C23.4824 26.5661 23.4349 26.8893 23.4443 26.9303C23.4443 27.0357 23.4396 27.1207 23.4337 27.1968C23.4228 27.3415 23.4004 27.4888 23.3921 27.5414C23.3699 27.6836 23.3399 27.8324 23.3151 27.9463C23.2932 28.0478 23.2692 28.1508 23.2429 28.2576C23.1462 28.6489 23.0479 28.9898 22.9362 29.3473C22.7245 30.0198 22.4809 30.672 22.1888 31.2954C19.8885 36.0452 17.4081 37.0145 15.4892 44.7232C15.2204 45.7017 18.0603 45.2145 14.7144 52.4513C14.3195 53.2882 13.5462 54.9671 12.5597 56.9985C12.5516 57.0139 12.5619 56.9983 12.5971 56.9014C12.6236 56.8232 12.671 56.6994 12.7182 56.4246C12.7296 56.3551 12.7405 56.275 12.7486 56.1803C12.7612 56.0287 12.7735 55.7701 12.7272 55.4429C12.6734 54.8353 12.1522 53.5018 10.8903 52.8917C9.66508 52.3143 8.83963 52.5636 8.44965 52.6577C8.19805 52.7324 8.08577 52.7859 7.97228 52.8384C7.76387 52.939 7.66771 53.0092 7.64262 53.0251C7.56586 53.0781 7.56981 53.0792 7.58528 53.066C7.68227 52.9877 7.91034 52.7739 8.13119 52.5527C8.58361 52.1005 9.07255 51.5777 9.57499 51.0287C10.5608 49.95 11.5836 48.783 12.5376 47.684C14.4455 45.4842 16.1447 43.4759 17.0516 42.4621C19.6166 39.5816 18.5225 42.0983 18.7175 41.9132C26.063 34.4686 23.8906 37.7756 28.3065 34.6187C32.227 31.7777 29.7611 30.6495 29.8876 29.0792C29.9026 28.8842 29.9567 28.683 30.0661 28.4719C31.0938 26.6205 36.1077 20.937 37.2876 19.4753C38.522 18.0406 37.6979 20.2688 38.7078 18.9482C45.1745 9.87241 39.5892 13.8921 40.7583 10.5107C41.4967 8.13191 42.1203 6.54305 43.1323 4.04656C43.2628 3.79591 43.3061 3.69754 43.5673 3.27914C43.5985 3.23148 43.6327 3.18085 43.673 3.12463C43.754 3.01152 43.85 2.87541 44.0507 2.67205C44.1536 2.57013 44.2843 2.44825 44.4953 2.30447C44.6013 2.23297 44.7286 2.15607 44.8894 2.08018C45.2091 1.92603 45.8471 1.71269 46.6056 1.84399C47.372 1.96036 48.0533 2.46572 48.3688 2.88349C48.7023 3.30952 48.8119 3.63956 48.8862 3.87846C48.944 4.08079 48.9621 4.20009 48.9787 4.31848C49.0077 4.54566 49.0064 4.69063 49.004 4.81368C49.0005 4.94116 48.9925 5.0193 48.9877 5.0633C48.9765 5.1667 48.963 5.2555 48.9485 5.34064C48.8412 5.90436 48.7257 6.24268 48.6143 6.59234C48.3852 7.29191 48.1304 7.96575 47.8778 8.58982C47.3582 9.88647 46.8102 11.1013 46.2567 12.3414C45.1514 14.811 44.0454 17.2798 43.2016 19.9776C42.567 22.0127 43.5994 20.4965 43.1504 22.3389C42.7193 24.1101 42.2793 25.7149 41.8733 27.2024C41.7935 27.4954 41.7409 27.7343 41.7097 27.9139C41.6679 28.1451 41.6787 28.3124 41.6625 28.2584C41.6408 28.2167 41.6326 28.085 41.3858 27.8466C41.1381 27.62 40.831 27.5751 40.7215 27.5839C40.5064 27.6154 40.7384 27.5924 40.8751 27.5199C41.6271 27.1729 42.5799 26.4237 43.4683 25.6416C45.2217 24.0859 47.045 22.1061 48.9912 19.5659C49.8608 18.4689 53.2221 12.2931 56.9817 9.62082C57.5186 9.24505 56.8384 11.0449 59.028 8.69446C60.5322 7.1214 62.2481 5.01638 64.6338 2.66194C64.6996 2.61018 64.7666 2.55807 64.8826 2.49356C64.942 2.4616 65.0141 2.42503 65.1281 2.39001C65.1708 2.3786 65.1411 2.38227 65.2656 2.35714C65.3679 2.33944 65.5024 2.32724 65.6726 2.3571C66.0222 2.39202 66.4465 2.76927 66.5327 3.05983C66.6422 3.33015 66.6097 3.58177 66.6124 3.56947C66.6094 3.61614 66.6043 3.65574 66.5987 3.69092C66.5872 3.76108 66.5734 3.81431 66.5599 3.86121C66.534 3.95043 66.4999 4.03464 66.4806 4.07958C66.4243 4.21248 66.3242 4.40162 66.2779 4.48416C66.2204 4.58832 66.144 4.72108 66.0819 4.82591C66.024 4.92356 65.9612 5.02771 65.8935 5.13867C65.6397 5.5533 65.3864 5.95113 65.1219 6.36476C64.6159 7.15452 64.0971 7.95322 63.6085 8.71229C62.618 10.2493 61.7141 11.6781 60.9809 12.9006C59.0239 16.1625 62.3019 13.1247 59.4035 16.9252C58.1083 18.6269 59.7547 14.9826 57.3719 18.1998C54.9906 21.3964 49.505 29.9447 47.4824 33.2308C45.4522 36.5075 47.2604 35.1508 47.141 35.4429C46.6536 36.609 44.9291 39.8441 43.7412 42.0679C43.1247 43.2174 42.6358 44.0919 42.5176 44.2823C40.8215 46.9654 39.5076 49.3256 37.1344 52.2422C37.1634 52.2087 37.1911 52.1899 37.3233 52.0134C37.3581 51.9649 37.4018 51.9039 37.4652 51.7949C37.527 51.6797 37.6189 51.5409 37.7209 51.169C37.7673 50.9793 37.8233 50.7183 37.7891 50.3145C37.7584 49.9223 37.5806 49.3338 37.1553 48.8704C36.217 47.9033 35.2951 48.0423 34.9788 48.0666C34.2819 48.1905 34.2398 48.2973 34.11 48.3477C34.0134 48.4002 33.9507 48.4425 33.9616 48.4352C33.9485 48.4436 33.9373 48.4509 33.9273 48.4575C33.888 48.4837 33.8672 48.4988 33.8518 48.51C33.8221 48.5317 33.8152 48.5374 33.8138 48.5386C33.8159 48.5371 33.8309 48.5253 33.8421 48.5163C33.8668 48.4967 33.9098 48.4618 33.9519 48.4272C34.0136 48.3769 34.1025 48.3035 34.1859 48.2344C34.3283 48.1167 34.5125 47.9633 34.6642 47.8372C34.9996 47.558 35.3214 47.2902 35.6444 47.0219C36.2911 46.4847 36.9713 45.9217 37.6095 45.3967C38.9324 44.3078 40.2315 43.25 41.5484 42.1881C44.1848 40.0624 46.8028 37.9942 49.4469 35.942C54.7249 31.8465 60.0299 27.8762 65.3871 23.9935C66.5309 23.1815 67.5934 22.3992 69.1239 21.7078C69.5375 21.547 69.9269 21.3448 70.77 21.2972C71.1736 21.2877 72.0248 21.3462 72.6903 22.1134C73.2998 22.8783 73.2509 23.5123 73.2452 23.8855C73.0705 25.3053 72.6419 25.8254 72.2388 26.551C71.0161 28.5212 69.4303 30.1452 68.7823 31.5284C68.6944 31.7203 68.6272 31.9196 68.5953 32.0682C68.579 32.1399 68.5738 32.2014 68.5726 32.1993C68.5547 32.19 68.6272 32.1402 68.3942 31.7379C68.2773 31.5401 67.9402 31.2465 67.5927 31.1661C67.2497 31.0791 67.0291 31.1363 66.9246 31.164C66.7141 31.2343 66.7557 31.2457 66.7872 31.2172C66.873 31.1601 67.0538 30.9913 67.2184 30.8073C71.3582 26.3684 73.2467 21.5975 77.9003 15.596C78.0538 15.4938 78.2058 15.4016 78.3879 15.3154C78.4938 15.2656 78.6842 15.184 78.9114 15.1385C79.0453 15.1156 79.1098 15.0951 79.38 15.1023C79.6593 15.1131 80.051 15.2139 80.3743 15.4725C81.0438 16.0687 81.0056 16.5224 81.0399 16.8352C81.0422 17.0139 81.0331 17.0647 81.0252 17.1447C81.0164 17.219 81.0049 17.2867 80.992 17.3505C80.9322 17.6278 80.8843 17.749 80.8298 17.9011C80.61 18.4703 80.4033 18.8461 80.172 19.2753C79.7238 20.0887 79.2753 20.8144 78.8035 21.5613C77.8678 23.0357 76.8882 24.4848 75.9081 25.9085C74.4542 28.0018 76.1346 27.1188 75.9198 27.4435C71.0354 34.6933 73.3053 27.8251 69.0534 32.1835C70.9497 32.5387 68.5765 35.2218 64.8222 40.0708C62.9997 42.3988 64.541 41.5964 64.4227 41.8467C63.9786 42.7107 63.485 43.4563 62.9845 44.0872C62.5792 44.5953 62.1808 45.0258 61.7226 45.4466C61.6001 45.5592 61.4887 45.6567 61.3261 45.7929C61.2498 45.8548 61.1681 45.9244 61.0008 46.0505C60.9182 46.1086 60.8195 46.1938 60.5389 46.3483C60.4891 46.3749 60.3143 46.4674 60.1122 46.5358C60.006 46.5721 59.8796 46.6092 59.7206 46.6386C59.6279 46.6542 59.5971 46.6623 59.4165 46.6769C59.2422 46.6887 59.036 46.6864 58.8004 46.6475C58.3346 46.5797 57.729 46.3027 57.3284 45.8719C56.9472 45.465 56.8042 45.1152 56.7064 44.8061C56.616 44.5013 56.5984 44.2674 56.5946 44.0839C56.5939 43.8919 56.6007 43.8623 56.6086 43.7707C56.6425 43.4664 56.703 43.2938 56.7261 43.2202C56.7565 43.1284 56.786 43.0543 56.8106 42.997C56.8509 42.9053 56.8927 42.823 56.9218 42.7712C56.9836 42.6602 57.0331 42.5851 57.0824 42.5119C57.1749 42.3782 57.2604 42.2686 57.3399 42.1723C57.9732 41.4211 58.4945 41.0092 58.8501 40.7103C58.9791 40.602 59.084 40.5166 59.1596 40.4518C61.477 38.4658 62.1311 35.1732 63.7565 33.8555C65.3691 32.5634 63.7402 36.8652 66.9058 31.9723C67.3035 30.2548 63.5228 33.0039 65.7975 29.1282C66.5262 27.9079 67.3428 26.6181 68.2717 25.2831C68.7382 24.6145 69.236 23.9286 69.7911 23.2282C70.0687 22.8791 70.3597 22.5257 70.6983 22.1528C70.8651 21.9698 71.0479 21.7765 71.266 21.5699C71.5155 21.3496 71.666 21.1603 72.2933 20.7993C72.6679 20.6303 73.3314 20.2287 74.5613 20.6576C75.2058 20.9061 75.6806 21.4345 75.8923 21.8373C76.133 22.3089 76.1243 22.4107 76.1738 22.5938C76.243 22.921 76.245 23.1618 76.2426 23.3434C76.2401 23.4719 76.2319 23.586 76.2209 23.6941C76.2101 23.8006 76.1952 23.9085 76.1808 23.999C76.1693 24.0721 76.1568 24.1441 76.1432 24.2159C76.1174 24.3539 76.0803 24.5207 76.0538 24.6329C75.9386 25.1189 75.8076 25.5587 75.6734 25.9883C75.3993 26.857 75.123 27.6351 74.8168 28.4681C74.2186 30.0888 73.5676 31.7205 72.8952 33.3591C71.5499 36.6315 70.0977 39.9698 68.6448 43.2518C65.7269 49.8354 62.763 56.29 60.2723 61.8139C59.9166 62.6031 59.5709 63.4037 59.3773 64.0099C59.3311 64.1423 59.3063 64.3099 59.3137 64.1869C59.3117 64.1319 59.3222 64.0997 59.2841 63.8895C59.2599 63.783 59.2405 63.6871 59.1438 63.4855C59.0418 63.2817 58.8752 63.0438 58.5925 62.8396C57.9581 62.4058 57.4383 62.5065 57.2422 62.5402C57.05 62.582 56.9682 62.6277 56.9326 62.6447C56.8069 62.7198 56.9658 62.6313 57.0633 62.5508C57.1766 62.4635 57.3058 62.3544 57.4401 62.236C58.5127 61.2716 59.5773 60.1745 60.5373 59.2433C60.8536 58.934 61.1578 58.6375 61.4512 58.3519C71.2147 49.0077 74.5423 46.2318 80.4187 41.1101C82.0999 39.6551 83.3809 38.4806 84.3684 37.5155C86.8903 35.1952 87.5231 34.1949 89.6666 33.3536C90.0167 33.2779 90.4696 33.1928 91.144 33.429C91.8099 33.6477 92.3868 34.3262 92.5761 34.7757C92.9827 35.7322 92.9264 36.2212 92.9465 36.7368C92.9309 37.7347 92.7796 38.6144 92.4277 39.834C92.2405 40.495 91.9995 41.2672 91.6782 42.1922C88.6446 50.6179 87.6427 45.4039 86.5585 46.314C85.4681 47.1779 85.4943 48.6779 84.5136 49.9217C83.5366 51.1497 84.5833 47.9791 82.9009 51.1639C81.2609 54.3553 77.6169 63.5848 77.5427 65.0235C77.4401 68.0826 80.9593 64.919 75.7373 73.0286C75.4362 73.4899 75.6539 71.5522 74.5314 73.3443C72.2165 77.1214 69.5787 81.0243 67.8098 84.7828C67.8179 84.7602 67.831 84.7275 67.8504 84.6505C67.8629 84.5652 67.9186 84.4704 67.868 84.0998C67.8352 83.9193 67.7477 83.6038 67.4343 83.3178C67.1233 83.0258 66.6628 82.9409 66.4106 82.9708C66.0598 83.0092 65.9494 83.0929 65.8478 83.143C65.529 83.3482 65.5809 83.3585 65.5549 83.3734C65.55 83.3805 65.5635 83.3665 65.5839 83.3423C65.6391 83.2754 65.6652 83.2436 65.7204 83.173C65.8354 83.0244 65.9101 82.927 66.0301 82.7661C66.1228 82.6431 66.2264 82.5034 66.3373 82.3526C66.4324 82.2241 66.5343 82.0854 66.6426 81.9371C67.0424 81.3914 67.4768 80.7903 67.8721 80.2449C68.6957 79.1064 69.5181 77.9671 70.3428 76.8306C71.9926 74.5563 73.6575 72.2824 75.3441 70.0299C78.7205 65.5296 82.1622 61.0887 85.8534 56.921C85.917 56.8511 85.959 56.7933 86.0989 56.6973C86.1175 56.6852 86.1388 56.6724 86.1642 56.659C86.1769 56.6524 86.1907 56.6456 86.2059 56.6388C86.2326 56.6265 86.2996 56.5993 86.3733 56.5859C86.5152 56.5498 86.8088 56.5855 86.9859 56.7577C87.1626 56.9238 87.195 57.0844 87.2126 57.1762C87.2353 57.3924 87.2169 57.3537 87.2176 57.3939C87.2146 57.4203 87.2109 57.4434 87.207 57.4648C87.1908 57.549 87.1707 57.6141 87.1476 57.6843C87.134 57.7233 87.1193 57.7633 87.1032 57.8051C87.0309 57.9927 86.971 58.1247 86.8989 58.2851C86.8175 58.4661 86.7653 58.5732 86.69 58.7314C86.6141 58.8903 86.5465 59.0279 86.4765 59.1692C86.1807 59.7678 85.8997 60.3109 85.5963 60.8925C84.5165 62.9386 84.6413 60.7117 84.0112 61.8753C77.2366 74.0755 80.7648 70.2732 78.6404 77.8251C77.6515 75.5587 75.133 77.8491 70.9466 84.7204C70.8518 84.8765 70.8181 84.924 70.7119 85.1121C70.688 85.1553 70.6672 85.1928 70.6396 85.2499C70.6242 85.2836 70.6071 85.3193 70.5803 85.3944C70.5669 85.4335 70.5502 85.4812 70.5311 85.571C70.5184 85.6667 70.4698 85.7821 70.5337 86.1287C70.5714 86.2985 70.6623 86.5663 70.92 86.8118C71.1732 87.0617 71.5646 87.1798 71.818 87.1746C72.3363 87.1543 72.4596 87.0078 72.569 86.9531C72.6674 86.8864 72.6903 86.8628 72.7266 86.8318C72.8436 86.7242 72.8634 86.692 72.8988 86.6518C73.0176 86.5045 73.0116 86.51 73.0745 86.427C73.1751 86.2924 73.2364 86.2095 73.335 86.0727C73.4076 85.9729 73.4886 85.8601 73.5782 85.7338C73.8902 85.2962 74.2447 84.7865 74.5675 84.3175C78.1833 79.1 76.7919 79.4692 78.6645 75.7324C79.2216 74.6073 82.4467 71.3876 82.6014 70.4827C83.1675 67.4901 79.0337 69.7357 86.7294 61.6263C87.0769 61.2794 86.6396 62.9708 87.7948 61.7385C88.6414 60.8429 89.4153 60.0278 90.1144 59.2939C90.2492 59.1646 90.3486 59.0296 90.7359 58.8225C90.7342 58.8437 91.1833 58.5015 91.9903 58.6858C92.8677 58.8779 93.2721 59.8182 93.2822 60.0145C93.3513 60.3319 93.3324 60.5021 93.3232 60.6428C93.3113 60.7765 93.2877 60.8957 93.2733 60.9626C93.2625 61.0133 93.2512 61.0608 93.2394 61.1069C93.2158 61.199 93.1904 61.2862 93.1628 61.3743C93.1091 61.5445 93.0778 61.6354 93.0291 61.773C92.9809 61.9079 92.9358 62.0292 92.8971 62.1331C92.7203 62.6011 92.5639 62.995 92.4017 63.405C92.09 64.1935 91.7977 64.936 91.5435 65.6127C91.0165 67.0024 90.5721 68.2694 90.0872 69.6133C89.1308 72.268 88.0186 75.224 85.7173 79.8226C83.783 83.6733 80.9097 88.793 77.7339 94.0579C77.1072 95.0904 76.4724 96.124 75.8333 97.1585C75.52 97.6651 75.1988 98.1831 74.8897 98.685C74.7332 98.9397 74.581 99.1876 74.4466 99.4128C74.3931 99.4968 74.2978 99.6797 74.3387 99.5786C74.3457 99.5591 74.3711 99.5032 74.4114 99.3695C74.4216 99.3349 74.433 99.2939 74.4454 99.2425C74.4515 99.2168 74.4579 99.1885 74.4643 99.1566C74.4734 99.1055 74.4681 99.1556 74.4943 98.9754C74.4777 98.7114 74.7518 98.1447 73.9051 96.9831C73.4697 96.4318 72.6498 96.0844 72.1055 96.0696C71.7753 96.0539 71.7387 96.0713 71.6098 96.0828C71.4995 96.0964 71.4026 96.1154 71.3169 96.1363C70.6559 96.3224 70.5317 96.4852 70.3948 96.57C70.2648 96.6701 70.2595 96.6813 70.2328 96.7045C70.1879 96.7462 70.167 96.7687 70.1548 96.7821C70.1211 96.8218 70.1692 96.7739 70.198 96.7437C71.6545 95.0865 73.2946 93.184 74.8052 91.5594C76.0632 90.1976 77.2777 88.926 78.3955 87.7584C80.0435 89.5251 86.1862 82.1542 88.3753 78.2827C88.8479 77.9047 89.3296 77.531 89.8954 77.1552C90.1882 76.9649 90.4684 76.7828 90.9196 76.5735C91.1286 76.4842 91.3873 76.3572 91.883 76.2807C92.1692 76.2533 92.4543 76.1977 93.0583 76.3953C93.6162 76.5709 94.2003 77.154 94.3859 77.6744C94.5898 78.1805 94.5709 78.6058 94.5636 78.7944C94.5516 79.0272 94.5138 79.236 94.4855 79.3696C94.4176 79.6835 94.3458 79.9033 94.2656 80.1352C94.1131 80.5666 93.9537 80.9321 93.7802 81.3096C93.4465 82.029 93.1009 82.6853 92.739 83.3474C92.0215 84.6545 91.264 85.9209 90.5009 87.1522C88.9687 89.6186 87.3821 91.9843 85.8 94.1885C84.4895 96.0076 84.7243 94.3923 84.5042 94.5851C81.1131 97.5006 80.7694 100.803 79.9808 102.029C79.8074 102.295 79.6361 102.556 79.4672 102.811C77.7785 105.328 76.1957 107.668 74.1635 109.944C73.8818 110.242 73.6242 110.517 73.2064 110.849C73.0791 110.946 72.9891 111.014 72.7925 111.129C72.6955 111.184 72.5882 111.238 72.4592 111.289C72.2943 111.352 72.0695 111.422 71.7733 111.431C71.4354 111.459 70.8341 111.295 70.495 110.964C70.1428 110.651 69.9958 110.248 69.9516 110.09C69.8365 109.656 69.8631 109.478 69.8659 109.28C69.992 108.074 70.2727 107.52 70.5139 106.802C71.0156 105.454 71.5858 104.168 72.1549 102.916C75.7409 95.2032 79.509 88.0021 82.6159 79.6306C82.7995 79.1283 81.6439 77.6525 84.411 74.5509C84.5908 74.3545 83.2645 79.1461 86.2025 72.7915C87.5732 69.7304 89.8207 65.3982 91.4434 60.6656C91.8488 59.4251 92.232 57.9288 92.0884 57.1074C92.0466 56.9183 92.0318 56.9925 92.1392 57.0425C92.2344 57.069 92.083 57.0205 91.8644 57.0775C91.4038 57.1804 90.8033 57.4826 90.2552 57.814C88.0078 59.2124 85.9666 61.1189 84.2235 62.911C83.3585 63.8056 81.9993 65.6195 80.2943 67.5393C78.7912 69.2309 77.0135 71 75.058 72.2128C74.5031 72.5538 74.6621 71.7205 73.8166 72.1742C71.0899 73.6573 71.1436 76.0071 67.6488 77.4707C64.1527 78.9332 58.2532 83.3945 52.1237 91.1715C51.9313 91.4113 51.2733 94.0343 49.1035 96.2394C48.6749 96.6745 48.2166 97.1343 47.7534 97.5942C46.2645 99.0715 44.6113 100.68 42.904 102.279C42.478 102.676 42.0545 103.067 41.616 103.455C41.3895 103.656 41.1864 103.831 40.951 104.021C40.8378 104.111 40.7196 104.203 40.6021 104.279C40.534 104.322 40.4757 104.362 40.3942 104.379C40.3248 104.403 40.2791 104.3 40.2978 104.267C40.3029 104.234 40.3222 104.184 40.3336 104.159C40.9003 103.15 41.6165 102.305 42.2559 101.44C42.5988 100.99 42.9495 100.531 43.2714 100.106C44.7672 98.1387 43.1415 98.8873 43.3899 98.5368C50.0896 89.3028 55.7642 82.1705 61.727 73.7083C64.4465 69.8337 67.2129 65.6689 70.1194 60.8991C71.8392 58.1089 75.4333 49.4296 78.9137 44.1408C79.2329 43.6561 79.5249 43.2672 79.7943 42.9609C81.2294 41.2783 82.2373 41.6637 83.4551 40.8469C83.7604 40.5996 84.0781 40.357 84.3958 39.6144C84.4738 39.4079 84.5507 39.1938 84.6 38.8214C84.6235 38.4678 84.7443 37.944 84.2846 36.8809C84.0221 36.3098 83.4702 35.6315 82.7148 35.232C82.0015 34.8426 81.2851 34.7663 80.8646 34.7607C79.9256 34.7713 79.5369 34.9254 79.1227 35.0455C76.6105 35.968 75.274 37.1335 72.9099 39.2195C72.4134 39.6729 71.8656 40.1901 71.3121 40.7337C66.6175 45.3649 64.1659 54.5867 54.1217 60.8564C52.8065 62.2715 51.4978 63.6877 50.2166 65.1005C43.4165 72.6954 36.8959 80.225 32.2372 89.1888C39.3231 83.1405 42.1328 72.5642 47.0642 63.8045C47.2382 63.4526 47.3798 62.7227 47.5629 61.8296C47.8629 60.3943 48.1823 58.6079 48.8334 57.3065C50.3847 54.1931 51.7499 52.6777 52.6983 50.3402C55.1274 43.7668 57.7722 35.7741 54.9278 30.3564C52.252 29.4055 49.4724 31.5268 47.1413 33.2985C44.2132 35.7453 44.7214 34.3359 41.4011 37.5536C39.3205 39.6321 38.0169 41.5783 36.1488 43.8023C35.0854 45.0717 33.8788 46.4615 32.3186 48.1127C29.0994 51.5315 24.7521 54.3015 21.1798 59.5919C22.4578 60.6427 20.8144 63.5448 18.2149 68.9001C18.1789 68.9693 18.172 68.9879 18.139 69.0516C18.138 69.0537 18.1373 69.0552 18.1375 69.0553C18.1377 69.0552 18.1376 69.0555 18.1398 69.0521C18.1406 69.051 18.1413 69.0498 18.1437 69.0463C18.145 69.0445 18.1465 69.0422 18.1508 69.0368C18.1669 69.0299 18.1217 69.0277 18.2494 68.9755C18.2873 68.9597 18.3978 68.9866 18.4304 69.0488C18.4642 69.1046 18.4582 69.1333 18.4592 69.1504C18.4571 69.1834 18.453 69.1894 18.4512 69.1969C18.447 69.2095 18.4455 69.212 18.4442 69.2151C18.4418 69.2203 18.4411 69.2215 18.4405 69.2228C18.4355 69.2313 18.4396 69.2229 18.4423 69.2174C18.4509 69.2004 18.4584 69.1854 18.4618 69.1778C18.4709 69.1586 18.4828 69.1341 18.4977 69.1046C18.5397 69.0173 18.5992 68.8989 18.6393 68.8144C18.7432 68.6038 18.8378 68.4086 18.932 68.2131C19.1344 67.7972 19.3275 67.3937 19.5386 66.9527C20.1705 65.6235 18.8349 66.6825 19.1049 66.0363C20.1879 63.4033 21.9129 61.3808 22.8684 58.8457C23.1041 58.2249 22.552 57.9035 22.7113 57.38C23.6714 54.1587 26.4223 50.1437 28.1189 47.7736C28.7641 46.8706 29.2567 46.2298 29.4703 45.953C32.517 41.9474 32.7521 39.5445 34.7147 36.282C36.6576 33.0335 34.6783 38.3431 36.7561 34.4489C38.0088 32.0867 39.2839 29.51 40.5331 26.8114C41.159 25.4582 41.7771 24.0786 42.3806 22.6679C42.6799 21.9672 42.9702 21.274 43.2577 20.5509C43.4067 20.1711 43.5387 19.8447 43.68 19.4178C43.6972 19.3576 43.7119 19.3348 43.7453 19.1656C43.749 19.1439 43.7528 19.1189 43.7559 19.0849C43.7574 19.0678 43.7588 19.0483 43.7594 19.0248C43.7578 19.0346 43.7692 18.9248 43.7321 18.7777C43.7108 18.6991 43.6772 18.5881 43.5709 18.4497C43.47 18.3129 43.2559 18.1616 43.0353 18.1266C42.5748 18.0692 42.4147 18.2515 42.3276 18.3044C42.2418 18.3736 42.206 18.4205 42.1836 18.447C42.1742 18.4584 42.1663 18.4687 42.1591 18.4782C42.1449 18.4972 42.1339 18.513 42.1242 18.5275C42.0867 18.5841 42.065 18.6234 42.0407 18.668C41.9939 18.7533 41.9298 18.8859 41.8962 18.9566C41.8029 19.1539 41.7361 19.3022 41.646 19.5054C39.9077 23.889 39.9508 28.2955 39.8394 32.2086C39.8347 35.9313 40.6848 33.3834 40.7034 33.9166C40.9988 41.5437 40.9061 49.3588 43.0406 53.3808C40.3706 57.4388 41.9472 58.0441 43.275 61.8773C43.8657 63.4448 44.385 65.5113 46.0071 68.0992C46.4465 68.6636 45.6742 71.3404 43.1773 68.2921C42.0773 66.7636 41.3772 64.5003 41.1537 62.1511C40.9243 59.8399 40.677 57.3486 40.1658 54.9972C39.9191 53.9381 37.3604 47.8781 37.1862 47.0119C35.7158 40.3109 38.8555 39.1613 38.9917 38.8112C40.5703 34.7288 38.6284 27.0922 38.8891 24.8533C39.0225 22.8599 39.2789 20.8883 40.094 18.8251C40.1896 18.5893 40.2728 18.3851 40.3767 18.1515C40.4034 18.0917 40.4449 18.003 40.4812 17.9293C40.5027 17.8866 40.5099 17.8684 40.5692 17.7615C40.5956 17.7147 40.6256 17.6626 40.6734 17.5888C40.6975 17.5516 40.7263 17.5088 40.7665 17.4541C40.7867 17.4267 40.8098 17.3962 40.838 17.3612C40.8683 17.3279 40.9889 17.1583 41.2731 16.9339C41.4259 16.8195 41.6337 16.6622 42.0488 16.5181C42.4412 16.3795 43.1723 16.2774 43.8976 16.5905C44.6194 16.8923 45.0466 17.475 45.2199 17.8409C45.4049 18.2271 45.4405 18.4785 45.4677 18.6634C45.4911 18.8431 45.49 18.9926 45.4888 19.0519C45.4885 19.0714 45.4879 19.0895 45.4873 19.1071C45.4845 19.1768 45.4799 19.2325 45.475 19.2806C45.465 19.376 45.4541 19.4418 45.4442 19.4968C45.4244 19.605 45.4078 19.6711 45.3928 19.7304C45.3609 19.8517 45.3604 19.8514 45.3447 19.9066C45.3209 19.9896 45.2864 20.0968 45.2727 20.1413C45.1137 20.6347 44.9637 21.0424 44.8157 21.4447C44.5125 22.2616 44.2057 23.0397 43.8884 23.8236C43.2696 25.3517 42.6259 26.8554 41.994 28.3164C40.7272 31.2427 39.4825 34.0554 38.3417 36.9224C36.4697 41.5936 38.0718 42.9273 36.2677 46.4707C35.4761 48.0176 34.705 49.4026 33.9432 50.6964C31.5594 54.7324 29.3815 57.5755 27.4183 60.6004C26.4364 62.1094 25.5061 63.6584 24.6102 65.4219C24.1638 66.3007 23.7269 67.2315 23.2989 68.2314C23.0835 68.7339 22.874 69.2471 22.6602 69.791C22.5599 70.0512 22.4504 70.3335 22.345 70.6146C22.2931 70.7535 22.2454 70.8866 22.1858 71.0423C22.1636 71.1066 22.1277 71.1956 22.1124 71.2485C22.1136 71.2497 22.1017 71.274 22.1042 71.2729C22.1064 71.2705 22.1038 71.2772 22.1271 71.2364C22.1349 71.2223 22.1411 71.2121 22.1732 71.1508C22.1941 71.1078 22.2035 71.1014 22.303 70.877C22.3307 70.8111 22.3657 70.7342 22.4318 70.5414C22.4649 70.4403 22.5078 70.3149 22.5627 70.0658C22.5981 69.79 22.75 69.5047 22.5952 68.3896C22.4899 67.8454 22.2615 66.8753 21.2338 65.912C20.2113 64.9207 18.5616 64.649 17.7099 64.8081C15.9633 65.1491 15.7716 65.6173 15.4593 65.806C14.9829 66.228 14.9413 66.3346 14.8522 66.4343C14.6046 66.7596 14.6301 66.7473 14.5897 66.8044C14.5648 66.8437 14.5541 66.8613 14.5451 66.8759C14.5282 66.9033 14.5221 66.9133 14.5168 66.922C14.4728 66.9912 14.515 66.9119 14.5093 66.9151C14.5172 66.8885 14.531 66.8512 14.5504 66.8039C14.7047 66.3642 14.8652 65.89 15.0336 65.386C15.9411 62.8154 12.5168 63.9557 19.1842 56.4948C19.5945 56.0054 24.9019 50.8491 26.7443 46.9261C26.9714 46.4276 26.4534 46.0381 26.8511 45.4488C28.4393 43.1241 30.002 41.4551 31.7368 39.6823C32.8702 38.5326 34.0545 37.2993 35.4113 35.7288C39.1424 32.0415 41.3719 26.7687 51.1924 23.6505C52.8264 23.3191 55.2828 23.3659 57.4324 24.4525C59.8814 25.6489 60.4926 27.1078 60.9527 27.9998C61.3845 28.9712 61.506 29.6406 61.6046 30.2649C61.7747 31.4904 61.7149 32.3968 61.6374 33.2198C61.4629 34.8088 61.1392 35.9585 60.9806 36.6476C59.7315 41.7881 59.5338 47.057 57.5709 49.6245C55.5785 52.0566 56.1364 46.2337 52.7628 53.0542C54.2106 53.9524 55.5397 55.2404 56.8979 56.3552C55.6427 59.2128 54.234 61.9856 52.713 64.6705C50.1088 69.2594 47.5406 73.8659 45.0211 78.5007C43.7578 80.8252 42.5127 83.1462 41.2762 85.4909C40.6594 86.6603 40.0447 87.836 39.4369 89.0093C39.1293 89.6034 38.8322 90.1796 38.5243 90.7795C38.3771 91.0662 38.2203 91.3726 38.0685 91.6688C37.9867 91.8286 37.9257 91.9475 37.8263 92.1407C37.8043 92.1832 37.7913 92.2084 37.7474 92.2927C37.7274 92.3307 37.7099 92.3644 37.6691 92.4391C37.6706 92.4362 37.6619 92.4529 37.6304 92.5088C37.5967 92.5666 37.5728 92.6169 37.4345 92.8309C37.3405 92.9589 37.3126 93.0631 36.8326 93.5923C36.6977 93.7325 36.5267 93.9108 36.1902 94.1722C35.8359 94.4208 35.3732 94.8296 34.1222 95.158C32.9846 95.5608 30.1981 95.1703 28.8809 93.6068C27.5649 92.1396 27.5055 91.042 27.4036 90.4438C27.306 89.239 27.4494 88.9811 27.4871 88.6936C27.5416 88.4403 27.5817 88.3123 27.6129 88.2086C27.6748 88.0108 27.7071 87.9303 27.733 87.8611C27.784 87.7294 27.8021 87.6903 27.7984 87.6981C27.8004 87.6934 27.8024 87.6888 27.8042 87.6844C27.808 87.6756 27.8114 87.6675 27.8147 87.6599C27.8276 87.6297 27.8373 87.6077 27.8458 87.5886C27.8626 87.5509 27.8743 87.5252 27.8854 87.5013C27.9704 87.3186 27.9752 87.3115 28.0323 87.1919C29.4269 84.3203 30.9762 81.816 32.5956 79.3409C33.7933 77.5437 31.8037 78.8581 33.0942 76.9222C37.1419 70.9745 41.5442 66.2883 46.2312 61.3707C47.9354 59.5907 49.683 57.7872 51.4728 55.8974C56.6793 50.4046 62.0052 44.086 67.8222 38.6483C68.7676 38.3088 69.8419 37.7357 71.0249 36.9981C72.5941 36.0419 73.8635 34.986 76.6335 33.305C77.0261 33.0885 77.4775 32.8203 78.3454 32.4928C78.8182 32.3354 79.3408 32.1079 80.5922 32.021C80.9198 32.0054 81.2543 32.0064 81.6857 32.0526C82.1538 32.1039 82.6771 32.2113 83.2231 32.409C84.3535 32.7831 85.6685 33.7838 86.3292 34.7725C87.0687 35.8522 87.2552 36.5815 87.4154 37.2765C87.5317 37.8302 87.5617 38.3493 87.5631 38.6842C87.5629 39.3884 87.4946 39.8089 87.4283 40.201C87.3016 40.8934 87.1513 41.3804 87.0256 41.7771C86.4959 43.368 86.0068 44.4118 85.502 45.5462C84.1114 48.5967 82.6711 51.456 81.28 53.9599C79.8105 56.582 79.4529 56.1488 78.2815 57.9275C73.8235 64.5825 77.1249 62.1564 76.263 64.2006C73.1877 71.2302 70.1232 71.7251 65.9505 76.4994C64.9393 77.6436 63.8535 79.0286 62.6561 80.7976C62.3484 81.2857 59.8821 88.3106 59.3863 89.1765C56.3538 94.7157 58.2002 89.599 55.7547 92.6444C52.2823 96.9464 49.3681 100.103 46.2662 104.437C45.8359 105.047 45.3809 105.714 45.0616 106.263C44.9934 106.381 44.9167 106.528 44.9523 106.492C44.9649 106.476 44.983 106.451 45.0297 106.364C45.0568 106.311 45.0918 106.241 45.1368 106.136C45.1615 106.077 45.1767 106.043 45.2185 105.928C45.2605 105.811 45.3089 105.665 45.359 105.461C45.3839 105.359 45.4091 105.243 45.432 105.106C45.4435 105.037 45.4543 104.963 45.4639 104.883C45.4737 104.794 45.481 104.752 45.4928 104.546C45.5101 103.891 45.5262 102.568 44.3538 101.069C43.0919 99.4277 40.8579 99.0557 39.9882 99.1846C39.8639 99.1939 39.7497 99.207 39.644 99.2222C39.5859 99.2306 39.5305 99.2395 39.4774 99.2489C39.3712 99.2678 39.2743 99.2884 39.1852 99.3097C39.0072 99.3523 38.86 99.3972 38.7335 99.4402C38.4812 99.5266 38.3088 99.6049 38.1733 99.6702C38.0739 99.7183 38.0142 99.75 37.953 99.7833C37.8354 99.8477 37.7583 99.8952 37.7013 99.9308C37.5359 100.035 37.5405 100.03 37.5504 100.011C37.5682 99.9879 37.6028 99.9494 37.6555 99.8935C37.7475 99.7935 37.8711 99.6604 38.0085 99.5101C38.9809 98.4455 40.8428 95.6305 43.1884 93.1459C44.2057 92.069 45.3267 91.0444 46.5271 90.2357C47.0441 89.8881 47.2957 90.6028 47.6685 90.2749C54.3858 84.2883 53.0254 82.6312 56.1055 78.4409C59.1823 74.2459 65.8692 69.6152 67.3292 68.7789C71.1267 66.5639 65.3425 71.406 65.2646 71.6491C64.2664 74.4668 68.1982 70.188 71.4661 67.1561C73.3786 68.1905 77.7729 63.8122 74.8644 64.0203C74.5364 64.0468 72.1676 66.5989 71.4661 67.1561C72.0268 65.4335 73.1678 63.5741 74.8124 61.7301C77.2047 59.0856 80.5343 56.3942 85.177 54.3311C87.0744 53.5267 87.422 53.9086 88.599 53.6184C88.9121 53.5453 89.2748 53.435 89.8221 53.2773C90.4464 53.1654 90.9749 52.7216 92.9834 53.0084C94.0277 53.137 95.4944 54.3332 95.8337 55.3921C96.249 56.4432 96.2329 57.18 96.2237 57.8771C96.1656 59.2423 95.8896 60.4704 95.529 61.8753C95.5151 61.929 95.5008 61.9833 95.4863 62.0382C94.0256 66.9684 96.0021 65.586 94.7206 69.8659C91.6837 79.4972 84.8472 90.3236 80.7671 99.4557C79.2978 102.759 81.5059 99.9085 80.5333 102.174C79.9824 103.466 79.4252 104.699 78.8871 105.888C78.399 106.969 77.9181 108.029 77.5239 108.986C77.3355 109.438 77.155 109.933 77.1043 110.081C77.0934 110.104 77.0931 110.113 77.1126 109.955C77.1206 109.874 77.1348 109.782 77.1399 109.514C77.1412 109.386 77.1388 109.234 77.1203 109.028C77.0944 108.753 77.0448 108.396 76.894 107.922C76.7892 107.573 76.3892 106.54 75.5208 105.711C74.7074 104.859 73.1863 104.216 72.1299 104.179C70.2672 104.114 69.7162 104.597 69.4039 104.706C69.0507 104.89 68.9361 104.983 68.8394 105.052C68.7438 105.123 68.7075 105.157 68.6855 105.177C68.6144 105.25 68.7465 105.139 68.877 105.004C69.0049 104.875 69.165 104.701 69.3327 104.509C69.6605 104.135 70.0124 103.703 70.3686 103.244C71.0702 102.339 71.7825 101.339 72.4779 100.283C72.8006 99.789 71.2965 100.463 72.4602 98.8343C72.6183 98.6115 72.7789 98.3846 72.9419 98.1539C75.6351 94.3348 78.2284 90.5918 80.6983 86.8987C81.9327 85.0487 83.1369 83.2086 84.2598 81.3854C84.8171 80.4791 85.3582 79.5686 85.8136 78.7349C86.045 78.3107 86.2456 77.92 86.381 77.6269C86.4444 77.4931 86.4893 77.3741 86.472 77.4409C86.4669 77.4683 86.4306 77.5811 86.3881 77.8456C86.3617 78.017 86.3301 78.2547 86.3285 78.6146C86.3319 78.966 86.3424 79.7555 86.7612 80.7897C87.28 82.4157 89.5461 84.1994 91.0959 84.3731C91.289 84.4121 91.4762 84.4394 91.6443 84.4569C91.7794 84.4709 91.9079 84.4795 92.0296 84.484C92.2731 84.4929 92.4896 84.4857 92.682 84.4706C93.059 84.4419 93.3852 84.3719 93.5347 84.3345C94.2697 84.1372 94.3678 84.0343 94.477 83.9858C94.6183 83.9011 94.4628 83.9816 94.3217 84.0793C94.001 84.2952 93.5449 84.6491 93.0881 85.0274C92.1713 85.7866 91.1874 86.6784 90.2106 87.6C88.2476 89.4561 86.2629 91.4731 84.2828 93.6009C83.3335 94.6226 82.2636 95.8188 81.1723 97.1063C79.8065 98.7107 78.6344 100.228 76.9239 102.403C76.8552 102.486 76.7559 102.606 76.6001 102.776C76.5191 102.862 76.3686 103.036 76.0268 103.336C75.9074 103.433 75.6381 103.688 75.0347 104.041C74.714 104.22 74.2927 104.456 73.4965 104.671C73.2963 104.723 73.0705 104.772 72.8129 104.809C72.6842 104.828 72.5473 104.843 72.402 104.855C72.2381 104.865 72.175 104.876 71.7952 104.872C70.5644 104.894 68.5846 104.24 67.4095 102.93C66.2119 101.645 65.8989 100.359 65.7743 99.5778C65.6591 98.7678 65.7096 98.2769 65.749 97.9048C65.8101 97.4505 65.8102 97.5146 65.8302 97.3994C65.847 97.3167 65.8637 97.2422 65.8801 97.174C65.946 96.9026 66.0045 96.7235 66.0544 96.5773C66.1546 96.2887 66.2267 96.1296 66.2523 96.0681C66.288 95.9854 66.3193 95.9165 66.3482 95.8544C66.4091 95.7238 66.4467 95.6483 66.4776 95.5857C66.5427 95.4544 66.6035 95.3374 66.6457 95.256C66.8384 94.8874 66.9769 94.6321 67.1355 94.3391C67.4355 93.7857 67.7244 93.257 68.0106 92.731C68.5905 91.6665 69.1605 90.6144 69.723 89.5703C71.6192 86.0343 73.4466 82.4991 74.9119 79.8053C76.7809 76.3591 78.8197 72.7113 80.8682 69.01C81.8928 67.1571 82.9137 65.3043 83.905 63.4523C84.3937 62.5397 84.8881 61.6004 85.3324 60.724C85.5547 60.285 85.7683 59.8536 85.9463 59.474C86.0278 59.3038 86.1128 59.107 86.1279 59.0887C86.1324 59.0832 86.1294 59.0974 86.1146 59.157C86.1073 59.1868 86.0972 59.2279 86.0842 59.2862C86.0777 59.3153 86.0705 59.3488 86.0626 59.3879C86.05 59.4485 86.0309 59.546 86.0132 59.6657C85.9832 59.9158 85.9165 60.2532 85.9879 61.0162C86.0087 61.2091 86.0421 61.4323 86.104 61.6958C86.17 61.9909 86.456 63.0651 87.2757 64.019C88.0715 65.025 89.6425 65.8608 90.9089 65.9635C92.1895 66.0982 93.0432 65.8193 93.5929 65.6097C93.7711 65.5376 93.7556 65.5417 93.8146 65.516C93.8601 65.4955 93.9037 65.4752 93.9454 65.4551C94.0289 65.4149 94.1053 65.3755 94.1759 65.3373C94.3169 65.2609 94.4347 65.1892 94.5368 65.1231C94.7405 64.9908 94.8832 64.8806 94.9965 64.7883C95.2203 64.604 95.3317 64.4877 95.41 64.4061C90.9381 68.7336 86.9517 73.6855 83.9405 77.9755C79.5388 84.3565 81.2361 83.4834 79.7959 86.5212C79.4992 87.1466 79.1886 87.7399 78.793 88.4105C78.6015 88.7364 78.3884 89.0829 78.166 89.4274C78.098 89.5312 78.029 89.6354 77.9631 89.7331C77.9369 89.7725 77.8795 89.8554 77.8245 89.9331C77.7963 89.9729 77.7667 90.0143 77.7333 90.0601C77.6864 90.1229 77.7092 90.0972 77.5575 90.292C77.4907 90.376 77.4132 90.4747 77.256 90.6521C77.0544 90.8488 76.9925 91.0379 75.9751 91.7894C75.7544 91.9336 75.2229 92.3353 74.1622 92.7052C73.1851 93.0297 70.7898 93.6432 68.0578 92.0287C65.3537 90.3429 64.7676 87.7935 64.6426 86.7361C64.5134 85.5494 64.6373 84.9881 64.7023 84.5573C64.8605 83.7422 64.985 83.482 65.0694 83.2405C65.1556 83.0166 65.2141 82.8878 65.2623 82.782C65.3205 82.6558 65.3405 82.6159 65.3715 82.5527C65.4789 82.3366 65.551 82.2073 65.5991 82.1189C65.6685 81.9918 65.735 81.874 65.8104 81.7428C68.7474 76.5427 73.4081 70.3194 74.1813 69.3695C74.2181 69.3351 71.2426 75.3977 73.2972 72.4087C75.0544 70.9635 74.1496 69.4375 74.1813 69.3695C74.48 68.9921 76.0299 66.2156 77.6683 63.1005C78.4872 61.5436 79.3352 59.8888 80.0368 58.4538C80.3983 57.7138 80.7018 57.0742 80.961 56.494C81.0869 56.2116 81.1913 55.9656 81.2539 55.8007C81.2773 55.7403 81.2999 55.6627 81.2523 55.7952C81.2447 55.8173 81.2081 55.9244 81.1643 56.1036C81.1418 56.197 81.1151 56.3158 81.0875 56.4884C81.0738 56.575 81.0599 56.6756 81.048 56.7975C81.0421 56.8586 81.0367 56.925 81.0324 56.9983C81.0296 57.0549 81.0303 57.0071 81.0251 57.1734C81.0215 57.3222 81.0227 57.4963 81.0385 57.7097C81.0777 58.1349 81.136 58.7292 81.5367 59.6109C81.9113 60.4637 82.8786 61.7089 84.3048 62.3127C87.2898 63.51 89.1762 61.9974 88.995 62.1774C89.5702 61.8773 89.831 61.6524 90.0327 61.4871C90.412 61.1582 90.5164 61.0167 90.6049 60.9186C90.441 61.1253 90.3036 61.3043 90.1986 61.4476C89.365 62.5907 90.4746 62.474 90.0343 63.0594C87.0302 67.0756 84.1027 71.2978 81.1872 75.5557C79.7341 77.6806 78.2814 79.8257 76.8193 81.9872C76.0883 83.0677 75.3573 84.1494 74.6168 85.2388C74.2464 85.7835 73.8707 86.3346 73.4841 86.8949C73.2929 87.1718 73.0879 87.467 72.8772 87.7644C72.7507 87.942 72.673 88.0523 72.5019 88.2835C72.4175 88.3961 72.3791 88.4511 72.2003 88.6761C72.16 88.7265 72.1158 88.7808 72.0632 88.8435C72.0369 88.8749 72.0085 88.9084 71.9768 88.945C71.961 88.9633 71.9443 88.9824 71.9267 89.0024C71.9121 89.0188 71.8858 89.0491 71.8274 89.1129C71.7194 89.2296 71.5897 89.3706 71.34 89.5994C71.0562 89.831 70.8075 90.1514 69.63 90.757C69.3208 90.9054 68.9328 91.0724 68.3872 91.2218C68.1142 91.2958 67.8006 91.3643 67.4352 91.4118C67.0432 91.4681 66.182 91.5206 65.3507 91.3748C63.6218 91.1638 61.4792 89.7758 60.5804 88.2917C59.6248 86.8165 59.4838 85.6678 59.4076 84.9219C59.3228 83.4317 59.5291 82.9516 59.6136 82.5306C59.7167 82.1389 59.7976 81.9252 59.8628 81.7507C64.0952 72.7257 67.8795 67.4885 71.7451 60.5462C71.9123 60.2742 72.4464 61.1175 72.8315 60.469C78.1717 51.4522 80.1173 44.9475 82.7542 36.9207C82.8482 36.6301 82.9416 36.3416 83.0345 36.0552C83.1298 35.7388 83.1957 35.4748 83.2256 35.2965C83.2548 35.1483 83.2296 34.9935 83.1437 35.4952C83.1306 35.8066 82.9695 36.1699 83.316 37.6533C83.5225 38.412 83.9678 39.6022 85.1318 40.7759C86.3201 42.0057 88.0667 42.6646 89.1363 42.7926C91.3477 43.0216 91.8598 42.6003 92.2665 42.5164C92.6324 42.3843 92.7411 42.3203 92.7991 42.2962C92.8966 42.2503 92.7639 42.3375 92.6156 42.456C92.4596 42.5779 92.263 42.7374 92.0541 42.9129C91.6335 43.2659 91.1717 43.673 90.7156 44.0814C87.6646 46.8499 84.8312 48.8003 82.1648 50.1101C77.3232 54.7051 69.9892 60.5079 65.957 64.0277C65.8447 64.1243 65.736 64.2197 65.6309 64.314C63.7903 65.9661 63.0723 67.2388 62.1979 68.4776C61.9566 68.8003 61.7224 69.1191 61.2504 69.5315C61.0295 69.7252 60.6936 69.9776 60.2207 70.2263C59.6337 70.4838 59.0344 70.8836 57.2282 70.889C56.4604 70.8822 55.2045 70.6401 54.1476 70.016C53.0478 69.377 52.3567 68.5973 51.8784 67.879C51.6418 67.5209 51.4612 67.1732 51.3258 66.8679C51.2173 66.6272 51.1325 66.4038 51.0634 66.1973C50.9258 65.7841 50.8487 65.4386 50.7958 65.1413C50.6294 64.1902 50.6689 63.7056 50.6825 63.4287C50.8236 62.0498 50.9826 61.6964 51.0932 61.2221C51.2134 60.7793 51.3188 60.4356 51.4279 60.0941C51.6372 59.44 51.832 58.8856 52.0353 58.3297C56.4492 45.923 60.8482 38.3151 66.0976 25.3295C66.3401 24.702 66.5986 24.0068 66.8211 23.3427C66.9269 23.0275 67.0315 22.6907 67.0845 22.4861C67.1071 22.4081 67.1179 22.3151 67.0805 22.5388C67.0698 22.61 67.0557 22.7129 67.044 22.8716C67.0381 22.954 67.0333 23.0351 67.0309 23.1672C67.0284 23.3447 67.0314 23.5685 67.0628 23.8721C67.0959 24.176 67.1532 24.5613 67.3111 25.0755C67.4367 25.5094 68.0151 27.1283 69.5544 28.301C73.4235 30.8619 75.7564 29.2547 76.6075 28.934C76.8602 28.7997 77.0295 28.6884 77.1489 28.6061C77.2491 28.5368 77.3197 28.4828 77.3718 28.4417C77.4652 28.3674 77.4949 28.339 77.502 28.3335C77.5152 28.3219 77.4469 28.3899 77.3733 28.4712C77.2144 28.6446 76.9851 28.9143 76.7549 29.2004C76.2862 29.782 75.7695 30.473 75.249 31.1998C74.2077 32.6544 73.1418 34.2598 72.1114 35.8785C70.0441 39.127 68.1033 42.4605 66.5513 45.2376C66.338 45.6175 66.1362 45.9726 65.9565 46.2927C65.786 46.5959 65.5939 46.947 65.5949 46.9665C65.6011 46.9573 65.6153 46.9366 65.6729 46.8167C65.6985 46.7627 65.751 46.6501 65.8192 46.4754C65.8641 46.3592 65.9198 46.2087 65.9862 45.9866C66.0296 45.8213 66.2019 45.3206 66.2577 44.4118C66.2538 44.0207 66.4351 42.5792 65.3774 40.6133C64.9312 39.7331 63.6709 38.3019 62.2144 37.6675C60.7647 36.9917 59.4387 36.951 58.5606 37.035C57.4844 37.1507 56.931 37.3823 56.4866 37.5616C56.2738 37.652 56.086 37.7456 55.9598 37.8126C55.8677 37.8614 55.786 37.9072 55.7121 37.9503C55.4219 38.1201 55.2283 38.2595 55.1132 38.3439C55.0155 38.416 54.9415 38.4743 54.8811 38.5232C54.6606 38.7046 54.6309 38.7393 54.5989 38.7666C54.5188 38.8404 54.6709 38.6809 54.7779 38.5583C55.0217 38.2839 55.3086 37.9543 55.5878 37.6338C58.5306 34.231 60.8682 31.7118 63.6185 27.801C64.0606 27.1691 62.9862 27.3254 63.1061 27.1213C66.2053 21.535 65.8448 25.0567 66.8953 24.2101C68.6232 22.7927 70.0311 21.5754 71.4017 20.0337C72.0908 19.2543 72.7706 18.3948 73.4328 17.4024C73.7491 16.9289 74.0938 16.3665 74.3336 15.8994C74.3985 15.7733 74.4433 15.6782 74.4819 15.5883C74.517 15.508 74.5372 15.4342 74.4905 15.5385C74.4683 15.6012 74.4245 15.6648 74.3397 16.0703C74.3205 16.1696 74.3011 16.2879 74.2857 16.4341C74.2778 16.5123 74.2721 16.5703 74.2662 16.6912C74.2597 16.8377 74.2587 17.0069 74.2714 17.2055C74.3967 17.9816 74.3257 19.3636 76.4586 21.0102C77.4297 21.678 78.4943 21.8802 79.2034 21.8876C79.4181 21.8901 79.4651 21.8859 79.5713 21.8811C79.6661 21.8759 79.7556 21.8683 79.8402 21.859C80.0092 21.8405 80.1584 21.8154 80.2913 21.7881C80.8112 21.6797 81.1348 21.5311 81.2721 21.4709C81.5229 21.3569 81.6258 21.291 81.6735 21.2669C82.3022 20.8333 82.3292 20.7282 82.3899 20.6909C82.4334 20.6532 82.4074 20.6977 82.3749 20.7601C82.2998 20.8965 82.1705 21.1293 82.0323 21.3925C81.2976 22.7671 80.6537 29.3174 78.3942 32.6898C76.1771 35.9835 75.8078 35.517 74.311 37.0417C73.8701 37.4667 73.5665 37.9253 72.0929 38.9904C71.6815 39.2624 71.1876 39.603 70.1763 39.9981C69.2218 40.2979 67.2879 41.1454 64.0742 39.8976C60.7832 38.4639 59.7159 35.6389 59.4144 34.4662C59.0747 33.1213 59.1053 32.3319 59.1248 31.6485C59.2386 30.478 58.8748 30.0128 59.6542 27.5807C60.0197 26.534 60.6327 25.3923 61.3599 24.3718C62.4788 22.8187 63.2344 21.8964 63.5767 21.3365C63.5866 21.3293 63.5867 21.3235 63.5268 21.4686C63.4965 21.5453 63.4503 21.6578 63.3806 21.8925C63.3162 22.1346 63.2044 22.463 63.145 23.2728C63.171 24.0282 62.8354 25.7081 64.7681 28.4088C65.7301 29.6815 67.2381 30.6314 68.4042 31.0072C69.54 31.3874 70.3396 31.4197 70.9436 31.4181C72.0361 31.3875 72.4696 31.2213 72.7455 31.1475C73.0299 31.0582 73.1421 31.0041 73.2074 30.9744C73.4179 30.8627 73.0395 31.0437 72.7057 31.2608C72.3478 31.4859 71.9229 31.7781 71.4769 32.1019C63.4117 37.9875 55.2096 44.2774 47.5246 50.6817C46.0572 51.904 48.5392 51.0603 46.419 52.8509C45.5439 53.5913 44.6633 54.3386 43.772 55.0966C43.306 55.4926 42.8821 55.8538 42.4167 56.2495C42.2035 56.4308 41.9628 56.6354 41.7262 56.8357C41.6003 56.9422 41.4981 57.0288 41.3519 57.1512C41.2845 57.2077 41.2307 57.2529 41.1238 57.3408C41.0756 57.3804 41.0268 57.4203 40.9677 57.4678C40.9141 57.5105 40.8409 57.5694 40.7116 57.6672C40.6434 57.7183 40.562 57.7797 40.4101 57.8855C40.3227 57.9453 40.27 57.9836 40.0615 58.1157C39.9292 58.1981 39.7648 58.3002 39.4745 58.4542C39.163 58.6073 38.8148 58.8239 37.7733 59.1393C37.2286 59.2833 36.5055 59.4996 35.1031 59.4859C33.7939 59.4602 31.1759 59.0954 28.9025 56.7938C26.6157 54.481 26.2523 51.4751 26.3728 50.0255C26.4857 48.4634 26.8175 47.697 27.0376 47.1253C27.5071 46.039 27.7826 45.7106 27.9832 45.4043C28.1823 45.1223 28.3094 44.9672 28.4116 44.8424C28.6117 44.602 28.7133 44.4956 28.7969 44.4056C28.6173 44.5986 28.618 44.6062 28.612 44.611C28.6122 44.6102 28.6393 44.5756 28.6708 44.5337C28.7379 44.445 28.834 44.3139 28.9354 44.1717C29.1434 43.8802 29.373 43.5463 29.6103 43.1941C30.0829 42.4924 30.5833 41.7228 31.0732 40.958C32.0693 39.4017 33.0636 37.8033 34.0664 36.1778C38.0268 29.7527 42.1528 23.4894 46.1603 17.7516C47.9851 15.1481 47.4494 17.1729 47.9896 16.6989C51.2836 13.7936 53.166 7.84289 53.6722 7.01348C54.5353 5.59773 55.3911 4.21435 56.2072 2.89174C56.6336 2.20139 57.0119 1.58602 57.3901 0.958015C57.5685 0.660648 57.7413 0.368111 57.8643 0.147356C57.9118 0.0623698 57.9722 -0.0553861 57.9244 0.0294278C57.909 0.0581598 57.8826 0.108365 57.8397 0.199278C57.8182 0.244941 57.7924 0.301049 57.7614 0.372819C57.7431 0.415518 57.6645 0.595887 57.5736 0.858843C57.4828 1.13276 57.3565 1.49085 57.2376 2.20727C57.2089 2.38842 57.182 2.59489 57.1625 2.83782C57.1527 2.96062 57.1451 3.08566 57.1403 3.23561C57.1286 3.64403 57.1377 4.14368 57.2373 4.78377C57.4206 5.99621 58.0793 8.16581 60.1286 9.88144C62.1686 11.6206 64.7627 11.939 66.1452 11.7914C66.8529 11.7396 67.538 11.5586 67.5753 11.5479C67.7571 11.5003 67.9217 11.4507 68.0725 11.4009C68.374 11.3013 68.6206 11.2017 68.8318 11.1081C69.2526 10.9204 69.5369 10.7577 69.7627 10.6212C70.207 10.3479 70.4269 10.1705 70.593 10.0391C71.181 9.54348 70.9881 9.68568 70.9676 9.72355C70.904 9.793 70.7906 9.91894 70.6928 10.0298C70.4627 10.2897 70.2351 10.5527 69.9715 10.8586C69.4743 11.4365 68.9587 12.0424 68.4222 12.6718C67.3825 13.8924 66.3329 15.1208 65.2694 16.3503C63.1579 18.7911 61.0222 21.2045 58.832 23.5917C56.6361 25.9784 54.4055 28.3508 51.8863 30.7782C50.5955 31.9975 49.3652 33.1946 47.3599 34.6692C46.7779 35.0797 46.2876 35.4308 45.2789 35.9591C45.033 36.0841 44.8078 36.1928 44.4789 36.3323C44.1034 36.4904 43.6809 36.6468 43.1765 36.7853C42.3963 36.9719 40.2861 37.5926 37.4601 36.4827C35.9333 35.8828 34.4738 34.6515 33.6393 33.381C32.8298 32.1398 32.6243 31.4181 32.3974 30.5945C32.0131 28.8652 32.117 28.372 32.1274 27.6261C32.1453 27.2903 32.1813 26.9444 32.2158 26.6866C32.2449 26.4687 32.2782 26.2591 32.3149 26.0549C32.3883 25.6467 32.4747 25.2598 32.5711 24.8784C34.0412 19.2274 35.6258 13.7214 37.0407 7.82551C37.1072 7.54173 37.2118 6.74511 37.3349 5.71687C37.3908 5.22347 37.4668 4.61163 37.507 4.09626C37.5198 3.882 37.55 3.51204 37.4747 3.72408C37.4629 3.77117 37.4474 3.84437 37.4294 3.96905C37.4134 4.13608 37.3855 4.11684 37.3751 4.83184C37.3807 5.17256 37.3776 5.61942 37.5431 6.46977C37.5649 6.57698 37.5902 6.69124 37.6203 6.81368C37.6354 6.87491 37.6517 6.93819 37.6694 7.00368C37.6783 7.03644 37.6875 7.06972 37.6971 7.1036C37.7013 7.1193 37.7437 7.26452 37.7718 7.35153C38.0351 8.12699 38.4354 9.27357 39.7328 10.6892C40.9564 12.1045 43.6152 13.4809 45.9441 13.4521C47.0931 13.4759 48.0818 13.272 48.8535 13.0195C49.2324 12.8967 49.6103 12.7381 49.8523 12.6235C49.9812 12.5631 50.1026 12.5023 50.2175 12.4418C52.003 11.4398 52.4309 10.7605 52.8352 10.3316C53.0184 10.1126 53.1446 9.94248 53.2452 9.80167C53.3464 9.65836 53.3509 9.65141 53.396 9.58536C53.6763 9.16687 53.7442 9.02518 53.7688 9.00175C53.8007 8.95798 53.809 8.95895 53.8047 8.98853C53.9653 8.63924 53.9987 8.54024 54.0337 8.45575C54.0639 8.3796 54.0761 8.34839 54.0789 8.34439C54.0881 8.32559 54.0889 8.33007 54.086 8.34559C54.0767 8.38601 54.0687 8.42322 54.0522 8.48431C54.0187 8.60785 53.9898 8.71714 53.951 8.85214C53.8831 9.09451 53.8084 9.34768 53.7269 9.60956C53.5722 10.1107 53.4092 10.5996 53.2312 11.0925C52.8803 12.065 52.4921 12.9975 52.0738 13.8665C51.2444 15.5897 50.2771 17.0908 49.3026 18.0384C49.0513 18.3152 45.3636 21.7335 43.9853 25.7985C43.8861 26.0593 46.2445 24.0303 43.2874 28.3048C41.8763 30.304 40.1509 32.8685 38.0925 35.5251C35.8947 38.3673 33.4426 41.341 30.8271 43.8185C29.2624 45.2975 24.9195 48.155 21.7572 53.8662C21.6699 54.0197 21.039 55.4532 19.9717 57.3125C19.4406 58.2373 18.8211 59.248 18.0332 60.3094C17.6421 60.8343 17.2161 61.3727 16.6077 62.01C16.4282 62.1938 16.3036 62.3231 16.041 62.5647C15.7817 62.7962 15.5696 63.0047 14.9229 63.4713C14.6625 63.6331 14.1594 64.0857 12.6534 64.6754C12.5589 64.551 8.57772 66.9712 3.39787 63.1169C-1.11035 58.9488 0.209949 54.9703 0.0961285 54.6969C0.30277 53.2167 0.644466 52.5176 0.724669 52.2781C0.858008 51.9423 0.975733 51.688 1.08587 51.4619C1.65219 50.3465 2.30603 49.4163 3.06717 48.9C3.57305 48.5424 5.33161 49.975 7.2282 42.8657C7.57545 41.5048 6.17058 43.6404 7.30654 40.1648C8.05919 37.8328 9.08724 35.2537 10.095 32.5192C10.5985 31.1514 11.0894 29.7677 11.5281 28.363C11.7376 27.6884 11.9472 26.9687 12.1008 26.3409C12.1712 26.048 12.2447 25.7194 12.267 25.5341C12.2749 25.461 12.2824 25.3424 12.221 25.5739C12.2108 25.7534 12.081 25.6614 12.0892 27.3128C12.1165 27.7639 12.1437 28.3627 12.4476 29.3992C12.7752 30.385 13.3637 32.1421 15.5869 33.8503C16.7976 34.8011 18.8711 35.5497 20.5018 35.5555C22.1716 35.6002 23.4194 35.1933 24.271 34.8224C25.1308 34.439 25.6642 34.0625 26.0674 33.7558C26.2678 33.6011 26.4327 33.4604 26.5749 33.3322C26.637 33.2763 26.6873 33.2297 26.7384 33.1814C27.5114 32.4274 27.6907 32.1059 27.8645 31.8751C27.5715 32.4448 27.2217 33.1884 26.9076 33.9448C26.4761 34.9494 25.2576 39.9946 22.3971 43.1141C21.9475 43.6039 21.8889 42.1956 20.818 44.0725C20.3361 44.9201 19.8629 45.7779 19.408 46.6319C19.1821 47.0561 18.9606 47.4795 18.7595 47.8749C18.6558 48.0792 18.5612 48.2687 18.4901 48.4145C18.4584 48.4785 18.4234 48.5543 18.4358 48.5219C18.44 48.5108 18.449 48.4886 18.4654 48.4465C18.4886 48.3846 18.4823 48.4111 18.5733 48.1518C18.6141 48.0307 18.6682 47.8729 18.7462 47.5759C18.7851 47.4252 18.8306 47.2387 18.88 46.9672C18.8862 46.9331 18.8924 46.8976 18.8986 46.8605C18.9087 46.7944 18.8968 46.8883 18.9382 46.5981C18.9861 46.1526 19.0884 45.5808 18.9362 44.3346C18.7446 43.2422 18.345 40.4372 14.9283 38.2422C11.3654 36.1547 8.16159 37.2749 7.0623 37.7852C6.41447 38.0828 6.00246 38.3539 5.68161 38.5786C5.56435 38.6621 5.52496 38.6921 5.45409 38.7456C5.32594 38.843 5.21614 38.9321 5.11893 39.0141C4.92492 39.1781 4.77995 39.3143 4.65971 39.432C4.42142 39.6665 4.27824 39.8299 4.16526 39.9613C3.9454 40.2205 3.84838 40.3569 3.77371 40.4591C8.9875 33.4133 14.089 26.0451 19.7717 19.236C22.2682 16.2675 21.9507 18.5244 24.7082 15.5111C25.2837 14.8869 25.9576 14.1427 26.7425 13.2859C27.152 12.8389 27.5514 12.4053 28.0632 11.8711C28.3055 11.6213 28.5785 11.3368 28.9767 10.9618C29.2067 10.7528 29.3687 10.5802 29.954 10.1395C30.2318 10.0224 30.4685 9.45773 32.757 8.90727C33.2757 8.76112 35.9188 8.55276 37.8683 10.1912C38.8292 10.954 39.4528 11.9429 39.7726 12.74C39.9882 13.2792 40.0659 13.6166 40.1372 13.9794C40.3653 15.3675 40.1914 15.9983 40.111 16.4938C38.5329 22.0607 36.5656 24.7273 35.5959 27.3325C33.9076 31.3592 37.8491 28.1718 34.7233 33.8082C31.3172 39.8704 27.7861 45.6212 24.5452 51.2722C22.945 54.0716 21.3654 56.9288 20.285 59.3439C20.0115 59.9585 19.7923 60.5059 19.6526 60.9087C19.5893 61.0864 19.5336 61.2772 19.5218 61.3113C19.5031 61.3594 19.5335 61.272 19.5436 60.8785C19.4989 60.3702 19.707 59.5309 18.6025 57.3983C18.0879 56.4514 17.0483 55.2841 15.9006 54.6023C14.6575 53.8639 13.8581 53.6997 13.1008 53.5706C12.744 53.5167 12.3995 53.4989 12.1836 53.4985C11.9836 53.4977 11.8126 53.5066 11.6679 53.5194C11.379 53.5452 11.192 53.5849 11.0899 53.6102C10.9293 53.6529 10.9476 53.6655 11.0822 53.6212C10.1507 53.9864 9.87126 54.2022 9.66176 54.327C9.45464 54.4634 9.46786 54.462 9.43561 54.4862C9.39207 54.5233 9.48872 54.4534 9.55579 54.4018C9.71101 54.2835 9.99955 54.0425 10.236 53.8398C10.7908 53.3617 11.3464 52.8612 11.9144 52.3417C13.0915 51.2618 14.2446 50.1712 15.4417 49.0248C17.8009 46.7645 20.1797 44.431 22.5394 42.0898C27.2568 37.4046 31.9632 32.6285 36.5525 27.8118C37.8955 26.3988 37.905 26.1652 38.0534 25.7756C38.094 25.6742 38.1397 25.5663 38.2043 25.4407C38.2649 25.3192 38.3553 25.1685 38.4936 24.9697C38.5232 24.9253 38.5504 24.8839 38.5709 24.8501C38.577 24.833 38.6522 24.7359 38.5662 24.8253C38.5441 24.8488 38.5126 24.8831 38.453 24.954C38.4379 24.9719 38.4209 24.9924 38.4012 25.0166C38.3913 25.0287 38.3808 25.0418 38.3694 25.056C38.357 25.0717 38.38 25.0417 38.3316 25.104C38.2673 25.1879 38.1857 25.2929 38.0387 25.5063C37.8839 25.7585 37.6934 25.9343 37.1878 27.0608C36.9885 27.7224 36.3864 28.4097 36.5094 31.3388C36.6086 32.7607 37.2931 35.2501 39.3361 37.1268C41.3616 39.0257 43.8405 39.5124 45.2394 39.5237C48.1142 39.4619 48.7571 38.8396 49.3985 38.6045C49.9687 38.3196 50.2333 38.1376 50.4481 37.9962C50.8535 37.7194 51 37.5919 51.1278 37.4893C51.589 37.0975 51.431 37.2241 51.4744 37.1891C51.5516 37.122 51.574 37.1037 51.5808 37.1015C51.5978 37.0928 51.5001 37.198 51.4716 37.2342C51.4258 37.2878 51.3643 37.3568 51.2845 37.4443C51.2073 37.5292 51.0932 37.6514 51.0313 37.7198C50.8794 37.8854 50.6824 38.0951 50.4168 38.3733C50.1685 38.6274 50.1968 38.5952 50.1772 38.6163C50.171 38.623 50.1775 38.6167 50.1782 38.6161C49.0336 39.8966 46.0309 44.597 43.6603 48.6323C36.8692 60.2001 29.0186 74.5005 22.3336 86.4446C21.2958 88.3115 20.3059 90.1047 19.3811 91.8149C18.9233 92.6617 18.4751 93.5009 18.0848 94.2531C17.9918 94.4317 17.8965 94.6177 17.8148 94.7783C17.7373 94.928 17.6515 95.1087 17.6618 95.0628C17.6704 95.0333 17.6788 95.0161 17.7565 94.7841C17.7711 94.7388 17.8076 94.6306 17.8599 94.4481C17.886 94.3565 17.9163 94.2461 17.9518 94.0984C17.9721 94.0124 17.9805 93.9806 18.0166 93.8071C18.0618 93.5799 18.1177 93.2937 18.1612 92.8088C18.1884 92.3073 18.2808 91.6618 18.0024 90.235C17.9256 89.8747 17.8159 89.4593 17.6352 88.9755C17.5855 88.8272 16.9438 87.1064 15.5678 85.792C14.2156 84.3876 11.8531 83.3537 9.96775 83.2844C8.05789 83.1752 6.75097 83.6319 5.88896 83.9971C4.22378 84.7532 3.60238 85.4718 3.38995 85.6414C3.25581 85.7673 3.1461 85.8779 3.05137 85.977C2.86267 86.175 2.73178 86.3285 2.62538 86.4576C2.41569 86.714 2.30115 86.8767 2.21069 87.0062C2.15013 87.094 2.11729 87.1441 2.08175 87.1988C1.94633 87.4095 1.90418 87.4889 1.87597 87.5387C1.84668 87.5916 1.82896 87.6262 1.82218 87.6409C1.80527 87.6764 1.80642 87.6796 1.81168 87.6741C1.83909 87.6408 1.9179 87.5005 1.99233 87.362C3.33396 84.7475 4.7189 82.1093 6.06444 79.8572C14.8204 66.0964 5.62656 84.3612 12.1132 73.8442C15.2867 68.8706 17.799 62.4309 18.7894 61.2382C22.1638 56.9509 25.7731 53.5899 29.4993 50.7968C35.2808 46.4923 40.7791 42.9261 47.168 38.5737C49.2783 37.1526 46.7048 37.7782 48.5314 36.5723C50.2932 35.4151 52.164 34.2766 54.1123 33.1948C55.1088 32.643 56.1189 32.1051 57.2606 31.5523C57.8416 31.2734 58.4362 30.9936 59.2433 30.6676C59.6641 30.504 60.0763 30.3291 60.9691 30.0772C61.2132 30.0105 61.485 29.9432 61.8155 29.8793C62.2699 29.7949 62.8523 29.6941 63.7586 29.6964C64.1777 29.7007 65.3 29.7268 66.617 30.1748C67.2953 30.4059 68.0718 30.752 68.9058 31.339C70.0035 32.0991 71.1216 33.3362 71.7829 34.7367C72.4609 36.1227 72.6762 37.6055 72.664 38.6296C72.6606 39.3599 72.5725 39.9743 72.4614 40.4909C72.2327 41.5234 71.9308 42.1872 71.6735 42.7038C70.0159 45.7983 68.5329 48.2921 67.2155 50.8528C65.871 53.4736 66.6974 53.2972 65.45 55.6516C62.5087 61.2971 60.0759 66.2326 57.6426 71.7378C57.4218 72.2482 57.7803 68.4598 56.3627 72.8175C56.2501 73.1792 56.137 73.5461 56.0241 73.9178C54.5678 78.6738 53.5722 83.4813 54.1975 89.1352C54.226 89.4391 54.2537 89.7219 54.2777 89.9106C54.289 90.0005 54.3011 90.0711 54.2989 90.0384C54.2967 90.0183 54.2928 89.9765 54.2656 89.8414C54.2263 89.6937 54.2299 89.5356 53.9355 88.794C53.8487 88.5912 53.7564 88.3738 53.5293 87.9823C53.4162 87.7915 53.2979 87.6036 53.1032 87.3422C52.8867 87.0541 52.6096 86.7271 52.2293 86.3781C51.5138 85.6878 49.7645 84.5447 47.593 84.5233C45.3696 84.5168 44.1532 85.304 43.4563 85.7529C42.7967 86.2054 42.3983 86.6343 42.195 86.8594C41.9636 87.1182 41.7968 87.3459 41.7054 87.4762C41.4934 87.781 41.4029 87.9478 41.3287 88.081C41.0783 88.558 41.107 88.5438 41.0895 88.5643C41.0862 88.5547 41.1473 88.345 41.1992 88.1349C41.6829 86.3789 42.1743 84.9151 42.6482 83.4542C43.5828 80.6743 42.2293 79.9139 45.7275 74.7598C46.4834 73.6892 47.3342 75.922 49.0805 68.8695C49.1836 68.4685 49.6648 66.8104 50.4769 64.6197C50.8949 63.5058 51.3801 62.2799 52.0324 60.9064C52.3509 60.2402 52.7111 59.5093 53.3099 58.5547C53.395 58.4217 53.4838 58.2868 53.5794 58.147C53.6272 58.0771 53.6768 58.006 53.7288 57.9331C53.7964 57.8395 53.8733 57.7362 53.9543 57.6311C54.1179 57.4194 54.3041 57.1892 54.5559 56.9134C54.9847 56.4897 55.3249 55.9977 56.8551 55.0756C57.5791 54.6792 58.6094 54.1474 60.3705 53.9361C62.051 53.679 64.8451 54.2244 66.579 55.5409C70.0126 58.1847 70.1296 60.7533 70.3573 61.8691C70.51 63.2893 70.413 63.7349 70.3679 64.2962C70.3336 64.5901 70.32 64.6759 70.2989 64.8189C70.2789 64.9509 70.2581 65.0742 70.2369 65.1916C70.1945 65.4263 70.1503 65.6386 70.1045 65.842C69.6179 68.2351 68.9707 70.4994 68.1386 72.117C67.434 73.4921 65.0834 76.8486 64.5128 80.0991C64.4414 80.54 65.6484 79.0031 65.07 81.6611C64.05 86.3392 62.9295 91.0963 62.0018 95.7572C61.5447 98.0707 61.13 100.399 60.8966 102.485C60.7796 103.527 60.7146 104.532 60.7354 105.216C60.7422 105.536 60.7849 105.807 60.7875 105.713C60.7811 105.651 60.7793 105.525 60.6449 105.119C60.5074 104.758 60.2918 104.066 59.3657 103.035C59.1309 102.781 58.8743 102.542 58.6117 102.33C57.9219 101.773 57.6789 101.65 57.6767 101.536C57.6696 101.433 57.8901 101.414 58.0489 101.375C58.2049 101.336 58.3002 101.254 57.972 100.998C57.6832 100.757 56.7584 100.331 55.8261 100.31C54.7927 100.303 54.714 100.473 54.9107 100.342C55.12 100.231 55.6078 99.9268 56.1576 99.4882C62.8681 94.2264 69.9755 87.4945 74.3199 81.8047C76.2455 79.2062 75.5427 81.4221 75.7413 81.2735C77.292 80.0553 77.9152 78.7392 78.0893 77.7634C77.8939 78.3553 77.2612 78.9639 77.3559 81.798C77.4316 83.177 78.1936 85.5568 80.0657 87.137C82.1809 88.8146 83.1937 88.8118 84.2824 89.0237C86.3159 89.2268 87.1372 88.8579 87.7393 88.6988C88.3116 88.5107 88.6384 88.3458 88.8249 88.2556C89.2163 88.0638 89.3747 87.9657 89.4924 87.9014C89.6978 87.7861 89.6818 87.8149 89.7073 87.8211C89.7211 87.8582 89.6705 87.9475 89.6048 88.0521C89.5533 88.1451 89.4853 88.2533 89.4071 88.3699C89.3417 88.4761 89.2782 88.5806 89.2059 88.6907C88.9288 89.121 88.6693 89.5069 88.413 89.7586C81.8261 96.2338 75.8543 100.531 69.4361 106.408C67.6579 108.036 69.46 107.5 69.1441 107.869C65.8552 111.649 67.6985 108.172 65.2428 110.11C61.3998 113.141 57.4708 116.433 53.5396 119.806C52.5408 120.624 51.9651 121.249 49.8455 122.543C49.5303 122.718 49.1742 122.926 48.4443 123.221C48.2523 123.297 48.0394 123.375 47.7946 123.452C47.5378 123.534 47.1479 123.643 46.715 123.723C46.4873 123.765 46.2761 123.799 45.961 123.831C45.6072 123.866 45.2056 123.885 44.7441 123.867C44.2766 123.847 43.782 123.797 43.1598 123.656C42.4288 123.489 41.5975 123.196 40.77 122.715C39.0882 121.786 37.6455 119.959 37.0863 118.401C36.5565 116.971 36.5212 116.094 36.5056 115.277C36.5119 114.538 36.568 114.182 36.6355 113.761C36.6695 113.563 36.7071 113.382 36.7461 113.216C36.7774 113.083 36.8074 112.966 36.8388 112.853C37.1118 111.907 37.2985 111.547 37.4705 111.163C38.1023 109.868 38.4653 109.381 38.8505 108.784C40.3166 106.626 41.5446 105.115 42.8282 103.508C42.9617 103.342 43.0945 103.177 43.2267 103.013C45.2704 100.471 42.2418 102.722 44.0804 100.451C48.8635 94.5279 53.7306 88.5558 58.6374 82.5896C61.0701 79.6312 63.5323 76.6508 65.9552 73.7213C67.1714 72.2501 68.3713 70.8004 69.561 69.3544C70.1558 68.6311 70.7472 67.9099 71.3021 67.2263C71.452 67.041 71.5898 66.8704 71.7146 66.7159C71.8629 66.5306 71.9828 66.3814 72.1051 66.2272C72.2344 66.0637 72.3395 65.9299 72.407 65.8444C72.4308 65.8167 72.4589 65.7761 72.3721 65.9138C72.347 65.9549 72.3369 65.9681 72.2348 66.1404C72.1402 66.3095 72.0085 66.5086 71.7363 67.1315C71.702 67.2119 71.6653 67.301 71.626 67.4021C71.6063 67.4526 71.586 67.5062 71.565 67.5633C71.5359 67.6495 71.5572 67.5615 71.4056 68.0368C71.2879 68.8484 70.4637 69.8495 71.4764 73.6202C71.9986 75.4595 73.9607 78.0604 76.3733 79.0681C78.7589 80.1268 80.6246 79.9408 81.7324 79.7672C82.8622 79.5674 83.5354 79.2719 83.9532 79.0893C84.0645 79.039 84.1656 78.9908 84.2587 78.9445C84.4448 78.852 84.5994 78.7677 84.7339 78.6907C85.0019 78.5366 85.1919 78.4116 85.3467 78.3058C85.9387 77.8907 86.0899 77.7309 86.229 77.6109C84.7419 78.8859 83.2695 80.1967 81.8373 81.5135C79.6369 83.5544 80.4853 81.7336 79.9265 82.0632C77.0505 83.7545 74.5618 87.3875 73.2485 89.6265C72.7263 90.474 72.324 91.1384 72.0876 91.4696C67.894 97.3201 65.5697 98.9222 61.6533 103.586C59.8367 105.76 57.9906 107.986 56.3913 110.115C55.6076 111.159 54.8436 112.259 54.4496 112.966C54.3599 113.126 54.2875 113.273 54.2764 113.306C54.2621 113.335 54.3132 113.284 54.4375 112.853C54.4878 112.35 55.0522 111.561 54.2162 108.705C53.7949 107.365 52.5979 105.726 51.4371 104.911C50.1657 103.994 49.3476 103.777 48.6381 103.591C43.7274 102.847 42.7215 104.414 41.9089 104.693C41.8019 104.76 41.7649 104.785 41.7256 104.811C41.686 104.837 41.6482 104.862 41.6124 104.887C41.5405 104.936 41.4756 104.982 41.4163 105.025C41.2976 105.111 41.2007 105.186 41.118 105.252C40.7876 105.519 40.6741 105.638 40.6185 105.689C40.489 105.815 40.4844 105.823 40.4945 105.81C40.5271 105.772 40.6283 105.653 40.7531 105.501C40.9822 105.222 41.2708 104.858 41.5647 104.481C42.1541 103.725 42.747 102.946 43.3645 102.13C44.5874 100.513 45.8443 98.8305 47.0986 97.1536C49.6073 93.7975 52.1529 90.3965 54.7198 86.9979C59.8464 80.2072 65.0416 73.4448 70.1487 66.9231C71.752 64.8761 73.3434 62.8757 75.0179 60.8545C75.8541 59.8476 76.6972 58.8481 77.6409 57.7917C78.1208 57.2577 78.5983 56.7312 79.2571 56.0734C79.6138 55.729 79.9107 55.4056 80.7714 54.7239C80.8723 54.6456 81.0403 54.5193 81.2039 54.4051C81.3729 54.2877 81.554 54.1628 81.8796 53.9693C82.2141 53.7805 82.4714 53.6102 83.3159 53.2747C83.5135 53.1991 83.7328 53.1227 83.9808 53.0489C84.1049 53.012 84.2361 52.9758 84.3757 52.9411C84.4478 52.9232 84.5096 52.9084 84.5983 52.8886C84.7041 52.8651 84.8143 52.8426 84.9295 52.8215C85.8515 52.6625 87.087 52.533 88.7883 52.9593C90.831 53.3753 93.2852 55.3489 94.1047 56.8708C95.0202 58.3415 95.2909 59.7488 95.3819 60.4935C95.5378 61.8115 95.3879 62.6841 95.3356 63.0552C95.1691 64.0239 95.0463 64.3234 94.9239 64.7122C94.5994 65.639 94.4089 66.0039 94.2181 66.4171C94.0298 66.8109 93.8545 67.152 93.6855 67.4717C93.3471 68.1102 93.0226 68.6813 92.6974 69.2363C92.0465 70.3446 91.4006 71.3689 90.7454 72.3671C89.4319 74.3648 88.0907 76.2352 86.7108 78.0341C85.6711 79.3886 84.6018 80.7075 83.4984 81.9924C78.6349 87.6618 74.0227 93.3802 69.59 98.9306C67.3746 101.71 65.2006 104.465 63.0651 107.203C61.9955 108.574 60.9357 109.94 59.8998 111.29C59.3762 111.973 58.8688 112.637 58.3737 113.296C58.2665 113.438 58.1261 113.626 58.0253 113.762C57.9556 113.852 57.7488 114.148 57.8631 113.973C57.8908 113.929 57.9315 113.867 58.0212 113.715C58.0326 113.695 58.0448 113.674 58.0582 113.651C58.0615 113.645 58.0649 113.639 58.0684 113.633C58.0746 113.622 58.0631 113.643 58.1162 113.548C58.1993 113.392 58.3072 113.214 58.5213 112.701C58.6277 112.429 58.7725 112.092 58.9391 111.356C59.009 110.592 59.6102 109.467 58.4482 106.372C57.8521 104.871 56.2067 102.971 54.2766 102.173C52.3555 101.336 50.7381 101.421 49.7314 101.57C47.7096 101.946 47.1583 102.446 46.6571 102.713C46.2 103.002 45.9753 103.188 45.7956 103.334C45.7079 103.407 45.6371 103.468 45.5763 103.522C45.5162 103.575 45.4579 103.629 45.4681 103.62C45.446 103.64 45.4255 103.659 45.4062 103.677C45.2539 103.821 45.1725 103.907 45.109 103.973C44.8798 104.219 44.8889 104.22 44.8872 104.221C44.8909 104.218 44.9332 104.169 44.9952 104.095C45.0972 103.973 45.2037 103.843 45.3541 103.657C48.9603 98.2889 53.7525 90.3745 57.0636 83.4577C58.7498 79.9369 60.3104 76.2 61.0221 73.081C61.1952 72.3176 61.2961 71.6166 61.3164 71.1653C61.3585 70.708 61.2137 70.5059 61.4305 71.1426C61.5411 71.4387 61.8342 71.989 62.3183 72.4651C62.7934 72.9482 63.4133 73.2878 63.7959 73.4191C64.6019 73.6751 64.5063 73.5148 64.0588 73.5973C65.0289 73.4718 65.5782 73.2177 65.8235 73.1104C66.1121 72.9762 66.2192 72.9038 66.2785 72.8682C66.3899 72.7952 66.2849 72.8663 66.1654 72.9735C65.7476 73.3481 65.857 73.5877 66.0539 73.722C66.2371 73.8766 66.445 73.993 65.9911 74.4696C59.2566 82.1181 52.262 92.9665 46.142 102.825C44.6174 105.329 43.1557 107.814 41.8332 110.272C41.1827 111.483 40.5612 112.702 40.0685 113.791C39.8248 114.328 39.6067 114.859 39.4954 115.18C39.44 115.332 39.4122 115.458 39.4532 115.288C39.4729 115.183 39.5193 115.047 39.5624 114.486C39.5752 114.201 39.6122 113.826 39.506 112.986C39.2679 112.166 39.5381 110.693 36.7952 107.883C35.3403 106.373 32.06 105.374 30.2617 105.657C29.7883 105.695 29.3545 105.77 28.9654 105.862C28.6026 105.95 28.3459 106.031 28.0779 106.126C27.5643 106.307 27.1109 106.534 26.8681 106.668C26.5887 106.821 26.3593 106.968 26.1649 107.101C25.9865 107.225 25.8676 107.315 25.7477 107.41C25.505 107.604 25.3761 107.724 25.2635 107.83C24.8522 108.232 24.8345 108.292 24.8072 108.319C24.7879 108.346 24.9377 108.138 25.084 107.909C25.3879 107.44 25.7702 106.797 26.1402 106.15C26.8859 104.846 27.6535 103.419 28.4121 101.976C29.9236 99.0963 31.4185 96.1146 32.9001 93.0974C32.9053 93.0868 32.9105 93.0763 32.9155 93.066C33.7618 91.3167 31.6942 93.4917 33.0987 90.5528C35.9954 84.4625 39.8225 76.7591 43.083 70.7131C44.6719 67.7616 43.3858 72.1292 44.9694 69.1541C46.7916 65.7307 48.6268 62.1463 50.407 58.5432C51.3051 56.7249 52.1908 54.8994 53.056 53.0811C53.4885 52.172 53.9227 51.2508 54.3384 50.3571C54.449 50.1197 54.5482 49.9055 54.6462 49.693C54.7612 49.4448 54.864 49.2214 54.9534 49.025C55.0746 48.7614 55.1459 48.6024 55.2533 48.3642C55.2983 48.2639 55.345 48.1574 55.339 48.1659C55.3341 48.1762 55.3259 48.1941 55.3099 48.2306C55.3019 48.2491 55.2918 48.2724 55.2781 48.3049C55.2713 48.3212 55.2635 48.3398 55.2544 48.362C55.2283 48.4367 55.3024 48.2073 55.0756 48.8437C55.0184 49.0284 54.9396 49.213 54.7983 49.8835C54.7384 50.2544 54.6092 50.6761 54.6417 51.9186C54.6865 52.5578 54.7136 53.4528 55.3499 54.9643C55.9083 56.399 57.7961 58.8468 60.5961 59.6639C63.36 60.497 65.4216 59.809 66.4856 59.3662C67.5987 58.8756 68.1209 58.4475 68.5203 58.133C69.275 57.5 69.5027 57.1857 69.7143 56.9408C70.0899 56.4743 70.1846 56.3067 70.2837 56.1593C70.4551 55.8905 70.4964 55.8098 70.5395 55.7353C70.5752 55.6719 70.6056 55.6153 70.6021 55.6219C70.6088 55.6097 70.6142 55.6 70.6185 55.5921C70.6272 55.5763 70.632 55.5676 70.6347 55.563C70.6445 55.5464 70.6251 55.5861 70.5952 55.6477C70.5542 55.733 70.5129 55.819 70.4714 55.9057C69.0819 58.8562 72.0636 54.8308 70.2122 58.6452C67.1504 65.0889 64.2479 71.874 61.3554 78.6292C59.905 82.0232 58.4644 85.4189 56.9939 88.838C56.2537 90.5575 55.5117 92.2723 54.7311 94.0267C54.3489 94.8839 53.9333 95.8071 53.4946 96.7358C53.3734 96.9923 53.2557 97.2374 53.1394 97.4745C52.9997 97.7598 52.8548 98.0488 52.7024 98.3384C52.5992 98.5349 52.4921 98.7335 52.367 98.9529C52.2954 99.0775 52.2664 99.1296 52.1336 99.3486C52.0059 99.5567 51.8587 99.7902 51.6311 100.107C51.5161 100.267 51.3802 100.448 51.1973 100.67C51.1783 100.693 50.8347 101.113 50.4167 101.511C49.9646 101.929 49.3802 102.494 48.075 103.172C46.8411 103.794 44.3146 104.731 41.1009 103.816C37.9508 102.899 36.1355 100.633 35.3774 99.1889C33.9456 96.1956 34.3047 95.2583 34.2222 94.4741C34.2253 94.251 34.2283 94.2207 34.2306 94.1535C34.2333 94.0916 34.2363 94.0326 34.2397 93.9761C34.2464 93.8633 34.2543 93.7605 34.2628 93.6651C34.2798 93.4745 34.299 93.3129 34.3184 93.1675C34.3576 92.8778 34.3978 92.6504 34.4375 92.4428C38.131 78.571 42.2974 68.8329 46.4533 57.227C46.7116 56.5219 46.9615 55.868 47.3246 55.0248C47.4204 54.8058 47.5144 54.5882 47.6959 54.2106C47.7397 54.1203 47.7996 53.9978 47.8815 53.8404C47.9214 53.7644 47.9674 53.6766 48.0486 53.5314C48.0874 53.4622 48.1309 53.3864 48.1823 53.3C48.2347 53.2131 48.285 53.1272 48.4174 52.9249C48.5418 52.7377 48.696 52.5105 48.9641 52.1795C49.0434 52.0834 49.0689 52.0499 49.2293 51.8686C49.4169 51.6594 49.6507 51.4119 50.0002 51.1038C50.7325 50.5653 51.7538 49.346 55.1179 48.9294C57.2965 48.5525 61.1235 50.0463 62.4978 51.9078C64.0258 53.7177 64.2904 55.0449 64.5035 55.8893C64.61 56.4093 64.6024 56.4399 64.6256 56.5906C64.6429 56.7213 64.6561 56.8418 64.6663 56.9539C64.6867 57.178 64.696 57.3691 64.7004 57.5379C64.7148 58.1947 64.6656 58.5975 64.6415 58.819C64.6013 59.154 64.5611 59.3685 64.5258 59.5487C64.4919 59.7174 64.4755 59.7862 64.4524 59.8852C64.4065 60.0785 64.3774 60.184 64.3488 60.2875C64.3197 60.3924 64.2929 60.4836 64.2719 60.5525C64.226 60.7044 64.1859 60.8287 64.1487 60.9415C64.0724 61.1724 64.0051 61.3635 63.9415 61.5403C63.4307 62.9428 62.9669 64.0572 62.474 65.2436C62.0364 66.2823 61.601 67.3279 61.1687 68.3765C60.3892 70.2765 58.0375 71.3594 56.9341 75.6482C57.3076 76.1273 57.8797 76.3035 58.3474 76.6159C54.3388 88.6289 50.769 100.811 47.3436 113.126C47.2482 113.456 47.1885 113.705 46.94 114.39C46.9022 114.492 46.8596 114.602 46.808 114.728C46.7811 114.793 46.7573 114.85 46.7193 114.937C46.6751 115.038 46.6246 115.15 46.5629 115.278C46.501 115.406 46.4282 115.55 46.3342 115.721C46.2636 115.847 46.0779 116.191 45.74 116.659C45.5684 116.896 45.3545 117.172 45.0442 117.505C44.8884 117.672 44.7078 117.854 44.4887 118.051C44.4336 118.1 44.3769 118.15 44.3168 118.201C44.2531 118.255 44.215 118.289 44.0471 118.422C43.7644 118.644 43.4268 118.883 43.0105 119.123C41.5653 120.13 37.5367 120.978 34.6286 119.308C34.2815 119.128 33.9584 118.93 33.6658 118.726C33.4454 118.572 33.2886 118.451 33.1179 118.312C32.7854 118.039 32.4995 117.764 32.2524 117.497C31.759 116.964 31.4176 116.47 31.1599 116.04C30.1897 114.34 30.1522 113.443 30.0842 113.252C30.0151 112.906 29.981 112.643 29.9571 112.421C29.9342 112.209 29.9206 111.988 29.9162 111.893C29.9111 111.791 29.9081 111.698 29.9064 111.612C29.9029 111.441 29.904 111.298 29.9068 111.169C29.9093 111.057 29.9121 110.984 29.9158 110.9C29.9843 109.755 30.0546 109.445 30.1211 108.927C30.2588 107.975 30.3972 107.178 30.5431 106.358C30.8357 104.727 31.1365 103.197 31.4516 101.638C32.0811 98.5327 32.73 95.5275 33.4069 92.4648C37.4076 74.1457 42.3715 55.1041 44.9717 38.0268C45.0037 37.7171 45.0228 37.4868 45.0351 37.2675C45.0473 37.0845 45.042 36.9087 45.0491 37.0252C45.0559 37.0836 45.0593 37.233 45.1425 37.629C45.3414 38.0842 45.0723 38.7907 47.0383 41.096C48.2109 42.4468 50.9071 43.6957 53.0743 43.5161C55.215 43.3713 56.051 42.7913 56.6875 42.454C57.7653 41.7762 57.9212 41.4962 58.1131 41.3139C58.3788 41.0095 58.2887 41.088 58.2221 41.1959C58.1382 41.3205 58.0119 41.5259 57.8847 41.7477C57.6208 42.2065 57.3187 42.786 57.0308 43.372C55.8507 45.7848 54.7172 48.5601 53.6861 51.3183C53.0796 52.9682 55.0216 50.4491 53.8722 53.6424C53.7635 53.9503 53.6558 54.2594 53.5493 54.5689C51.374 60.8906 49.275 67.1527 47.1635 73.4324C46.1065 76.5752 45.0503 79.7119 43.9754 82.8615C43.438 84.4354 42.8939 86.0196 42.3407 87.6028C42.0571 88.4144 41.7817 89.1956 41.4853 90.0195C41.33 90.4514 41.1808 90.8615 41.0144 91.3062C40.9234 91.5494 40.8409 91.7677 40.7246 92.0632C40.6786 92.1788 40.5921 92.3976 40.4981 92.6166C40.465 92.6927 40.3594 92.9443 40.205 93.2557C40.0519 93.5044 40.2852 93.2939 39.3241 94.7039C39.0504 95.059 38.7202 95.5274 37.8413 96.2807C37.3899 96.6533 36.7861 97.1151 35.7871 97.5795C35.287 97.8083 34.6822 98.0332 33.9505 98.1948C32.9563 98.4238 31.4769 98.522 30.0402 98.195C27.013 97.5647 24.9501 95.3364 24.1959 93.9912C23.3704 92.5722 23.2038 91.6776 23.0632 91.0317C22.8401 89.768 22.9014 89.2936 22.9055 88.8853C23.3522 81.1689 24.461 73.7717 25.776 66.4004C26.1571 64.2852 27.6995 65.5866 28.3023 59.3312C28.4162 58.2171 29.4454 48.9008 29.3086 46.5306C29.2869 46.2081 28.3166 47.7664 28.6108 44.8481C28.7683 43.2457 28.9088 41.6517 29.0193 40.0781C29.2197 37.2282 29.4219 34.3698 29.616 31.5094C29.712 30.0918 29.8077 28.6511 29.8929 27.2507C29.9354 26.55 29.9761 25.8457 30.0091 25.1807C30.0255 24.8472 30.0398 24.5274 30.0494 24.244C30.0541 24.1045 30.0571 23.9736 30.0583 23.9152C30.0591 23.8885 30.0582 23.8715 30.0621 23.9635C30.0641 23.9985 30.0673 24.1053 30.0881 24.3195C30.0999 24.4264 30.121 24.6807 30.2114 25.1278C30.2233 25.1856 30.2367 25.2478 30.2523 25.3155C30.2706 25.3923 30.2749 25.419 30.3303 25.6266C30.4311 25.9793 30.5552 26.4375 30.9404 27.2122C31.1394 27.6006 31.4079 28.0768 31.8766 28.6661C32.1121 28.9598 32.4003 29.2815 32.7693 29.6192C32.9597 29.7922 33.1393 29.9455 33.4046 30.1451C33.82 30.4561 34.3154 30.7669 34.8935 31.0366C37.2158 32.2753 40.8814 31.8462 42.5189 30.7841C44.2751 29.7749 44.8899 28.8566 45.3382 28.266C45.3878 28.153 45.0946 28.6509 44.8333 29.2907C44.5621 29.9354 44.2797 30.7195 44.0129 31.5398C43.477 33.1879 42.9847 35.0128 42.5323 36.8641C41.0503 42.9588 39.7213 49.0695 38.5418 55.1066C38.0147 57.8295 37.6534 54.7668 37.2711 56.7262C36.662 59.8875 36.1472 63.1234 35.7404 66.3776C35.539 67.9962 35.3637 69.6258 35.2421 71.1748C35.1802 71.9694 35.1342 72.7232 35.1182 73.3748C35.114 73.5461 35.1127 73.6984 35.1136 73.8127C35.1143 73.95 35.1187 74.0413 35.1201 74.0548C35.12 74.0539 35.1202 74.0328 35.1071 73.9279C35.0986 73.863 35.0853 73.7699 35.0572 73.6297C35.043 73.5595 35.025 73.4774 35.0001 73.3792C34.9815 73.3062 34.9309 73.1097 34.8417 72.8595C34.7512 72.6083 34.6257 72.2915 34.3889 71.8711C34.2697 71.661 34.1211 71.4246 33.9227 71.1614C33.8706 71.0926 33.8287 71.0385 33.7564 70.9502C33.6547 70.8265 33.5416 70.6979 33.4145 70.5658C33.1604 70.3018 32.8493 70.0217 32.4657 69.7504C31.7096 69.2069 30.6019 68.7123 29.4143 68.578C28.8251 68.5071 28.2326 68.5197 27.6924 68.5968C27.424 68.6346 27.1573 68.6905 26.928 68.7513C26.762 68.7951 26.6033 68.8439 26.4522 68.8961C25.2379 69.3275 24.5595 69.8954 24.1101 70.3063C23.1759 71.2514 23.267 71.3063 23.0785 71.5605C22.9508 71.7682 22.8815 71.9058 22.8338 72.0032C25.9197 65.3231 28.8064 57.555 31.8459 50.8275C35.5897 42.4235 35.7537 46.1197 38.8305 42.0476C39.2646 41.4739 41.2966 36.1398 42.1866 36.1582C44.4318 36.189 45.6307 39.5893 48.1382 39.3166C48.6777 39.2605 50.865 31.9174 50.3784 36.5676C50.3412 36.8916 48.7636 42.2202 48.6551 43.641C48.5781 44.6297 49.9815 43.322 49.6283 45.2661C49.2749 47.2089 47.8531 48.9579 47.1001 52.1197C46.3471 55.2849 47.7699 54.3036 45.5631 60.3838ZM60.8831 46.0338C63.6139 41.6953 61.1552 39.8313 59.6715 45.1554C59.6031 45.4138 60.7437 46.2592 60.8831 46.0338ZM39.2297 84.1766C37.9268 85.8234 37.0032 87.4394 36.4403 88.7687C36.1639 89.4231 35.9672 90.0267 35.8607 90.5203C35.8084 90.7652 35.7729 90.9945 35.7564 91.1959C35.7483 91.2329 35.7423 91.2656 35.7343 91.3019C35.7302 91.3203 35.7256 91.3395 35.7177 91.3643C35.7167 91.3675 35.7157 91.3707 35.7146 91.374C35.7067 91.3889 35.692 91.4167 35.6664 91.4613C35.6281 91.5202 35.6385 91.5342 35.4213 91.8258C35.3535 91.9092 35.2811 92.0134 35.0422 92.2357C34.9148 92.3475 34.7531 92.4978 34.3864 92.6989C34.0301 92.8721 33.356 93.2353 32.1722 93.0129C30.951 92.7978 30.0326 91.6668 29.8362 91.0635C29.5867 90.4213 29.6016 90.0798 29.5921 89.8359C29.5991 89.3672 29.6506 89.2247 29.6757 89.0919C29.7853 88.6661 29.8023 88.685 29.8266 88.6089C29.867 88.5085 29.8424 88.5672 29.8501 88.547C29.8564 88.5255 29.8607 88.5095 29.8641 88.4954C29.8838 88.4011 29.8998 88.3205 29.8888 88.2949C29.8793 88.2178 29.8705 88.1371 29.8591 88.0594C29.7767 87.7612 29.5826 87.6476 29.2741 87.7816C29.1747 87.8524 29.1129 87.8416 28.9717 88.0071C28.9526 88.0314 28.9335 88.0555 28.9028 88.1079C28.8921 88.1283 28.8959 88.114 28.8672 88.1783C28.8513 88.2167 28.8321 88.2617 28.795 88.3635C28.776 88.4165 28.7524 88.4819 28.7162 88.6028C28.6816 88.7376 28.6241 88.8654 28.562 89.3779C28.5488 89.6582 28.4601 90.0066 28.6866 90.9469C28.817 91.411 29.0612 92.1104 29.7754 92.8493C30.4667 93.5981 31.7243 94.1275 32.6724 94.1345C34.614 94.1067 35.1027 93.4606 35.48 93.2433C35.8262 92.9717 35.9611 92.8125 36.0739 92.6899C36.453 92.2427 36.4464 92.196 36.5143 92.1011C36.6051 91.954 36.6204 91.9221 36.6433 91.8824C36.6452 91.8799 36.647 91.8775 36.6488 91.8752C36.663 91.8568 36.6748 91.8425 36.6857 91.8297C36.7282 91.7809 36.7634 91.7441 36.8 91.7044C36.853 91.6645 36.9107 91.6142 36.9779 91.5444C37.207 91.3431 37.4767 91.0481 37.7706 90.6857C40.7636 86.992 40.5064 82.5631 39.2297 84.1766ZM43.8124 32.6823C47.1153 30.3881 48.9508 28.5448 48.9069 27.6549C48.8947 26.7616 45.9751 27.0952 42.8039 30.4487C42.4193 30.8451 43.4215 32.9515 43.8124 32.6823ZM31.1072 63.3618C31.1732 63.3129 32.7064 59.5181 32.7002 59.4175C32.6096 57.0498 29.5543 64.6183 31.1072 63.3618ZM30.633 48.5109C30.5401 48.6224 30.4438 48.7498 30.345 48.8907C28.7636 51.1577 26.5025 56.787 28.4194 54.5852C29.361 53.5032 30.6275 50.8784 31.1312 49.2853C31.5125 48.0925 31.4822 47.4924 30.633 48.5109ZM41.7377 19.793C41.8019 19.7245 42.6307 16.9036 42.373 16.8916C41.5364 16.8647 40.6582 20.8773 41.7377 19.793ZM77.7804 74.7685C69.1623 76.6866 62.0604 74.9865 59.9026 73.8163C57.7233 72.4574 59.7776 72.7886 68.6555 72.7603C71.94 72.7597 61.6249 73.9495 65.7945 74.2552C71.7793 74.6931 76.0508 72.7303 80.9555 71.1868L80.7089 71.2881C80.9919 71.1391 81.242 70.9665 81.3819 70.8354C81.4512 70.7748 81.49 70.7146 81.4806 70.758C81.4784 70.7856 81.4536 70.8283 81.4565 71.0174C81.4644 71.1154 81.4634 71.2565 81.5945 71.5188C81.6925 71.7642 82.1824 72.2257 82.7146 72.2217C83.1693 72.2224 83.3057 72.0936 83.3855 72.0541C83.4613 72.0037 83.4729 71.9838 83.4771 71.9758C83.4799 71.9617 83.4342 71.9943 83.3869 72.0365C83.2881 72.1245 83.163 72.2584 83.036 72.4005C82.7803 72.6872 82.5054 73.0159 82.2149 73.3515C82.0153 73.5823 82.0075 73.3593 82.1228 72.863C82.1806 72.616 82.2689 72.2995 82.3877 71.9485C82.4479 71.7728 82.5155 71.5883 82.5949 71.4075C82.6346 71.3174 82.6768 71.2289 82.7214 71.1501C82.7566 71.0708 82.8392 71.0123 82.773 70.9974C82.678 70.9474 82.7549 70.9078 82.7809 70.9926C82.8113 71.063 82.8178 71.1656 82.8062 71.2691C82.7824 71.4795 82.6943 71.6991 82.5749 71.9053C82.3334 72.3198 81.9716 72.6837 81.5866 72.9916C81.5753 72.9973 81.541 73.0116 81.529 73.0153C79.838 73.9737 78.1437 74.6969 77.7509 74.7803C77.7607 74.7764 77.7706 74.7724 77.7804 74.7685ZM65.3301 44.7543C65.4123 44.664 67.0247 40.9501 67.0312 40.8306C67.0152 38.4309 63.7501 45.9554 65.3301 44.7543ZM32.3392 15.8062C32.537 15.9196 28.1768 24.1952 28.017 24.4456C27.4628 26.9561 29.6438 24.1379 31.3433 20.9148C33.1402 17.7155 33.663 14.1156 32.3392 15.8062ZM78.5544 87.6828C80.9196 83.7486 84.6743 79.7779 88.3572 78.2959C84.7657 81.236 81.6826 84.4454 78.5544 87.6828Z" fill="#62ABFC"/>
</svg>
