<svg width="84" height="132" viewBox="0 0 84 132" fill="none" xmlns="http://www.w3.org/2000/svg">
<path d="M83.5552 1.40972C83.9254 2.49569 83.8201 3.96682 83.5776 5.11925C83.5025 5.47748 82.9831 5.35559 82.9085 5.60423C82.7626 6.08408 83.0554 6.50643 82.8712 6.98956C82.8078 7.15043 81.9946 7.04319 81.9462 7.20972C81.6869 8.12502 81.9734 8.93099 81.8942 9.84673C81.4991 14.3189 81.581 18.6794 81.5307 23.171C81.5154 24.6527 80.9075 26.4855 81.3114 27.9849C81.3593 28.1598 82.0521 28.0137 82.1117 28.0441C83.0242 28.5233 81.6029 28.4282 81.435 28.7845C80.772 30.1968 80.7854 31.7174 81.1174 33.0234C81.2605 33.5761 82.6235 32.9508 81.87 33.551C81.8191 33.5926 81.0698 33.4848 80.9977 33.642C80.8357 33.9999 80.9979 34.6525 80.9508 34.9247C80.8562 35.45 80.8674 35.5382 80.8795 36.0269C80.8896 36.7012 80.5521 37.5089 80.7483 38.2275C80.7923 38.3803 81.5462 38.1486 81.6851 38.3871C81.8239 38.6251 81.7835 39.2771 81.612 39.5049C81.4404 39.7321 80.8383 39.66 80.7025 39.704C79.5558 40.0601 81.1865 40.7526 81.2296 40.8497C81.7068 41.9723 81.5122 43.0096 81.3303 44.0595C81.2302 44.6015 81.1387 45.1479 81.1662 45.7083C81.2271 46.9143 81.6114 48.1936 81.6542 49.3576C81.7024 50.7447 81.3878 51.9662 81.5713 53.3249C81.5898 53.4683 82.4689 53.2256 82.4933 53.4007C82.7524 55.2644 82.8131 57.1523 82.3516 59.0943C82.3044 59.2879 81.5016 59.103 81.4075 59.2996C80.8509 60.5113 79.421 62.4278 82.8807 62.9161C82.7954 63.7204 82.7094 64.6887 82.054 65.4325C81.632 65.9126 80.7549 65.5087 81.1462 66.0486C81.2334 66.1708 81.9758 65.9724 82.0497 66.1592C82.3606 66.9502 82.1505 67.8273 82.5639 68.6112C82.6498 68.7716 83.3205 68.7044 83.4431 68.7466C84.4359 69.098 82.8329 69.7977 82.7183 69.934C82.1018 70.718 82.1193 71.3294 82.1727 71.9919C82.193 72.2404 82.2181 72.4971 82.2146 72.773C82.2111 73.0055 83.1124 72.7226 83.1414 72.9474C83.2796 74.1014 83.1956 75.3077 82.7794 76.4195C82.6846 76.6681 81.9183 76.4276 81.8336 76.5455C81.4691 77.0661 82.9204 77.2047 82.5967 77.7018C82.5303 77.8066 81.8728 77.7336 81.8001 77.7515C80.6584 78.0292 82.2615 78.3273 82.2952 78.407C82.7576 79.3983 81.0601 79.9808 81.2672 80.9311C81.2936 81.0456 82.1353 80.8169 82.1584 81.1375C82.3176 83.2641 81.9887 85.4963 81.2137 87.547C81.0944 87.8657 80.4811 87.6015 80.403 87.6179C79.181 87.8856 80.7833 88.186 80.8384 88.2955C81.2308 89.1541 79.8331 89.8538 81.7214 90.5317C80.8468 94.0203 81.6796 97.6126 79.69 100.964C79.6667 101.006 78.8793 100.864 78.8361 100.951C78.3064 101.993 79.5572 101.864 81.0081 102.703C81.3724 102.914 79.5089 103.296 79.371 103.339C78.8649 103.475 77.6995 103.196 77.5994 103.248C76.8118 103.674 80.7227 103.9 80.6692 104.561C80.661 104.581 79.9499 104.435 79.8738 104.484C79.6353 104.638 79.9068 104.83 79.6458 104.972C79.0429 105.291 77.1332 105.293 78.1889 105.947C78.3261 106.029 80.5484 106.115 80.3937 106.688C80.3316 106.902 80.2789 107.942 80.1093 108.222C79.941 108.49 79.2452 108.233 79.2125 108.251C78.2002 108.945 77.8361 108.611 76.4058 108.868C74.9793 109.139 78.3059 109.326 78.662 109.513C78.6975 109.531 78.7213 109.552 78.7349 109.575C78.8568 109.787 78.1644 110.187 77.9116 110.292C77.6303 110.408 77.1899 110.202 77.0273 110.313C75.9659 111.058 78.65 110.788 79.1589 111.086C80.367 111.777 77.8754 112.115 77.6028 112.688C77.5292 112.842 78.0976 112.743 78.1428 112.886C78.3143 113.452 77.5289 113.744 78.197 114.427C78.3063 114.534 79.7552 115.166 78.6408 115.44C78.4803 115.477 77.8777 115.293 77.7209 115.526C77.4865 115.876 77.2873 116.519 77.4297 116.953C77.5343 117.279 78.5925 117.078 78.2164 117.431C78.0471 117.584 77.5192 117.161 77.2504 117.447C76.9905 117.722 76.8126 118.533 76.6897 118.863C76.5779 119.188 77.3518 119.326 77.3904 119.37C77.5501 119.596 77.537 120.235 77.4246 120.575C77.4066 120.656 77.389 120.711 77.3792 120.724C76.3273 122.347 74.1407 122.99 72.707 122.873C71.2092 122.811 70.0273 122.469 68.7966 122.585C68.6046 122.601 68.659 123.42 68.629 123.431C67.9545 123.712 68.6554 121.609 68.2731 120.85C68.1905 122.496 67.9539 122.174 67.5004 122.317C67.2827 122.388 67.3466 123.033 67.322 123.096C66.9413 124.037 66.8309 122.777 66.7889 122.518C66.6437 121.565 66.3614 122.664 66.2564 122.03C66.1414 121.4 66.5141 120.488 66.0775 120.484C65.9432 121.069 66.1897 122.617 65.8839 122.858C64.9289 123.609 63.5675 122.992 62.6035 122.987C62.3677 122.999 62.1634 123.014 62.0024 123.046C61.0038 123.237 60.7209 123.437 60.1018 123.403C58.9735 123.341 59.6728 124.323 59.1798 125.012C58.6785 125.7 58.2226 122.906 57.9659 122.351C57.7129 121.795 57.7862 122.42 57.5879 122.131C57.3909 121.842 57.5123 121.381 57.2266 121.331C56.9362 121.284 56.5227 122.509 56.5904 123.145C56.7389 124.49 57.4304 125.761 56.5972 125.47C56.5497 125.452 56.4928 124.703 56.3209 124.67C54.9648 124.436 53.6938 124.706 52.376 124.501C52.1926 124.472 52.1517 123.637 52.043 123.611C50.9166 123.339 51.5961 124.602 51.4119 126.23C51.0523 124.209 50.456 123.061 49.6787 123.243C49.2125 123.354 49.5135 124.201 49.3812 124.888C49.3414 125.095 48.8629 124.587 48.9143 125.01C49.0936 126.39 49.7922 127.789 48.9046 127.408C48.8645 127.389 48.7529 126.637 48.6291 126.626C47.8221 126.559 48.1693 127.957 47.5411 128.37C47.207 128.592 46.529 128.463 45.9013 128.438C45.5464 128.453 45.2149 128.472 44.9575 128.537C44.0223 126.432 43.5957 127.197 43.9106 128.783C43.402 128.922 42.9039 129.21 42.3548 129.175C42.1665 129.163 42.049 128.496 42.004 128.436C41.3219 127.479 41.6245 129.008 41.5343 129.102C40.5578 130.05 39.3036 129.188 38.4733 130.572C38.4452 130.621 38.7536 132.195 38.1771 131.13C38.1407 131.056 38.3401 130.261 37.803 130.329C37.259 130.399 36.1129 129.765 35.5278 130.626C35.3879 130.834 35.1619 132.196 34.6279 131.257C34.5569 131.129 34.5318 130.668 34.4205 130.428C34.0667 129.662 34.2084 131.278 33.7292 129.964C33.2494 128.649 32.5811 127.713 32.0049 128.754C31.9867 128.784 31.9974 130.078 31.7668 130.09C31.5582 130.1 31.2926 130.042 31.0312 130C30.8295 129.968 30.6348 129.943 30.4702 129.965C30.2888 129.989 30.4899 130.768 30.4597 130.786C29.2305 131.359 28.2588 130.686 26.9526 130.345C26.7207 130.282 25.944 131.333 25.5288 130.439C25.0909 129.458 25.929 125.616 24.7842 126.435C24.3473 126.762 23.0756 131.602 22.5987 128.929C20.8691 129.303 19.6241 127.712 17.8224 128.262C17.74 128.286 17.2236 129.591 17.0541 129.536C16.8023 129.451 16.8002 128.789 16.6267 128.708C15.9256 128.363 15.1357 128.718 14.4323 128.515L14.4752 128.522C14.4547 128.518 14.4343 128.514 14.414 128.509C14.1492 128.453 14.3009 127.791 13.9454 127.737C13.5762 127.69 13.3904 128.573 12.9149 128.184C12.555 127.888 11.9661 126.146 11.4794 125.995C11.6787 127.759 11.365 127.764 10.8568 128.292C10.7593 128.394 10.9412 128.996 10.8979 129.076C10.7176 129.416 10.4702 128.926 10.3 129.289C10.258 129.377 10.3088 129.981 10.2757 130.087C10.1736 130.432 10.0075 130.463 9.83661 130.353C9.55457 130.171 9.27184 129.598 9.20463 129.453C8.78522 128.573 8.65394 129.369 8.35634 129.026C8.06146 128.682 8.45951 128.222 8.12808 128.019C7.44247 127.6 6.58877 127.718 5.90518 127.701C5.63323 127.698 5.83103 128.505 5.79243 128.523C5.22727 128.737 4.65072 127.881 4.34863 129.496C3.92517 125.33 4.01032 129.903 3.19363 129.072C3.12915 129.005 3.04148 127.034 3.28374 126.743C3.52515 126.453 3.89791 127.068 4.2317 126.614C4.31156 126.507 4.74907 124.656 4.80928 124.543C5.28062 123.664 5.38453 126.609 5.41362 126.77C5.73033 128.513 6.25917 126.513 6.3995 126.372C7.04939 125.729 7.62238 126.127 8.14636 125.656C8.48987 125.35 8.42951 123.421 8.69193 123.466C8.95532 123.511 9.17595 123.785 9.37778 124.078C9.84484 124.755 10.2662 125.539 10.6529 123.855C10.7803 123.338 10.3174 121.271 11.2003 122.833C11.2568 122.932 11.9714 124.369 12.2689 123.377C12.3065 123.252 12.2473 122.64 12.3115 122.583C12.7585 122.209 13.1496 122.671 13.771 122.439C14.1938 122.285 14.7159 122.104 15.2165 122.105C15.3353 122.13 15.6971 122.167 15.8127 122.204C15.9554 122.206 16.0902 122.243 16.2086 122.34C16.4224 122.514 16.4942 123.702 16.5492 124.001C16.7045 124.862 17.3368 123.644 17.3322 124.644C17.33 125.649 16.6132 127.022 17.0185 127.759C17.3741 126.202 17.7638 124.609 18.1322 123.045C19.2833 123.349 20.3054 124.09 21.4421 124.231C21.5831 124.246 21.5986 123.376 21.752 123.371C22.3934 123.35 22.8249 124.046 23.4859 123.9C23.9978 123.784 24.6294 122.952 25.1138 122.776C25.1967 124.626 25.9813 124.079 26.4579 124.272C26.6283 124.339 26.5911 124.826 26.7106 124.991C27.1663 125.599 26.9996 123.975 27.132 123.726C27.6641 122.653 27.6716 126.312 28.3734 126.207C28.4195 126.203 28.7585 124.239 28.7952 124.114C29.0898 123.304 28.8914 124.788 29.1239 124.917C29.5469 125.151 29.9019 125.585 30.3142 124.956C30.3244 124.94 30.335 124.916 30.346 124.887C30.4996 124.567 30.7327 123.584 31.1491 124.393C31.2091 124.509 31.2757 125.15 31.3158 125.182C32.0354 125.714 31.7574 123.708 31.9996 122.979C32.2384 122.249 32.9845 123.543 33.1622 123.921C33.6193 124.901 33.017 124.397 33.0176 124.5C33.0293 125.73 33.3941 125.459 33.7143 125.508C34.0936 127.457 34.5105 127.262 34.0447 125.551C33.9935 125.364 33.791 125.587 33.7143 125.508C33.6537 123.543 34.032 123.224 34.8775 124.912C35.2761 125.702 35.2475 126.725 35.9046 126.218C36.2005 125.987 35.7868 124.679 35.9851 124.254C36.4245 123.287 37.5247 124.327 38.1135 123.951C38.3218 123.816 37.8959 123.16 38.028 123.043C38.3713 122.733 38.8893 123.161 39.1988 122.756C39.2257 122.719 38.8947 122.004 39.0112 121.955C39.8809 121.568 40.8275 121.741 41.7498 121.344C41.9183 121.271 42.1094 121.116 42.3059 120.942C42.8503 120.55 43.4583 120.136 43.9305 120.01C45.2764 119.636 47.0578 120.302 47.9208 119.789C48.4945 119.454 48.1628 118.733 48.297 118.148C48.5676 117.011 49.873 118.602 50.0512 118.855C50.0591 118.863 49.5948 119.164 49.9591 119.49C50.3119 120.267 50.0465 118.86 50.0512 118.855C50.1699 119.017 51.2031 118.954 51.3538 118.764C51.4397 118.659 51.2092 117.952 51.2572 117.911C52.3944 116.958 53.5764 116.474 54.8921 116.48C54.9177 116.489 55.0996 117.299 55.1575 117.31C55.9741 117.472 56.1632 116.364 56.572 115.618C56.9858 114.871 57.4899 114.929 58.2494 116.186C58.6376 115.879 59.4581 116.278 59.938 116.523C60.4227 116.767 59.9685 115.215 59.9897 115.174C59.9932 115.168 59.9968 115.161 60.0003 115.154C61.6175 113.599 62.9983 114.351 64.6327 114.417C65.4409 114.448 66.873 114.266 67.5717 114.145C68.133 114.043 68.4114 114.448 68.8771 114.247C68.94 114.22 68.9436 113.498 68.9644 113.472C69.5282 112.659 69.1341 114.389 69.2055 114.711C69.4485 115.878 69.6257 116.507 70.1896 116.009C70.3292 115.895 70.7841 113.385 70.9083 113.24C71.0843 113.057 71.0113 113.963 71.1709 113.743C71.1818 113.725 71.1814 113.166 71.2452 113.189C71.3898 113.24 71.4052 113.329 71.2181 113.462C71.038 113.594 70.635 113.804 70.2009 114.074C70.0801 114.153 69.7297 113.31 69.5171 113.438C69.0839 113.706 68.7188 114.083 68.5416 114.386C67.8761 115.46 68.0252 115.817 68.2373 115.851C68.3428 115.861 68.9489 116 69.1305 116.033C70.2418 116.184 68.6804 115.671 68.6512 115.648C68.0033 114.643 69.517 113.33 68.9227 111.45C68.8865 111.354 67.1985 110.433 68.7143 110.162C68.8153 110.14 70.3628 109.895 69.3479 109.492C69.2846 109.466 68.4822 109.636 68.5948 109.238C68.64 109.077 68.5928 108.872 68.5793 108.645C68.5523 108.38 68.6012 108.037 69.1427 107.807C69.4283 107.668 70.9757 107.464 69.8084 106.881C69.7258 106.853 67.0541 105.897 68.9616 105.82C69.2758 105.805 71.2682 106.03 70.2921 105.386C70.1026 105.263 69.6414 105.411 69.3863 105.118C68.9926 104.672 69.5751 104.152 68.728 103.563C68.5784 103.455 67.2538 102.967 68.3079 102.745C68.473 102.71 69.1324 102.857 69.2203 102.7C69.6417 101.952 69.2594 101.116 69.7824 100.363C69.9666 100.092 71.0336 100.323 71.3449 100.057C71.6558 99.7958 71.9796 99.2156 71.5088 98.8844C71.0383 98.5453 69.2945 98.7468 69.1908 98.2831C68.7404 96.2662 69.8852 94.3901 70.159 92.433C70.1996 92.1434 69.5687 92.3457 69.5842 91.9155C69.6404 90.3283 69.2178 87.5748 70.5937 86.2748C71.697 85.2286 72.4267 86.652 72.895 85.8314C73.1186 85.4336 71.137 84.9004 71.0784 84.8006C70.4821 83.8181 71.3972 83.1953 71.1585 82.3287C71.1089 82.1503 70.2905 82.2915 70.2571 82.1405C70.1361 81.6221 70.5176 81.0987 70.4674 80.6087C70.443 80.3878 69.8215 80.4083 69.8758 80.2086C69.9984 79.731 70.2712 79.3173 70.8649 78.8617C70.919 78.8201 71.683 79.1295 71.7209 78.7732C71.78 78.2021 72.3694 77.4882 71.7878 76.822C71.6128 76.6211 70.1953 76.5919 71.1802 76.1868C71.3858 76.1025 73.0874 76.2331 71.6217 75.7302C71.3785 75.6437 69.4012 74.8101 70.6808 74.4269C71.0177 74.3221 72.4115 74.0509 72.1922 73.8174C72.1572 73.7861 71.3957 73.9129 71.3211 73.7213C71.1307 73.2163 71.1284 72.6687 71.0271 72.157C70.9953 71.9873 70.9539 71.8188 70.894 71.6525C70.8255 71.4667 70.0425 71.7586 69.9654 71.4825C69.7523 70.7247 69.9283 69.764 70.1503 69.0116C70.2336 68.7308 70.8925 68.901 70.9628 68.8786C72.107 68.5129 70.541 68.3757 70.4463 68.2731C69.8774 67.6251 70.5884 67.0903 70.3663 66.4803C70.307 66.3133 69.5696 66.468 69.5018 66.4374C68.8381 66.1203 70.1847 66.318 70.3211 66.0876C70.7074 65.4418 70.6106 64.7486 70.479 64.1227C70.4295 63.8917 69.5838 64.2035 69.5493 63.9964C69.3288 62.7765 69.3242 61.4918 69.7082 60.2421C69.7821 60.0072 70.455 60.1014 70.6027 60.0425C71.6366 59.6349 70.1558 59.256 70.0098 59.1577C69.3427 58.6986 69.9128 58.4582 69.7675 58.0158C69.0486 55.8678 69.195 53.069 69.2722 50.8679C69.3508 48.5466 69.694 46.5877 69.7036 44.4273C69.7072 43.9534 69.6893 43.4753 69.642 42.9867C69.6269 42.8209 68.7495 43.0179 68.7251 42.8747C68.4512 41.0413 68.731 39.2196 68.4018 37.3927C68.3763 37.2418 67.5484 37.4941 67.4793 37.2535C67.3317 36.7596 67.3512 36.1388 67.5964 35.6229C67.7145 35.3731 68.4468 35.6693 68.5509 35.4185C68.7952 34.8376 68.8267 34.2156 68.665 33.6381C68.5944 33.3922 67.7565 33.8083 67.7313 33.4848C67.5411 31.2765 67.277 29.1349 68.2441 26.8408C68.3105 26.6838 70.0395 26.4392 69.6853 26.1349C69.2016 26.1415 68.6345 26.1795 68.1185 26.2021C67.6344 23.0195 67.9917 19.8123 67.799 16.586C67.7907 16.45 66.8927 16.766 66.8719 16.5033C66.7503 14.9855 66.3574 13.5384 67.1162 11.8895C67.1902 11.7272 68.8131 11.6475 68.5236 11.216C68.4713 11.1421 68.1861 10.467 67.818 10.3296C67.7628 10.311 67.0218 10.5117 66.9776 10.2943C66.7324 9.01669 66.7639 7.65908 67.0851 6.31808C67.1382 6.10008 67.9642 6.23735 68.009 6.08109C68.3223 4.99202 67.5871 3.91583 68.2017 2.8217C68.6171 2.10007 70.0302 2.19118 71.3538 1.67976C71.5406 1.60767 71.5236 1.18375 72.3145 1.07172C74.3033 0.789709 76.5113 0.747817 78.6285 0.423132C79.0846 0.354062 78.5264 -0.161814 79.6717 0.0512875C79.7486 0.0668226 80.1627 0.438486 80.5496 0.497114C80.8172 0.538382 81.6098 0.320232 81.9584 0.426759C82.3067 0.533291 81.648 0.767198 82.065 0.960011C82.487 1.15385 83.3927 0.939389 83.5552 1.40972ZM62.7052 117.55C63.3069 118.237 63.0019 115.41 62.5031 116.178C62.4793 116.219 62.6727 117.517 62.7052 117.55ZM19.8701 126.181C20.1004 127.505 20.7683 125.756 20.6271 124.743C20.4932 123.732 19.8026 125.78 19.8701 126.181ZM14.4829 126.01C14.5781 126.164 14.6625 126.21 14.7459 126.179C14.7838 126.187 14.8994 126.199 14.9363 126.211C15.2938 126.079 15.7935 123.939 15.4654 123.792C15.3809 123.765 15.1167 123.738 15.03 123.719C14.9536 123.7 14.862 123.722 14.7522 123.799C14.6869 123.839 14.4439 125.949 14.4829 126.01ZM71.9282 3.30129C71.9651 3.29219 71.9683 2.98664 71.9303 2.98336C71.0156 2.9226 71.0099 3.53301 71.9282 3.30129ZM9.21228 127.375C9.32576 127.666 9.51776 127.602 9.61883 127.375C9.7066 127.186 9.73051 126.885 9.61198 126.585C9.59382 126.539 9.57395 126.502 9.5529 126.473C9.33876 126.168 8.97932 126.769 9.21228 127.375ZM76.2169 112.631C76.2595 112.626 76.309 112.412 76.0698 112.403C75.2992 112.377 75.5005 112.692 76.2169 112.631ZM0.697387 127.562C1.96318 127.713 2.74028 131.04 1.35497 130.666C1.10457 130.598 1.89397 129.604 1.57499 129.304C0.992069 128.758 0.60541 130.848 0.0108848 129.728C-0.0966613 129.523 0.625517 127.546 0.699633 127.557C0.698884 127.559 0.698134 127.56 0.697387 127.562ZM63.5059 120.877C63.5193 120.912 63.8211 120.906 63.8238 120.87C63.8893 119.951 63.2269 119.967 63.5059 120.877ZM78.9771 100.102C79.0584 100.09 79.186 99.397 79.1139 99.3701C77.6705 98.896 77.4085 100.293 78.9771 100.102ZM44.9207 128.486C44.9736 129.457 44.6027 129.732 43.9125 128.783C44.2549 128.707 44.5792 128.578 44.9207 128.486Z" fill="#673098"/>
</svg>
