<svg width="73" height="76" viewBox="0 0 73 76" fill="none" xmlns="http://www.w3.org/2000/svg">
<path d="M70.8416 75.3917C70.0912 75.6393 69.1226 75.3748 68.3815 75.0121C68.1518 74.8996 68.2676 74.3959 68.1096 74.2956C67.7973 74.1001 67.4995 74.3473 67.1929 74.1144C67.091 74.0348 67.2167 73.237 67.11 73.1717C66.5305 72.8199 65.961 73.0241 65.3722 72.8559C62.4465 72.0276 59.5651 71.7411 56.6521 71.4451C55.6937 71.3484 54.5097 70.6613 53.5526 71.0226C53.4415 71.0655 53.5413 71.7618 53.5226 71.8204C53.2331 72.7185 53.279 71.3013 53.0462 71.125C52.1401 70.4284 51.1615 70.4291 50.3823 70.7729C50.0532 70.9214 50.5227 72.2734 50.1151 71.5289C50.086 71.4788 50.0987 70.7303 49.9968 70.6608C49.7613 70.5047 49.3841 70.6805 49.2151 70.6421C48.8975 70.563 48.8392 70.5783 48.5559 70.6095C48.1615 70.6471 47.6499 70.357 47.2826 70.6026C47.2083 70.6566 47.4651 71.3821 47.3657 71.5348C47.2615 71.6876 46.9339 71.6956 46.7859 71.5482C46.6383 71.3997 46.5351 70.8081 46.4824 70.6798C46.2493 70.1173 46.1285 70.2986 46.0872 70.605C46.0074 70.8998 45.9759 71.3036 45.9494 71.3308C44.9332 72.3182 43.6813 71.6995 42.58 71.9798C41.743 72.1944 40.918 72.7053 40.1112 72.8537C39.1482 73.0277 38.2542 72.8093 37.3495 73.0853C37.2536 73.1136 37.5638 73.9625 37.447 73.9988C36.2053 74.3838 34.9255 74.5606 33.5431 74.2321C33.4044 74.1983 33.4055 73.3942 33.2577 73.3144C32.3534 72.8435 30.8392 71.5663 31.0522 75.0167C30.9718 75.0128 30.8892 75.0093 30.8048 75.0043C30.1163 75.015 29.3931 74.9108 28.8516 74.3623C28.45 73.9467 28.7428 73.0676 28.3359 73.4598C28.2424 73.5466 28.4137 74.2892 28.2649 74.3625C27.639 74.67 26.9536 74.428 26.3429 74.7973C26.216 74.8741 26.2274 75.5473 26.187 75.6671C25.8453 76.6381 25.4155 74.9902 25.3307 74.866C24.5936 73.9373 24.0243 74.2276 23.3095 74.1211C23.1456 74.0957 23.2317 75.0165 23.0675 75.0238C22.2132 75.0485 21.3614 74.8376 20.6406 74.3017C20.4814 74.1803 20.7782 73.4517 20.7101 73.3551C20.4146 72.9388 20.0624 74.3515 19.7692 73.9746C19.7076 73.8969 19.8764 73.2587 19.8769 73.185C19.8911 72.0303 19.3951 73.5715 19.3317 73.5948C18.5457 73.9282 18.475 72.1912 17.7859 72.2736C17.7018 72.2846 17.6847 73.1373 17.4584 73.1183C15.948 72.9955 14.4693 72.3489 13.2728 71.2777C13.087 71.1123 13.4284 70.5628 13.4375 70.4848C13.5806 69.2658 12.9527 70.7618 12.8625 70.7969C12.1692 71.0352 12.0932 69.5797 11.0905 71.2699C10.4169 70.8159 9.69719 70.5131 8.96847 70.2239C6.57087 69.2631 4.91137 67.6077 4.74309 65.4593C4.73888 65.4208 5.40743 64.985 5.39748 64.9117C5.29795 64.0293 4.39824 64.8886 2.8359 65.2888C2.43808 65.3806 3.73747 64.0318 3.83557 63.9357C4.18207 63.5628 5.24704 63.0291 5.30495 62.9426C5.76297 62.2661 2.48188 64.4072 2.22168 63.9873C2.21947 63.9712 2.86709 63.6485 2.90732 63.577C3.0351 63.3547 2.72698 63.3987 2.87828 63.1684C3.05778 62.8992 3.55833 62.4952 3.85563 62.1948C4.13772 61.8964 4.23914 61.7089 3.66122 61.7823C3.5086 61.7985 1.59109 62.9379 1.45056 62.4252C1.39484 62.2295 1.00141 61.4334 1.05612 61.1594C1.10424 60.8856 1.83179 60.7821 1.85408 60.7539C2.53041 59.8612 2.98119 59.9416 4.21903 59.2359C5.46699 58.5645 2.32338 59.6619 1.93217 59.6589C1.54037 59.6536 2.1673 59.017 2.40494 58.852C2.6403 58.6832 3.11168 58.6825 3.2372 58.5586C4.0684 57.7717 1.57383 58.7311 1.0114 58.6632C-0.326333 58.4593 2.00814 57.5551 2.17443 57.1232C2.21851 57.001 1.68168 57.1926 1.61178 57.1012C1.34298 56.7324 2.06879 56.3912 1.30694 56.0355C1.18299 55.9816 -0.338629 55.7884 0.717379 55.4204C0.869882 55.3697 1.4917 55.3957 1.61054 55.2137C1.78828 54.9378 1.8822 54.4922 1.65699 54.2416C1.49022 54.0559 0.496114 54.3603 0.791606 54.0835C0.92397 53.9615 1.53015 54.1253 1.72986 53.9027C1.92915 53.6842 1.87434 53.1724 1.84574 52.9733C1.81612 52.7759 1.05243 52.9168 0.999949 52.9032C0.698668 52.8161 0.314369 52.4448 0.314545 52.409C0.168688 50.6603 1.49976 49.1272 1.13718 47.4884C1.11004 47.3587 0.296071 47.4099 0.283574 47.3898C-0.0367672 46.9322 2.10248 47.3737 2.8371 47.1045C1.19093 47.0731 1.4965 46.9079 1.33135 46.5919C1.2505 46.4394 0.60997 46.4881 0.545475 46.4714C-0.410216 46.2009 0.846727 46.1102 1.1042 46.0848C2.05141 45.9903 0.949921 45.773 1.58337 45.7089C2.21209 45.6457 3.1234 45.922 3.1279 45.6307C2.5443 45.5152 0.99465 45.6463 0.758214 45.4086C-0.136853 44.5046 1.17186 43.0128 1.34256 42.3521C1.51275 41.6912 1.41903 41.4675 1.65762 41.0928C2.08884 40.4156 0.931789 40.5968 0.438741 40.1276C-0.0544817 39.6581 2.7365 40.0522 3.34358 40.0286C3.95031 40.0058 3.33426 39.898 3.67055 39.8423C4.00676 39.7867 4.40605 39.9797 4.54207 39.8065C4.67811 39.6327 3.63664 39.07 3.00978 38.9678C1.68192 38.7513 0.266528 38.8864 0.787558 38.444C0.818415 38.4185 1.55096 38.5507 1.63171 38.4508C2.24883 37.6552 2.32958 36.795 2.86641 35.9858C2.94136 35.8746 3.75873 36.0102 3.81164 35.9454C4.36425 35.2663 2.96911 35.4604 1.44255 35.0356C3.48795 35.1862 4.74942 35.0173 4.77503 34.4777C4.79061 34.1536 3.89427 34.1896 3.26748 33.9724C3.07855 33.9079 3.69666 33.6934 3.27622 33.6467C1.90178 33.495 0.36003 33.6844 0.978111 33.1633C1.00742 33.1402 1.76012 33.2199 1.8063 33.1394C2.10726 32.6165 0.668235 32.5591 0.488263 32.0122C0.347379 31.5898 1.20391 30.803 1.32122 30.3059C3.62403 30.21 3.07064 29.7343 1.47237 29.6534C1.51684 29.3331 1.40044 28.9969 1.59072 28.672C1.65543 28.5599 2.32607 28.5662 2.3966 28.5463C3.35407 28.2713 2.31778 28.2397 1.97926 28.2019C1.97357 28.1794 1.97582 28.1095 1.97214 28.0867C1.92038 28.0752 1.88533 28.0647 1.87703 28.0551C1.27424 27.282 2.43335 26.6266 1.2732 25.9025C1.23142 25.8768 -0.36968 25.8675 0.794532 25.6447C0.874795 25.6301 1.60809 25.8597 1.65695 25.5096C1.7059 25.1563 2.54894 24.4773 1.79567 24.0066C1.61436 23.8937 0.308181 23.6285 1.317 23.3634C1.45401 23.3281 1.9138 23.3514 2.168 23.2989C2.97792 23.1294 1.3586 23.0901 2.72802 22.881C4.09728 22.6687 5.11665 22.2761 4.15491 21.8085C4.1269 21.7934 2.84187 21.7124 2.85771 21.5576C2.88417 21.3121 3.1407 20.9505 3.12447 20.6938C3.11624 20.571 2.32281 20.6742 2.3076 20.6533C1.83592 19.8366 2.52611 19.2303 2.80153 18.327C2.85377 18.1656 1.75103 17.7328 2.59643 17.3883C3.52139 17.0024 7.44211 17.2041 6.47833 16.4375C6.09227 16.1235 1.12057 15.9368 3.66045 15.2456C2.97169 14.1525 4.23002 13.0486 3.25071 11.971C3.20726 11.9222 1.81582 11.8524 1.82698 11.7358C1.84594 11.5582 2.48468 11.4167 2.51861 11.2891C2.67646 10.7476 2.08876 10.3123 2.13248 9.79902C2.14764 9.60592 2.82015 9.61916 2.83709 9.38198C2.8534 9.1483 1.96251 9.07462 2.35636 8.72797C2.65618 8.46222 4.42339 8.04317 4.59524 7.68994C2.82897 7.87635 2.84186 7.65074 2.32905 7.3304C2.22951 7.26857 1.62634 7.42492 1.54767 7.4001C1.36635 7.34709 1.42893 7.26805 1.46575 7.19365C1.46343 7.18544 1.46307 7.1596 1.46118 7.15128C1.49493 7.08593 1.5107 7.02297 1.34809 6.9721C1.2625 6.94495 0.65766 6.98909 0.553541 6.9688C-0.35568 6.79276 0.981496 6.31008 1.21548 6.23592C2.10195 5.93569 1.3088 5.8628 1.65468 5.6539C2.00102 5.44898 2.4571 5.7103 2.66275 5.48212C3.08828 5.01269 2.97326 4.4404 2.9918 3.98049C2.99544 3.79722 2.18863 3.93827 2.17036 3.91243C1.95737 3.53284 2.81359 3.13776 1.19894 2.9427C5.36546 2.63537 0.791738 2.71587 1.62289 2.15882C1.69016 2.11491 3.66145 2.05061 3.95185 2.21249C4.24199 2.37353 3.62751 2.6267 4.08104 2.84832C4.18738 2.90204 6.03842 3.18344 6.15096 3.22125C7.02999 3.52677 4.08525 3.62095 3.92367 3.64176C2.18076 3.87057 4.17908 4.20706 4.31914 4.29723C4.96035 4.72402 4.55927 5.10962 5.02487 5.45387C5.32618 5.67828 7.25497 5.60265 7.20523 5.77945C7.08997 6.19241 5.72459 6.50854 5.77079 6.79893L5.75126 6.61806C5.77972 6.75874 6.05147 6.89416 6.75503 7.00671C7.26584 7.08795 9.34695 6.70975 7.75768 7.42076C7.65811 7.4698 6.18932 8.0036 7.16558 8.12571C7.28876 8.14157 7.90045 8.08017 7.95551 8.11241C8.31122 8.31711 7.83996 8.53722 8.09638 8.77048C8.35364 9.01367 8.7284 9.29535 8.54457 9.61349C8.43438 9.7994 7.30985 10.1159 7.03659 10.222C6.24846 10.5135 7.58792 10.6761 6.62223 10.8895C5.65148 11.102 4.14276 10.9257 3.53481 11.344C5.12924 11.2494 6.76704 11.1709 8.3712 11.086C8.37272 11.9439 7.9057 12.8034 8.02066 13.6406C8.03655 13.7456 8.88832 13.5923 8.92746 13.7042C9.08825 14.1676 8.49723 14.6105 8.76362 15.0907C8.97278 15.4556 9.89955 15.8337 10.1451 16.2202C8.32947 16.5405 8.97325 17.1005 8.82233 17.5275C8.77033 17.6783 8.28217 17.687 8.12703 17.7989C7.5534 18.2206 9.16029 17.9723 9.41833 18.0724C10.5193 18.501 6.8677 18.675 6.9766 19.2174C6.98114 19.2455 8.94063 19.5401 9.06343 19.5838C9.8644 19.8691 8.38725 19.6572 8.24965 19.8566C7.99816 20.2234 7.54064 20.4815 8.12367 20.8833C8.29635 21.0019 9.51889 21.2563 8.58657 21.5203C8.46449 21.555 7.82018 21.556 7.78319 21.5822C7.16753 22.0554 9.19063 22.0073 9.88285 22.249C10.5749 22.4914 9.1887 22.9289 8.7882 23.0195C7.75232 23.2583 8.33906 22.8682 8.23656 22.8596C7.01705 22.7568 7.23392 23.04 7.13673 23.2654C5.15385 23.3473 5.28062 23.6555 7.04395 23.4991C7.23654 23.4814 7.04724 23.3123 7.13673 23.2654C9.08797 23.413 9.34569 23.7491 7.5357 24.17C6.68731 24.366 5.68973 24.2264 6.06542 24.7492C6.235 24.9879 7.59889 24.8636 7.97605 25.0708C8.83659 25.5438 7.57551 26.2096 7.78601 26.709C7.86245 26.8915 8.60677 26.6979 8.68478 26.8223C8.89416 27.1553 8.33841 27.4536 8.63184 27.7853C8.65937 27.8153 9.44083 27.7269 9.45266 27.8313C9.45817 27.8728 9.46203 27.9141 9.46442 27.9552L9.43071 27.4098C9.55161 28.2708 9.15792 29.0609 9.18792 29.9382C9.20429 30.3784 9.66127 31.1654 9.58095 31.6188C9.44978 32.4198 8.30641 33.3551 8.57099 33.9993C8.74016 34.4237 9.52442 34.3483 10.0538 34.5438C11.0798 34.9284 9.20809 35.4916 8.9183 35.5608C8.90886 35.5628 8.73623 35.1977 8.32817 35.3758C7.48739 35.4583 8.91481 35.5563 8.9183 35.5608C8.73175 35.6101 8.52668 36.3153 8.66956 36.4616C8.74797 36.5417 9.49104 36.5311 9.5179 36.5725C10.1393 37.5595 10.2745 38.5225 9.87015 39.4466C9.85417 39.4623 9.02739 39.3863 9.00016 39.4238C8.59822 39.9453 9.58887 40.3556 10.161 40.8418C10.7328 41.3271 10.5077 41.665 9.06875 41.8297C9.22531 42.1743 8.56479 42.6063 8.16525 42.852C7.76571 43.0979 9.37502 43.2438 9.40528 43.2697C10.3758 44.0799 9.42515 44.443 9.23511 45.1911C9.14184 45.5464 9.33507 46.2684 9.4921 46.6578C9.61857 46.9672 9.23161 47.1297 9.46077 47.4155C9.49137 47.454 10.2116 47.4494 10.2388 47.462C11.0849 47.8027 9.33478 47.5801 9.01823 47.6296C7.86742 47.8106 7.25312 47.9352 7.77581 48.3489C7.8954 48.4458 10.4172 48.7899 10.5607 48.9514C10.7426 49.1633 9.83753 49.061 10.0518 49.2834C10.0694 49.3022 10.629 49.3123 10.6014 49.4432C10.4804 50.0531 10.1492 50.7094 10.2129 51.3199C10.2194 51.4023 11.106 51.2862 11.1302 51.4029C11.2431 51.9556 11.2304 52.5301 10.8462 53.0552C10.7488 53.1842 10.1236 53.1464 9.94098 53.1849C8.83679 53.428 10.4743 53.5578 10.5078 53.5872C11.3557 54.3924 9.98517 55.2269 10.8256 55.8517C10.8764 55.8971 12.6299 55.7676 11.2101 56.2345C11.1143 56.261 9.67124 56.7801 10.7085 56.6125C10.7728 56.5995 11.5109 56.3221 11.4667 56.4593C11.4256 56.6053 11.9712 56.5919 11.2055 57.0136C10.9606 57.1371 9.58822 57.8173 10.7677 57.4916C10.8625 57.4993 13.4164 56.4892 11.7199 57.3285C11.4411 57.4673 9.64112 58.3527 10.6254 58.0189C10.8128 57.9469 11.1901 57.7045 11.4612 57.6195C11.6187 57.5677 11.6535 57.5803 11.6814 57.5969C11.7902 57.7313 11.888 57.8886 12.446 57.7382C12.6072 57.6991 13.8567 57.1338 13.0587 57.8025C12.9344 57.9084 12.3465 58.231 12.3255 58.3372C12.2268 58.8491 12.7929 58.8824 12.5976 59.3923C12.5315 59.5744 11.6371 60.1857 11.4832 60.4605C11.3281 60.7343 11.275 61.1087 11.7216 60.8674C12.1612 60.6184 13.3914 59.4076 13.563 59.3921C14.1932 59.3028 13.6477 59.6736 13.0386 59.7351C13.1463 59.8148 13.2585 59.8876 13.376 59.95C13.5296 60.0315 13.6153 59.4049 13.8534 59.4813C14.7432 59.7693 16.4446 59.7263 16.8577 61.2155C17.1988 62.4139 16.1534 62.9354 16.533 63.4946C16.7236 63.7638 17.5419 61.9134 17.6142 61.8684C18.3464 61.4105 18.4999 62.3714 19.0771 62.2391C19.1953 62.2111 19.2953 61.3981 19.3925 61.3826C19.7249 61.3221 19.9511 61.7511 20.2526 61.7543C20.3878 61.7537 20.5059 61.1441 20.6108 61.2177C20.8656 61.3871 21.0506 61.6957 21.2042 62.3234C21.2188 62.3808 20.8848 63.0985 21.091 63.172C21.4216 63.288 21.7414 63.9378 22.245 63.4288C22.395 63.2753 22.6507 61.881 22.7213 62.8884C22.7358 63.0985 22.3795 64.7654 22.9186 63.3652C23.0153 63.1342 23.7918 61.251 23.8186 62.5473C23.8272 62.889 23.7861 64.2912 23.9547 64.0935C23.9775 64.0613 24.01 63.297 24.1301 63.2385C24.5509 63.0453 24.9406 63.1731 25.3386 62.9715C25.4447 62.9161 25.3726 62.1177 25.5239 62.0595C25.9326 61.8977 26.3805 62.1269 26.7128 62.3828C26.8364 62.4787 26.7326 63.129 26.7393 63.2003C26.8708 64.3597 26.9871 62.8006 27.0321 62.71C27.3202 62.1671 27.5289 62.8941 27.7439 62.6877C27.7992 62.6326 27.711 61.8929 27.7181 61.826C27.7767 61.1726 27.7914 62.5105 27.8727 62.6522C28.1078 63.0528 28.3028 62.9655 28.3696 62.8551C28.3893 62.8193 28.2418 62.1744 28.2143 61.994C28.2179 61.9662 28.2273 61.9476 28.2443 61.9413C29.0369 61.6319 29.9079 61.5382 30.8076 61.8358C30.9774 61.8934 31.0183 62.5633 31.081 62.7052C31.5171 63.6981 31.5389 62.2142 31.5832 62.0638C31.7859 61.3773 32.0369 61.9243 32.3082 61.754C33.6289 60.9132 35.4729 60.8988 36.8664 60.8176C38.6769 60.7089 40.18 60.9887 41.7449 60.4006C41.8441 60.3641 41.5126 59.5384 41.5943 59.4961C41.9917 59.3068 42.4003 59.192 42.8049 59.093C43.9783 58.7871 45.0626 58.6476 46.0557 58.3232C46.1844 58.2829 45.859 57.4868 46.0652 57.3939C46.4937 57.1966 47.0568 57.1648 47.5109 57.3788C47.732 57.4816 47.5448 58.2284 47.7631 58.3177C48.2747 58.5276 48.7692 58.5361 49.2182 58.3598C49.4125 58.2828 49.0314 57.4574 49.293 57.4237C51.0498 57.1821 52.6873 56.9554 54.3564 58.0056C54.4698 58.0779 54.6244 59.8144 54.8481 59.4731C54.8503 58.9897 54.8312 58.4217 54.8224 57.9053C57.1446 57.5535 59.4066 58.1302 61.6525 58.2065C61.7482 58.2096 61.5759 57.2884 61.7617 57.2896C62.8204 57.2958 63.8636 57.0358 64.9388 57.9495C65.0468 58.0389 64.9951 59.6618 65.3133 59.4155C65.3737 59.3706 65.8403 59.1531 65.963 58.8006C65.9795 58.7475 65.8915 57.9902 66.0443 57.9678C66.9445 57.8511 67.8715 58.0232 68.7507 58.4855C68.8941 58.5616 68.7418 59.3683 68.8439 59.4294C69.5746 59.8573 70.352 59.244 71.0394 59.9763C71.4976 60.4694 71.3282 61.8637 71.5734 63.2361C71.6079 63.4297 71.8955 63.4604 71.9107 64.2589C71.949 66.2669 71.8093 68.4655 71.8666 70.6058C71.8783 71.0668 72.2662 70.5703 72.0365 71.6843C72.0203 71.7588 71.7402 72.1286 71.6718 72.5065C71.624 72.7678 71.7101 73.5798 71.6127 73.9143C71.5154 74.2485 71.4086 73.5677 71.2486 73.9607C71.089 74.3585 71.1584 75.2824 70.8416 75.3917ZM6.37994 43.9598C5.58956 44.1602 8.42277 44.379 7.76176 44.0659C7.72645 44.0505 6.41875 43.9493 6.37994 43.9598ZM5.76383 12.9181C4.53184 13.3267 6.38398 13.452 7.33752 13.1635C8.2894 12.8662 6.13721 12.7937 5.76383 12.9181ZM4.6094 9.48584C3.65716 9.95757 7.67876 9.7014 6.83097 9.33295C6.78298 9.31154 4.66464 9.45814 4.6094 9.48584ZM70.44 63.627C70.4434 63.6647 70.6512 63.7015 70.6563 63.6641C70.7669 62.7616 70.3512 62.6888 70.44 63.627ZM3.29059 6.20332C2.75322 6.35564 3.40405 6.65353 4.07041 6.46197C4.60636 6.31215 3.9589 6.01984 3.29059 6.20332ZM3.53654 56.8616C3.49548 56.8731 3.48485 57.0233 3.71946 56.9753C4.47459 56.8211 4.22552 56.6709 3.53654 56.8616ZM3.13346 0.471004C2.98207 1.32408 -0.34464 1.8557 0.0292921 0.916455C0.0970485 0.746956 1.09111 1.28058 1.39091 1.06447C1.93709 0.67029 -0.152657 0.409118 0.967162 0.00737293C1.17212 -0.0652605 3.14947 0.422541 3.13809 0.472521C3.13655 0.472014 3.135 0.47151 3.13346 0.471004ZM2.9648 43.8843C2.92696 43.887 2.87835 44.0883 2.91523 44.0955C3.80843 44.2628 3.90677 43.8586 2.9648 43.8843ZM5.72706 65.4521C5.67027 65.5124 5.95124 65.96 6.02006 65.9232C7.28642 65.136 6.79093 64.3125 5.72706 65.4521ZM1.38223 30.2952C0.465516 30.1264 0.345093 29.8959 1.47128 29.6544C1.42449 29.8672 1.42763 30.0801 1.38223 30.2952Z" fill="#673098"/>
</svg>
