<svg width="99" height="67" viewBox="0 0 99 67" fill="none" xmlns="http://www.w3.org/2000/svg">
<path d="M0.0042901 58.6008C0.17409 57.8519 0.891281 57.1916 1.56869 56.7847C1.78003 56.6564 2.15031 57.0154 2.31534 56.9391C2.633 56.7969 2.58263 56.408 2.93907 56.2745C3.0599 56.2305 3.67289 56.7561 3.78401 56.7005C4.38787 56.3931 4.49955 55.8256 4.94538 55.4268C7.1364 53.4729 8.89212 51.2126 10.7007 49.0013C11.3109 48.2486 12.5449 47.6407 12.7839 46.6632C12.8114 46.5484 12.1827 46.2331 12.1451 46.1844C11.5745 45.4313 12.7095 46.282 12.9905 46.1872C14.101 45.812 14.6785 45.0141 14.8926 44.1668C14.9825 43.8043 13.6138 43.3681 14.4684 43.4759C14.5269 43.482 15.1057 43.958 15.2272 43.914C15.5015 43.813 15.6208 43.3745 15.7645 43.2571C16.0447 43.0327 16.0681 42.9816 16.2448 42.7175C16.4926 42.3588 17.0723 42.1331 17.1782 41.6507C17.2006 41.5439 16.4841 41.2507 16.4616 41.0437C16.4396 40.8363 16.7231 40.5093 16.9512 40.485C17.1797 40.4602 17.6531 40.8323 17.7826 40.8844C18.8732 41.3285 17.7769 40.0599 17.7765 39.9866C17.7947 38.6951 19.1271 38.3038 19.6838 37.4259C20.1059 36.7565 20.3453 35.8211 20.7846 35.2118C21.3143 34.4815 22.11 34.0063 22.5178 33.2412C22.562 33.1602 21.75 32.766 21.8025 32.6662C22.3967 31.5501 23.1222 30.6064 24.3021 29.8978C24.4195 29.8296 24.9951 30.3883 25.1518 30.3459C26.0819 30.0993 28.0604 29.9053 25.4152 27.6898C25.8054 27.3354 26.2674 26.8799 27.0864 26.8885C27.6149 26.8921 28.1807 27.5933 28.0662 27.0998C28.0438 26.9851 27.3558 26.6657 27.3696 26.5248C27.4287 25.932 27.9369 25.6008 27.8814 24.9777C27.8723 24.8444 27.2937 24.5003 27.2089 24.4087C26.5277 23.6585 28.1091 24.2037 28.2557 24.195C29.351 24.1271 29.3497 23.4991 29.7062 22.9955C29.7893 22.8788 28.9414 22.524 28.9941 22.3941C29.2934 21.7028 29.7579 21.1378 30.4967 20.7435C30.6598 20.6616 31.2232 21.2056 31.3341 21.1882C31.8163 21.1038 30.6296 20.2629 31.0771 20.1535C31.1688 20.131 31.6982 20.5251 31.7656 20.5543C32.8234 21.0127 31.5691 19.9905 31.5663 19.93C31.4897 19.1614 33.1344 19.7166 33.2545 19.0965C33.2698 19.0178 32.4802 18.7027 32.5653 18.5101C33.1091 17.2521 34.0606 16.2009 35.2913 15.4532C35.4837 15.3325 35.9458 15.7789 36.0184 15.808C37.1619 16.2471 35.8406 15.3062 35.819 15.223C35.6994 14.5649 37.1149 14.8105 35.576 13.6068C35.7787 13.4167 35.9504 13.2094 36.0928 13.0027C37.2803 11.0959 38.1738 8.72832 40.7807 8.1207C40.8165 8.11144 41.363 8.6927 41.431 8.67303C42.2587 8.44717 41.2596 7.70558 40.5704 6.25692C40.4068 5.88409 41.9547 6.93263 42.0669 7.012C42.4931 7.28887 43.2099 8.23983 43.3045 8.28222C44.0431 8.62095 41.3543 5.77075 41.7201 5.44345C41.7353 5.43867 42.1664 6.01969 42.2432 6.04739C42.4818 6.13683 42.3849 5.84142 42.6367 5.952C43.2185 6.2098 44.5025 7.6148 44.0952 6.51643C44.0434 6.37371 42.5765 4.70111 42.9691 4.52083C43.1271 4.44828 43.6775 3.97393 43.9244 3.97037C44.1706 3.96525 44.4903 4.62042 44.5206 4.63639C45.5054 5.08247 45.5812 5.51591 46.613 6.49624C47.6383 7.47589 45.6193 4.82729 45.4857 4.46481C45.3519 4.10363 46.1144 4.51635 46.3457 4.68458C46.5785 4.85173 46.7517 5.28742 46.9072 5.36494C47.9244 5.87057 46.1331 3.88584 45.9662 3.35499C45.5662 2.10108 47.2578 3.92565 47.7035 3.89455C47.8212 3.88789 47.419 3.48667 47.4567 3.39236C47.5498 3.16585 47.8242 3.26734 47.9855 3.18798C48.1121 3.11716 48.1953 2.9833 48.1949 2.6531C48.1743 2.52326 47.7461 1.01895 48.5655 1.8021C48.6777 1.91843 48.9047 2.49838 49.1301 2.52632C49.469 2.56652 49.933 2.48307 50.1106 2.18435C50.2437 1.9621 49.6201 1.12406 50.0025 1.3065C50.1686 1.39131 50.1868 2.02288 50.4686 2.14184C50.7462 2.25948 51.2368 2.06816 51.4289 1.99582C51.6184 1.92098 51.3096 1.2089 51.3108 1.15465C51.334 0.838215 51.6659 0.375819 51.7071 0.369327C53.6574 -0.142776 55.2988 1.17007 56.9395 0.875965C57.0722 0.85507 57.0587 0.0395761 57.0797 0.0280585C57.5705 -0.266666 57.0097 1.84548 57.2273 2.59336C57.3586 0.952361 57.5037 1.26598 57.8322 1.12473C57.9914 1.0557 57.9915 0.413422 58.0131 0.350357C58.3675 -0.580304 58.3593 0.681711 58.3592 0.939997C58.3678 1.89154 58.6868 0.815503 58.6898 1.45256C58.6879 2.08422 58.3297 2.96419 58.6072 2.99649C58.7823 2.42803 58.8111 0.872693 59.0762 0.663111C60.0996 -0.133602 61.4329 1.39411 62.032 1.68027C62.6495 1.96495 62.8833 1.91768 63.2003 2.22521C63.7674 2.78366 63.8301 1.6151 64.4002 1.23574C64.9737 0.859656 63.9658 3.49314 63.8536 4.09C63.7379 4.68574 63.9778 4.10855 63.9529 4.44781C63.9269 4.78668 63.6578 5.13462 63.7849 5.3032C63.9098 5.4706 64.6748 4.58296 64.9255 3.99984C65.4531 2.76286 65.6666 1.3563 65.9711 1.97128C65.988 2.00745 65.679 2.68457 65.7549 2.78732C66.3631 3.57968 67.1517 3.88394 67.7491 4.62662C67.8307 4.7298 67.4648 5.47278 67.5089 5.54149C67.9637 6.25956 68.1976 4.87221 69.0683 3.54773C68.2989 5.44926 68.0692 6.69811 68.5359 6.8803C68.8191 6.9918 69.0765 6.13301 69.4793 5.60854C69.6008 5.45045 69.5916 6.10181 69.7734 5.72017C70.3703 4.47366 70.7087 2.95634 70.9961 3.71649C71.0077 3.75189 70.6769 4.43262 70.7363 4.50324C71.1156 4.96232 71.6776 3.63582 72.2615 3.66786C72.7188 3.69276 73.1378 4.78745 73.5479 5.09283C72.7295 7.24691 73.3591 6.91853 74.0862 5.49353C74.1656 5.54296 74.2509 5.58079 74.3368 5.61691L74.0959 5.54565C74.3333 5.60958 74.5722 5.66443 74.7577 5.86901C74.8484 5.96749 74.6229 6.59964 74.6199 6.67301C74.5612 7.82142 75.0594 6.35222 75.1444 6.31067C76.0454 5.92635 76.3436 7.2182 77.374 6.32605C77.4099 6.29367 77.9068 4.77098 77.7692 5.94953C77.7574 6.03016 77.3147 6.65766 77.6332 6.81199C77.9601 6.96883 78.3117 7.98043 79.0072 7.43614C79.1727 7.30389 79.8963 6.18007 79.7824 7.21887C79.7657 7.35943 79.5764 7.7791 79.5321 8.03477C79.3889 8.84886 80.0271 7.35987 79.7072 8.70775C79.3882 10.0562 79.3146 11.1285 80.0927 10.4215C80.1158 10.4011 80.7037 9.2559 80.836 9.33292C81.0458 9.45622 81.2493 9.83417 81.4795 9.92716C81.5893 9.97097 81.8435 9.21267 81.8682 9.20771C82.7984 9.13474 83.0296 10.0319 83.6514 10.6935C83.7601 10.8136 84.6764 10.0658 84.5412 10.9675C84.3895 11.9533 82.2466 15.2358 83.3156 14.76C83.739 14.5685 86.5309 10.4479 85.7304 12.9536C86.9799 12.9427 87.1384 14.5805 88.5261 14.3797C88.5902 14.3725 89.4554 13.2818 89.5429 13.3596C89.6703 13.4766 89.4024 14.0729 89.4824 14.1745C89.8027 14.6099 90.4964 14.3992 90.8583 14.7379C90.9978 14.8662 90.5784 15.3911 90.7436 15.5439C90.9054 15.6939 91.5118 15.0383 91.5307 15.5603C91.5466 15.9593 90.732 17.579 90.866 17.92C91.5416 16.9176 91.8275 16.6645 92.1219 16.548L92.0955 16.5287C92.2368 16.4851 92.3738 16.4694 92.5603 16.429C92.6726 16.4038 93.0073 15.8786 93.0813 15.8426C93.3952 15.6888 93.1651 16.1651 93.4937 15.9912C93.5732 15.95 93.9728 15.4938 94.0618 15.4357C94.8424 14.9301 94.2247 16.2195 94.099 16.4293C93.6525 17.2508 94.2825 16.7661 94.1638 17.1518C94.0381 17.5317 93.5313 17.6475 93.5216 17.9469C93.4954 18.56 93.9277 18.8959 94.1972 19.2462C94.3084 19.3845 94.8383 18.7607 94.8683 18.7681C95.2646 18.9096 94.855 19.7532 96.2097 18.8547C93.2191 21.7705 96.6601 18.7578 96.3712 19.6995C96.3475 19.7752 94.892 21.1063 94.5679 21.1742C94.2466 21.2448 94.553 20.6567 94.0678 20.7852C93.9537 20.8152 92.3619 21.7988 92.2505 21.8411C91.3858 22.1785 93.5823 20.2146 93.6933 20.0957C94.8851 18.8044 93.1489 19.8438 92.9894 19.8717C92.2424 19.9793 92.3216 19.454 91.7798 19.5423C91.4285 19.5993 90.0576 20.9586 90.0101 20.8296C89.8725 20.4259 91.4667 18.2441 89.6256 19.7551C89.4407 19.9114 89.0615 20.3824 88.8004 20.669L89.1873 20.9512C88.9197 21.2822 88.7644 21.3741 89.0502 20.5229C89.0847 20.4203 89.6484 18.9733 88.9611 19.6696C88.8741 19.7572 88.5359 20.2706 88.4809 20.2961C88.1191 20.4575 88.2709 19.9711 87.9524 20.0427C87.6374 20.1166 87.2088 20.2543 87.1084 19.9406C87.0482 19.7528 87.4992 18.6805 87.5871 18.4036C87.8436 17.6077 86.9393 18.6012 87.3564 17.7069C87.7711 16.8053 88.8002 15.6908 88.8384 14.9618C87.9695 16.302 87.0642 17.6691 86.1852 19.0136C85.5843 18.5649 85.2312 17.7366 84.5584 17.4129C84.4748 17.3746 84.1111 18.1579 84.011 18.1364C83.591 18.043 83.597 17.3353 83.1081 17.334C82.7333 17.339 81.9777 17.9555 81.5839 17.9992C82.2947 16.3031 81.5576 16.6078 81.3272 16.299C81.244 16.1902 81.4773 15.7614 81.4716 15.5789C81.4432 14.9014 80.8456 16.4107 80.6498 16.5958C79.8232 17.3928 81.4342 14.1104 80.9594 13.9802C80.9324 13.9708 79.8246 15.6015 79.741 15.6966C79.1788 16.3073 79.9906 15.0645 79.9059 14.8664C79.7505 14.505 79.7472 13.993 79.2019 14.3787C79.0395 14.4926 78.3555 15.5212 78.5404 14.5815C78.564 14.4582 78.8221 13.8679 78.8173 13.8252C78.7035 13.0996 77.9391 14.9749 77.5056 15.5411C77.0754 16.1085 77.2808 14.6942 77.3532 14.2922C77.5484 13.2544 77.6319 13.9202 77.6758 13.8278C78.2065 12.7275 77.904 12.8377 77.7611 12.6772C78.4101 10.8015 78.1035 10.819 77.6093 12.5182C77.5552 12.7037 77.756 12.5788 77.7611 12.6772C76.9407 14.4509 76.6291 14.6047 76.9057 12.7788C77.0331 11.923 77.483 11.0226 76.9179 11.2224C76.663 11.3137 76.3307 12.6416 76.0474 12.9434C75.4092 13.6348 75.2559 12.2636 74.7732 12.3414C74.6021 12.3708 74.5553 13.1327 74.4331 13.1782C74.109 13.3016 74.0087 12.6962 73.6566 12.9048C73.6249 12.9248 73.4974 13.6998 73.4091 13.6882C73.0254 13.6474 72.7094 13.4244 72.3691 13.2098C72.2216 13.1527 71.7559 13.0634 71.6171 12.9874C71.3636 12.7887 71.0928 12.5887 70.7818 12.4663C70.4236 12.3259 69.6359 12.4917 69.2975 12.2724C68.7196 11.9002 68.3396 10.5441 67.7141 10.6097C67.3062 10.6489 67.1139 11.4125 66.7838 11.8601C66.1506 12.7301 66.2797 10.8085 66.3063 10.5136C66.3066 10.5036 66.6659 10.436 66.6427 10.0008C66.8317 9.17891 66.3105 10.5113 66.3063 10.5136C66.3248 10.3231 65.7948 9.94752 65.6284 10.0486C65.5382 10.1038 65.3299 10.8169 65.2878 10.8326C64.2922 11.1895 63.4771 11.1162 62.8163 10.5454C62.8073 10.5269 63.076 9.7414 63.0513 9.70759C62.7101 9.21449 62.126 10.0991 61.6005 10.5735C61.0748 11.0478 60.8624 10.7796 61.0223 9.34666C60.7055 9.44607 60.4776 8.73629 60.3426 8.30935C60.2069 7.88208 59.7962 9.44536 59.77 9.47178C58.9418 10.3255 58.8238 9.35302 58.247 9.09616C57.9751 8.97114 57.383 9.11088 57.0788 9.2491C56.8343 9.3594 56.7446 8.9673 56.5173 9.1862C56.4871 9.2155 56.4382 9.93362 56.4272 9.9603C56.1299 10.7948 56.4049 9.05566 56.3889 8.73842C56.3285 7.58583 56.2475 6.96705 55.9093 7.4843C55.8223 7.60212 55.5161 10.1219 55.4268 10.2677C55.2984 10.4519 55.365 9.54559 55.2255 9.76327C55.214 9.78117 55.2089 10.3408 55.1334 10.3158C54.7863 10.2067 54.4141 9.90467 54.1617 9.99787C54.1289 10.0082 54.2954 10.8813 54.2587 10.9096C54.0875 11.0426 54.0052 11.034 53.8247 10.6567C53.7777 10.5619 53.5711 9.97548 53.504 9.80343C53.0638 8.77517 53.6191 10.3023 53.6476 10.324C53.8303 10.7845 53.7304 10.3767 53.6275 10.2123C53.1245 10.4754 52.7131 10.7365 52.4723 11.2309C52.4348 11.3096 53.0228 13.0314 51.978 11.9443C51.9065 11.8734 50.8442 10.7567 51.3061 11.7104C51.3355 11.7697 51.8956 12.3349 51.6726 12.3968C51.4466 12.4612 51.4904 13.0778 50.7628 12.5423C50.5339 12.3733 49.4518 11.2799 49.9898 12.3966C50.0187 12.4806 51.4291 14.8596 50.1643 13.4465C49.9559 13.2142 48.7208 11.6342 49.1468 12.6112C49.2322 12.7987 49.5858 13.087 49.6591 13.3876C49.7799 13.8446 49.2288 13.6075 49.6485 14.4283C49.72 14.5759 50.5163 15.6882 49.7307 15.0084C49.6064 14.9031 49.1815 14.3847 49.0793 14.3772C48.5865 14.3445 48.664 14.8979 48.1096 14.8132C47.9119 14.7868 47.16 14.0066 46.8565 13.9088C46.553 13.8108 46.1577 13.8386 46.4451 14.2655C46.7381 14.6858 48.1477 15.6869 48.1437 15.9083C48.1548 16.8399 46.941 16.8342 46.4207 17.4866C46.3462 17.58 46.935 17.7851 46.8698 17.9361C46.8369 18.0138 46.8096 18.105 46.7836 18.2048C46.2358 19.6326 45.563 21.2813 44.1517 21.4203C42.8312 21.5612 42.6871 20.2734 42 20.5722C41.6831 20.6964 43.2142 22.0266 43.2287 22.122C43.4124 23.0322 42.4122 22.9468 42.3231 23.5874C42.3032 23.7223 43.0518 24.0606 43.027 24.1711C42.9484 24.5523 42.4547 24.6468 42.32 24.9751C42.2613 25.123 42.7982 25.4356 42.6846 25.5221C42.4195 25.7317 42.0414 25.8334 41.374 25.7912C41.314 25.786 40.7751 25.2002 40.6204 25.384C40.3803 25.6698 39.6202 25.7824 39.8778 26.4694C39.9554 26.6757 41.1386 27.4574 40.1642 27.157C39.9601 27.0951 38.5804 26.0942 39.625 27.1834C39.7941 27.3713 41.1533 28.9163 39.9359 28.4395C39.6154 28.3142 38.3502 27.7023 38.4444 27.9577C38.4615 27.9952 39.1463 28.3401 39.1348 28.493C39.0796 29.0295 38.7644 29.3612 38.6942 29.9028C38.6775 30.047 39.4426 30.3179 39.3965 30.5193C39.2792 31.061 38.7663 31.4771 38.2701 31.7844C38.0925 31.8868 37.6156 31.4234 37.5488 31.3957C36.466 30.9396 37.7014 31.9006 37.7385 32.01C37.9511 32.6796 37.1464 32.5715 37.0756 33.0345C37.0581 33.1556 37.7238 33.4964 37.7673 33.5511C38.1843 34.0977 37.1595 33.224 36.9564 33.2657C36.3835 33.3808 36.1775 33.806 36.0191 34.2234C35.9617 34.3775 36.7829 34.6969 36.723 34.8299C36.4149 35.5754 35.8477 36.2971 35.0273 36.6888C34.8694 36.765 34.3633 36.3248 34.219 36.2686C33.2113 35.8723 34.2518 36.9286 34.3271 37.066C34.6722 37.6916 34.1069 37.4843 34.0335 37.7997C33.7237 39.2844 32.4321 40.5731 31.4789 41.6158C30.2752 42.9215 29 43.7459 28.2131 45.2899C28.1618 45.3886 28.9674 45.768 28.9327 45.8592C28.4929 46.9485 27.5327 47.8192 27.1263 48.9403C27.0907 49.033 27.8738 49.3616 27.8404 49.5254C27.7768 49.8646 27.5191 50.1876 27.1161 50.3254C26.9208 50.3935 26.4287 49.8265 26.2445 49.9031C25.8167 50.0763 25.5351 50.4114 25.453 50.7938C25.4174 50.9611 26.2714 51.2123 26.1686 51.3943C25.4843 52.641 24.8234 53.972 23.1197 54.6039C23.0017 54.649 21.4788 53.8007 21.6474 54.1608C22.0485 54.4307 22.5308 54.7313 22.9649 55.011C22.07 56.967 20.4338 58.4531 19.2586 60.1701C19.2083 60.2441 20.0736 60.5991 19.9802 60.7449C19.4421 61.5863 19.1243 62.5848 17.8214 62.9487C17.6921 62.9874 16.3393 62.0896 16.3911 62.4725C16.4017 62.5406 16.3486 63.0382 16.5865 63.3234C16.6234 63.3649 17.3112 63.6925 17.2532 63.8284C16.9074 64.6073 16.2721 65.308 15.4509 65.7588C15.3154 65.8335 14.7039 65.2884 14.6014 65.338C13.8797 65.6932 14.0086 66.654 13.0348 66.8397C12.3803 66.963 11.2791 66.0919 9.98456 65.5771C9.80191 65.5045 9.62942 65.7267 8.94133 65.3213C7.21081 64.3023 5.40836 63.0359 3.55541 61.9633C3.1565 61.732 3.38232 62.3131 2.54981 61.5399C2.49448 61.4875 2.32225 61.0615 2.03528 60.8066C1.83709 60.6301 1.10108 60.2767 0.86596 60.0205C0.631098 59.7644 1.26585 60.0317 1.01338 59.6919C0.756662 59.3498 -0.0664062 58.9247 0.0042901 58.6008ZM59.697 6.40444C59.6399 5.59836 59.0217 8.37189 59.3879 7.7554C59.4063 7.72234 59.7001 6.44407 59.697 6.40444ZM86.358 15.9174C86.7496 14.6868 85.6122 16.1522 85.29 17.0893C84.9636 18.0229 86.2381 16.2898 86.358 15.9174ZM89.58 16.8822C89.8086 15.8517 87.5665 19.2 88.3365 18.7294C88.3806 18.7032 89.5668 16.9421 89.58 16.8822ZM10.2292 64.4327C10.1954 64.4158 10.0602 64.5653 10.0896 64.589C10.803 65.1516 11.0727 64.8522 10.2292 64.4327ZM92.6098 17.8746C92.9028 17.4003 92.2448 17.6538 91.8901 18.2468C91.5964 18.7151 92.236 18.4541 92.6098 17.8746ZM48.5434 4.99834C48.515 4.96678 48.3781 5.02132 48.5229 5.21187C48.9906 5.82492 49.0235 5.52854 48.5434 4.99834ZM96.2976 21.9176C95.8604 21.1917 98.0499 18.6363 98.3479 19.5482C98.4022 19.7133 97.3236 19.9897 97.2311 20.3395C97.0702 20.9854 98.7991 19.7866 98.2162 20.8171C98.1085 21.0046 96.3195 21.9671 96.2931 21.9196C96.2946 21.9189 96.2961 21.9183 96.2976 21.9176ZM60.2866 3.04017C60.2897 3.00229 60.105 2.92685 60.0928 2.9625C59.8075 3.82421 60.1693 3.97443 60.2866 3.04017ZM40.9772 9.06254C40.91 9.01568 40.5328 9.33967 40.5814 9.39864C41.5578 10.5259 42.2712 9.93315 40.9772 9.06254ZM73.5336 5.1531C74.0463 4.37584 74.3257 4.36577 74.0857 5.49211C73.9116 5.36308 73.709 5.27815 73.5336 5.1531Z" fill="#673098"/>
</svg>
