<svg width="25" height="44" viewBox="0 0 25 44" fill="none" xmlns="http://www.w3.org/2000/svg">
<path d="M24.1906 6.46955C24.3872 6.63434 24.0828 6.67262 23.6908 6.67387C23.5687 6.67541 23.1104 6.46533 23.0043 6.46019C22.7956 6.45475 23.004 6.59967 22.7603 6.58294C22.6773 6.57658 21.9444 6.26021 21.874 6.26094C21.491 6.27412 21.6339 6.47131 21.419 6.56415C20.3662 7.00286 19.8049 7.73917 19.1924 8.47087C18.9907 8.71358 18.192 8.84484 18.4035 9.23697C18.4288 9.28301 19.1049 9.46619 19.1581 9.48967C19.9715 9.8513 18.6302 9.40382 18.4301 9.41628C17.6409 9.46381 17.4863 9.75559 17.67 10.0881C17.7495 10.2321 19.1162 10.5141 18.3346 10.4049C18.2817 10.3978 17.5768 10.1596 17.4917 10.1679C17.3003 10.1864 17.3882 10.3591 17.3166 10.3943C17.1742 10.4635 17.1765 10.4826 17.14 10.5778C17.0841 10.7056 16.682 10.7661 16.8024 10.9573C16.8304 10.9982 17.5746 11.1681 17.6855 11.252C17.7962 11.3358 17.6974 11.4464 17.5121 11.4409C17.3268 11.4354 16.7559 11.2529 16.6216 11.223C15.4886 10.9701 16.9896 11.5609 17.0223 11.5909C17.5738 12.1266 16.6082 12.1847 16.5188 12.5181C16.4536 12.7685 16.6679 13.1291 16.5641 13.3533C16.4365 13.6236 15.9696 13.7691 15.9646 14.0628C15.9631 14.094 16.8381 14.2909 16.838 14.3293C16.8363 14.7398 16.6423 15.0919 15.9563 15.3241C15.8867 15.3473 15.1385 15.0984 15.0235 15.1098C14.3356 15.1845 12.7352 15.168 16.0158 16.1658C15.8447 16.2938 15.6615 16.4516 14.9561 16.4229C14.5019 16.405 13.6943 16.1033 14.0197 16.3074C14.0921 16.3532 14.828 16.5055 14.8816 16.56C15.1068 16.7889 14.8246 16.9089 15.1604 17.163C15.2304 17.215 15.8848 17.371 15.9999 17.4098C16.9316 17.7263 15.3272 17.4574 15.2058 17.4569C14.3 17.4559 14.5955 17.6991 14.5246 17.8946C14.508 17.9392 15.3981 18.1036 15.4136 18.1543C15.4822 18.4143 15.3477 18.6341 14.9021 18.7664C14.8009 18.7953 14.0653 18.5642 13.9786 18.5687C13.6057 18.5911 15.0114 18.9616 14.6816 18.9876C14.6139 18.9936 13.9771 18.8244 13.9058 18.811C12.7878 18.6012 14.3377 19.0382 14.3684 19.0623C14.7912 19.3766 13.1278 19.1058 13.3113 19.3576C13.335 19.3881 14.1577 19.5326 14.1746 19.6061C14.2938 20.0899 13.9594 20.5001 13.2093 20.7706C13.0937 20.8135 12.4959 20.6206 12.4198 20.6068C11.2302 20.3955 12.7916 20.815 12.8457 20.8508C13.231 21.124 11.8737 20.9734 13.719 21.5349C12.8971 22.1067 13.7808 23.077 11.9333 23.4158C11.9118 23.4205 11.1398 23.2256 11.1001 23.2358C10.6137 23.3568 11.8291 23.5916 13.2704 24.0755C13.6323 24.1969 11.826 23.9019 11.6931 23.8822C11.2038 23.8087 10.058 23.5071 9.9621 23.498C9.20744 23.4323 13.0291 24.2874 12.9994 24.4233C12.9921 24.4261 12.2934 24.2481 12.2209 24.2436C11.9934 24.2291 12.2646 24.328 12.0148 24.3077C11.9342 24.3011 11.8286 24.2877 11.7094 24.2706L11.7434 24.0818C11.0015 24.0444 9.73163 23.9119 10.6619 24.1452C10.8023 24.18 13.0072 24.4508 12.8865 24.5615C12.8365 24.6059 12.8451 24.8275 12.6939 24.8715C12.543 24.9144 11.8394 24.776 11.808 24.7763C10.8475 24.8162 10.4672 24.7004 9.06731 24.5952C7.67268 24.4902 10.9755 24.9144 11.3392 24.998C11.7019 25.0817 10.9116 25.0971 10.6386 25.0898C10.3655 25.0825 9.91975 24.9845 9.7639 24.9899C8.74492 25.0301 11.3911 25.2905 11.9068 25.4201C13.1278 25.7272 10.6666 25.4988 10.41 25.5891C10.3406 25.6137 10.9016 25.663 10.9496 25.7C11.1322 25.8459 10.3588 25.814 11.0399 26.0461C11.1509 26.0839 12.6062 26.3981 11.5172 26.3183C11.3602 26.3066 10.7547 26.1935 10.6111 26.2247C10.3958 26.2712 10.2432 26.3911 10.4355 26.5008C10.5778 26.5821 11.5916 26.6542 11.269 26.6862C11.125 26.7002 10.5463 26.5553 10.3248 26.5884C10.1034 26.6212 10.1068 26.7837 10.1182 26.849C10.1302 26.9133 10.8965 26.9878 10.9471 27.0001C11.2367 27.0719 11.5871 27.242 11.5847 27.2523C11.6027 27.7912 10.2495 28.0862 10.5976 28.659C10.6238 28.7039 11.4299 28.7975 11.4422 28.8056C11.7577 28.9933 9.64126 28.5651 8.91324 28.5523C10.5429 28.784 10.2399 28.7945 10.4037 28.9186C10.4839 28.9787 11.1179 29.0487 11.1818 29.0627C12.1282 29.2779 10.8847 29.1385 10.63 29.1123C9.69288 29.0162 10.7843 29.2336 10.1579 29.1695C9.53615 29.1057 8.63226 28.8951 8.63 28.9881C9.20843 29.1032 10.7408 29.2684 10.9767 29.3762C11.8688 29.7872 10.5966 30.1011 10.4387 30.292C10.2806 30.4854 10.3764 30.5728 10.1462 30.6618C9.72974 30.8219 10.8702 30.9269 11.3627 31.153C11.855 31.3803 9.09387 30.8493 8.49451 30.77C7.89554 30.69 8.50525 30.8135 8.17376 30.7828C7.84238 30.7518 7.44579 30.6325 7.31351 30.6677C7.1816 30.7017 8.21484 31.0359 8.83422 31.1622C10.1465 31.4293 11.5436 31.5938 11.0308 31.6645C11.0004 31.6683 10.2768 31.5153 10.1974 31.5362C9.59117 31.7058 9.5083 31.9746 8.96529 32.1512C8.88955 32.1749 8.08612 31.9971 8.03291 32.0091C7.47634 32.132 8.8547 32.3002 10.3473 32.6996C8.33623 32.3037 7.09066 32.1453 7.04882 32.3047C7.02284 32.4008 7.9061 32.547 8.51402 32.7282C8.69727 32.7829 8.07994 32.7401 8.4912 32.8308C9.83533 33.1285 11.3618 33.3472 10.7258 33.4086C10.6957 33.4108 9.96039 33.2455 9.91056 33.2632C9.5851 33.3754 10.994 33.6708 11.1285 33.8918C11.2342 34.0642 10.3207 34.1567 10.1473 34.2918C7.89022 33.8283 8.37637 34.0842 9.91864 34.4707C9.83288 34.5639 9.89611 34.6996 9.65926 34.7574C9.57845 34.7774 8.93098 34.6148 8.85953 34.6043C7.73931 34.4355 9.24089 34.8046 9.29508 34.8408C9.81618 35.2182 8.62815 35.1643 9.69024 35.6562C9.72857 35.6735 11.2855 36.0451 10.1316 35.8483C10.0522 35.8342 9.3606 35.5923 9.27982 35.6922C9.19843 35.7942 8.31504 35.8032 8.99884 36.1314C9.16366 36.2098 10.4028 36.6136 9.39776 36.4497C9.26134 36.4271 8.81821 36.3068 8.56651 36.2606C7.7646 36.1132 9.32889 36.5267 7.9811 36.2516C6.6332 35.977 5.60911 35.8303 6.49012 36.2128C6.51568 36.2241 7.74886 36.5775 7.71678 36.6208C7.66467 36.6891 7.37804 36.7298 7.36514 36.8113C7.35942 36.8505 8.13565 37.0295 8.14798 37.0399C8.51024 37.4147 7.77386 37.4174 7.40044 37.6068C7.36224 37.6255 7.64391 37.7652 7.76849 37.8667L7.77778 37.8303C7.8866 37.9068 7.88657 37.9593 7.49606 37.9207C6.55427 37.8327 2.75401 36.9047 3.6057 37.3885C3.94486 37.5917 8.79165 38.6469 6.23312 38.353C6.79361 38.8245 5.4453 38.9087 6.27347 39.418C6.31024 39.4402 7.65954 39.753 7.63359 39.7876C7.59246 39.8385 6.95158 39.7446 6.90197 39.7755C6.67813 39.9013 7.18828 40.1651 7.06809 40.3102C7.02411 40.364 6.37601 40.1973 6.3236 40.2599C6.27177 40.3221 7.1193 40.567 6.68171 40.5693C6.34887 40.5677 4.58136 40.2178 4.35701 40.2508C6.08015 40.6799 6.02819 40.7383 6.45298 40.9692C6.53528 41.0144 7.14023 41.1436 7.21 41.1731C7.507 41.2973 6.99995 41.2119 7.32449 41.3414C7.40237 41.3727 7.98882 41.5272 8.0855 41.5618C8.92962 41.864 7.57741 41.6392 7.34359 41.5937C6.45238 41.4335 7.20315 41.6779 6.84405 41.6435C6.48596 41.6054 6.08191 41.4013 5.85598 41.4091C5.3886 41.4254 5.43286 41.6253 5.36523 41.7552C5.34198 41.8076 6.12898 42.0011 6.14368 42.0139C6.30515 42.1913 5.44669 42.0545 6.96819 42.5929C2.95805 41.4485 7.33298 42.7831 6.48272 42.7056C6.414 42.6991 4.52835 42.123 4.26713 41.9886C4.00609 41.8546 4.61656 41.967 4.20636 41.7658C4.11049 41.7175 2.36998 41.0911 2.26586 41.0487C1.4549 40.7089 4.28111 41.5414 4.43774 41.5826C6.12897 42.0229 4.25348 41.346 4.12956 41.2796C3.56253 40.9734 3.99186 40.9786 3.58807 40.752C3.32742 40.6042 1.46851 40.0851 1.53879 40.0521C1.76958 39.9475 4.39384 40.5543 2.17276 39.8168C1.69855 39.6609 -0.355409 39.1802 1.28169 39.4699C1.38429 39.4908 2.88087 39.7588 1.9595 39.4845C1.84326 39.4502 1.24515 39.3082 1.19676 39.2884C0.884004 39.1595 1.36942 39.2345 1.15379 39.1253C0.938568 39.0141 0.611503 38.8741 0.829305 38.8534C0.959275 38.8424 2.09081 39.0277 2.36975 39.0637C3.17289 39.1697 1.8883 38.8405 2.85435 38.9982C3.82617 39.1521 5.27368 39.5278 5.91894 39.54C4.35306 39.2254 2.74661 38.8985 1.17179 38.5823C1.26641 38.3935 1.81373 38.2706 1.78996 38.0028C1.78544 37.9694 0.934425 37.8504 0.907848 37.8104C0.799624 37.6411 1.42631 37.6136 1.21863 37.3964C1.05468 37.2276 0.19167 36.8993 1.04904e-05 36.6899C1.81111 36.9525 1.25077 36.5981 1.4536 36.4565C1.47647 36.4405 1.54266 36.4415 1.62714 36.4499C1.66647 36.3975 1.66575 36.1828 1.70805 36.1327C1.87871 36.1675 2.12654 36.233 2.23499 36.2436C2.83158 36.2988 1.26362 35.908 1.027 35.8108C0.0159559 35.3991 3.53977 36.3721 3.49509 36.194C3.49421 36.1839 1.6404 35.5754 1.5264 35.532C0.78462 35.2438 2.18482 35.6954 2.33793 35.6805C2.61745 35.6541 3.08569 35.7041 2.56336 35.4456C2.40874 35.3687 1.25272 34.9882 2.17878 35.1589C2.30008 35.1811 2.9228 35.3456 2.96109 35.3481C3.60237 35.3782 1.6417 34.8762 0.993813 34.6423C0.345881 34.4091 1.72768 34.6409 2.12441 34.7136C3.1503 34.9037 2.54563 34.8648 2.64409 34.8923C3.81564 35.2221 3.63256 35.0901 3.74776 35.0517C5.67745 35.5144 5.58405 35.3944 3.85933 35.0102C3.67095 34.9683 3.8389 35.0607 3.74776 35.0517C1.87016 34.5337 1.64851 34.39 3.4435 34.7061C4.28486 34.8537 5.24109 35.1307 4.92374 34.8917C4.78046 34.7836 3.44373 34.4994 3.09498 34.3547C2.29901 34.0255 3.5815 34.1338 3.41817 33.9432C3.35851 33.8756 2.61726 33.7635 2.55122 33.7122C2.37349 33.5762 2.93973 33.6139 2.67937 33.458C2.65483 33.4437 1.88517 33.2988 1.88169 33.2677C1.83956 33.032 2.37065 32.9432 2.43215 32.7118C2.46144 32.6005 2.07846 32.3142 2.18656 32.2143C2.36919 32.0422 3.53609 32.0018 3.2979 31.7712C3.14577 31.6218 2.37095 31.5049 1.85549 31.3585C0.855803 31.0776 2.70844 31.245 2.99509 31.2719C3.00457 31.2728 3.1678 31.4066 3.57305 31.4251C4.40278 31.5438 2.99847 31.2735 2.99509 31.2719C3.18016 31.2902 3.39109 31.1225 3.25089 31.0557C3.17424 31.0196 2.44172 30.9013 2.41554 30.885C1.80945 30.5021 1.66933 30.2071 2.05733 29.9941C2.07292 29.9918 2.88988 30.1378 2.91634 30.1306C3.30743 30.0312 2.3228 29.7639 1.74982 29.5349C1.17717 29.3054 1.39267 29.2379 2.81147 29.3893C2.65046 29.2622 3.29569 29.2174 3.68609 29.1964C4.07665 29.1744 2.48325 28.9082 2.45285 28.896C1.47924 28.5102 2.41274 28.5262 2.5916 28.3122C2.67963 28.2094 2.48172 27.9545 2.32565 27.8056C2.19958 27.688 2.5828 27.6858 2.35662 27.5622C2.32644 27.5455 1.61338 27.4504 1.58654 27.4427C0.750256 27.2169 2.48203 27.5252 2.79564 27.5515C3.93611 27.6471 4.54467 27.6902 4.0325 27.4821C3.91535 27.4334 1.42353 26.9772 1.2848 26.9031C1.1091 26.807 2.00305 26.9655 1.79625 26.8609C1.77937 26.8521 1.22529 26.7719 1.25628 26.7308C1.3932 26.5366 1.74801 26.3604 1.72407 26.1327C1.72291 26.102 0.838418 26.0139 0.822257 25.9676C0.746531 25.7545 0.810706 25.5368 1.24985 25.3996C1.36069 25.3663 1.97213 25.4832 2.15641 25.4985C3.27161 25.5901 1.6773 25.2721 1.64877 25.2528C0.927139 24.7825 2.42038 24.7076 1.77806 24.2444C1.74016 24.2186 0.0374007 23.8283 1.52545 23.9603C1.62444 23.9692 3.14674 24.1052 2.12051 23.9049C2.05631 23.8924 1.27175 23.8288 1.36116 23.7658C1.45041 23.7026 0.946464 23.5129 1.81617 23.5256C2.09012 23.5298 3.61002 23.6549 2.41991 23.396C2.33679 23.3782 -0.363851 22.8644 1.5204 23.063C1.83055 23.0958 3.81575 23.3715 2.81285 23.1187C2.61837 23.07 2.16988 23.051 1.90104 22.9554C1.65482 22.8682 1.74832 22.8158 1.68233 22.7393C1.75975 22.6144 1.72355 22.1365 1.81201 22.0192C1.77221 21.9615 1.65928 21.886 1.31641 21.7596C1.16677 21.7049 -0.140316 21.3182 0.881654 21.4807C1.0417 21.5062 1.68946 21.6751 1.77055 21.6564C2.15915 21.5682 1.76311 21.2926 2.25326 21.2269C2.42558 21.2034 3.47271 21.4764 3.76951 21.4792C4.0661 21.4825 4.36692 21.4185 3.90052 21.2413C3.43391 21.0641 1.7375 20.7483 1.62602 20.618C1.14214 20.0511 2.22546 19.8584 2.4706 19.4619C2.50703 19.4035 1.89414 19.315 1.90476 19.2187C1.9402 18.8672 1.52116 18.1282 2.86698 18.137C3.94492 18.1438 4.65075 18.6285 5.10955 18.5471C5.32868 18.5073 3.40302 17.9426 3.34681 17.9064C2.77404 17.5468 3.67216 17.6098 3.45254 17.3593C3.40693 17.3074 2.60823 17.1541 2.57816 17.112C2.46849 16.9663 2.84921 16.9351 2.81143 16.8098C2.79257 16.7536 2.18755 16.6158 2.24502 16.5822C2.37556 16.5003 2.65205 16.4674 3.24229 16.5019C3.29606 16.5051 4.03021 16.7521 4.0773 16.6805C4.15144 16.5638 4.74685 16.5445 4.20738 16.2577C4.04512 16.1713 2.66879 15.8299 3.64284 15.9702C3.8463 15.9995 5.49315 16.4329 4.09184 15.9708C3.85895 15.894 1.97832 15.2327 3.24215 15.4509C3.57479 15.5082 4.94197 15.7841 4.74235 15.6795C4.7102 15.664 3.96402 15.5084 3.90264 15.4474C3.69903 15.2362 3.81799 15.0952 3.62626 14.8789C3.57358 14.8208 2.79328 14.6921 2.73922 14.6116C2.58944 14.3897 2.83824 14.2236 3.11963 14.1172C3.22483 14.0783 3.84702 14.281 3.91704 14.2939C5.05542 14.5062 3.55457 14.0787 3.47253 14.0322C2.98304 13.7467 3.72241 13.8124 3.56973 13.6265C3.52952 13.5756 2.80196 13.4187 2.73963 13.3947C2.13193 13.1555 3.41112 13.5447 3.56648 13.5314C4.00612 13.4949 3.98703 13.3286 3.93213 13.1606C3.91074 13.0993 3.06039 12.9432 3.05087 12.8905C2.97903 12.5736 3.13211 12.312 3.66335 12.1595C3.76487 12.1313 4.39896 12.3314 4.5485 12.3591C5.59432 12.5542 4.22196 12.0811 4.0951 12.0213C3.51551 11.7495 4.09495 11.8552 4.01479 11.7291C3.61406 11.1074 4.14948 10.6102 4.50601 10.2138C4.96538 9.70165 5.70138 9.40878 5.70288 8.79531C5.70371 8.75683 4.84293 8.55446 4.83275 8.51811C4.74071 8.05791 5.1854 7.75612 5.0588 7.27477C5.0499 7.23579 4.23126 7.0519 4.18998 6.98132C4.09969 6.83488 4.18405 6.7076 4.47297 6.67214C4.61235 6.65449 5.28123 6.92779 5.40736 6.90615C5.70313 6.85448 5.80117 6.73228 5.71086 6.56398C5.67075 6.49161 4.8244 6.33319 4.83637 6.25775C4.89993 5.74285 4.90958 5.19965 6.12525 5.02293C6.20868 5.011 7.88066 5.49683 7.584 5.32644C7.12435 5.17749 6.58154 5.00914 6.08917 4.85342C6.05116 4.03877 6.86134 3.4909 7.20662 2.76714C7.22095 2.73673 6.32921 2.49378 6.35268 2.43288C6.48936 2.07517 6.37676 1.62414 7.37768 1.55517C7.47587 1.54769 8.99171 2.12714 8.80225 1.9311C8.76746 1.89569 8.62667 1.65269 8.31314 1.48574C8.26564 1.46108 7.5445 1.22699 7.54452 1.164C7.55617 0.805196 7.85631 0.509342 8.42739 0.336578C8.52031 0.31071 9.24262 0.675115 9.31494 0.660223C9.8224 0.551736 9.39672 -0.0104852 10.1983 0.000107765C10.7359 0.0132775 11.9674 0.6722 13.2492 1.17234C13.4298 1.24313 13.507 1.15439 14.2255 1.50318C16.0313 2.38124 17.9896 3.38143 19.9176 4.31085C20.333 4.51057 19.9105 4.24518 20.8949 4.76739C20.9609 4.80212 21.278 4.99502 21.615 5.16632C21.8482 5.28429 22.583 5.63013 22.881 5.78231C23.1793 5.93291 22.5602 5.64966 22.9081 5.83343C23.261 6.01792 24.103 6.39808 24.1906 6.46955ZM5.43286 29.0882C6.21145 29.131 3.40612 28.6796 4.06473 28.8676C4.09988 28.8773 5.39463 29.0864 5.43286 29.0882ZM3.92377 38.6446C5.17505 38.7683 3.37385 38.3724 2.40868 38.2709C1.44488 38.1675 3.54469 38.6056 3.92377 38.6446ZM4.6259 39.8014C5.61577 39.9014 1.68125 39.0327 2.45435 39.3094C2.49802 39.3251 4.5685 39.7952 4.6259 39.8014ZM13.422 1.73099C13.457 1.74494 13.5218 1.69021 13.4884 1.67332C12.683 1.26379 12.5506 1.38129 13.422 1.73099ZM5.34949 41.0248C5.88554 41.1306 5.30553 40.8636 4.63865 40.734C4.10272 40.628 4.68343 40.8906 5.34949 41.0248ZM9.03547 25.4035C9.07759 25.408 9.12168 25.3673 8.88444 25.3356C8.12031 25.2338 8.32708 25.3272 9.03547 25.4035ZM4.87784 42.7502C5.10196 42.5527 8.32769 43.3916 7.87315 43.5781C7.79135 43.6101 6.90069 43.1358 6.59318 43.1115C6.03433 43.0629 7.99465 43.7918 6.88866 43.5696C6.68708 43.5265 4.8586 42.7576 4.87358 42.7483C4.875 42.7489 4.87642 42.7495 4.87784 42.7502ZM8.81142 29.5733C8.84878 29.5776 8.89394 29.5196 8.85738 29.5123C7.97154 29.3385 7.88018 29.4544 8.81142 29.5733ZM11.2146 23.0744C11.2935 23.0888 11.4003 22.9588 11.3295 22.9375C9.91 22.5286 9.68942 22.7918 11.2146 23.0744ZM10.0866 34.2821C10.961 34.5355 11.0474 34.6458 9.91984 34.4707C9.99374 34.4123 10.0172 34.3427 10.0866 34.2821Z" fill="#673098"/>
</svg>
